<svg xmlns="http://www.w3.org/2000/svg" xmlns:rdkit="http://www.rdkit.org/xml" xmlns:xlink="http://www.w3.org/1999/xlink" version="1.1" baseProfile="full" xml:space="preserve" width="675px" height="225px" viewBox="0 0 675 225">
<!-- END OF HEADER -->
<rect style="opacity:1.0;fill:#FFFFFF;stroke:none" width="675.0" height="225.0" x="0.0" y="0.0"> </rect>
<path class="bond-0 atom-0 atom-1" d="M 49.4,76.9 L 42.7,91.6" style="fill:none;fill-rule:evenodd;stroke:#000000;stroke-width:0.6px;stroke-linecap:butt;stroke-linejoin:miter;stroke-opacity:1"/>
<path class="bond-1 atom-1 atom-2" d="M 42.7,91.6 L 30.9,94.1" style="fill:none;fill-rule:evenodd;stroke:#000000;stroke-width:0.6px;stroke-linecap:butt;stroke-linejoin:miter;stroke-opacity:1"/>
<path class="bond-1 atom-1 atom-2" d="M 41.3,94.9 L 31.5,96.9" style="fill:none;fill-rule:evenodd;stroke:#000000;stroke-width:0.6px;stroke-linecap:butt;stroke-linejoin:miter;stroke-opacity:1"/>
<path class="bond-2 atom-2 atom-3" d="M 26.4,99.7 L 25.7,106.1" style="fill:none;fill-rule:evenodd;stroke:#000000;stroke-width:0.6px;stroke-linecap:butt;stroke-linejoin:miter;stroke-opacity:1"/>
<path class="bond-3 atom-3 atom-4" d="M 29.2,112.8 L 39.8,117.6" style="fill:none;fill-rule:evenodd;stroke:#000000;stroke-width:0.6px;stroke-linecap:butt;stroke-linejoin:miter;stroke-opacity:1"/>
<path class="bond-4 atom-4 atom-5" d="M 39.8,117.6 L 43.1,133.4" style="fill:none;fill-rule:evenodd;stroke:#000000;stroke-width:0.6px;stroke-linecap:butt;stroke-linejoin:miter;stroke-opacity:1"/>
<path class="bond-5 atom-4 atom-6" d="M 39.8,117.6 L 50.7,105.7" style="fill:none;fill-rule:evenodd;stroke:#000000;stroke-width:0.6px;stroke-linecap:butt;stroke-linejoin:miter;stroke-opacity:1"/>
<path class="bond-5 atom-4 atom-6" d="M 39.1,114.1 L 47.1,105.3" style="fill:none;fill-rule:evenodd;stroke:#000000;stroke-width:0.6px;stroke-linecap:butt;stroke-linejoin:miter;stroke-opacity:1"/>
<path class="bond-6 atom-6 atom-7" d="M 50.7,105.7 L 66.7,107.5" style="fill:none;fill-rule:evenodd;stroke:#000000;stroke-width:0.6px;stroke-linecap:butt;stroke-linejoin:miter;stroke-opacity:1"/>
<path class="bond-7 atom-7 atom-8" d="M 66.7,107.5 L 73.2,122.3" style="fill:none;fill-rule:evenodd;stroke:#000000;stroke-width:0.6px;stroke-linecap:butt;stroke-linejoin:miter;stroke-opacity:1"/>
<path class="bond-8 atom-8 atom-9" d="M 73.2,122.3 L 89.2,124.1" style="fill:none;fill-rule:evenodd;stroke:#000000;stroke-width:0.6px;stroke-linecap:butt;stroke-linejoin:miter;stroke-opacity:1"/>
<path class="bond-9 atom-9 atom-10" d="M 89.2,124.1 L 95.7,138.8" style="fill:none;fill-rule:evenodd;stroke:#000000;stroke-width:0.6px;stroke-linecap:butt;stroke-linejoin:miter;stroke-opacity:1"/>
<path class="bond-10 atom-10 atom-11" d="M 95.7,138.8 L 111.7,140.6" style="fill:none;fill-rule:evenodd;stroke:#000000;stroke-width:0.6px;stroke-linecap:butt;stroke-linejoin:miter;stroke-opacity:1"/>
<path class="bond-11 atom-11 atom-12" d="M 111.7,140.6 L 117.8,132.4" style="fill:none;fill-rule:evenodd;stroke:#000000;stroke-width:0.6px;stroke-linecap:butt;stroke-linejoin:miter;stroke-opacity:1"/>
<path class="bond-12 atom-12 atom-13" d="M 125.3,128.1 L 133.5,129.0" style="fill:none;fill-rule:evenodd;stroke:#000000;stroke-width:0.6px;stroke-linecap:butt;stroke-linejoin:miter;stroke-opacity:1"/>
<path class="bond-13 atom-13 atom-14" d="M 139.3,124.8 L 140.0,118.5" style="fill:none;fill-rule:evenodd;stroke:#000000;stroke-width:0.6px;stroke-linecap:butt;stroke-linejoin:miter;stroke-opacity:1"/>
<path class="bond-13 atom-13 atom-14" d="M 136.5,124.4 L 137.2,118.2" style="fill:none;fill-rule:evenodd;stroke:#000000;stroke-width:0.6px;stroke-linecap:butt;stroke-linejoin:miter;stroke-opacity:1"/>
<path class="bond-14 atom-13 atom-15" d="M 135.4,134.2 L 134.7,140.5" style="fill:none;fill-rule:evenodd;stroke:#000000;stroke-width:0.6px;stroke-linecap:butt;stroke-linejoin:miter;stroke-opacity:1"/>
<path class="bond-14 atom-13 atom-15" d="M 138.3,134.5 L 137.6,140.8" style="fill:none;fill-rule:evenodd;stroke:#000000;stroke-width:0.6px;stroke-linecap:butt;stroke-linejoin:miter;stroke-opacity:1"/>
<path class="bond-15 atom-13 atom-16" d="M 141.2,129.9 L 153.4,131.2" style="fill:none;fill-rule:evenodd;stroke:#000000;stroke-width:0.6px;stroke-linecap:butt;stroke-linejoin:miter;stroke-opacity:1"/>
<path class="bond-16 atom-16 atom-17" d="M 153.4,131.2 L 163.0,118.2" style="fill:none;fill-rule:evenodd;stroke:#000000;stroke-width:0.6px;stroke-linecap:butt;stroke-linejoin:miter;stroke-opacity:1"/>
<path class="bond-17 atom-17 atom-18" d="M 163.0,118.2 L 170.1,125.8" style="fill:none;fill-rule:evenodd;stroke:#000000;stroke-width:0.6px;stroke-linecap:butt;stroke-linejoin:miter;stroke-opacity:1"/>
<path class="bond-18 atom-18 atom-19" d="M 172.7,134.7 L 171.0,140.6" style="fill:none;fill-rule:evenodd;stroke:#000000;stroke-width:0.6px;stroke-linecap:butt;stroke-linejoin:miter;stroke-opacity:1"/>
<path class="bond-19 atom-18 atom-20" d="M 178.1,129.0 L 189.8,126.1" style="fill:none;fill-rule:evenodd;stroke:#000000;stroke-width:0.6px;stroke-linecap:butt;stroke-linejoin:miter;stroke-opacity:1"/>
<path class="bond-20 atom-20 atom-21" d="M 189.8,126.1 L 196.8,133.5" style="fill:none;fill-rule:evenodd;stroke:#000000;stroke-width:0.6px;stroke-linecap:butt;stroke-linejoin:miter;stroke-opacity:1"/>
<path class="bond-20 atom-20 atom-21" d="M 188.8,129.4 L 194.7,135.5" style="fill:none;fill-rule:evenodd;stroke:#000000;stroke-width:0.6px;stroke-linecap:butt;stroke-linejoin:miter;stroke-opacity:1"/>
<path class="bond-21 atom-17 atom-22" d="M 163.0,118.2 L 148.5,111.1" style="fill:none;fill-rule:evenodd;stroke:#000000;stroke-width:0.6px;stroke-linecap:butt;stroke-linejoin:miter;stroke-opacity:1"/>
<path class="bond-22 atom-22 atom-23" d="M 148.5,111.1 L 147.5,95.0" style="fill:none;fill-rule:evenodd;stroke:#000000;stroke-width:0.6px;stroke-linecap:butt;stroke-linejoin:miter;stroke-opacity:1"/>
<path class="bond-23 atom-23 atom-24" d="M 147.5,95.0 L 157.0,88.7" style="fill:none;fill-rule:evenodd;stroke:#000000;stroke-width:0.6px;stroke-linecap:butt;stroke-linejoin:miter;stroke-opacity:1"/>
<path class="bond-24 atom-24 atom-25" d="M 160.6,81.2 L 160.2,74.9" style="fill:none;fill-rule:evenodd;stroke:#000000;stroke-width:0.6px;stroke-linecap:butt;stroke-linejoin:miter;stroke-opacity:1"/>
<path class="bond-25 atom-25 atom-26" d="M 159.6,65.1 L 158.9,53.8" style="fill:none;fill-rule:evenodd;stroke:#000000;stroke-width:0.6px;stroke-linecap:butt;stroke-linejoin:miter;stroke-opacity:1"/>
<path class="bond-26 atom-25 atom-27" d="M 163.8,71.1 L 172.0,70.6" style="fill:none;fill-rule:evenodd;stroke:#000000;stroke-width:0.6px;stroke-linecap:butt;stroke-linejoin:miter;stroke-opacity:1"/>
<path class="bond-26 atom-25 atom-27" d="M 163.7,68.2 L 171.8,67.7" style="fill:none;fill-rule:evenodd;stroke:#000000;stroke-width:0.6px;stroke-linecap:butt;stroke-linejoin:miter;stroke-opacity:1"/>
<path class="bond-27 atom-25 atom-28" d="M 156.0,68.7 L 147.8,69.2" style="fill:none;fill-rule:evenodd;stroke:#000000;stroke-width:0.6px;stroke-linecap:butt;stroke-linejoin:miter;stroke-opacity:1"/>
<path class="bond-27 atom-25 atom-28" d="M 156.2,71.6 L 148.0,72.1" style="fill:none;fill-rule:evenodd;stroke:#000000;stroke-width:0.6px;stroke-linecap:butt;stroke-linejoin:miter;stroke-opacity:1"/>
<path class="bond-28 atom-24 atom-29" d="M 164.9,88.0 L 175.4,93.2" style="fill:none;fill-rule:evenodd;stroke:#000000;stroke-width:0.6px;stroke-linecap:butt;stroke-linejoin:miter;stroke-opacity:1"/>
<path class="bond-29 atom-29 atom-30" d="M 175.4,93.2 L 176.4,109.3" style="fill:none;fill-rule:evenodd;stroke:#000000;stroke-width:0.6px;stroke-linecap:butt;stroke-linejoin:miter;stroke-opacity:1"/>
<path class="bond-30 atom-12 atom-31" d="M 119.2,122.8 L 114.9,112.9" style="fill:none;fill-rule:evenodd;stroke:#000000;stroke-width:0.6px;stroke-linecap:butt;stroke-linejoin:miter;stroke-opacity:1"/>
<path class="bond-31 atom-31 atom-32" d="M 114.9,112.9 L 98.8,111.1" style="fill:none;fill-rule:evenodd;stroke:#000000;stroke-width:0.6px;stroke-linecap:butt;stroke-linejoin:miter;stroke-opacity:1"/>
<path class="bond-32 atom-6 atom-1" d="M 50.7,105.7 L 42.7,91.6" style="fill:none;fill-rule:evenodd;stroke:#000000;stroke-width:0.6px;stroke-linecap:butt;stroke-linejoin:miter;stroke-opacity:1"/>
<path class="bond-33 atom-32 atom-9" d="M 98.8,111.1 L 89.2,124.1" style="fill:none;fill-rule:evenodd;stroke:#000000;stroke-width:0.6px;stroke-linecap:butt;stroke-linejoin:miter;stroke-opacity:1"/>
<path class="bond-34 atom-30 atom-17" d="M 176.4,109.3 L 163.0,118.2" style="fill:none;fill-rule:evenodd;stroke:#000000;stroke-width:0.6px;stroke-linecap:butt;stroke-linejoin:miter;stroke-opacity:1"/>
<path d="M 65.9,107.4 L 66.7,107.5 L 67.1,108.2" style="fill:none;stroke:#000000;stroke-width:0.6px;stroke-linecap:butt;stroke-linejoin:miter;stroke-opacity:1;"/>
<path d="M 72.9,121.5 L 73.2,122.3 L 74.0,122.3" style="fill:none;stroke:#000000;stroke-width:0.6px;stroke-linecap:butt;stroke-linejoin:miter;stroke-opacity:1;"/>
<path d="M 95.4,138.1 L 95.7,138.8 L 96.5,138.9" style="fill:none;stroke:#000000;stroke-width:0.6px;stroke-linecap:butt;stroke-linejoin:miter;stroke-opacity:1;"/>
<path d="M 110.9,140.5 L 111.7,140.6 L 112.1,140.2" style="fill:none;stroke:#000000;stroke-width:0.6px;stroke-linecap:butt;stroke-linejoin:miter;stroke-opacity:1;"/>
<path d="M 152.8,131.2 L 153.4,131.2 L 153.9,130.6" style="fill:none;stroke:#000000;stroke-width:0.6px;stroke-linecap:butt;stroke-linejoin:miter;stroke-opacity:1;"/>
<path d="M 189.2,126.3 L 189.8,126.1 L 190.1,126.5" style="fill:none;stroke:#000000;stroke-width:0.6px;stroke-linecap:butt;stroke-linejoin:miter;stroke-opacity:1;"/>
<path d="M 149.2,111.4 L 148.5,111.1 L 148.5,110.3" style="fill:none;stroke:#000000;stroke-width:0.6px;stroke-linecap:butt;stroke-linejoin:miter;stroke-opacity:1;"/>
<path d="M 147.6,95.8 L 147.5,95.0 L 148.0,94.7" style="fill:none;stroke:#000000;stroke-width:0.6px;stroke-linecap:butt;stroke-linejoin:miter;stroke-opacity:1;"/>
<path d="M 174.9,92.9 L 175.4,93.2 L 175.4,94.0" style="fill:none;stroke:#000000;stroke-width:0.6px;stroke-linecap:butt;stroke-linejoin:miter;stroke-opacity:1;"/>
<path d="M 176.4,108.5 L 176.4,109.3 L 175.7,109.8" style="fill:none;stroke:#000000;stroke-width:0.6px;stroke-linecap:butt;stroke-linejoin:miter;stroke-opacity:1;"/>
<path d="M 115.1,113.4 L 114.9,112.9 L 114.1,112.8" style="fill:none;stroke:#000000;stroke-width:0.6px;stroke-linecap:butt;stroke-linejoin:miter;stroke-opacity:1;"/>
<path d="M 99.6,111.2 L 98.8,111.1 L 98.3,111.7" style="fill:none;stroke:#000000;stroke-width:0.6px;stroke-linecap:butt;stroke-linejoin:miter;stroke-opacity:1;"/>
<path class="atom-2" d="M 29.7 98.4 L 28.7 98.4 L 25.1 93.0 L 25.1 98.4 L 24.2 98.4 L 24.2 91.3 L 25.1 91.3 L 28.7 96.8 L 28.7 91.3 L 29.7 91.3 L 29.7 98.4 " fill="#000000"/>
<path class="atom-3" d="M 28.0 111.2 Q 28.0 112.3, 27.6 113.0 Q 27.3 113.8, 26.6 114.2 Q 26.0 114.6, 25.1 114.6 Q 24.3 114.6, 23.6 114.2 Q 23.0 113.8, 22.6 113.0 Q 22.3 112.3, 22.3 111.3 L 22.3 110.8 Q 22.3 109.7, 22.6 108.9 Q 23.0 108.2, 23.6 107.7 Q 24.3 107.3, 25.1 107.3 Q 26.0 107.3, 26.6 107.7 Q 27.3 108.2, 27.6 108.9 Q 28.0 109.7, 28.0 110.8 L 28.0 111.2 M 27.1 110.7 Q 27.1 109.5, 26.5 108.8 Q 26.0 108.1, 25.1 108.1 Q 24.2 108.1, 23.7 108.8 Q 23.2 109.5, 23.2 110.7 L 23.2 111.2 Q 23.2 112.4, 23.7 113.1 Q 24.2 113.8, 25.1 113.8 Q 26.0 113.8, 26.5 113.2 Q 27.0 112.5, 27.1 111.3 L 27.1 110.7 " fill="#000000"/>
<path class="atom-12" d="M 124.1 131.2 L 123.1 131.2 L 119.5 125.7 L 119.5 131.2 L 118.6 131.2 L 118.6 124.1 L 119.5 124.1 L 123.1 129.6 L 123.1 124.1 L 124.1 124.1 L 124.1 131.2 " fill="#000000"/>
<path class="atom-13" d="M 137.3 129.9 Q 136.1 129.5, 135.6 129.0 Q 135.0 128.5, 135.0 127.8 Q 135.0 126.9, 135.7 126.4 Q 136.3 125.8, 137.4 125.8 Q 138.2 125.8, 138.7 126.1 Q 139.3 126.4, 139.6 126.9 Q 139.9 127.4, 139.9 128.0 L 139.0 128.0 Q 139.0 127.3, 138.6 127.0 Q 138.2 126.6, 137.4 126.6 Q 136.7 126.6, 136.3 126.9 Q 136.0 127.2, 136.0 127.8 Q 136.0 128.2, 136.3 128.5 Q 136.7 128.8, 137.6 129.0 Q 138.5 129.3, 139.0 129.6 Q 139.5 129.9, 139.7 130.3 Q 139.9 130.7, 139.9 131.2 Q 139.9 132.1, 139.3 132.6 Q 138.6 133.1, 137.5 133.1 Q 136.7 133.1, 136.1 132.9 Q 135.5 132.6, 135.1 132.1 Q 134.8 131.6, 134.8 131.0 L 135.7 131.0 Q 135.7 131.6, 136.2 132.0 Q 136.7 132.4, 137.5 132.4 Q 138.2 132.4, 138.6 132.1 Q 139.0 131.8, 139.0 131.2 Q 139.0 130.7, 138.6 130.4 Q 138.3 130.2, 137.3 129.9 " fill="#000000"/>
<path class="atom-14" d="M 142.0 113.7 Q 142.0 114.7, 141.7 115.5 Q 141.3 116.3, 140.7 116.7 Q 140.0 117.1, 139.2 117.1 Q 138.3 117.1, 137.7 116.7 Q 137.0 116.3, 136.7 115.5 Q 136.3 114.8, 136.3 113.7 L 136.3 113.2 Q 136.3 112.2, 136.7 111.4 Q 137.0 110.6, 137.7 110.2 Q 138.3 109.8, 139.2 109.8 Q 140.0 109.8, 140.7 110.2 Q 141.3 110.6, 141.7 111.4 Q 142.0 112.2, 142.0 113.2 L 142.0 113.7 M 141.1 113.2 Q 141.1 112.0, 140.6 111.3 Q 140.1 110.6, 139.2 110.6 Q 138.3 110.6, 137.8 111.3 Q 137.2 112.0, 137.2 113.2 L 137.2 113.7 Q 137.2 114.9, 137.7 115.6 Q 138.3 116.3, 139.2 116.3 Q 140.1 116.3, 140.6 115.6 Q 141.1 115.0, 141.1 113.7 L 141.1 113.2 " fill="#000000"/>
<path class="atom-15" d="M 138.4 145.8 Q 138.4 146.8, 138.1 147.6 Q 137.7 148.4, 137.1 148.8 Q 136.4 149.2, 135.6 149.2 Q 134.7 149.2, 134.1 148.8 Q 133.4 148.4, 133.1 147.6 Q 132.7 146.8, 132.7 145.8 L 132.7 145.3 Q 132.7 144.3, 133.1 143.5 Q 133.4 142.7, 134.1 142.3 Q 134.7 141.9, 135.6 141.9 Q 136.4 141.9, 137.1 142.3 Q 137.7 142.7, 138.1 143.5 Q 138.4 144.3, 138.4 145.3 L 138.4 145.8 M 137.5 145.3 Q 137.5 144.0, 137.0 143.4 Q 136.5 142.7, 135.6 142.7 Q 134.7 142.7, 134.2 143.4 Q 133.7 144.0, 133.6 145.2 L 133.6 145.8 Q 133.6 147.0, 134.2 147.7 Q 134.7 148.4, 135.6 148.4 Q 136.5 148.4, 137.0 147.7 Q 137.5 147.1, 137.5 145.8 L 137.5 145.3 " fill="#000000"/>
<path class="atom-18" d="M 176.8 133.5 L 175.9 133.5 L 172.3 128.0 L 172.3 133.5 L 171.4 133.5 L 171.4 126.4 L 172.3 126.4 L 175.9 131.9 L 175.9 126.4 L 176.8 126.4 L 176.8 133.5 " fill="#000000"/>
<path class="atom-19" d="M 172.4 145.7 Q 172.4 146.7, 172.1 147.5 Q 171.7 148.3, 171.1 148.7 Q 170.4 149.1, 169.6 149.1 Q 168.7 149.1, 168.1 148.7 Q 167.4 148.3, 167.1 147.5 Q 166.7 146.8, 166.7 145.8 L 166.7 145.2 Q 166.7 144.2, 167.1 143.4 Q 167.4 142.6, 168.1 142.2 Q 168.7 141.8, 169.6 141.8 Q 170.4 141.8, 171.1 142.2 Q 171.7 142.6, 172.1 143.4 Q 172.4 144.2, 172.4 145.2 L 172.4 145.7 M 171.5 145.2 Q 171.5 144.0, 171.0 143.3 Q 170.5 142.6, 169.6 142.6 Q 168.7 142.6, 168.1 143.3 Q 167.6 144.0, 167.6 145.2 L 167.6 145.7 Q 167.6 146.9, 168.1 147.6 Q 168.7 148.3, 169.6 148.3 Q 170.5 148.3, 171.0 147.7 Q 171.5 147.0, 171.5 145.8 L 171.5 145.2 " fill="#000000"/>
<path class="atom-19" d="M 179.0 149.0 L 178.1 149.0 L 178.1 145.7 L 174.5 145.7 L 174.5 149.0 L 173.6 149.0 L 173.6 141.9 L 174.5 141.9 L 174.5 145.0 L 178.1 145.0 L 178.1 141.9 L 179.0 141.9 L 179.0 149.0 " fill="#000000"/>
<path class="atom-21" d="M 202.7 139.1 Q 202.7 140.1, 202.4 140.9 Q 202.0 141.7, 201.4 142.1 Q 200.7 142.5, 199.9 142.5 Q 199.0 142.5, 198.4 142.1 Q 197.7 141.7, 197.4 140.9 Q 197.0 140.2, 197.0 139.2 L 197.0 138.6 Q 197.0 137.6, 197.4 136.8 Q 197.7 136.1, 198.4 135.6 Q 199.0 135.2, 199.9 135.2 Q 200.7 135.2, 201.4 135.6 Q 202.0 136.0, 202.4 136.8 Q 202.7 137.6, 202.7 138.6 L 202.7 139.1 M 201.8 138.6 Q 201.8 137.4, 201.3 136.7 Q 200.8 136.0, 199.9 136.0 Q 199.0 136.0, 198.5 136.7 Q 198.0 137.4, 197.9 138.6 L 197.9 139.1 Q 197.9 140.3, 198.5 141.0 Q 199.0 141.7, 199.9 141.7 Q 200.8 141.7, 201.3 141.1 Q 201.8 140.4, 201.8 139.2 L 201.8 138.6 " fill="#000000"/>
<path class="atom-24" d="M 163.7 89.6 L 162.7 89.6 L 159.2 84.1 L 159.2 89.6 L 158.2 89.6 L 158.2 82.5 L 159.2 82.5 L 162.7 88.0 L 162.7 82.5 L 163.7 82.5 L 163.7 89.6 " fill="#000000"/>
<path class="atom-25" d="M 159.9 70.4 Q 158.7 70.0, 158.1 69.5 Q 157.6 69.0, 157.6 68.3 Q 157.6 67.4, 158.2 66.9 Q 158.9 66.3, 160.0 66.3 Q 160.7 66.3, 161.3 66.6 Q 161.9 66.9, 162.2 67.4 Q 162.5 67.9, 162.5 68.5 L 161.6 68.5 Q 161.6 67.8, 161.1 67.5 Q 160.7 67.1, 160.0 67.1 Q 159.3 67.1, 158.9 67.4 Q 158.5 67.7, 158.5 68.2 Q 158.5 68.7, 158.9 69.0 Q 159.3 69.3, 160.1 69.5 Q 161.0 69.8, 161.5 70.1 Q 162.0 70.4, 162.3 70.8 Q 162.5 71.2, 162.5 71.7 Q 162.5 72.6, 161.8 73.1 Q 161.2 73.6, 160.0 73.6 Q 159.3 73.6, 158.7 73.3 Q 158.0 73.1, 157.7 72.6 Q 157.3 72.1, 157.3 71.5 L 158.3 71.5 Q 158.3 72.1, 158.8 72.5 Q 159.2 72.9, 160.0 72.9 Q 160.8 72.9, 161.2 72.6 Q 161.6 72.3, 161.6 71.7 Q 161.6 71.2, 161.2 70.9 Q 160.8 70.6, 159.9 70.4 " fill="#000000"/>
<path class="atom-27" d="M 178.9 69.2 Q 178.9 70.2, 178.5 71.0 Q 178.2 71.8, 177.5 72.2 Q 176.9 72.6, 176.0 72.6 Q 175.2 72.6, 174.5 72.2 Q 173.9 71.8, 173.5 71.0 Q 173.2 70.3, 173.2 69.3 L 173.2 68.7 Q 173.2 67.7, 173.5 66.9 Q 173.9 66.1, 174.5 65.7 Q 175.2 65.3, 176.0 65.3 Q 176.9 65.3, 177.5 65.7 Q 178.2 66.1, 178.5 66.9 Q 178.9 67.7, 178.9 68.7 L 178.9 69.2 M 178.0 68.7 Q 178.0 67.5, 177.5 66.8 Q 176.9 66.1, 176.0 66.1 Q 175.1 66.1, 174.6 66.8 Q 174.1 67.5, 174.1 68.7 L 174.1 69.2 Q 174.1 70.4, 174.6 71.1 Q 175.1 71.8, 176.0 71.8 Q 176.9 71.8, 177.4 71.2 Q 177.9 70.5, 178.0 69.3 L 178.0 68.7 " fill="#000000"/>
<path class="atom-28" d="M 146.7 71.2 Q 146.7 72.3, 146.3 73.0 Q 146.0 73.8, 145.3 74.2 Q 144.7 74.6, 143.8 74.6 Q 143.0 74.6, 142.3 74.2 Q 141.7 73.8, 141.3 73.1 Q 141.0 72.3, 141.0 71.3 L 141.0 70.8 Q 141.0 69.7, 141.3 69.0 Q 141.7 68.2, 142.3 67.8 Q 143.0 67.3, 143.8 67.3 Q 144.7 67.3, 145.3 67.8 Q 146.0 68.2, 146.3 69.0 Q 146.7 69.7, 146.7 70.8 L 146.7 71.2 M 145.7 70.8 Q 145.7 69.5, 145.2 68.8 Q 144.7 68.1, 143.8 68.1 Q 142.9 68.1, 142.4 68.8 Q 141.9 69.5, 141.9 70.7 L 141.9 71.2 Q 141.9 72.4, 142.4 73.1 Q 142.9 73.8, 143.8 73.8 Q 144.7 73.8, 145.2 73.2 Q 145.7 72.5, 145.7 71.3 L 145.7 70.8 " fill="#000000"/>
<path class="legend" d="M 102.8 213.5 L 103.4 207.8 L 109.2 207.8 L 109.2 209.2 L 104.6 209.2 L 104.3 212.3 Q 105.1 211.8, 106.2 211.8 Q 107.7 211.8, 108.7 212.8 Q 109.6 213.8, 109.6 215.6 Q 109.6 217.4, 108.6 218.4 Q 107.7 219.4, 106.0 219.4 Q 104.5 219.4, 103.5 218.5 Q 102.6 217.7, 102.4 216.2 L 103.8 216.2 Q 103.9 217.2, 104.5 217.7 Q 105.0 218.2, 106.0 218.2 Q 107.0 218.2, 107.5 217.5 Q 108.1 216.8, 108.1 215.6 Q 108.1 214.5, 107.5 213.8 Q 106.9 213.1, 105.9 213.1 Q 104.9 213.1, 104.4 213.5 L 104.0 213.8 L 102.8 213.5 " fill="#000000"/>
<path class="legend" d="M 110.7 218.5 Q 110.7 218.1, 111.0 217.8 Q 111.2 217.6, 111.6 217.6 Q 112.1 217.6, 112.3 217.8 Q 112.5 218.1, 112.5 218.5 Q 112.5 218.8, 112.3 219.1 Q 112.1 219.3, 111.6 219.3 Q 111.2 219.3, 111.0 219.1 Q 110.7 218.8, 110.7 218.5 " fill="#000000"/>
<path class="legend" d="M 116.7 212.8 L 117.8 212.8 Q 118.8 212.8, 119.4 212.3 Q 120.0 211.8, 120.0 210.9 Q 120.0 208.9, 118.0 208.9 Q 117.0 208.9, 116.5 209.4 Q 115.9 209.9, 115.9 210.8 L 114.5 210.8 Q 114.5 209.5, 115.5 208.6 Q 116.4 207.7, 118.0 207.7 Q 119.6 207.7, 120.5 208.5 Q 121.4 209.4, 121.4 210.9 Q 121.4 211.6, 120.9 212.3 Q 120.4 213.0, 119.6 213.4 Q 120.6 213.7, 121.1 214.4 Q 121.6 215.1, 121.6 216.0 Q 121.6 217.6, 120.6 218.5 Q 119.6 219.4, 118.0 219.4 Q 116.4 219.4, 115.4 218.5 Q 114.4 217.6, 114.4 216.2 L 115.8 216.2 Q 115.8 217.1, 116.4 217.7 Q 117.0 218.2, 118.0 218.2 Q 119.0 218.2, 119.6 217.6 Q 120.1 217.1, 120.1 216.1 Q 120.1 215.1, 119.5 214.6 Q 118.9 214.0, 117.8 214.0 L 116.7 214.0 L 116.7 212.8 " fill="#000000"/>
<path class="bond-0 atom-0 atom-1" d="M 292.1,121.0 L 295.7,110.5" style="fill:none;fill-rule:evenodd;stroke:#000000;stroke-width:0.6px;stroke-linecap:butt;stroke-linejoin:miter;stroke-opacity:1"/>
<path class="bond-1 atom-1 atom-2" d="M 295.7,110.5 L 307.5,108.2" style="fill:none;fill-rule:evenodd;stroke:#000000;stroke-width:0.6px;stroke-linecap:butt;stroke-linejoin:miter;stroke-opacity:1"/>
<path class="bond-1 atom-1 atom-2" d="M 296.7,107.4 L 307.0,105.3" style="fill:none;fill-rule:evenodd;stroke:#000000;stroke-width:0.6px;stroke-linecap:butt;stroke-linejoin:miter;stroke-opacity:1"/>
<path class="bond-2 atom-2 atom-3" d="M 313.1,102.6 L 316.7,92.1" style="fill:none;fill-rule:evenodd;stroke:#000000;stroke-width:0.6px;stroke-linecap:butt;stroke-linejoin:miter;stroke-opacity:1"/>
<path class="bond-3 atom-3 atom-4" d="M 316.7,92.1 L 328.7,89.7" style="fill:none;fill-rule:evenodd;stroke:#000000;stroke-width:0.6px;stroke-linecap:butt;stroke-linejoin:miter;stroke-opacity:1"/>
<path class="bond-4 atom-4 atom-5" d="M 336.3,93.4 L 343.2,101.1" style="fill:none;fill-rule:evenodd;stroke:#000000;stroke-width:0.6px;stroke-linecap:butt;stroke-linejoin:miter;stroke-opacity:1"/>
<path class="bond-5 atom-5 atom-6" d="M 343.2,101.1 L 359.0,98.0" style="fill:none;fill-rule:evenodd;stroke:#000000;stroke-width:0.6px;stroke-linecap:butt;stroke-linejoin:miter;stroke-opacity:1"/>
<path class="bond-6 atom-6 atom-7" d="M 359.0,98.0 L 369.6,110.1" style="fill:none;fill-rule:evenodd;stroke:#000000;stroke-width:0.6px;stroke-linecap:butt;stroke-linejoin:miter;stroke-opacity:1"/>
<path class="bond-6 atom-6 atom-7" d="M 362.3,97.3 L 370.7,106.9" style="fill:none;fill-rule:evenodd;stroke:#000000;stroke-width:0.6px;stroke-linecap:butt;stroke-linejoin:miter;stroke-opacity:1"/>
<path class="bond-7 atom-7 atom-8" d="M 369.6,110.1 L 385.4,107.0" style="fill:none;fill-rule:evenodd;stroke:#000000;stroke-width:0.6px;stroke-linecap:butt;stroke-linejoin:miter;stroke-opacity:1"/>
<path class="bond-8 atom-8 atom-9" d="M 385.4,107.0 L 390.6,91.7" style="fill:none;fill-rule:evenodd;stroke:#000000;stroke-width:0.6px;stroke-linecap:butt;stroke-linejoin:miter;stroke-opacity:1"/>
<path class="bond-8 atom-8 atom-9" d="M 383.2,104.5 L 387.4,92.4" style="fill:none;fill-rule:evenodd;stroke:#000000;stroke-width:0.6px;stroke-linecap:butt;stroke-linejoin:miter;stroke-opacity:1"/>
<path class="bond-9 atom-9 atom-10" d="M 390.6,91.7 L 402.5,89.3" style="fill:none;fill-rule:evenodd;stroke:#000000;stroke-width:0.6px;stroke-linecap:butt;stroke-linejoin:miter;stroke-opacity:1"/>
<path class="bond-10 atom-9 atom-11" d="M 390.6,91.7 L 380.0,79.6" style="fill:none;fill-rule:evenodd;stroke:#000000;stroke-width:0.6px;stroke-linecap:butt;stroke-linejoin:miter;stroke-opacity:1"/>
<path class="bond-11 atom-11 atom-12" d="M 380.0,79.6 L 364.2,82.7" style="fill:none;fill-rule:evenodd;stroke:#000000;stroke-width:0.6px;stroke-linecap:butt;stroke-linejoin:miter;stroke-opacity:1"/>
<path class="bond-11 atom-11 atom-12" d="M 378.9,82.7 L 366.4,85.2" style="fill:none;fill-rule:evenodd;stroke:#000000;stroke-width:0.6px;stroke-linecap:butt;stroke-linejoin:miter;stroke-opacity:1"/>
<path class="bond-12 atom-3 atom-13" d="M 316.7,92.1 L 310.0,84.5" style="fill:none;fill-rule:evenodd;stroke:#000000;stroke-width:0.6px;stroke-linecap:butt;stroke-linejoin:miter;stroke-opacity:1"/>
<path class="bond-12 atom-3 atom-13" d="M 313.4,92.8 L 307.8,86.4" style="fill:none;fill-rule:evenodd;stroke:#000000;stroke-width:0.6px;stroke-linecap:butt;stroke-linejoin:miter;stroke-opacity:1"/>
<path class="bond-13 atom-13 atom-14" d="M 302.1,80.8 L 290.2,83.1" style="fill:none;fill-rule:evenodd;stroke:#000000;stroke-width:0.6px;stroke-linecap:butt;stroke-linejoin:miter;stroke-opacity:1"/>
<path class="bond-14 atom-14 atom-15" d="M 290.2,83.1 L 285.0,98.4" style="fill:none;fill-rule:evenodd;stroke:#000000;stroke-width:0.6px;stroke-linecap:butt;stroke-linejoin:miter;stroke-opacity:1"/>
<path class="bond-14 atom-14 atom-15" d="M 292.4,85.7 L 288.3,97.8" style="fill:none;fill-rule:evenodd;stroke:#000000;stroke-width:0.6px;stroke-linecap:butt;stroke-linejoin:miter;stroke-opacity:1"/>
<path class="bond-15 atom-15 atom-16" d="M 285.0,98.4 L 268.9,98.2" style="fill:none;fill-rule:evenodd;stroke:#000000;stroke-width:0.6px;stroke-linecap:butt;stroke-linejoin:miter;stroke-opacity:1"/>
<path class="bond-16 atom-16 atom-17" d="M 268.9,98.2 L 264.1,82.8" style="fill:none;fill-rule:evenodd;stroke:#000000;stroke-width:0.6px;stroke-linecap:butt;stroke-linejoin:miter;stroke-opacity:1"/>
<path class="bond-17 atom-17 atom-18" d="M 264.1,82.8 L 277.3,73.5" style="fill:none;fill-rule:evenodd;stroke:#000000;stroke-width:0.6px;stroke-linecap:butt;stroke-linejoin:miter;stroke-opacity:1"/>
<path class="bond-18 atom-15 atom-1" d="M 285.0,98.4 L 295.7,110.5" style="fill:none;fill-rule:evenodd;stroke:#000000;stroke-width:0.6px;stroke-linecap:butt;stroke-linejoin:miter;stroke-opacity:1"/>
<path class="bond-19 atom-12 atom-6" d="M 364.2,82.7 L 359.0,98.0" style="fill:none;fill-rule:evenodd;stroke:#000000;stroke-width:0.6px;stroke-linecap:butt;stroke-linejoin:miter;stroke-opacity:1"/>
<path class="bond-20 atom-18 atom-14" d="M 277.3,73.5 L 290.2,83.1" style="fill:none;fill-rule:evenodd;stroke:#000000;stroke-width:0.6px;stroke-linecap:butt;stroke-linejoin:miter;stroke-opacity:1"/>
<path d="M 342.8,100.7 L 343.2,101.1 L 343.9,101.0" style="fill:none;stroke:#000000;stroke-width:0.6px;stroke-linecap:butt;stroke-linejoin:miter;stroke-opacity:1;"/>
<path d="M 369.1,109.5 L 369.6,110.1 L 370.4,110.0" style="fill:none;stroke:#000000;stroke-width:0.6px;stroke-linecap:butt;stroke-linejoin:miter;stroke-opacity:1;"/>
<path d="M 384.7,107.1 L 385.4,107.0 L 385.7,106.2" style="fill:none;stroke:#000000;stroke-width:0.6px;stroke-linecap:butt;stroke-linejoin:miter;stroke-opacity:1;"/>
<path d="M 380.5,80.2 L 380.0,79.6 L 379.2,79.7" style="fill:none;stroke:#000000;stroke-width:0.6px;stroke-linecap:butt;stroke-linejoin:miter;stroke-opacity:1;"/>
<path d="M 365.0,82.5 L 364.2,82.7 L 363.9,83.5" style="fill:none;stroke:#000000;stroke-width:0.6px;stroke-linecap:butt;stroke-linejoin:miter;stroke-opacity:1;"/>
<path d="M 269.7,98.2 L 268.9,98.2 L 268.7,97.4" style="fill:none;stroke:#000000;stroke-width:0.6px;stroke-linecap:butt;stroke-linejoin:miter;stroke-opacity:1;"/>
<path d="M 264.4,83.5 L 264.1,82.8 L 264.8,82.3" style="fill:none;stroke:#000000;stroke-width:0.6px;stroke-linecap:butt;stroke-linejoin:miter;stroke-opacity:1;"/>
<path d="M 276.6,73.9 L 277.3,73.5 L 277.9,74.0" style="fill:none;stroke:#000000;stroke-width:0.6px;stroke-linecap:butt;stroke-linejoin:miter;stroke-opacity:1;"/>
<path class="atom-0" d="M 293.3 126.1 Q 293.3 127.2, 293.0 127.9 Q 292.6 128.7, 292.0 129.1 Q 291.3 129.5, 290.5 129.5 Q 289.6 129.5, 289.0 129.1 Q 288.3 128.7, 288.0 127.9 Q 287.6 127.2, 287.6 126.2 L 287.6 125.7 Q 287.6 124.6, 288.0 123.8 Q 288.3 123.1, 289.0 122.6 Q 289.6 122.2, 290.5 122.2 Q 291.3 122.2, 292.0 122.6 Q 292.6 123.1, 293.0 123.8 Q 293.3 124.6, 293.3 125.7 L 293.3 126.1 M 292.4 125.6 Q 292.4 124.4, 291.9 123.7 Q 291.4 123.0, 290.5 123.0 Q 289.6 123.0, 289.1 123.7 Q 288.6 124.4, 288.5 125.6 L 288.5 126.1 Q 288.5 127.3, 289.1 128.0 Q 289.6 128.7, 290.5 128.7 Q 291.4 128.7, 291.9 128.1 Q 292.4 127.4, 292.4 126.2 L 292.4 125.6 " fill="#000000"/>
<path class="atom-0" d="M 299.9 129.4 L 299.0 129.4 L 299.0 126.1 L 295.4 126.1 L 295.4 129.4 L 294.5 129.4 L 294.5 122.3 L 295.4 122.3 L 295.4 125.4 L 299.0 125.4 L 299.0 122.3 L 299.9 122.3 L 299.9 129.4 " fill="#000000"/>
<path class="atom-2" d="M 314.2 111.0 L 313.3 111.0 L 309.7 105.5 L 309.7 111.0 L 308.8 111.0 L 308.8 103.9 L 309.7 103.9 L 313.3 109.4 L 313.3 103.9 L 314.2 103.9 L 314.2 111.0 " fill="#000000"/>
<path class="atom-4" d="M 332.5 89.4 Q 331.3 89.1, 330.7 88.6 Q 330.2 88.1, 330.2 87.3 Q 330.2 86.5, 330.8 85.9 Q 331.5 85.4, 332.6 85.4 Q 333.3 85.4, 333.9 85.7 Q 334.5 85.9, 334.8 86.4 Q 335.1 86.9, 335.1 87.5 L 334.1 87.5 Q 334.1 86.9, 333.7 86.5 Q 333.3 86.2, 332.6 86.2 Q 331.9 86.2, 331.5 86.5 Q 331.1 86.8, 331.1 87.3 Q 331.1 87.7, 331.5 88.0 Q 331.8 88.3, 332.7 88.6 Q 333.6 88.8, 334.1 89.1 Q 334.6 89.4, 334.9 89.8 Q 335.1 90.2, 335.1 90.8 Q 335.1 91.6, 334.4 92.2 Q 333.8 92.7, 332.6 92.7 Q 331.9 92.7, 331.3 92.4 Q 330.6 92.1, 330.3 91.6 Q 329.9 91.1, 329.9 90.5 L 330.9 90.5 Q 330.9 91.2, 331.4 91.6 Q 331.8 91.9, 332.6 91.9 Q 333.4 91.9, 333.8 91.6 Q 334.2 91.3, 334.2 90.8 Q 334.2 90.3, 333.8 90.0 Q 333.4 89.7, 332.5 89.4 " fill="#000000"/>
<path class="atom-10" d="M 409.2 90.1 Q 409.1 91.2, 408.4 91.8 Q 407.7 92.4, 406.5 92.4 Q 405.3 92.4, 404.5 91.5 Q 403.7 90.6, 403.7 89.1 L 403.7 88.4 Q 403.7 87.4, 404.1 86.7 Q 404.4 85.9, 405.1 85.5 Q 405.7 85.1, 406.6 85.1 Q 407.7 85.1, 408.4 85.7 Q 409.1 86.4, 409.2 87.5 L 408.3 87.5 Q 408.1 86.6, 407.7 86.3 Q 407.3 85.9, 406.6 85.9 Q 405.7 85.9, 405.2 86.5 Q 404.7 87.2, 404.7 88.4 L 404.7 89.1 Q 404.7 90.3, 405.2 91.0 Q 405.6 91.6, 406.5 91.6 Q 407.3 91.6, 407.7 91.3 Q 408.1 90.9, 408.3 90.1 L 409.2 90.1 " fill="#000000"/>
<path class="atom-10" d="M 410.9 92.3 L 410.0 92.3 L 410.0 84.8 L 410.9 84.8 L 410.9 92.3 " fill="#000000"/>
<path class="atom-13" d="M 308.8 83.5 L 307.8 83.5 L 304.3 78.1 L 304.3 83.5 L 303.3 83.5 L 303.3 76.4 L 304.3 76.4 L 307.9 81.9 L 307.9 76.4 L 308.8 76.4 L 308.8 83.5 " fill="#000000"/>
<path class="legend" d="M 327.8 213.5 L 328.4 207.8 L 334.2 207.8 L 334.2 209.2 L 329.6 209.2 L 329.3 212.3 Q 330.1 211.8, 331.2 211.8 Q 332.7 211.8, 333.6 212.8 Q 334.6 213.8, 334.6 215.6 Q 334.6 217.4, 333.6 218.4 Q 332.7 219.4, 331.0 219.4 Q 329.4 219.4, 328.5 218.5 Q 327.5 217.7, 327.4 216.2 L 328.8 216.2 Q 328.9 217.2, 329.5 217.7 Q 330.0 218.2, 331.0 218.2 Q 332.0 218.2, 332.5 217.5 Q 333.1 216.8, 333.1 215.6 Q 333.1 214.5, 332.5 213.8 Q 331.9 213.1, 330.8 213.1 Q 329.9 213.1, 329.4 213.5 L 329.0 213.8 L 327.8 213.5 " fill="#000000"/>
<path class="legend" d="M 335.7 218.5 Q 335.7 218.1, 335.9 217.8 Q 336.2 217.6, 336.6 217.6 Q 337.1 217.6, 337.3 217.8 Q 337.5 218.1, 337.5 218.5 Q 337.5 218.8, 337.3 219.1 Q 337.1 219.3, 336.6 219.3 Q 336.2 219.3, 335.9 219.1 Q 335.7 218.8, 335.7 218.5 " fill="#000000"/>
<path class="legend" d="M 346.3 210.8 Q 346.3 211.7, 345.9 212.3 Q 345.4 213.0, 344.7 213.4 Q 345.6 213.8, 346.1 214.5 Q 346.6 215.2, 346.6 216.1 Q 346.6 217.6, 345.6 218.5 Q 344.6 219.4, 343.0 219.4 Q 341.3 219.4, 340.3 218.5 Q 339.4 217.6, 339.4 216.1 Q 339.4 215.2, 339.9 214.5 Q 340.4 213.7, 341.3 213.4 Q 340.5 213.0, 340.1 212.3 Q 339.6 211.7, 339.6 210.8 Q 339.6 209.4, 340.5 208.5 Q 341.5 207.7, 343.0 207.7 Q 344.5 207.7, 345.4 208.5 Q 346.3 209.4, 346.3 210.8 M 345.1 216.1 Q 345.1 215.2, 344.5 214.6 Q 343.9 214.0, 343.0 214.0 Q 342.0 214.0, 341.4 214.6 Q 340.8 215.1, 340.8 216.1 Q 340.8 217.1, 341.4 217.6 Q 341.9 218.2, 343.0 218.2 Q 344.0 218.2, 344.6 217.6 Q 345.1 217.1, 345.1 216.1 M 343.0 208.9 Q 342.1 208.9, 341.6 209.4 Q 341.1 209.9, 341.1 210.8 Q 341.1 211.7, 341.6 212.2 Q 342.1 212.8, 343.0 212.8 Q 343.8 212.8, 344.4 212.2 Q 344.9 211.7, 344.9 210.8 Q 344.9 210.0, 344.3 209.4 Q 343.8 208.9, 343.0 208.9 " fill="#000000"/>
<path class="bond-0 atom-0 atom-1" d="M 587.3,125.6 L 576.0,120.3" style="fill:none;fill-rule:evenodd;stroke:#000000;stroke-width:0.6px;stroke-linecap:butt;stroke-linejoin:miter;stroke-opacity:1"/>
<path class="bond-0 atom-0 atom-1" d="M 588.5,122.9 L 577.2,117.7" style="fill:none;fill-rule:evenodd;stroke:#000000;stroke-width:0.6px;stroke-linecap:butt;stroke-linejoin:miter;stroke-opacity:1"/>
<path class="bond-1 atom-1 atom-2" d="M 577.3,119.4 L 568.1,125.9" style="fill:none;fill-rule:evenodd;stroke:#000000;stroke-width:0.6px;stroke-linecap:butt;stroke-linejoin:miter;stroke-opacity:1"/>
<path class="bond-2 atom-2 atom-3" d="M 564.6,133.5 L 565.1,139.9" style="fill:none;fill-rule:evenodd;stroke:#000000;stroke-width:0.6px;stroke-linecap:butt;stroke-linejoin:miter;stroke-opacity:1"/>
<path class="bond-3 atom-1 atom-4" d="M 577.3,119.4 L 575.9,103.3" style="fill:none;fill-rule:evenodd;stroke:#000000;stroke-width:0.6px;stroke-linecap:butt;stroke-linejoin:miter;stroke-opacity:1"/>
<path class="bond-4 atom-4 atom-5" d="M 575.9,103.3 L 589.1,94.0" style="fill:none;fill-rule:evenodd;stroke:#000000;stroke-width:0.6px;stroke-linecap:butt;stroke-linejoin:miter;stroke-opacity:1"/>
<path class="bond-5 atom-5 atom-6" d="M 589.1,94.0 L 603.7,100.8" style="fill:none;fill-rule:evenodd;stroke:#000000;stroke-width:0.6px;stroke-linecap:butt;stroke-linejoin:miter;stroke-opacity:1"/>
<path class="bond-6 atom-6 atom-7" d="M 603.7,100.8 L 613.0,94.3" style="fill:none;fill-rule:evenodd;stroke:#000000;stroke-width:0.6px;stroke-linecap:butt;stroke-linejoin:miter;stroke-opacity:1"/>
<path class="bond-7 atom-7 atom-8" d="M 620.9,92.9 L 632.2,96.8" style="fill:none;fill-rule:evenodd;stroke:#000000;stroke-width:0.6px;stroke-linecap:butt;stroke-linejoin:miter;stroke-opacity:1"/>
<path class="bond-8 atom-8 atom-9" d="M 630.5,96.2 L 634.1,107.8" style="fill:none;fill-rule:evenodd;stroke:#000000;stroke-width:0.6px;stroke-linecap:butt;stroke-linejoin:miter;stroke-opacity:1"/>
<path class="bond-8 atom-8 atom-9" d="M 633.3,95.3 L 636.9,106.9" style="fill:none;fill-rule:evenodd;stroke:#000000;stroke-width:0.6px;stroke-linecap:butt;stroke-linejoin:miter;stroke-opacity:1"/>
<path class="bond-9 atom-8 atom-10" d="M 632.2,96.8 L 641.9,83.8" style="fill:none;fill-rule:evenodd;stroke:#000000;stroke-width:0.6px;stroke-linecap:butt;stroke-linejoin:miter;stroke-opacity:1"/>
<path class="bond-10 atom-10 atom-11" d="M 641.9,83.8 L 658.0,82.4" style="fill:none;fill-rule:evenodd;stroke:#000000;stroke-width:0.6px;stroke-linecap:butt;stroke-linejoin:miter;stroke-opacity:1"/>
<path class="bond-10 atom-10 atom-11" d="M 643.3,80.8 L 656.1,79.7" style="fill:none;fill-rule:evenodd;stroke:#000000;stroke-width:0.6px;stroke-linecap:butt;stroke-linejoin:miter;stroke-opacity:1"/>
<path class="bond-11 atom-11 atom-12" d="M 658.0,82.4 L 664.8,67.8" style="fill:none;fill-rule:evenodd;stroke:#000000;stroke-width:0.6px;stroke-linecap:butt;stroke-linejoin:miter;stroke-opacity:1"/>
<path class="bond-12 atom-12 atom-13" d="M 664.8,67.8 L 655.5,54.6" style="fill:none;fill-rule:evenodd;stroke:#000000;stroke-width:0.6px;stroke-linecap:butt;stroke-linejoin:miter;stroke-opacity:1"/>
<path class="bond-12 atom-12 atom-13" d="M 661.4,68.1 L 654.1,57.6" style="fill:none;fill-rule:evenodd;stroke:#000000;stroke-width:0.6px;stroke-linecap:butt;stroke-linejoin:miter;stroke-opacity:1"/>
<path class="bond-13 atom-13 atom-14" d="M 655.5,54.6 L 639.4,56.0" style="fill:none;fill-rule:evenodd;stroke:#000000;stroke-width:0.6px;stroke-linecap:butt;stroke-linejoin:miter;stroke-opacity:1"/>
<path class="bond-14 atom-14 atom-15" d="M 639.4,56.0 L 632.6,70.6" style="fill:none;fill-rule:evenodd;stroke:#000000;stroke-width:0.6px;stroke-linecap:butt;stroke-linejoin:miter;stroke-opacity:1"/>
<path class="bond-14 atom-14 atom-15" d="M 641.3,58.7 L 636.0,70.3" style="fill:none;fill-rule:evenodd;stroke:#000000;stroke-width:0.6px;stroke-linecap:butt;stroke-linejoin:miter;stroke-opacity:1"/>
<path class="bond-15 atom-15 atom-16" d="M 632.6,70.6 L 621.0,74.2" style="fill:none;fill-rule:evenodd;stroke:#000000;stroke-width:0.6px;stroke-linecap:butt;stroke-linejoin:miter;stroke-opacity:1"/>
<path class="bond-16 atom-16 atom-17" d="M 617.7,70.3 L 616.5,64.2" style="fill:none;fill-rule:evenodd;stroke:#000000;stroke-width:0.6px;stroke-linecap:butt;stroke-linejoin:miter;stroke-opacity:1"/>
<path class="bond-16 atom-16 atom-17" d="M 614.8,70.8 L 613.6,64.8" style="fill:none;fill-rule:evenodd;stroke:#000000;stroke-width:0.6px;stroke-linecap:butt;stroke-linejoin:miter;stroke-opacity:1"/>
<path class="bond-17 atom-16 atom-18" d="M 613.2,74.3 L 605.1,75.0" style="fill:none;fill-rule:evenodd;stroke:#000000;stroke-width:0.6px;stroke-linecap:butt;stroke-linejoin:miter;stroke-opacity:1"/>
<path class="bond-17 atom-16 atom-18" d="M 613.5,77.2 L 605.4,77.9" style="fill:none;fill-rule:evenodd;stroke:#000000;stroke-width:0.6px;stroke-linecap:butt;stroke-linejoin:miter;stroke-opacity:1"/>
<path class="bond-18 atom-4 atom-19" d="M 575.9,103.3 L 561.3,96.5" style="fill:none;fill-rule:evenodd;stroke:#000000;stroke-width:0.6px;stroke-linecap:butt;stroke-linejoin:miter;stroke-opacity:1"/>
<path class="bond-19 atom-19 atom-20" d="M 561.3,96.5 L 552.2,102.9" style="fill:none;fill-rule:evenodd;stroke:#000000;stroke-width:0.6px;stroke-linecap:butt;stroke-linejoin:miter;stroke-opacity:1"/>
<path class="bond-20 atom-20 atom-21" d="M 544.0,103.9 L 533.4,99.0" style="fill:none;fill-rule:evenodd;stroke:#000000;stroke-width:0.6px;stroke-linecap:butt;stroke-linejoin:miter;stroke-opacity:1"/>
<path class="bond-21 atom-21 atom-22" d="M 533.4,99.0 L 532.0,82.9" style="fill:none;fill-rule:evenodd;stroke:#000000;stroke-width:0.6px;stroke-linecap:butt;stroke-linejoin:miter;stroke-opacity:1"/>
<path class="bond-21 atom-21 atom-22" d="M 530.4,97.6 L 529.2,84.9" style="fill:none;fill-rule:evenodd;stroke:#000000;stroke-width:0.6px;stroke-linecap:butt;stroke-linejoin:miter;stroke-opacity:1"/>
<path class="bond-22 atom-22 atom-23" d="M 532.0,82.9 L 517.3,76.1" style="fill:none;fill-rule:evenodd;stroke:#000000;stroke-width:0.6px;stroke-linecap:butt;stroke-linejoin:miter;stroke-opacity:1"/>
<path class="bond-23 atom-23 atom-24" d="M 517.3,76.1 L 504.1,85.4" style="fill:none;fill-rule:evenodd;stroke:#000000;stroke-width:0.6px;stroke-linecap:butt;stroke-linejoin:miter;stroke-opacity:1"/>
<path class="bond-23 atom-23 atom-24" d="M 517.6,79.5 L 507.2,86.8" style="fill:none;fill-rule:evenodd;stroke:#000000;stroke-width:0.6px;stroke-linecap:butt;stroke-linejoin:miter;stroke-opacity:1"/>
<path class="bond-24 atom-24 atom-25" d="M 504.1,85.4 L 489.5,78.6" style="fill:none;fill-rule:evenodd;stroke:#000000;stroke-width:0.6px;stroke-linecap:butt;stroke-linejoin:miter;stroke-opacity:1"/>
<path class="bond-25 atom-25 atom-26" d="M 489.5,78.6 L 488.1,62.5" style="fill:none;fill-rule:evenodd;stroke:#000000;stroke-width:0.6px;stroke-linecap:butt;stroke-linejoin:miter;stroke-opacity:1"/>
<path class="bond-25 atom-25 atom-26" d="M 486.5,77.2 L 485.3,64.5" style="fill:none;fill-rule:evenodd;stroke:#000000;stroke-width:0.6px;stroke-linecap:butt;stroke-linejoin:miter;stroke-opacity:1"/>
<path class="bond-26 atom-26 atom-27" d="M 488.1,62.5 L 473.4,55.8" style="fill:none;fill-rule:evenodd;stroke:#000000;stroke-width:0.6px;stroke-linecap:butt;stroke-linejoin:miter;stroke-opacity:1"/>
<path class="bond-27 atom-27 atom-28" d="M 473.4,55.8 L 460.2,65.0" style="fill:none;fill-rule:evenodd;stroke:#000000;stroke-width:0.6px;stroke-linecap:butt;stroke-linejoin:miter;stroke-opacity:1"/>
<path class="bond-27 atom-27 atom-28" d="M 473.7,59.1 L 463.3,66.4" style="fill:none;fill-rule:evenodd;stroke:#000000;stroke-width:0.6px;stroke-linecap:butt;stroke-linejoin:miter;stroke-opacity:1"/>
<path class="bond-28 atom-28 atom-29" d="M 460.2,65.0 L 461.7,81.1" style="fill:none;fill-rule:evenodd;stroke:#000000;stroke-width:0.6px;stroke-linecap:butt;stroke-linejoin:miter;stroke-opacity:1"/>
<path class="bond-29 atom-29 atom-30" d="M 461.7,81.1 L 476.3,87.9" style="fill:none;fill-rule:evenodd;stroke:#000000;stroke-width:0.6px;stroke-linecap:butt;stroke-linejoin:miter;stroke-opacity:1"/>
<path class="bond-29 atom-29 atom-30" d="M 464.4,79.2 L 476.0,84.6" style="fill:none;fill-rule:evenodd;stroke:#000000;stroke-width:0.6px;stroke-linecap:butt;stroke-linejoin:miter;stroke-opacity:1"/>
<path class="bond-30 atom-24 atom-31" d="M 504.1,85.4 L 505.6,101.5" style="fill:none;fill-rule:evenodd;stroke:#000000;stroke-width:0.6px;stroke-linecap:butt;stroke-linejoin:miter;stroke-opacity:1"/>
<path class="bond-31 atom-31 atom-32" d="M 505.6,101.5 L 520.2,108.3" style="fill:none;fill-rule:evenodd;stroke:#000000;stroke-width:0.6px;stroke-linecap:butt;stroke-linejoin:miter;stroke-opacity:1"/>
<path class="bond-31 atom-31 atom-32" d="M 508.3,99.6 L 519.9,104.9" style="fill:none;fill-rule:evenodd;stroke:#000000;stroke-width:0.6px;stroke-linecap:butt;stroke-linejoin:miter;stroke-opacity:1"/>
<path class="bond-32 atom-16 atom-7" d="M 617.1,80.3 L 617.0,86.7" style="fill:none;fill-rule:evenodd;stroke:#000000;stroke-width:0.6px;stroke-linecap:butt;stroke-linejoin:miter;stroke-opacity:1"/>
<path class="bond-33 atom-32 atom-21" d="M 520.2,108.3 L 533.4,99.0" style="fill:none;fill-rule:evenodd;stroke:#000000;stroke-width:0.6px;stroke-linecap:butt;stroke-linejoin:miter;stroke-opacity:1"/>
<path class="bond-34 atom-15 atom-10" d="M 632.6,70.6 L 641.9,83.8" style="fill:none;fill-rule:evenodd;stroke:#000000;stroke-width:0.6px;stroke-linecap:butt;stroke-linejoin:miter;stroke-opacity:1"/>
<path class="bond-35 atom-30 atom-25" d="M 476.3,87.9 L 489.5,78.6" style="fill:none;fill-rule:evenodd;stroke:#000000;stroke-width:0.6px;stroke-linecap:butt;stroke-linejoin:miter;stroke-opacity:1"/>
<path d="M 576.9,119.7 L 577.3,119.4 L 577.3,118.6" style="fill:none;stroke:#000000;stroke-width:0.6px;stroke-linecap:butt;stroke-linejoin:miter;stroke-opacity:1;"/>
<path d="M 588.4,94.5 L 589.1,94.0 L 589.8,94.4" style="fill:none;stroke:#000000;stroke-width:0.6px;stroke-linecap:butt;stroke-linejoin:miter;stroke-opacity:1;"/>
<path d="M 603.0,100.5 L 603.7,100.8 L 604.2,100.5" style="fill:none;stroke:#000000;stroke-width:0.6px;stroke-linecap:butt;stroke-linejoin:miter;stroke-opacity:1;"/>
<path d="M 631.7,96.6 L 632.2,96.8 L 632.7,96.1" style="fill:none;stroke:#000000;stroke-width:0.6px;stroke-linecap:butt;stroke-linejoin:miter;stroke-opacity:1;"/>
<path d="M 657.2,82.5 L 658.0,82.4 L 658.3,81.7" style="fill:none;stroke:#000000;stroke-width:0.6px;stroke-linecap:butt;stroke-linejoin:miter;stroke-opacity:1;"/>
<path d="M 664.4,68.5 L 664.8,67.8 L 664.3,67.1" style="fill:none;stroke:#000000;stroke-width:0.6px;stroke-linecap:butt;stroke-linejoin:miter;stroke-opacity:1;"/>
<path d="M 656.0,55.2 L 655.5,54.6 L 654.7,54.6" style="fill:none;stroke:#000000;stroke-width:0.6px;stroke-linecap:butt;stroke-linejoin:miter;stroke-opacity:1;"/>
<path d="M 640.2,55.9 L 639.4,56.0 L 639.1,56.7" style="fill:none;stroke:#000000;stroke-width:0.6px;stroke-linecap:butt;stroke-linejoin:miter;stroke-opacity:1;"/>
<path d="M 562.0,96.8 L 561.3,96.5 L 560.8,96.8" style="fill:none;stroke:#000000;stroke-width:0.6px;stroke-linecap:butt;stroke-linejoin:miter;stroke-opacity:1;"/>
<path d="M 532.1,83.7 L 532.0,82.9 L 531.3,82.6" style="fill:none;stroke:#000000;stroke-width:0.6px;stroke-linecap:butt;stroke-linejoin:miter;stroke-opacity:1;"/>
<path d="M 518.1,76.5 L 517.3,76.1 L 516.7,76.6" style="fill:none;stroke:#000000;stroke-width:0.6px;stroke-linecap:butt;stroke-linejoin:miter;stroke-opacity:1;"/>
<path d="M 488.1,63.4 L 488.1,62.5 L 487.3,62.2" style="fill:none;stroke:#000000;stroke-width:0.6px;stroke-linecap:butt;stroke-linejoin:miter;stroke-opacity:1;"/>
<path d="M 474.2,56.1 L 473.4,55.8 L 472.8,56.2" style="fill:none;stroke:#000000;stroke-width:0.6px;stroke-linecap:butt;stroke-linejoin:miter;stroke-opacity:1;"/>
<path d="M 460.9,64.6 L 460.2,65.0 L 460.3,65.8" style="fill:none;stroke:#000000;stroke-width:0.6px;stroke-linecap:butt;stroke-linejoin:miter;stroke-opacity:1;"/>
<path d="M 461.6,80.3 L 461.7,81.1 L 462.4,81.5" style="fill:none;stroke:#000000;stroke-width:0.6px;stroke-linecap:butt;stroke-linejoin:miter;stroke-opacity:1;"/>
<path d="M 475.6,87.6 L 476.3,87.9 L 477.0,87.4" style="fill:none;stroke:#000000;stroke-width:0.6px;stroke-linecap:butt;stroke-linejoin:miter;stroke-opacity:1;"/>
<path d="M 505.5,100.7 L 505.6,101.5 L 506.3,101.8" style="fill:none;stroke:#000000;stroke-width:0.6px;stroke-linecap:butt;stroke-linejoin:miter;stroke-opacity:1;"/>
<path d="M 519.5,107.9 L 520.2,108.3 L 520.9,107.8" style="fill:none;stroke:#000000;stroke-width:0.6px;stroke-linecap:butt;stroke-linejoin:miter;stroke-opacity:1;"/>
<path class="atom-0" d="M 594.8 126.4 Q 594.8 127.5, 594.5 128.3 Q 594.1 129.0, 593.5 129.5 Q 592.8 129.9, 592.0 129.9 Q 591.1 129.9, 590.5 129.5 Q 589.9 129.0, 589.5 128.3 Q 589.1 127.5, 589.1 126.5 L 589.1 126.0 Q 589.1 125.0, 589.5 124.2 Q 589.8 123.4, 590.5 123.0 Q 591.1 122.6, 592.0 122.6 Q 592.8 122.6, 593.5 123.0 Q 594.1 123.4, 594.5 124.2 Q 594.8 125.0, 594.8 126.0 L 594.8 126.4 M 593.9 126.0 Q 593.9 124.7, 593.4 124.0 Q 592.9 123.4, 592.0 123.4 Q 591.1 123.4, 590.6 124.0 Q 590.1 124.7, 590.1 125.9 L 590.1 126.4 Q 590.1 127.7, 590.6 128.4 Q 591.1 129.1, 592.0 129.1 Q 592.9 129.1, 593.4 128.4 Q 593.9 127.7, 593.9 126.5 L 593.9 126.0 " fill="#000000"/>
<path class="atom-2" d="M 560.0 132.2 L 559.1 132.2 L 559.1 128.9 L 555.5 128.9 L 555.5 132.2 L 554.6 132.2 L 554.6 125.1 L 555.5 125.1 L 555.5 128.2 L 559.1 128.2 L 559.1 125.1 L 560.0 125.1 L 560.0 132.2 " fill="#000000"/>
<path class="atom-2" d="M 566.9 132.2 L 565.9 132.2 L 562.4 126.7 L 562.4 132.2 L 561.4 132.2 L 561.4 125.1 L 562.4 125.1 L 565.9 130.6 L 565.9 125.1 L 566.9 125.1 L 566.9 132.2 " fill="#000000"/>
<path class="atom-3" d="M 568.4 145.0 Q 568.4 146.1, 568.1 146.8 Q 567.7 147.6, 567.1 148.0 Q 566.4 148.4, 565.6 148.4 Q 564.7 148.4, 564.1 148.0 Q 563.4 147.6, 563.1 146.8 Q 562.7 146.1, 562.7 145.1 L 562.7 144.6 Q 562.7 143.5, 563.1 142.7 Q 563.4 142.0, 564.1 141.5 Q 564.7 141.1, 565.6 141.1 Q 566.4 141.1, 567.1 141.5 Q 567.7 142.0, 568.1 142.7 Q 568.4 143.5, 568.4 144.6 L 568.4 145.0 M 567.5 144.6 Q 567.5 143.3, 567.0 142.6 Q 566.5 141.9, 565.6 141.9 Q 564.7 141.9, 564.2 142.6 Q 563.7 143.3, 563.7 144.5 L 563.7 145.0 Q 563.7 146.2, 564.2 146.9 Q 564.7 147.6, 565.6 147.6 Q 566.5 147.6, 567.0 147.0 Q 567.5 146.3, 567.5 145.1 L 567.5 144.6 " fill="#000000"/>
<path class="atom-3" d="M 575.0 148.3 L 574.1 148.3 L 574.1 145.0 L 570.5 145.0 L 570.5 148.3 L 569.6 148.3 L 569.6 141.2 L 570.5 141.2 L 570.5 144.3 L 574.1 144.3 L 574.1 141.2 L 575.0 141.2 L 575.0 148.3 " fill="#000000"/>
<path class="atom-7" d="M 619.7 95.1 L 618.7 95.1 L 615.2 89.6 L 615.2 95.1 L 614.2 95.1 L 614.2 88.0 L 615.2 88.0 L 618.7 93.5 L 618.7 88.0 L 619.7 88.0 L 619.7 95.1 " fill="#000000"/>
<path class="atom-9" d="M 639.8 112.5 Q 639.8 113.5, 639.5 114.3 Q 639.1 115.1, 638.5 115.5 Q 637.8 115.9, 637.0 115.9 Q 636.1 115.9, 635.5 115.5 Q 634.8 115.1, 634.5 114.3 Q 634.1 113.5, 634.1 112.5 L 634.1 112.0 Q 634.1 111.0, 634.5 110.2 Q 634.8 109.4, 635.5 109.0 Q 636.1 108.6, 637.0 108.6 Q 637.8 108.6, 638.5 109.0 Q 639.1 109.4, 639.5 110.2 Q 639.8 111.0, 639.8 112.0 L 639.8 112.5 M 638.9 112.0 Q 638.9 110.7, 638.4 110.1 Q 637.9 109.4, 637.0 109.4 Q 636.1 109.4, 635.6 110.1 Q 635.1 110.7, 635.0 111.9 L 635.0 112.5 Q 635.0 113.7, 635.6 114.4 Q 636.1 115.1, 637.0 115.1 Q 637.9 115.1, 638.4 114.4 Q 638.9 113.8, 638.9 112.5 L 638.9 112.0 " fill="#000000"/>
<path class="atom-16" d="M 617.1 75.8 Q 615.9 75.5, 615.4 75.0 Q 614.8 74.5, 614.8 73.7 Q 614.8 72.9, 615.5 72.3 Q 616.2 71.8, 617.3 71.8 Q 618.0 71.8, 618.6 72.1 Q 619.1 72.4, 619.5 72.9 Q 619.8 73.4, 619.8 73.9 L 618.8 73.9 Q 618.8 73.3, 618.4 72.9 Q 618.0 72.6, 617.3 72.6 Q 616.6 72.6, 616.2 72.9 Q 615.8 73.2, 615.8 73.7 Q 615.8 74.1, 616.2 74.5 Q 616.5 74.7, 617.4 75.0 Q 618.3 75.2, 618.8 75.5 Q 619.3 75.8, 619.5 76.2 Q 619.8 76.6, 619.8 77.2 Q 619.8 78.1, 619.1 78.6 Q 618.4 79.1, 617.3 79.1 Q 616.6 79.1, 615.9 78.8 Q 615.3 78.5, 615.0 78.0 Q 614.6 77.6, 614.6 76.9 L 615.6 76.9 Q 615.6 77.6, 616.0 78.0 Q 616.5 78.3, 617.3 78.3 Q 618.0 78.3, 618.4 78.0 Q 618.8 77.7, 618.8 77.2 Q 618.8 76.7, 618.5 76.4 Q 618.1 76.1, 617.1 75.8 " fill="#000000"/>
<path class="atom-17" d="M 616.9 59.8 Q 616.9 60.9, 616.6 61.7 Q 616.2 62.4, 615.6 62.8 Q 615.0 63.3, 614.1 63.3 Q 613.3 63.3, 612.6 62.8 Q 612.0 62.4, 611.6 61.7 Q 611.2 60.9, 611.2 59.9 L 611.2 59.4 Q 611.2 58.4, 611.6 57.6 Q 611.9 56.8, 612.6 56.4 Q 613.2 56.0, 614.1 56.0 Q 614.9 56.0, 615.6 56.4 Q 616.2 56.8, 616.6 57.6 Q 616.9 58.3, 616.9 59.4 L 616.9 59.8 M 616.0 59.4 Q 616.0 58.1, 615.5 57.4 Q 615.0 56.8, 614.1 56.8 Q 613.2 56.8, 612.7 57.4 Q 612.2 58.1, 612.2 59.3 L 612.2 59.8 Q 612.2 61.1, 612.7 61.8 Q 613.2 62.5, 614.1 62.5 Q 615.0 62.5, 615.5 61.8 Q 616.0 61.1, 616.0 59.9 L 616.0 59.4 " fill="#000000"/>
<path class="atom-18" d="M 604.0 77.1 Q 604.0 78.2, 603.6 78.9 Q 603.3 79.7, 602.6 80.1 Q 602.0 80.5, 601.1 80.5 Q 600.3 80.5, 599.6 80.1 Q 599.0 79.7, 598.6 78.9 Q 598.3 78.2, 598.3 77.2 L 598.3 76.7 Q 598.3 75.6, 598.6 74.8 Q 599.0 74.1, 599.6 73.6 Q 600.3 73.2, 601.1 73.2 Q 602.0 73.2, 602.6 73.6 Q 603.3 74.1, 603.6 74.8 Q 604.0 75.6, 604.0 76.7 L 604.0 77.1 M 603.1 76.6 Q 603.1 75.4, 602.5 74.7 Q 602.0 74.0, 601.1 74.0 Q 600.2 74.0, 599.7 74.7 Q 599.2 75.4, 599.2 76.6 L 599.2 77.1 Q 599.2 78.3, 599.7 79.0 Q 600.2 79.7, 601.1 79.7 Q 602.0 79.7, 602.5 79.1 Q 603.0 78.4, 603.1 77.2 L 603.1 76.6 " fill="#000000"/>
<path class="atom-20" d="M 550.9 106.1 Q 550.9 107.1, 550.6 107.9 Q 550.2 108.7, 549.6 109.1 Q 548.9 109.5, 548.1 109.5 Q 547.2 109.5, 546.6 109.1 Q 545.9 108.7, 545.6 107.9 Q 545.2 107.1, 545.2 106.1 L 545.2 105.6 Q 545.2 104.6, 545.6 103.8 Q 545.9 103.0, 546.6 102.6 Q 547.2 102.2, 548.1 102.2 Q 548.9 102.2, 549.6 102.6 Q 550.2 103.0, 550.6 103.8 Q 550.9 104.6, 550.9 105.6 L 550.9 106.1 M 550.0 105.6 Q 550.0 104.3, 549.5 103.7 Q 549.0 103.0, 548.1 103.0 Q 547.2 103.0, 546.7 103.7 Q 546.2 104.3, 546.1 105.5 L 546.1 106.1 Q 546.1 107.3, 546.7 108.0 Q 547.2 108.7, 548.1 108.7 Q 549.0 108.7, 549.5 108.0 Q 550.0 107.4, 550.0 106.1 L 550.0 105.6 " fill="#000000"/>
<path class="legend" d="M 559.3 208.7 L 554.5 219.3 L 553.0 219.3 L 557.7 209.1 L 551.6 209.1 L 551.6 207.9 L 559.3 207.9 L 559.3 208.7 " fill="#000000"/>
<path class="legend" d="M 560.5 218.5 Q 560.5 218.2, 560.8 217.9 Q 561.0 217.7, 561.4 217.7 Q 561.9 217.7, 562.1 217.9 Q 562.3 218.2, 562.3 218.5 Q 562.3 218.9, 562.1 219.1 Q 561.9 219.4, 561.4 219.4 Q 561.0 219.4, 560.8 219.1 Q 560.5 218.9, 560.5 218.5 " fill="#000000"/>
<path class="legend" d="M 570.9 215.5 L 572.4 215.5 L 572.4 216.6 L 570.9 216.6 L 570.9 219.3 L 569.4 219.3 L 569.4 216.6 L 564.2 216.6 L 564.2 215.8 L 569.3 207.9 L 570.9 207.9 L 570.9 215.5 M 565.9 215.5 L 569.4 215.5 L 569.4 209.9 L 569.2 210.2 L 565.9 215.5 " fill="#000000"/>
</svg>