<svg xmlns="http://www.w3.org/2000/svg" xmlns:rdkit="http://www.rdkit.org/xml" xmlns:xlink="http://www.w3.org/1999/xlink" version="1.1" baseProfile="full" xml:space="preserve" width="675px" height="225px" viewBox="0 0 675 225">
<!-- END OF HEADER -->
<rect style="opacity:1.0;fill:#FFFFFF;stroke:none" width="675.0" height="225.0" x="0.0" y="0.0"> </rect>
<path class="bond-0 atom-0 atom-1" d="M 77.6,136.9 L 84.1,122.9" style="fill:none;fill-rule:evenodd;stroke:#000000;stroke-width:0.6px;stroke-linecap:butt;stroke-linejoin:miter;stroke-opacity:1"/>
<path class="bond-1 atom-1 atom-2" d="M 84.1,122.9 L 75.2,110.3" style="fill:none;fill-rule:evenodd;stroke:#000000;stroke-width:0.6px;stroke-linecap:butt;stroke-linejoin:miter;stroke-opacity:1"/>
<path class="bond-2 atom-2 atom-3" d="M 75.2,110.3 L 63.8,111.3" style="fill:none;fill-rule:evenodd;stroke:#000000;stroke-width:0.6px;stroke-linecap:butt;stroke-linejoin:miter;stroke-opacity:1"/>
<path class="bond-2 atom-2 atom-3" d="M 73.4,107.7 L 63.5,108.5" style="fill:none;fill-rule:evenodd;stroke:#000000;stroke-width:0.6px;stroke-linecap:butt;stroke-linejoin:miter;stroke-opacity:1"/>
<path class="bond-3 atom-3 atom-4" d="M 56.5,106.9 L 50.9,99.0" style="fill:none;fill-rule:evenodd;stroke:#000000;stroke-width:0.6px;stroke-linecap:butt;stroke-linejoin:miter;stroke-opacity:1"/>
<path class="bond-4 atom-4 atom-5" d="M 50.9,99.0 L 39.5,100.1" style="fill:none;fill-rule:evenodd;stroke:#000000;stroke-width:0.6px;stroke-linecap:butt;stroke-linejoin:miter;stroke-opacity:1"/>
<path class="bond-5 atom-4 atom-6" d="M 50.9,99.0 L 55.2,89.8" style="fill:none;fill-rule:evenodd;stroke:#000000;stroke-width:0.6px;stroke-linecap:butt;stroke-linejoin:miter;stroke-opacity:1"/>
<path class="bond-5 atom-4 atom-6" d="M 54.1,98.7 L 57.8,90.9" style="fill:none;fill-rule:evenodd;stroke:#000000;stroke-width:0.6px;stroke-linecap:butt;stroke-linejoin:miter;stroke-opacity:1"/>
<path class="bond-6 atom-6 atom-7" d="M 61.4,84.7 L 72.8,83.6" style="fill:none;fill-rule:evenodd;stroke:#000000;stroke-width:0.6px;stroke-linecap:butt;stroke-linejoin:miter;stroke-opacity:1"/>
<path class="bond-7 atom-7 atom-8" d="M 72.8,83.6 L 77.1,74.4" style="fill:none;fill-rule:evenodd;stroke:#000000;stroke-width:0.6px;stroke-linecap:butt;stroke-linejoin:miter;stroke-opacity:1"/>
<path class="bond-8 atom-7 atom-9" d="M 72.8,83.6 L 81.7,96.3" style="fill:none;fill-rule:evenodd;stroke:#000000;stroke-width:0.6px;stroke-linecap:butt;stroke-linejoin:miter;stroke-opacity:1"/>
<path class="bond-8 atom-7 atom-9" d="M 71.5,86.5 L 78.5,96.6" style="fill:none;fill-rule:evenodd;stroke:#000000;stroke-width:0.6px;stroke-linecap:butt;stroke-linejoin:miter;stroke-opacity:1"/>
<path class="bond-9 atom-9 atom-10" d="M 81.7,96.3 L 97.1,94.9" style="fill:none;fill-rule:evenodd;stroke:#000000;stroke-width:0.6px;stroke-linecap:butt;stroke-linejoin:miter;stroke-opacity:1"/>
<path class="bond-10 atom-10 atom-11" d="M 97.1,94.9 L 106.0,107.5" style="fill:none;fill-rule:evenodd;stroke:#000000;stroke-width:0.6px;stroke-linecap:butt;stroke-linejoin:miter;stroke-opacity:1"/>
<path class="bond-10 atom-10 atom-11" d="M 100.3,94.6 L 107.4,104.6" style="fill:none;fill-rule:evenodd;stroke:#000000;stroke-width:0.6px;stroke-linecap:butt;stroke-linejoin:miter;stroke-opacity:1"/>
<path class="bond-11 atom-11 atom-12" d="M 106.0,107.5 L 121.4,106.1" style="fill:none;fill-rule:evenodd;stroke:#000000;stroke-width:0.6px;stroke-linecap:butt;stroke-linejoin:miter;stroke-opacity:1"/>
<path class="bond-12 atom-12 atom-13" d="M 121.4,106.1 L 127.9,92.1" style="fill:none;fill-rule:evenodd;stroke:#000000;stroke-width:0.6px;stroke-linecap:butt;stroke-linejoin:miter;stroke-opacity:1"/>
<path class="bond-12 atom-12 atom-13" d="M 119.5,103.5 L 124.7,92.4" style="fill:none;fill-rule:evenodd;stroke:#000000;stroke-width:0.6px;stroke-linecap:butt;stroke-linejoin:miter;stroke-opacity:1"/>
<path class="bond-13 atom-13 atom-14" d="M 127.9,92.1 L 139.4,91.1" style="fill:none;fill-rule:evenodd;stroke:#000000;stroke-width:0.6px;stroke-linecap:butt;stroke-linejoin:miter;stroke-opacity:1"/>
<path class="bond-14 atom-14 atom-15" d="M 146.6,95.5 L 152.2,103.4" style="fill:none;fill-rule:evenodd;stroke:#000000;stroke-width:0.6px;stroke-linecap:butt;stroke-linejoin:miter;stroke-opacity:1"/>
<path class="bond-15 atom-15 atom-16" d="M 152.2,103.4 L 167.6,102.0" style="fill:none;fill-rule:evenodd;stroke:#000000;stroke-width:0.6px;stroke-linecap:butt;stroke-linejoin:miter;stroke-opacity:1"/>
<path class="bond-16 atom-16 atom-17" d="M 167.6,102.0 L 176.5,114.6" style="fill:none;fill-rule:evenodd;stroke:#000000;stroke-width:0.6px;stroke-linecap:butt;stroke-linejoin:miter;stroke-opacity:1"/>
<path class="bond-16 atom-16 atom-17" d="M 170.8,101.7 L 177.8,111.7" style="fill:none;fill-rule:evenodd;stroke:#000000;stroke-width:0.6px;stroke-linecap:butt;stroke-linejoin:miter;stroke-opacity:1"/>
<path class="bond-17 atom-17 atom-18" d="M 176.5,114.6 L 191.8,113.2" style="fill:none;fill-rule:evenodd;stroke:#000000;stroke-width:0.6px;stroke-linecap:butt;stroke-linejoin:miter;stroke-opacity:1"/>
<path class="bond-18 atom-18 atom-19" d="M 191.8,113.2 L 197.4,121.1" style="fill:none;fill-rule:evenodd;stroke:#000000;stroke-width:0.6px;stroke-linecap:butt;stroke-linejoin:miter;stroke-opacity:1"/>
<path class="bond-19 atom-18 atom-20" d="M 191.8,113.2 L 198.3,99.2" style="fill:none;fill-rule:evenodd;stroke:#000000;stroke-width:0.6px;stroke-linecap:butt;stroke-linejoin:miter;stroke-opacity:1"/>
<path class="bond-19 atom-18 atom-20" d="M 190.0,110.6 L 195.1,99.5" style="fill:none;fill-rule:evenodd;stroke:#000000;stroke-width:0.6px;stroke-linecap:butt;stroke-linejoin:miter;stroke-opacity:1"/>
<path class="bond-20 atom-20 atom-21" d="M 198.3,99.2 L 189.4,86.6" style="fill:none;fill-rule:evenodd;stroke:#000000;stroke-width:0.6px;stroke-linecap:butt;stroke-linejoin:miter;stroke-opacity:1"/>
<path class="bond-21 atom-21 atom-22" d="M 189.4,86.6 L 193.7,77.3" style="fill:none;fill-rule:evenodd;stroke:#000000;stroke-width:0.6px;stroke-linecap:butt;stroke-linejoin:miter;stroke-opacity:1"/>
<path class="bond-22 atom-21 atom-23" d="M 189.4,86.6 L 174.1,88.0" style="fill:none;fill-rule:evenodd;stroke:#000000;stroke-width:0.6px;stroke-linecap:butt;stroke-linejoin:miter;stroke-opacity:1"/>
<path class="bond-22 atom-21 atom-23" d="M 188.1,89.5 L 175.9,90.6" style="fill:none;fill-rule:evenodd;stroke:#000000;stroke-width:0.6px;stroke-linecap:butt;stroke-linejoin:miter;stroke-opacity:1"/>
<path class="bond-23 atom-13 atom-24" d="M 127.9,92.1 L 119.0,79.5" style="fill:none;fill-rule:evenodd;stroke:#000000;stroke-width:0.6px;stroke-linecap:butt;stroke-linejoin:miter;stroke-opacity:1"/>
<path class="bond-24 atom-24 atom-25" d="M 119.0,79.5 L 103.6,80.9" style="fill:none;fill-rule:evenodd;stroke:#000000;stroke-width:0.6px;stroke-linecap:butt;stroke-linejoin:miter;stroke-opacity:1"/>
<path class="bond-24 atom-24 atom-25" d="M 117.6,82.4 L 105.5,83.5" style="fill:none;fill-rule:evenodd;stroke:#000000;stroke-width:0.6px;stroke-linecap:butt;stroke-linejoin:miter;stroke-opacity:1"/>
<path class="bond-25 atom-9 atom-2" d="M 81.7,96.3 L 75.2,110.3" style="fill:none;fill-rule:evenodd;stroke:#000000;stroke-width:0.6px;stroke-linecap:butt;stroke-linejoin:miter;stroke-opacity:1"/>
<path class="bond-26 atom-25 atom-10" d="M 103.6,80.9 L 97.1,94.9" style="fill:none;fill-rule:evenodd;stroke:#000000;stroke-width:0.6px;stroke-linecap:butt;stroke-linejoin:miter;stroke-opacity:1"/>
<path class="bond-27 atom-23 atom-16" d="M 174.1,88.0 L 167.6,102.0" style="fill:none;fill-rule:evenodd;stroke:#000000;stroke-width:0.6px;stroke-linecap:butt;stroke-linejoin:miter;stroke-opacity:1"/>
<path d="M 83.8,123.6 L 84.1,122.9 L 83.7,122.3" style="fill:none;stroke:#000000;stroke-width:0.6px;stroke-linecap:butt;stroke-linejoin:miter;stroke-opacity:1;"/>
<path d="M 105.6,106.9 L 106.0,107.5 L 106.8,107.4" style="fill:none;stroke:#000000;stroke-width:0.6px;stroke-linecap:butt;stroke-linejoin:miter;stroke-opacity:1;"/>
<path d="M 120.6,106.2 L 121.4,106.1 L 121.7,105.4" style="fill:none;stroke:#000000;stroke-width:0.6px;stroke-linecap:butt;stroke-linejoin:miter;stroke-opacity:1;"/>
<path d="M 151.9,103.0 L 152.2,103.4 L 152.9,103.3" style="fill:none;stroke:#000000;stroke-width:0.6px;stroke-linecap:butt;stroke-linejoin:miter;stroke-opacity:1;"/>
<path d="M 176.0,114.0 L 176.5,114.6 L 177.2,114.5" style="fill:none;stroke:#000000;stroke-width:0.6px;stroke-linecap:butt;stroke-linejoin:miter;stroke-opacity:1;"/>
<path d="M 198.0,99.9 L 198.3,99.2 L 197.9,98.6" style="fill:none;stroke:#000000;stroke-width:0.6px;stroke-linecap:butt;stroke-linejoin:miter;stroke-opacity:1;"/>
<path d="M 174.8,87.9 L 174.1,88.0 L 173.7,88.7" style="fill:none;stroke:#000000;stroke-width:0.6px;stroke-linecap:butt;stroke-linejoin:miter;stroke-opacity:1;"/>
<path d="M 119.4,80.1 L 119.0,79.5 L 118.2,79.5" style="fill:none;stroke:#000000;stroke-width:0.6px;stroke-linecap:butt;stroke-linejoin:miter;stroke-opacity:1;"/>
<path d="M 104.4,80.8 L 103.6,80.9 L 103.3,81.6" style="fill:none;stroke:#000000;stroke-width:0.6px;stroke-linecap:butt;stroke-linejoin:miter;stroke-opacity:1;"/>
<path class="atom-3" d="M 62.6 115.2 L 61.6 115.2 L 58.0 109.7 L 58.0 115.2 L 57.1 115.2 L 57.1 108.1 L 58.0 108.1 L 61.6 113.6 L 61.6 108.1 L 62.6 108.1 L 62.6 115.2 " fill="#000000"/>
<path class="atom-5" d="M 27.5 104.0 L 26.6 104.0 L 26.6 100.7 L 23.0 100.7 L 23.0 104.0 L 22.1 104.0 L 22.1 96.9 L 23.0 96.9 L 23.0 99.9 L 26.6 99.9 L 26.6 96.9 L 27.5 96.9 L 27.5 104.0 " fill="#000000"/>
<path class="atom-5" d="M 32.0 107.5 L 29.0 107.5 L 29.0 107.1 L 30.6 105.3 Q 31.0 104.9, 31.1 104.6 Q 31.2 104.4, 31.2 104.1 Q 31.2 103.7, 31.0 103.5 Q 30.8 103.3, 30.4 103.3 Q 30.0 103.3, 29.7 103.5 Q 29.5 103.8, 29.5 104.2 L 28.9 104.2 Q 28.9 103.6, 29.3 103.2 Q 29.7 102.8, 30.4 102.8 Q 31.1 102.8, 31.5 103.1 Q 31.8 103.5, 31.8 104.0 Q 31.8 104.7, 30.9 105.7 L 29.7 107.0 L 32.0 107.0 L 32.0 107.5 " fill="#000000"/>
<path class="atom-5" d="M 38.3 104.0 L 37.3 104.0 L 33.8 98.5 L 33.8 104.0 L 32.8 104.0 L 32.8 96.9 L 33.8 96.9 L 37.3 102.4 L 37.3 96.9 L 38.3 96.9 L 38.3 104.0 " fill="#000000"/>
<path class="atom-6" d="M 60.2 88.6 L 59.2 88.6 L 55.6 83.1 L 55.6 88.6 L 54.7 88.6 L 54.7 81.5 L 55.6 81.5 L 59.2 87.0 L 59.2 81.5 L 60.2 81.5 L 60.2 88.6 " fill="#000000"/>
<path class="atom-8" d="M 82.0 73.2 L 81.1 73.2 L 77.5 67.7 L 77.5 73.2 L 76.6 73.2 L 76.6 66.1 L 77.5 66.1 L 81.1 71.6 L 81.1 66.1 L 82.0 66.1 L 82.0 73.2 " fill="#000000"/>
<path class="atom-8" d="M 88.9 73.2 L 87.9 73.2 L 87.9 69.9 L 84.4 69.9 L 84.4 73.2 L 83.4 73.2 L 83.4 66.1 L 84.4 66.1 L 84.4 69.1 L 87.9 69.1 L 87.9 66.1 L 88.9 66.1 L 88.9 73.2 " fill="#000000"/>
<path class="atom-8" d="M 93.4 76.7 L 90.3 76.7 L 90.3 76.3 L 92.0 74.5 Q 92.3 74.1, 92.5 73.8 Q 92.6 73.6, 92.6 73.3 Q 92.6 72.9, 92.4 72.7 Q 92.1 72.5, 91.8 72.5 Q 91.3 72.5, 91.1 72.7 Q 90.8 73.0, 90.8 73.4 L 90.2 73.4 Q 90.2 72.8, 90.7 72.4 Q 91.1 72.0, 91.8 72.0 Q 92.4 72.0, 92.8 72.3 Q 93.2 72.6, 93.2 73.2 Q 93.2 73.9, 92.3 74.9 L 91.0 76.2 L 93.4 76.2 L 93.4 76.7 " fill="#000000"/>
<path class="atom-14" d="M 146.0 94.3 L 145.1 94.3 L 141.5 88.8 L 141.5 94.3 L 140.5 94.3 L 140.5 87.2 L 141.5 87.2 L 145.1 92.7 L 145.1 87.2 L 146.0 87.2 L 146.0 94.3 " fill="#000000"/>
<path class="atom-14" d="M 152.9 94.3 L 151.9 94.3 L 151.9 91.0 L 148.3 91.0 L 148.3 94.3 L 147.4 94.3 L 147.4 87.2 L 148.3 87.2 L 148.3 90.2 L 151.9 90.2 L 151.9 87.2 L 152.9 87.2 L 152.9 94.3 " fill="#000000"/>
<path class="atom-19" d="M 202.5 126.3 L 199.5 126.3 L 199.5 129.4 L 198.5 129.4 L 198.5 122.3 L 202.9 122.3 L 202.9 123.1 L 199.5 123.1 L 199.5 125.5 L 202.5 125.5 L 202.5 126.3 " fill="#000000"/>
<path class="atom-22" d="M 197.7 73.0 L 194.7 73.0 L 194.7 76.1 L 193.7 76.1 L 193.7 69.0 L 198.1 69.0 L 198.1 69.8 L 194.7 69.8 L 194.7 72.2 L 197.7 72.2 L 197.7 73.0 " fill="#000000"/>
<path class="legend" d="M 102.8 213.5 L 103.4 207.8 L 109.2 207.8 L 109.2 209.2 L 104.6 209.2 L 104.3 212.3 Q 105.1 211.8, 106.2 211.8 Q 107.7 211.8, 108.7 212.8 Q 109.6 213.8, 109.6 215.6 Q 109.6 217.4, 108.6 218.4 Q 107.7 219.4, 106.0 219.4 Q 104.5 219.4, 103.5 218.5 Q 102.6 217.7, 102.4 216.2 L 103.8 216.2 Q 103.9 217.2, 104.5 217.7 Q 105.0 218.2, 106.0 218.2 Q 107.0 218.2, 107.5 217.5 Q 108.1 216.8, 108.1 215.6 Q 108.1 214.5, 107.5 213.8 Q 106.9 213.1, 105.9 213.1 Q 104.9 213.1, 104.4 213.5 L 104.0 213.8 L 102.8 213.5 " fill="#000000"/>
<path class="legend" d="M 110.7 218.5 Q 110.7 218.1, 111.0 217.8 Q 111.2 217.6, 111.6 217.6 Q 112.1 217.6, 112.3 217.8 Q 112.5 218.1, 112.5 218.5 Q 112.5 218.8, 112.3 219.1 Q 112.1 219.3, 111.6 219.3 Q 111.2 219.3, 111.0 219.1 Q 110.7 218.8, 110.7 218.5 " fill="#000000"/>
<path class="legend" d="M 116.7 212.8 L 117.8 212.8 Q 118.8 212.8, 119.4 212.3 Q 120.0 211.8, 120.0 210.9 Q 120.0 208.9, 118.0 208.9 Q 117.0 208.9, 116.5 209.4 Q 115.9 209.9, 115.9 210.8 L 114.5 210.8 Q 114.5 209.5, 115.5 208.6 Q 116.4 207.7, 118.0 207.7 Q 119.6 207.7, 120.5 208.5 Q 121.4 209.4, 121.4 210.9 Q 121.4 211.6, 120.9 212.3 Q 120.4 213.0, 119.6 213.4 Q 120.6 213.7, 121.1 214.4 Q 121.6 215.1, 121.6 216.0 Q 121.6 217.6, 120.6 218.5 Q 119.6 219.4, 118.0 219.4 Q 116.4 219.4, 115.4 218.5 Q 114.4 217.6, 114.4 216.2 L 115.8 216.2 Q 115.8 217.1, 116.4 217.7 Q 117.0 218.2, 118.0 218.2 Q 119.0 218.2, 119.6 217.6 Q 120.1 217.1, 120.1 216.1 Q 120.1 215.1, 119.5 214.6 Q 118.9 214.0, 117.8 214.0 L 116.7 214.0 L 116.7 212.8 " fill="#000000"/>
<path class="bond-0 atom-0 atom-1" d="M 327.4,105.8 L 318.4,111.5" style="fill:none;fill-rule:evenodd;stroke:#000000;stroke-width:0.6px;stroke-linecap:butt;stroke-linejoin:miter;stroke-opacity:1"/>
<path class="bond-1 atom-1 atom-2" d="M 318.4,111.5 L 312.5,97.2" style="fill:none;fill-rule:evenodd;stroke:#000000;stroke-width:0.6px;stroke-linecap:butt;stroke-linejoin:miter;stroke-opacity:1"/>
<path class="bond-2 atom-2 atom-3" d="M 312.5,97.2 L 322.0,85.0" style="fill:none;fill-rule:evenodd;stroke:#000000;stroke-width:0.6px;stroke-linecap:butt;stroke-linejoin:miter;stroke-opacity:1"/>
<path class="bond-2 atom-2 atom-3" d="M 311.3,94.2 L 318.8,84.5" style="fill:none;fill-rule:evenodd;stroke:#000000;stroke-width:0.6px;stroke-linecap:butt;stroke-linejoin:miter;stroke-opacity:1"/>
<path class="bond-3 atom-3 atom-4" d="M 322.0,85.0 L 316.1,70.7" style="fill:none;fill-rule:evenodd;stroke:#000000;stroke-width:0.6px;stroke-linecap:butt;stroke-linejoin:miter;stroke-opacity:1"/>
<path class="bond-4 atom-4 atom-5" d="M 316.1,70.7 L 300.8,68.6" style="fill:none;fill-rule:evenodd;stroke:#000000;stroke-width:0.6px;stroke-linecap:butt;stroke-linejoin:miter;stroke-opacity:1"/>
<path class="bond-4 atom-4 atom-5" d="M 314.2,73.2 L 302.0,71.5" style="fill:none;fill-rule:evenodd;stroke:#000000;stroke-width:0.6px;stroke-linecap:butt;stroke-linejoin:miter;stroke-opacity:1"/>
<path class="bond-5 atom-5 atom-6" d="M 300.8,68.6 L 296.9,59.0" style="fill:none;fill-rule:evenodd;stroke:#000000;stroke-width:0.6px;stroke-linecap:butt;stroke-linejoin:miter;stroke-opacity:1"/>
<path class="bond-6 atom-5 atom-7" d="M 300.8,68.6 L 291.4,80.8" style="fill:none;fill-rule:evenodd;stroke:#000000;stroke-width:0.6px;stroke-linecap:butt;stroke-linejoin:miter;stroke-opacity:1"/>
<path class="bond-7 atom-7 atom-8" d="M 291.4,80.8 L 279.4,79.2" style="fill:none;fill-rule:evenodd;stroke:#000000;stroke-width:0.6px;stroke-linecap:butt;stroke-linejoin:miter;stroke-opacity:1"/>
<path class="bond-8 atom-7 atom-9" d="M 291.4,80.8 L 297.2,95.1" style="fill:none;fill-rule:evenodd;stroke:#000000;stroke-width:0.6px;stroke-linecap:butt;stroke-linejoin:miter;stroke-opacity:1"/>
<path class="bond-8 atom-7 atom-9" d="M 294.5,81.2 L 299.2,92.6" style="fill:none;fill-rule:evenodd;stroke:#000000;stroke-width:0.6px;stroke-linecap:butt;stroke-linejoin:miter;stroke-opacity:1"/>
<path class="bond-9 atom-1 atom-10" d="M 318.4,111.5 L 303.3,114.8" style="fill:none;fill-rule:evenodd;stroke:#000000;stroke-width:0.6px;stroke-linecap:butt;stroke-linejoin:miter;stroke-opacity:1"/>
<path class="bond-10 atom-10 atom-11" d="M 303.3,114.8 L 298.6,129.5" style="fill:none;fill-rule:evenodd;stroke:#000000;stroke-width:0.6px;stroke-linecap:butt;stroke-linejoin:miter;stroke-opacity:1"/>
<path class="bond-11 atom-11 atom-12" d="M 298.6,129.5 L 305.0,136.6" style="fill:none;fill-rule:evenodd;stroke:#000000;stroke-width:0.6px;stroke-linecap:butt;stroke-linejoin:miter;stroke-opacity:1"/>
<path class="bond-12 atom-12 atom-13" d="M 312.9,140.1 L 324.1,137.6" style="fill:none;fill-rule:evenodd;stroke:#000000;stroke-width:0.6px;stroke-linecap:butt;stroke-linejoin:miter;stroke-opacity:1"/>
<path class="bond-13 atom-13 atom-14" d="M 324.1,137.6 L 328.8,122.9" style="fill:none;fill-rule:evenodd;stroke:#000000;stroke-width:0.6px;stroke-linecap:butt;stroke-linejoin:miter;stroke-opacity:1"/>
<path class="bond-14 atom-14 atom-15" d="M 328.8,122.9 L 343.9,119.6" style="fill:none;fill-rule:evenodd;stroke:#000000;stroke-width:0.6px;stroke-linecap:butt;stroke-linejoin:miter;stroke-opacity:1"/>
<path class="bond-15 atom-15 atom-16" d="M 343.9,119.6 L 350.1,105.5" style="fill:none;fill-rule:evenodd;stroke:#000000;stroke-width:0.6px;stroke-linecap:butt;stroke-linejoin:miter;stroke-opacity:1"/>
<path class="bond-16 atom-16 atom-17" d="M 350.1,105.5 L 365.5,107.0" style="fill:none;fill-rule:evenodd;stroke:#000000;stroke-width:0.6px;stroke-linecap:butt;stroke-linejoin:miter;stroke-opacity:1"/>
<path class="bond-16 atom-16 atom-17" d="M 351.8,108.5 L 363.2,109.6" style="fill:none;fill-rule:evenodd;stroke:#000000;stroke-width:0.6px;stroke-linecap:butt;stroke-linejoin:miter;stroke-opacity:1"/>
<path class="bond-17 atom-17 atom-18" d="M 365.5,107.0 L 375.7,95.5" style="fill:none;fill-rule:evenodd;stroke:#000000;stroke-width:0.6px;stroke-linecap:butt;stroke-linejoin:miter;stroke-opacity:1"/>
<path class="bond-18 atom-18 atom-19" d="M 375.7,95.5 L 390.9,98.6" style="fill:none;fill-rule:evenodd;stroke:#000000;stroke-width:0.6px;stroke-linecap:butt;stroke-linejoin:miter;stroke-opacity:1"/>
<path class="bond-18 atom-18 atom-19" d="M 377.9,93.1 L 389.9,95.6" style="fill:none;fill-rule:evenodd;stroke:#000000;stroke-width:0.6px;stroke-linecap:butt;stroke-linejoin:miter;stroke-opacity:1"/>
<path class="bond-19 atom-19 atom-20" d="M 390.9,98.6 L 394.2,108.7" style="fill:none;fill-rule:evenodd;stroke:#000000;stroke-width:0.6px;stroke-linecap:butt;stroke-linejoin:miter;stroke-opacity:1"/>
<path class="bond-20 atom-19 atom-21" d="M 390.9,98.6 L 401.2,87.1" style="fill:none;fill-rule:evenodd;stroke:#000000;stroke-width:0.6px;stroke-linecap:butt;stroke-linejoin:miter;stroke-opacity:1"/>
<path class="bond-21 atom-21 atom-22" d="M 401.2,87.1 L 396.3,72.4" style="fill:none;fill-rule:evenodd;stroke:#000000;stroke-width:0.6px;stroke-linecap:butt;stroke-linejoin:miter;stroke-opacity:1"/>
<path class="bond-21 atom-21 atom-22" d="M 398.0,86.5 L 394.2,74.8" style="fill:none;fill-rule:evenodd;stroke:#000000;stroke-width:0.6px;stroke-linecap:butt;stroke-linejoin:miter;stroke-opacity:1"/>
<path class="bond-22 atom-22 atom-23" d="M 396.3,72.4 L 381.2,69.3" style="fill:none;fill-rule:evenodd;stroke:#000000;stroke-width:0.6px;stroke-linecap:butt;stroke-linejoin:miter;stroke-opacity:1"/>
<path class="bond-23 atom-23 atom-24" d="M 381.2,69.3 L 370.9,80.8" style="fill:none;fill-rule:evenodd;stroke:#000000;stroke-width:0.6px;stroke-linecap:butt;stroke-linejoin:miter;stroke-opacity:1"/>
<path class="bond-23 atom-23 atom-24" d="M 382.2,72.3 L 374.0,81.5" style="fill:none;fill-rule:evenodd;stroke:#000000;stroke-width:0.6px;stroke-linecap:butt;stroke-linejoin:miter;stroke-opacity:1"/>
<path class="bond-24 atom-24 atom-25" d="M 370.9,80.8 L 357.4,78.0" style="fill:none;fill-rule:evenodd;stroke:#000000;stroke-width:0.6px;stroke-linecap:butt;stroke-linejoin:miter;stroke-opacity:1"/>
<path class="bond-25 atom-17 atom-26" d="M 365.5,107.0 L 367.7,117.3" style="fill:none;fill-rule:evenodd;stroke:#000000;stroke-width:0.6px;stroke-linecap:butt;stroke-linejoin:miter;stroke-opacity:1"/>
<path class="bond-26 atom-26 atom-27" d="M 364.7,124.5 L 359.3,127.6" style="fill:none;fill-rule:evenodd;stroke:#000000;stroke-width:0.6px;stroke-linecap:butt;stroke-linejoin:miter;stroke-opacity:1"/>
<path class="bond-27 atom-14 atom-1" d="M 328.8,122.9 L 318.4,111.5" style="fill:none;fill-rule:evenodd;stroke:#000000;stroke-width:0.6px;stroke-linecap:butt;stroke-linejoin:miter;stroke-opacity:1"/>
<path class="bond-28 atom-27 atom-15" d="M 351.5,126.4 L 343.9,119.6" style="fill:none;fill-rule:evenodd;stroke:#000000;stroke-width:0.6px;stroke-linecap:butt;stroke-linejoin:miter;stroke-opacity:1"/>
<path class="bond-28 atom-27 atom-15" d="M 353.3,124.3 L 347.2,118.9" style="fill:none;fill-rule:evenodd;stroke:#000000;stroke-width:0.6px;stroke-linecap:butt;stroke-linejoin:miter;stroke-opacity:1"/>
<path class="bond-29 atom-9 atom-2" d="M 297.2,95.1 L 312.5,97.2" style="fill:none;fill-rule:evenodd;stroke:#000000;stroke-width:0.6px;stroke-linecap:butt;stroke-linejoin:miter;stroke-opacity:1"/>
<path class="bond-30 atom-24 atom-18" d="M 370.9,80.8 L 375.7,95.5" style="fill:none;fill-rule:evenodd;stroke:#000000;stroke-width:0.6px;stroke-linecap:butt;stroke-linejoin:miter;stroke-opacity:1"/>
<path d="M 321.5,85.6 L 322.0,85.0 L 321.7,84.2" style="fill:none;stroke:#000000;stroke-width:0.6px;stroke-linecap:butt;stroke-linejoin:miter;stroke-opacity:1;"/>
<path d="M 316.4,71.4 L 316.1,70.7 L 315.4,70.5" style="fill:none;stroke:#000000;stroke-width:0.6px;stroke-linecap:butt;stroke-linejoin:miter;stroke-opacity:1;"/>
<path d="M 296.9,94.4 L 297.2,95.1 L 298.0,95.2" style="fill:none;stroke:#000000;stroke-width:0.6px;stroke-linecap:butt;stroke-linejoin:miter;stroke-opacity:1;"/>
<path d="M 304.0,114.6 L 303.3,114.8 L 303.0,115.5" style="fill:none;stroke:#000000;stroke-width:0.6px;stroke-linecap:butt;stroke-linejoin:miter;stroke-opacity:1;"/>
<path d="M 298.8,128.7 L 298.6,129.5 L 298.9,129.8" style="fill:none;stroke:#000000;stroke-width:0.6px;stroke-linecap:butt;stroke-linejoin:miter;stroke-opacity:1;"/>
<path d="M 323.5,137.7 L 324.1,137.6 L 324.3,136.9" style="fill:none;stroke:#000000;stroke-width:0.6px;stroke-linecap:butt;stroke-linejoin:miter;stroke-opacity:1;"/>
<path d="M 349.8,106.2 L 350.1,105.5 L 350.9,105.6" style="fill:none;stroke:#000000;stroke-width:0.6px;stroke-linecap:butt;stroke-linejoin:miter;stroke-opacity:1;"/>
<path d="M 400.6,87.7 L 401.2,87.1 L 400.9,86.4" style="fill:none;stroke:#000000;stroke-width:0.6px;stroke-linecap:butt;stroke-linejoin:miter;stroke-opacity:1;"/>
<path d="M 396.6,73.2 L 396.3,72.4 L 395.6,72.3" style="fill:none;stroke:#000000;stroke-width:0.6px;stroke-linecap:butt;stroke-linejoin:miter;stroke-opacity:1;"/>
<path d="M 381.9,69.4 L 381.2,69.3 L 380.7,69.9" style="fill:none;stroke:#000000;stroke-width:0.6px;stroke-linecap:butt;stroke-linejoin:miter;stroke-opacity:1;"/>
<path class="atom-0" d="M 334.3 103.5 Q 334.3 104.5, 333.9 105.3 Q 333.6 106.1, 333.0 106.5 Q 332.3 106.9, 331.4 106.9 Q 330.6 106.9, 330.0 106.5 Q 329.3 106.1, 328.9 105.3 Q 328.6 104.6, 328.6 103.6 L 328.6 103.1 Q 328.6 102.0, 328.9 101.2 Q 329.3 100.5, 329.9 100.0 Q 330.6 99.6, 331.4 99.6 Q 332.3 99.6, 332.9 100.0 Q 333.6 100.4, 333.9 101.2 Q 334.3 102.0, 334.3 103.1 L 334.3 103.5 M 333.4 103.0 Q 333.4 101.8, 332.9 101.1 Q 332.3 100.4, 331.4 100.4 Q 330.5 100.4, 330.0 101.1 Q 329.5 101.8, 329.5 103.0 L 329.5 103.5 Q 329.5 104.7, 330.0 105.4 Q 330.5 106.1, 331.4 106.1 Q 332.4 106.1, 332.9 105.5 Q 333.4 104.8, 333.4 103.6 L 333.4 103.0 " fill="#000000"/>
<path class="atom-0" d="M 340.9 106.8 L 340.0 106.8 L 340.0 103.5 L 336.4 103.5 L 336.4 106.8 L 335.4 106.8 L 335.4 99.7 L 336.4 99.7 L 336.4 102.8 L 340.0 102.8 L 340.0 99.7 L 340.9 99.7 L 340.9 106.8 " fill="#000000"/>
<path class="atom-6" d="M 296.7 54.7 L 293.7 54.7 L 293.7 57.8 L 292.8 57.8 L 292.8 50.7 L 297.2 50.7 L 297.2 51.5 L 293.7 51.5 L 293.7 53.9 L 296.7 53.9 L 296.7 54.7 " fill="#000000"/>
<path class="atom-8" d="M 277.8 79.1 L 274.8 79.1 L 274.8 82.3 L 273.8 82.3 L 273.8 75.2 L 278.2 75.2 L 278.2 75.9 L 274.8 75.9 L 274.8 78.4 L 277.8 78.4 L 277.8 79.1 " fill="#000000"/>
<path class="atom-12" d="M 311.7 144.5 L 310.7 144.5 L 307.2 139.0 L 307.2 144.5 L 306.2 144.5 L 306.2 137.4 L 307.2 137.4 L 310.8 142.9 L 310.8 137.4 L 311.7 137.4 L 311.7 144.5 " fill="#000000"/>
<path class="atom-12" d="M 311.7 152.3 L 310.7 152.3 L 310.7 149.0 L 307.2 149.0 L 307.2 152.3 L 306.2 152.3 L 306.2 145.2 L 307.2 145.2 L 307.2 148.2 L 310.7 148.2 L 310.7 145.2 L 311.7 145.2 L 311.7 152.3 " fill="#000000"/>
<path class="atom-20" d="M 398.5 114.8 Q 398.3 115.9, 397.6 116.5 Q 396.9 117.2, 395.8 117.2 Q 394.5 117.2, 393.7 116.3 Q 393.0 115.4, 393.0 113.8 L 393.0 113.2 Q 393.0 112.2, 393.3 111.4 Q 393.7 110.7, 394.3 110.3 Q 395.0 109.9, 395.8 109.9 Q 397.0 109.9, 397.7 110.5 Q 398.3 111.1, 398.5 112.2 L 397.5 112.2 Q 397.4 111.4, 397.0 111.0 Q 396.6 110.6, 395.8 110.6 Q 394.9 110.6, 394.4 111.3 Q 393.9 112.0, 393.9 113.2 L 393.9 113.9 Q 393.9 115.0, 394.4 115.7 Q 394.9 116.4, 395.8 116.4 Q 396.5 116.4, 397.0 116.0 Q 397.4 115.7, 397.5 114.8 L 398.5 114.8 " fill="#000000"/>
<path class="atom-20" d="M 400.1 117.1 L 399.2 117.1 L 399.2 109.6 L 400.1 109.6 L 400.1 117.1 " fill="#000000"/>
<path class="atom-25" d="M 354.5 79.2 Q 354.4 80.3, 353.7 80.9 Q 353.0 81.5, 351.9 81.5 Q 350.6 81.5, 349.8 80.6 Q 349.1 79.7, 349.1 78.2 L 349.1 77.5 Q 349.1 76.5, 349.4 75.8 Q 349.8 75.0, 350.4 74.6 Q 351.1 74.2, 351.9 74.2 Q 353.1 74.2, 353.8 74.9 Q 354.4 75.5, 354.5 76.6 L 353.6 76.6 Q 353.5 75.8, 353.1 75.4 Q 352.7 75.0, 351.9 75.0 Q 351.0 75.0, 350.5 75.7 Q 350.0 76.3, 350.0 77.5 L 350.0 78.2 Q 350.0 79.4, 350.5 80.1 Q 351.0 80.8, 351.9 80.8 Q 352.6 80.8, 353.1 80.4 Q 353.5 80.1, 353.6 79.2 L 354.5 79.2 " fill="#000000"/>
<path class="atom-25" d="M 356.2 81.4 L 355.3 81.4 L 355.3 73.9 L 356.2 73.9 L 356.2 81.4 " fill="#000000"/>
<path class="atom-26" d="M 371.6 122.4 Q 371.6 123.4, 371.2 124.2 Q 370.9 125.0, 370.3 125.4 Q 369.6 125.8, 368.7 125.8 Q 367.9 125.8, 367.3 125.4 Q 366.6 125.0, 366.2 124.2 Q 365.9 123.5, 365.9 122.5 L 365.9 122.0 Q 365.9 120.9, 366.2 120.1 Q 366.6 119.4, 367.2 118.9 Q 367.9 118.5, 368.7 118.5 Q 369.6 118.5, 370.2 118.9 Q 370.9 119.3, 371.2 120.1 Q 371.6 120.9, 371.6 122.0 L 371.6 122.4 M 370.7 121.9 Q 370.7 120.7, 370.2 120.0 Q 369.7 119.3, 368.7 119.3 Q 367.9 119.3, 367.3 120.0 Q 366.8 120.7, 366.8 121.9 L 366.8 122.4 Q 366.8 123.6, 367.3 124.3 Q 367.8 125.0, 368.7 125.0 Q 369.7 125.0, 370.2 124.4 Q 370.7 123.7, 370.7 122.5 L 370.7 121.9 " fill="#000000"/>
<path class="atom-27" d="M 358.1 133.5 L 357.2 133.5 L 353.6 128.0 L 353.6 133.5 L 352.7 133.5 L 352.7 126.4 L 353.6 126.4 L 357.2 131.9 L 357.2 126.4 L 358.1 126.4 L 358.1 133.5 " fill="#000000"/>
<path class="legend" d="M 327.9 213.5 L 328.4 207.8 L 334.3 207.8 L 334.3 209.2 L 329.7 209.2 L 329.3 212.3 Q 330.2 211.8, 331.2 211.8 Q 332.8 211.8, 333.7 212.8 Q 334.6 213.8, 334.6 215.6 Q 334.6 217.4, 333.6 218.4 Q 332.7 219.4, 331.0 219.4 Q 329.5 219.4, 328.5 218.5 Q 327.6 217.7, 327.5 216.2 L 328.8 216.2 Q 329.0 217.2, 329.5 217.7 Q 330.1 218.2, 331.0 218.2 Q 332.0 218.2, 332.6 217.5 Q 333.2 216.8, 333.2 215.6 Q 333.2 214.5, 332.5 213.8 Q 331.9 213.1, 330.9 213.1 Q 329.9 213.1, 329.4 213.5 L 329.0 213.8 L 327.9 213.5 " fill="#000000"/>
<path class="legend" d="M 335.8 218.5 Q 335.8 218.1, 336.0 217.8 Q 336.2 217.6, 336.7 217.6 Q 337.1 217.6, 337.3 217.8 Q 337.6 218.1, 337.6 218.5 Q 337.6 218.8, 337.3 219.1 Q 337.1 219.3, 336.7 219.3 Q 336.2 219.3, 336.0 219.1 Q 335.8 218.8, 335.8 218.5 " fill="#000000"/>
<path class="legend" d="M 345.1 214.2 Q 344.6 214.8, 344.0 215.1 Q 343.4 215.4, 342.6 215.4 Q 341.6 215.4, 340.9 214.9 Q 340.2 214.4, 339.8 213.6 Q 339.4 212.7, 339.4 211.6 Q 339.4 210.5, 339.8 209.6 Q 340.3 208.7, 341.1 208.2 Q 341.9 207.7, 342.9 207.7 Q 344.6 207.7, 345.6 209.0 Q 346.5 210.2, 346.5 212.4 L 346.5 212.8 Q 346.5 216.1, 345.2 217.7 Q 343.9 219.2, 341.3 219.2 L 341.0 219.2 L 341.0 218.0 L 341.3 218.0 Q 343.1 218.0, 344.0 217.1 Q 345.0 216.2, 345.1 214.2 M 342.9 214.2 Q 343.6 214.2, 344.2 213.8 Q 344.8 213.3, 345.1 212.7 L 345.1 212.1 Q 345.1 210.7, 344.5 209.8 Q 343.9 208.9, 342.9 208.9 Q 342.0 208.9, 341.4 209.6 Q 340.8 210.4, 340.8 211.5 Q 340.8 212.7, 341.4 213.5 Q 341.9 214.2, 342.9 214.2 " fill="#000000"/>
<path class="bond-0 atom-0 atom-1" d="M 659.1,156.8 L 661.0,146.5" style="fill:none;fill-rule:evenodd;stroke:#000000;stroke-width:0.6px;stroke-linecap:butt;stroke-linejoin:miter;stroke-opacity:1"/>
<path class="bond-1 atom-1 atom-2" d="M 657.8,138.2 L 650.1,131.6" style="fill:none;fill-rule:evenodd;stroke:#000000;stroke-width:0.6px;stroke-linecap:butt;stroke-linejoin:miter;stroke-opacity:1"/>
<path class="bond-2 atom-2 atom-3" d="M 650.1,131.6 L 652.9,116.4" style="fill:none;fill-rule:evenodd;stroke:#000000;stroke-width:0.6px;stroke-linecap:butt;stroke-linejoin:miter;stroke-opacity:1"/>
<path class="bond-3 atom-3 atom-4" d="M 652.9,116.4 L 641.2,106.4" style="fill:none;fill-rule:evenodd;stroke:#000000;stroke-width:0.6px;stroke-linecap:butt;stroke-linejoin:miter;stroke-opacity:1"/>
<path class="bond-4 atom-4 atom-5" d="M 641.2,106.4 L 643.1,96.1" style="fill:none;fill-rule:evenodd;stroke:#000000;stroke-width:0.6px;stroke-linecap:butt;stroke-linejoin:miter;stroke-opacity:1"/>
<path class="bond-5 atom-5 atom-6" d="M 639.9,87.7 L 632.2,81.1" style="fill:none;fill-rule:evenodd;stroke:#000000;stroke-width:0.6px;stroke-linecap:butt;stroke-linejoin:miter;stroke-opacity:1"/>
<path class="bond-6 atom-6 atom-7" d="M 632.2,81.1 L 617.7,86.3" style="fill:none;fill-rule:evenodd;stroke:#000000;stroke-width:0.6px;stroke-linecap:butt;stroke-linejoin:miter;stroke-opacity:1"/>
<path class="bond-6 atom-6 atom-7" d="M 629.8,79.1 L 618.2,83.1" style="fill:none;fill-rule:evenodd;stroke:#000000;stroke-width:0.6px;stroke-linecap:butt;stroke-linejoin:miter;stroke-opacity:1"/>
<path class="bond-7 atom-7 atom-8" d="M 617.7,86.3 L 605.9,76.3" style="fill:none;fill-rule:evenodd;stroke:#000000;stroke-width:0.6px;stroke-linecap:butt;stroke-linejoin:miter;stroke-opacity:1"/>
<path class="bond-8 atom-8 atom-9" d="M 605.9,76.3 L 591.3,81.4" style="fill:none;fill-rule:evenodd;stroke:#000000;stroke-width:0.6px;stroke-linecap:butt;stroke-linejoin:miter;stroke-opacity:1"/>
<path class="bond-9 atom-9 atom-10" d="M 591.3,81.4 L 579.6,71.4" style="fill:none;fill-rule:evenodd;stroke:#000000;stroke-width:0.6px;stroke-linecap:butt;stroke-linejoin:miter;stroke-opacity:1"/>
<path class="bond-10 atom-10 atom-11" d="M 579.6,71.4 L 565.0,76.6" style="fill:none;fill-rule:evenodd;stroke:#000000;stroke-width:0.6px;stroke-linecap:butt;stroke-linejoin:miter;stroke-opacity:1"/>
<path class="bond-11 atom-11 atom-12" d="M 565.0,76.6 L 553.3,66.5" style="fill:none;fill-rule:evenodd;stroke:#000000;stroke-width:0.6px;stroke-linecap:butt;stroke-linejoin:miter;stroke-opacity:1"/>
<path class="bond-12 atom-12 atom-13" d="M 553.3,66.5 L 555.2,56.1" style="fill:none;fill-rule:evenodd;stroke:#000000;stroke-width:0.6px;stroke-linecap:butt;stroke-linejoin:miter;stroke-opacity:1"/>
<path class="bond-13 atom-12 atom-14" d="M 553.3,66.5 L 538.7,71.7" style="fill:none;fill-rule:evenodd;stroke:#000000;stroke-width:0.6px;stroke-linecap:butt;stroke-linejoin:miter;stroke-opacity:1"/>
<path class="bond-14 atom-14 atom-15" d="M 538.7,71.7 L 536.8,82.1" style="fill:none;fill-rule:evenodd;stroke:#000000;stroke-width:0.6px;stroke-linecap:butt;stroke-linejoin:miter;stroke-opacity:1"/>
<path class="bond-15 atom-14 atom-16" d="M 538.7,71.7 L 526.9,61.7" style="fill:none;fill-rule:evenodd;stroke:#000000;stroke-width:0.6px;stroke-linecap:butt;stroke-linejoin:miter;stroke-opacity:1"/>
<path class="bond-16 atom-16 atom-17" d="M 526.9,61.7 L 512.4,66.8" style="fill:none;fill-rule:evenodd;stroke:#000000;stroke-width:0.6px;stroke-linecap:butt;stroke-linejoin:miter;stroke-opacity:1"/>
<path class="bond-17 atom-17 atom-18" d="M 512.4,66.8 L 500.6,56.8" style="fill:none;fill-rule:evenodd;stroke:#000000;stroke-width:0.6px;stroke-linecap:butt;stroke-linejoin:miter;stroke-opacity:1"/>
<path class="bond-18 atom-17 atom-19" d="M 512.4,66.8 L 509.6,82.0" style="fill:none;fill-rule:evenodd;stroke:#000000;stroke-width:0.6px;stroke-linecap:butt;stroke-linejoin:miter;stroke-opacity:1"/>
<path class="bond-19 atom-19 atom-20" d="M 508.1,82.6 L 516.4,89.7" style="fill:none;fill-rule:evenodd;stroke:#000000;stroke-width:0.6px;stroke-linecap:butt;stroke-linejoin:miter;stroke-opacity:1"/>
<path class="bond-19 atom-19 atom-20" d="M 509.9,80.5 L 518.2,87.6" style="fill:none;fill-rule:evenodd;stroke:#000000;stroke-width:0.6px;stroke-linecap:butt;stroke-linejoin:miter;stroke-opacity:1"/>
<path class="bond-20 atom-19 atom-21" d="M 509.6,82.0 L 498.9,85.8" style="fill:none;fill-rule:evenodd;stroke:#000000;stroke-width:0.6px;stroke-linecap:butt;stroke-linejoin:miter;stroke-opacity:1"/>
<path class="bond-21 atom-21 atom-22" d="M 494.1,92.0 L 492.2,102.4" style="fill:none;fill-rule:evenodd;stroke:#000000;stroke-width:0.6px;stroke-linecap:butt;stroke-linejoin:miter;stroke-opacity:1"/>
<path class="bond-22 atom-22 atom-23" d="M 492.2,102.4 L 477.6,107.6" style="fill:none;fill-rule:evenodd;stroke:#000000;stroke-width:0.6px;stroke-linecap:butt;stroke-linejoin:miter;stroke-opacity:1"/>
<path class="bond-23 atom-23 atom-24" d="M 477.6,107.6 L 475.7,118.0" style="fill:none;fill-rule:evenodd;stroke:#000000;stroke-width:0.6px;stroke-linecap:butt;stroke-linejoin:miter;stroke-opacity:1"/>
<path class="bond-24 atom-24 atom-25" d="M 470.9,124.2 L 460.3,127.9" style="fill:none;fill-rule:evenodd;stroke:#000000;stroke-width:0.6px;stroke-linecap:butt;stroke-linejoin:miter;stroke-opacity:1"/>
<path class="bond-25 atom-24 atom-26" d="M 478.8,126.1 L 486.6,132.8" style="fill:none;fill-rule:evenodd;stroke:#000000;stroke-width:0.6px;stroke-linecap:butt;stroke-linejoin:miter;stroke-opacity:1"/>
<path class="bond-26 atom-10 atom-27" d="M 579.6,71.4 L 582.4,56.2" style="fill:none;fill-rule:evenodd;stroke:#000000;stroke-width:0.6px;stroke-linecap:butt;stroke-linejoin:miter;stroke-opacity:1"/>
<path class="bond-27 atom-27 atom-28" d="M 582.4,56.2 L 570.6,46.2" style="fill:none;fill-rule:evenodd;stroke:#000000;stroke-width:0.6px;stroke-linecap:butt;stroke-linejoin:miter;stroke-opacity:1"/>
<path class="bond-28 atom-27 atom-29" d="M 582.4,56.2 L 597.0,51.1" style="fill:none;fill-rule:evenodd;stroke:#000000;stroke-width:0.6px;stroke-linecap:butt;stroke-linejoin:miter;stroke-opacity:1"/>
<path class="bond-29 atom-8 atom-30" d="M 605.9,76.3 L 608.7,61.1" style="fill:none;fill-rule:evenodd;stroke:#000000;stroke-width:0.6px;stroke-linecap:butt;stroke-linejoin:miter;stroke-opacity:1"/>
<path class="bond-29 atom-8 atom-30" d="M 608.9,75.2 L 611.2,63.2" style="fill:none;fill-rule:evenodd;stroke:#000000;stroke-width:0.6px;stroke-linecap:butt;stroke-linejoin:miter;stroke-opacity:1"/>
<path class="bond-30 atom-30 atom-31" d="M 608.7,61.1 L 623.3,55.9" style="fill:none;fill-rule:evenodd;stroke:#000000;stroke-width:0.6px;stroke-linecap:butt;stroke-linejoin:miter;stroke-opacity:1"/>
<path class="bond-31 atom-31 atom-32" d="M 623.3,55.9 L 635.0,65.9" style="fill:none;fill-rule:evenodd;stroke:#000000;stroke-width:0.6px;stroke-linecap:butt;stroke-linejoin:miter;stroke-opacity:1"/>
<path class="bond-31 atom-31 atom-32" d="M 622.7,59.1 L 632.0,67.0" style="fill:none;fill-rule:evenodd;stroke:#000000;stroke-width:0.6px;stroke-linecap:butt;stroke-linejoin:miter;stroke-opacity:1"/>
<path class="bond-32 atom-32 atom-33" d="M 635.0,65.9 L 645.5,62.2" style="fill:none;fill-rule:evenodd;stroke:#000000;stroke-width:0.6px;stroke-linecap:butt;stroke-linejoin:miter;stroke-opacity:1"/>
<path class="bond-33 atom-33 atom-34" d="M 653.6,64.2 L 661.3,70.8" style="fill:none;fill-rule:evenodd;stroke:#000000;stroke-width:0.6px;stroke-linecap:butt;stroke-linejoin:miter;stroke-opacity:1"/>
<path class="bond-34 atom-32 atom-6" d="M 635.0,65.9 L 632.2,81.1" style="fill:none;fill-rule:evenodd;stroke:#000000;stroke-width:0.6px;stroke-linecap:butt;stroke-linejoin:miter;stroke-opacity:1"/>
<path d="M 650.5,131.9 L 650.1,131.6 L 650.3,130.8" style="fill:none;stroke:#000000;stroke-width:0.6px;stroke-linecap:butt;stroke-linejoin:miter;stroke-opacity:1;"/>
<path d="M 652.8,117.2 L 652.9,116.4 L 652.3,115.9" style="fill:none;stroke:#000000;stroke-width:0.6px;stroke-linecap:butt;stroke-linejoin:miter;stroke-opacity:1;"/>
<path d="M 641.8,106.9 L 641.2,106.4 L 641.3,105.8" style="fill:none;stroke:#000000;stroke-width:0.6px;stroke-linecap:butt;stroke-linejoin:miter;stroke-opacity:1;"/>
<path d="M 618.4,86.0 L 617.7,86.3 L 617.1,85.8" style="fill:none;stroke:#000000;stroke-width:0.6px;stroke-linecap:butt;stroke-linejoin:miter;stroke-opacity:1;"/>
<path d="M 592.1,81.2 L 591.3,81.4 L 590.8,80.9" style="fill:none;stroke:#000000;stroke-width:0.6px;stroke-linecap:butt;stroke-linejoin:miter;stroke-opacity:1;"/>
<path d="M 565.8,76.3 L 565.0,76.6 L 564.4,76.1" style="fill:none;stroke:#000000;stroke-width:0.6px;stroke-linecap:butt;stroke-linejoin:miter;stroke-opacity:1;"/>
<path d="M 527.5,62.2 L 526.9,61.7 L 526.2,61.9" style="fill:none;stroke:#000000;stroke-width:0.6px;stroke-linecap:butt;stroke-linejoin:miter;stroke-opacity:1;"/>
<path d="M 509.7,81.3 L 509.6,82.0 L 509.0,82.2" style="fill:none;stroke:#000000;stroke-width:0.6px;stroke-linecap:butt;stroke-linejoin:miter;stroke-opacity:1;"/>
<path d="M 492.3,101.9 L 492.2,102.4 L 491.5,102.7" style="fill:none;stroke:#000000;stroke-width:0.6px;stroke-linecap:butt;stroke-linejoin:miter;stroke-opacity:1;"/>
<path d="M 478.4,107.3 L 477.6,107.6 L 477.5,108.1" style="fill:none;stroke:#000000;stroke-width:0.6px;stroke-linecap:butt;stroke-linejoin:miter;stroke-opacity:1;"/>
<path d="M 608.6,61.8 L 608.7,61.1 L 609.4,60.8" style="fill:none;stroke:#000000;stroke-width:0.6px;stroke-linecap:butt;stroke-linejoin:miter;stroke-opacity:1;"/>
<path d="M 622.5,56.2 L 623.3,55.9 L 623.9,56.4" style="fill:none;stroke:#000000;stroke-width:0.6px;stroke-linecap:butt;stroke-linejoin:miter;stroke-opacity:1;"/>
<path class="atom-1" d="M 664.7 141.9 Q 664.7 142.9, 664.4 143.7 Q 664.0 144.5, 663.4 144.9 Q 662.7 145.3, 661.9 145.3 Q 661.0 145.3, 660.4 144.9 Q 659.7 144.5, 659.4 143.7 Q 659.0 143.0, 659.0 142.0 L 659.0 141.4 Q 659.0 140.4, 659.4 139.6 Q 659.7 138.8, 660.4 138.4 Q 661.0 138.0, 661.9 138.0 Q 662.7 138.0, 663.4 138.4 Q 664.0 138.8, 664.4 139.6 Q 664.7 140.4, 664.7 141.4 L 664.7 141.9 M 663.8 141.4 Q 663.8 140.2, 663.3 139.5 Q 662.8 138.8, 661.9 138.8 Q 661.0 138.8, 660.5 139.5 Q 660.0 140.2, 659.9 141.4 L 659.9 141.9 Q 659.9 143.1, 660.5 143.8 Q 661.0 144.5, 661.9 144.5 Q 662.8 144.5, 663.3 143.9 Q 663.8 143.2, 663.8 142.0 L 663.8 141.4 " fill="#000000"/>
<path class="atom-5" d="M 646.8 91.4 Q 646.8 92.5, 646.5 93.3 Q 646.1 94.1, 645.5 94.5 Q 644.8 94.9, 644.0 94.9 Q 643.1 94.9, 642.5 94.5 Q 641.8 94.0, 641.5 93.3 Q 641.1 92.5, 641.1 91.5 L 641.1 91.0 Q 641.1 90.0, 641.5 89.2 Q 641.8 88.4, 642.5 88.0 Q 643.1 87.6, 644.0 87.6 Q 644.8 87.6, 645.5 88.0 Q 646.1 88.4, 646.5 89.2 Q 646.8 90.0, 646.8 91.0 L 646.8 91.4 M 645.9 91.0 Q 645.9 89.7, 645.4 89.1 Q 644.9 88.4, 644.0 88.4 Q 643.1 88.4, 642.6 89.1 Q 642.1 89.7, 642.1 90.9 L 642.1 91.4 Q 642.1 92.7, 642.6 93.4 Q 643.1 94.1, 644.0 94.1 Q 644.9 94.1, 645.4 93.4 Q 645.9 92.8, 645.9 91.5 L 645.9 91.0 " fill="#000000"/>
<path class="atom-13" d="M 558.8 54.9 L 557.9 54.9 L 554.3 49.4 L 554.3 54.9 L 553.3 54.9 L 553.3 47.8 L 554.3 47.8 L 557.9 53.3 L 557.9 47.8 L 558.8 47.8 L 558.8 54.9 " fill="#000000"/>
<path class="atom-13" d="M 565.6 54.9 L 564.7 54.9 L 564.7 51.6 L 561.1 51.6 L 561.1 54.9 L 560.2 54.9 L 560.2 47.8 L 561.1 47.8 L 561.1 50.9 L 564.7 50.9 L 564.7 47.8 L 565.6 47.8 L 565.6 54.9 " fill="#000000"/>
<path class="atom-13" d="M 570.2 58.5 L 567.1 58.5 L 567.1 58.0 L 568.7 56.2 Q 569.1 55.8, 569.2 55.6 Q 569.3 55.3, 569.3 55.0 Q 569.3 54.7, 569.1 54.4 Q 568.9 54.2, 568.5 54.2 Q 568.1 54.2, 567.8 54.4 Q 567.6 54.7, 567.6 55.2 L 567.0 55.2 Q 567.0 54.5, 567.4 54.1 Q 567.8 53.7, 568.5 53.7 Q 569.2 53.7, 569.6 54.0 Q 569.9 54.4, 569.9 55.0 Q 569.9 55.7, 569.1 56.6 L 567.8 58.0 L 570.2 58.0 L 570.2 58.5 " fill="#000000"/>
<path class="atom-15" d="M 538.8 87.2 Q 538.8 88.2, 538.4 89.0 Q 538.1 89.8, 537.4 90.2 Q 536.8 90.6, 535.9 90.6 Q 535.1 90.6, 534.4 90.2 Q 533.8 89.8, 533.4 89.0 Q 533.0 88.3, 533.0 87.2 L 533.0 86.7 Q 533.0 85.7, 533.4 84.9 Q 533.7 84.1, 534.4 83.7 Q 535.1 83.3, 535.9 83.3 Q 536.7 83.3, 537.4 83.7 Q 538.1 84.1, 538.4 84.9 Q 538.8 85.7, 538.8 86.7 L 538.8 87.2 M 537.8 86.7 Q 537.8 85.5, 537.3 84.8 Q 536.8 84.1, 535.9 84.1 Q 535.0 84.1, 534.5 84.8 Q 534.0 85.5, 534.0 86.7 L 534.0 87.2 Q 534.0 88.4, 534.5 89.1 Q 535.0 89.8, 535.9 89.8 Q 536.8 89.8, 537.3 89.2 Q 537.8 88.5, 537.8 87.3 L 537.8 86.7 " fill="#000000"/>
<path class="atom-15" d="M 545.4 90.5 L 544.4 90.5 L 544.4 87.2 L 540.8 87.2 L 540.8 90.5 L 539.9 90.5 L 539.9 83.4 L 540.8 83.4 L 540.8 86.5 L 544.4 86.5 L 544.4 83.4 L 545.4 83.4 L 545.4 90.5 " fill="#000000"/>
<path class="atom-20" d="M 524.2 92.4 Q 524.2 93.4, 523.8 94.2 Q 523.5 95.0, 522.8 95.4 Q 522.2 95.8, 521.3 95.8 Q 520.5 95.8, 519.9 95.4 Q 519.2 94.9, 518.8 94.2 Q 518.5 93.4, 518.5 92.4 L 518.5 91.9 Q 518.5 90.9, 518.8 90.1 Q 519.2 89.3, 519.8 88.9 Q 520.5 88.5, 521.3 88.5 Q 522.2 88.5, 522.8 88.9 Q 523.5 89.3, 523.8 90.1 Q 524.2 90.9, 524.2 91.9 L 524.2 92.4 M 523.3 91.9 Q 523.3 90.6, 522.8 90.0 Q 522.2 89.3, 521.3 89.3 Q 520.4 89.3, 519.9 90.0 Q 519.4 90.6, 519.4 91.8 L 519.4 92.4 Q 519.4 93.6, 519.9 94.3 Q 520.4 95.0, 521.3 95.0 Q 522.2 95.0, 522.7 94.3 Q 523.2 93.7, 523.3 92.4 L 523.3 91.9 " fill="#000000"/>
<path class="atom-21" d="M 490.9 90.8 L 490.0 90.8 L 490.0 87.5 L 486.4 87.5 L 486.4 90.8 L 485.4 90.8 L 485.4 83.7 L 486.4 83.7 L 486.4 86.7 L 490.0 86.7 L 490.0 83.7 L 490.9 83.7 L 490.9 90.8 " fill="#000000"/>
<path class="atom-21" d="M 497.7 90.8 L 496.8 90.8 L 493.2 85.3 L 493.2 90.8 L 492.3 90.8 L 492.3 83.7 L 493.2 83.7 L 496.8 89.2 L 496.8 83.7 L 497.7 83.7 L 497.7 90.8 " fill="#000000"/>
<path class="atom-24" d="M 477.6 126.3 L 476.6 126.3 L 473.0 120.8 L 473.0 126.3 L 472.1 126.3 L 472.1 119.2 L 473.0 119.2 L 476.6 124.7 L 476.6 119.2 L 477.6 119.2 L 477.6 126.3 " fill="#000000"/>
<path class="atom-33" d="M 652.5 61.1 Q 652.5 62.1, 652.1 62.9 Q 651.8 63.7, 651.1 64.1 Q 650.5 64.5, 649.6 64.5 Q 648.8 64.5, 648.1 64.1 Q 647.5 63.7, 647.1 62.9 Q 646.7 62.1, 646.7 61.1 L 646.7 60.6 Q 646.7 59.6, 647.1 58.8 Q 647.4 58.0, 648.1 57.6 Q 648.8 57.2, 649.6 57.2 Q 650.4 57.2, 651.1 57.6 Q 651.8 58.0, 652.1 58.8 Q 652.5 59.6, 652.5 60.6 L 652.5 61.1 M 651.5 60.6 Q 651.5 59.3, 651.0 58.7 Q 650.5 58.0, 649.6 58.0 Q 648.7 58.0, 648.2 58.7 Q 647.7 59.3, 647.7 60.5 L 647.7 61.1 Q 647.7 62.3, 648.2 63.0 Q 648.7 63.7, 649.6 63.7 Q 650.5 63.7, 651.0 63.0 Q 651.5 62.4, 651.5 61.1 L 651.5 60.6 " fill="#000000"/>
<path class="legend" d="M 559.5 208.7 L 554.8 219.3 L 553.3 219.3 L 558.0 209.1 L 551.8 209.1 L 551.8 207.9 L 559.5 207.9 L 559.5 208.7 " fill="#000000"/>
<path class="legend" d="M 560.8 218.5 Q 560.8 218.2, 561.0 217.9 Q 561.2 217.7, 561.7 217.7 Q 562.1 217.7, 562.4 217.9 Q 562.6 218.2, 562.6 218.5 Q 562.6 218.9, 562.4 219.1 Q 562.1 219.4, 561.7 219.4 Q 561.2 219.4, 561.0 219.1 Q 560.8 218.9, 560.8 218.5 " fill="#000000"/>
<path class="legend" d="M 572.2 208.7 L 567.4 219.3 L 565.9 219.3 L 570.6 209.1 L 564.5 209.1 L 564.5 207.9 L 572.2 207.9 L 572.2 208.7 " fill="#000000"/>
</svg>