<svg xmlns="http://www.w3.org/2000/svg" xmlns:rdkit="http://www.rdkit.org/xml" xmlns:xlink="http://www.w3.org/1999/xlink" version="1.1" baseProfile="full" xml:space="preserve" width="675px" height="225px" viewBox="0 0 675 225">
<!-- END OF HEADER -->
<rect style="opacity:1.0;fill:#FFFFFF;stroke:none" width="675.0" height="225.0" x="0.0" y="0.0"> </rect>
<path class="bond-0 atom-0 atom-1" d="M 29.6,60.8 L 39.0,63.0" style="fill:none;fill-rule:evenodd;stroke:#000000;stroke-width:0.6px;stroke-linecap:butt;stroke-linejoin:miter;stroke-opacity:1"/>
<path class="bond-1 atom-1 atom-2" d="M 45.8,59.4 L 47.6,51.9" style="fill:none;fill-rule:evenodd;stroke:#000000;stroke-width:0.6px;stroke-linecap:butt;stroke-linejoin:miter;stroke-opacity:1"/>
<path class="bond-1 atom-1 atom-2" d="M 42.6,58.6 L 44.4,51.2" style="fill:none;fill-rule:evenodd;stroke:#000000;stroke-width:0.6px;stroke-linecap:butt;stroke-linejoin:miter;stroke-opacity:1"/>
<path class="bond-2 atom-1 atom-3" d="M 40.2,68.7 L 38.4,76.1" style="fill:none;fill-rule:evenodd;stroke:#000000;stroke-width:0.6px;stroke-linecap:butt;stroke-linejoin:miter;stroke-opacity:1"/>
<path class="bond-2 atom-1 atom-3" d="M 43.4,69.4 L 41.6,76.9" style="fill:none;fill-rule:evenodd;stroke:#000000;stroke-width:0.6px;stroke-linecap:butt;stroke-linejoin:miter;stroke-opacity:1"/>
<path class="bond-3 atom-1 atom-4" d="M 47.0,64.9 L 60.5,68.2" style="fill:none;fill-rule:evenodd;stroke:#000000;stroke-width:0.6px;stroke-linecap:butt;stroke-linejoin:miter;stroke-opacity:1"/>
<path class="bond-4 atom-4 atom-5" d="M 60.5,68.2 L 72.9,55.1" style="fill:none;fill-rule:evenodd;stroke:#000000;stroke-width:0.6px;stroke-linecap:butt;stroke-linejoin:miter;stroke-opacity:1"/>
<path class="bond-4 atom-4 atom-5" d="M 64.2,69.0 L 74.0,58.7" style="fill:none;fill-rule:evenodd;stroke:#000000;stroke-width:0.6px;stroke-linecap:butt;stroke-linejoin:miter;stroke-opacity:1"/>
<path class="bond-5 atom-5 atom-6" d="M 72.9,55.1 L 90.4,59.3" style="fill:none;fill-rule:evenodd;stroke:#000000;stroke-width:0.6px;stroke-linecap:butt;stroke-linejoin:miter;stroke-opacity:1"/>
<path class="bond-6 atom-6 atom-7" d="M 90.4,59.3 L 95.5,76.5" style="fill:none;fill-rule:evenodd;stroke:#000000;stroke-width:0.6px;stroke-linecap:butt;stroke-linejoin:miter;stroke-opacity:1"/>
<path class="bond-6 atom-6 atom-7" d="M 87.8,62.0 L 91.9,75.7" style="fill:none;fill-rule:evenodd;stroke:#000000;stroke-width:0.6px;stroke-linecap:butt;stroke-linejoin:miter;stroke-opacity:1"/>
<path class="bond-7 atom-7 atom-8" d="M 95.5,76.5 L 108.9,79.7" style="fill:none;fill-rule:evenodd;stroke:#000000;stroke-width:0.6px;stroke-linecap:butt;stroke-linejoin:miter;stroke-opacity:1"/>
<path class="bond-8 atom-8 atom-9" d="M 117.2,77.2 L 122.6,72.5" style="fill:none;fill-rule:evenodd;stroke:#000000;stroke-width:0.6px;stroke-linecap:butt;stroke-linejoin:miter;stroke-opacity:1"/>
<path class="bond-9 atom-9 atom-10" d="M 130.8,71.5 L 142.1,78.4" style="fill:none;fill-rule:evenodd;stroke:#000000;stroke-width:0.6px;stroke-linecap:butt;stroke-linejoin:miter;stroke-opacity:1"/>
<path class="bond-9 atom-9 atom-10" d="M 129.1,74.3 L 138.4,80.0" style="fill:none;fill-rule:evenodd;stroke:#000000;stroke-width:0.6px;stroke-linecap:butt;stroke-linejoin:miter;stroke-opacity:1"/>
<path class="bond-10 atom-10 atom-11" d="M 142.1,78.4 L 158.7,71.5" style="fill:none;fill-rule:evenodd;stroke:#000000;stroke-width:0.6px;stroke-linecap:butt;stroke-linejoin:miter;stroke-opacity:1"/>
<path class="bond-11 atom-11 atom-12" d="M 158.7,71.5 L 173.0,82.5" style="fill:none;fill-rule:evenodd;stroke:#000000;stroke-width:0.6px;stroke-linecap:butt;stroke-linejoin:miter;stroke-opacity:1"/>
<path class="bond-11 atom-11 atom-12" d="M 162.2,70.1 L 173.5,78.8" style="fill:none;fill-rule:evenodd;stroke:#000000;stroke-width:0.6px;stroke-linecap:butt;stroke-linejoin:miter;stroke-opacity:1"/>
<path class="bond-12 atom-12 atom-13" d="M 173.0,82.5 L 189.6,75.6" style="fill:none;fill-rule:evenodd;stroke:#000000;stroke-width:0.6px;stroke-linecap:butt;stroke-linejoin:miter;stroke-opacity:1"/>
<path class="bond-13 atom-13 atom-14" d="M 189.6,75.6 L 191.9,57.7" style="fill:none;fill-rule:evenodd;stroke:#000000;stroke-width:0.6px;stroke-linecap:butt;stroke-linejoin:miter;stroke-opacity:1"/>
<path class="bond-13 atom-13 atom-14" d="M 186.6,73.3 L 188.5,59.2" style="fill:none;fill-rule:evenodd;stroke:#000000;stroke-width:0.6px;stroke-linecap:butt;stroke-linejoin:miter;stroke-opacity:1"/>
<path class="bond-14 atom-14 atom-15" d="M 191.9,57.7 L 204.4,52.5" style="fill:none;fill-rule:evenodd;stroke:#000000;stroke-width:0.6px;stroke-linecap:butt;stroke-linejoin:miter;stroke-opacity:1"/>
<path class="bond-15 atom-14 atom-16" d="M 191.9,57.7 L 177.7,46.8" style="fill:none;fill-rule:evenodd;stroke:#000000;stroke-width:0.6px;stroke-linecap:butt;stroke-linejoin:miter;stroke-opacity:1"/>
<path class="bond-16 atom-16 atom-17" d="M 177.7,46.8 L 161.0,53.7" style="fill:none;fill-rule:evenodd;stroke:#000000;stroke-width:0.6px;stroke-linecap:butt;stroke-linejoin:miter;stroke-opacity:1"/>
<path class="bond-16 atom-16 atom-17" d="M 177.2,50.5 L 164.0,55.9" style="fill:none;fill-rule:evenodd;stroke:#000000;stroke-width:0.6px;stroke-linecap:butt;stroke-linejoin:miter;stroke-opacity:1"/>
<path class="bond-17 atom-10 atom-18" d="M 142.1,78.4 L 137.9,95.9" style="fill:none;fill-rule:evenodd;stroke:#000000;stroke-width:0.6px;stroke-linecap:butt;stroke-linejoin:miter;stroke-opacity:1"/>
<path class="bond-18 atom-18 atom-19" d="M 137.9,95.9 L 119.9,97.3" style="fill:none;fill-rule:evenodd;stroke:#000000;stroke-width:0.6px;stroke-linecap:butt;stroke-linejoin:miter;stroke-opacity:1"/>
<path class="bond-19 atom-19 atom-20" d="M 119.9,97.3 L 110.5,112.7" style="fill:none;fill-rule:evenodd;stroke:#000000;stroke-width:0.6px;stroke-linecap:butt;stroke-linejoin:miter;stroke-opacity:1"/>
<path class="bond-20 atom-20 atom-21" d="M 110.5,112.7 L 92.5,112.2" style="fill:none;fill-rule:evenodd;stroke:#000000;stroke-width:0.6px;stroke-linecap:butt;stroke-linejoin:miter;stroke-opacity:1"/>
<path class="bond-20 atom-20 atom-21" d="M 108.6,115.9 L 94.3,115.5" style="fill:none;fill-rule:evenodd;stroke:#000000;stroke-width:0.6px;stroke-linecap:butt;stroke-linejoin:miter;stroke-opacity:1"/>
<path class="bond-21 atom-21 atom-22" d="M 92.5,112.2 L 83.2,127.6" style="fill:none;fill-rule:evenodd;stroke:#000000;stroke-width:0.6px;stroke-linecap:butt;stroke-linejoin:miter;stroke-opacity:1"/>
<path class="bond-22 atom-22 atom-23" d="M 83.2,127.6 L 91.8,143.4" style="fill:none;fill-rule:evenodd;stroke:#000000;stroke-width:0.6px;stroke-linecap:butt;stroke-linejoin:miter;stroke-opacity:1"/>
<path class="bond-22 atom-22 atom-23" d="M 86.9,127.7 L 93.7,140.2" style="fill:none;fill-rule:evenodd;stroke:#000000;stroke-width:0.6px;stroke-linecap:butt;stroke-linejoin:miter;stroke-opacity:1"/>
<path class="bond-23 atom-23 atom-24" d="M 91.8,143.4 L 109.8,143.9" style="fill:none;fill-rule:evenodd;stroke:#000000;stroke-width:0.6px;stroke-linecap:butt;stroke-linejoin:miter;stroke-opacity:1"/>
<path class="bond-24 atom-24 atom-25" d="M 109.8,143.9 L 118.4,159.7" style="fill:none;fill-rule:evenodd;stroke:#000000;stroke-width:0.6px;stroke-linecap:butt;stroke-linejoin:miter;stroke-opacity:1"/>
<path class="bond-24 atom-24 atom-25" d="M 113.5,144.0 L 120.3,156.5" style="fill:none;fill-rule:evenodd;stroke:#000000;stroke-width:0.6px;stroke-linecap:butt;stroke-linejoin:miter;stroke-opacity:1"/>
<path class="bond-25 atom-25 atom-26" d="M 118.4,159.7 L 136.3,160.1" style="fill:none;fill-rule:evenodd;stroke:#000000;stroke-width:0.6px;stroke-linecap:butt;stroke-linejoin:miter;stroke-opacity:1"/>
<path class="bond-26 atom-26 atom-27" d="M 136.3,160.1 L 145.7,144.8" style="fill:none;fill-rule:evenodd;stroke:#000000;stroke-width:0.6px;stroke-linecap:butt;stroke-linejoin:miter;stroke-opacity:1"/>
<path class="bond-26 atom-26 atom-27" d="M 134.6,156.9 L 142.0,144.7" style="fill:none;fill-rule:evenodd;stroke:#000000;stroke-width:0.6px;stroke-linecap:butt;stroke-linejoin:miter;stroke-opacity:1"/>
<path class="bond-27 atom-27 atom-28" d="M 145.7,144.8 L 137.1,129.0" style="fill:none;fill-rule:evenodd;stroke:#000000;stroke-width:0.6px;stroke-linecap:butt;stroke-linejoin:miter;stroke-opacity:1"/>
<path class="bond-28 atom-28 atom-29" d="M 137.1,129.0 L 119.1,128.5" style="fill:none;fill-rule:evenodd;stroke:#000000;stroke-width:0.6px;stroke-linecap:butt;stroke-linejoin:miter;stroke-opacity:1"/>
<path class="bond-28 atom-28 atom-29" d="M 135.2,132.2 L 120.9,131.8" style="fill:none;fill-rule:evenodd;stroke:#000000;stroke-width:0.6px;stroke-linecap:butt;stroke-linejoin:miter;stroke-opacity:1"/>
<path class="bond-29 atom-7 atom-30" d="M 95.5,76.5 L 83.2,89.6" style="fill:none;fill-rule:evenodd;stroke:#000000;stroke-width:0.6px;stroke-linecap:butt;stroke-linejoin:miter;stroke-opacity:1"/>
<path class="bond-30 atom-30 atom-31" d="M 83.2,89.6 L 65.6,85.4" style="fill:none;fill-rule:evenodd;stroke:#000000;stroke-width:0.6px;stroke-linecap:butt;stroke-linejoin:miter;stroke-opacity:1"/>
<path class="bond-30 atom-30 atom-31" d="M 82.1,86.0 L 68.2,82.7" style="fill:none;fill-rule:evenodd;stroke:#000000;stroke-width:0.6px;stroke-linecap:butt;stroke-linejoin:miter;stroke-opacity:1"/>
<path class="bond-31 atom-31 atom-4" d="M 65.6,85.4 L 60.5,68.2" style="fill:none;fill-rule:evenodd;stroke:#000000;stroke-width:0.6px;stroke-linecap:butt;stroke-linejoin:miter;stroke-opacity:1"/>
<path class="bond-32 atom-19 atom-8" d="M 119.9,97.3 L 115.1,85.7" style="fill:none;fill-rule:evenodd;stroke:#000000;stroke-width:0.6px;stroke-linecap:butt;stroke-linejoin:miter;stroke-opacity:1"/>
<path class="bond-33 atom-29 atom-20" d="M 119.1,128.5 L 110.5,112.7" style="fill:none;fill-rule:evenodd;stroke:#000000;stroke-width:0.6px;stroke-linecap:butt;stroke-linejoin:miter;stroke-opacity:1"/>
<path class="bond-34 atom-17 atom-11" d="M 161.0,53.7 L 158.7,71.5" style="fill:none;fill-rule:evenodd;stroke:#000000;stroke-width:0.6px;stroke-linecap:butt;stroke-linejoin:miter;stroke-opacity:1"/>
<path class="bond-35 atom-29 atom-24" d="M 119.1,128.5 L 109.8,143.9" style="fill:none;fill-rule:evenodd;stroke:#000000;stroke-width:0.6px;stroke-linecap:butt;stroke-linejoin:miter;stroke-opacity:1"/>
<path d="M 72.3,55.7 L 72.9,55.1 L 73.8,55.3" style="fill:none;stroke:#000000;stroke-width:0.6px;stroke-linecap:butt;stroke-linejoin:miter;stroke-opacity:1;"/>
<path d="M 89.5,59.1 L 90.4,59.3 L 90.7,60.1" style="fill:none;stroke:#000000;stroke-width:0.6px;stroke-linecap:butt;stroke-linejoin:miter;stroke-opacity:1;"/>
<path d="M 172.3,81.9 L 173.0,82.5 L 173.8,82.1" style="fill:none;stroke:#000000;stroke-width:0.6px;stroke-linecap:butt;stroke-linejoin:miter;stroke-opacity:1;"/>
<path d="M 188.8,75.9 L 189.6,75.6 L 189.7,74.7" style="fill:none;stroke:#000000;stroke-width:0.6px;stroke-linecap:butt;stroke-linejoin:miter;stroke-opacity:1;"/>
<path d="M 178.4,47.3 L 177.7,46.8 L 176.8,47.1" style="fill:none;stroke:#000000;stroke-width:0.6px;stroke-linecap:butt;stroke-linejoin:miter;stroke-opacity:1;"/>
<path d="M 161.9,53.3 L 161.0,53.7 L 160.9,54.6" style="fill:none;stroke:#000000;stroke-width:0.6px;stroke-linecap:butt;stroke-linejoin:miter;stroke-opacity:1;"/>
<path d="M 138.1,95.0 L 137.9,95.9 L 137.0,96.0" style="fill:none;stroke:#000000;stroke-width:0.6px;stroke-linecap:butt;stroke-linejoin:miter;stroke-opacity:1;"/>
<path d="M 93.4,112.3 L 92.5,112.2 L 92.1,113.0" style="fill:none;stroke:#000000;stroke-width:0.6px;stroke-linecap:butt;stroke-linejoin:miter;stroke-opacity:1;"/>
<path d="M 83.6,126.8 L 83.2,127.6 L 83.6,128.4" style="fill:none;stroke:#000000;stroke-width:0.6px;stroke-linecap:butt;stroke-linejoin:miter;stroke-opacity:1;"/>
<path d="M 91.3,142.6 L 91.8,143.4 L 92.7,143.4" style="fill:none;stroke:#000000;stroke-width:0.6px;stroke-linecap:butt;stroke-linejoin:miter;stroke-opacity:1;"/>
<path d="M 117.9,158.9 L 118.4,159.7 L 119.3,159.7" style="fill:none;stroke:#000000;stroke-width:0.6px;stroke-linecap:butt;stroke-linejoin:miter;stroke-opacity:1;"/>
<path d="M 135.4,160.1 L 136.3,160.1 L 136.8,159.4" style="fill:none;stroke:#000000;stroke-width:0.6px;stroke-linecap:butt;stroke-linejoin:miter;stroke-opacity:1;"/>
<path d="M 145.3,145.6 L 145.7,144.8 L 145.3,144.0" style="fill:none;stroke:#000000;stroke-width:0.6px;stroke-linecap:butt;stroke-linejoin:miter;stroke-opacity:1;"/>
<path d="M 137.6,129.8 L 137.1,129.0 L 136.2,129.0" style="fill:none;stroke:#000000;stroke-width:0.6px;stroke-linecap:butt;stroke-linejoin:miter;stroke-opacity:1;"/>
<path d="M 83.8,88.9 L 83.2,89.6 L 82.3,89.4" style="fill:none;stroke:#000000;stroke-width:0.6px;stroke-linecap:butt;stroke-linejoin:miter;stroke-opacity:1;"/>
<path d="M 66.5,85.6 L 65.6,85.4 L 65.4,84.5" style="fill:none;stroke:#000000;stroke-width:0.6px;stroke-linecap:butt;stroke-linejoin:miter;stroke-opacity:1;"/>
<path class="atom-0" d="M 17.5 63.3 L 16.5 63.3 L 16.5 60.0 L 13.0 60.0 L 13.0 63.3 L 12.0 63.3 L 12.0 56.2 L 13.0 56.2 L 13.0 59.3 L 16.5 59.3 L 16.5 56.2 L 17.5 56.2 L 17.5 63.3 " fill="#000000"/>
<path class="atom-0" d="M 22.0 66.9 L 18.9 66.9 L 18.9 66.5 L 20.6 64.7 Q 20.9 64.2, 21.1 64.0 Q 21.2 63.7, 21.2 63.5 Q 21.2 63.1, 21.0 62.9 Q 20.8 62.6, 20.4 62.6 Q 19.9 62.6, 19.7 62.9 Q 19.4 63.1, 19.4 63.6 L 18.8 63.6 Q 18.8 62.9, 19.3 62.5 Q 19.7 62.1, 20.4 62.1 Q 21.0 62.1, 21.4 62.5 Q 21.8 62.8, 21.8 63.4 Q 21.8 64.1, 20.9 65.0 L 19.7 66.4 L 22.0 66.4 L 22.0 66.9 " fill="#000000"/>
<path class="atom-0" d="M 28.2 63.3 L 27.3 63.3 L 23.7 57.9 L 23.7 63.3 L 22.8 63.3 L 22.8 56.2 L 23.7 56.2 L 27.3 61.7 L 27.3 56.2 L 28.2 56.2 L 28.2 63.3 " fill="#000000"/>
<path class="atom-1" d="M 43.0 64.4 Q 41.8 64.1, 41.2 63.6 Q 40.7 63.0, 40.7 62.3 Q 40.7 61.5, 41.3 60.9 Q 42.0 60.4, 43.1 60.4 Q 43.8 60.4, 44.4 60.6 Q 45.0 60.9, 45.3 61.4 Q 45.6 61.9, 45.6 62.5 L 44.6 62.5 Q 44.6 61.9, 44.2 61.5 Q 43.8 61.1, 43.1 61.1 Q 42.4 61.1, 42.0 61.4 Q 41.6 61.7, 41.6 62.3 Q 41.6 62.7, 42.0 63.0 Q 42.3 63.3, 43.2 63.6 Q 44.1 63.8, 44.6 64.1 Q 45.1 64.4, 45.4 64.8 Q 45.6 65.2, 45.6 65.8 Q 45.6 66.6, 44.9 67.2 Q 44.2 67.7, 43.1 67.7 Q 42.4 67.7, 41.8 67.4 Q 41.1 67.1, 40.8 66.6 Q 40.4 66.1, 40.4 65.5 L 41.4 65.5 Q 41.4 66.2, 41.8 66.5 Q 42.3 66.9, 43.1 66.9 Q 43.9 66.9, 44.3 66.6 Q 44.7 66.3, 44.7 65.8 Q 44.7 65.3, 44.3 65.0 Q 43.9 64.7, 43.0 64.4 " fill="#000000"/>
<path class="atom-2" d="M 50.1 46.7 Q 50.1 47.8, 49.7 48.6 Q 49.4 49.3, 48.7 49.8 Q 48.1 50.2, 47.2 50.2 Q 46.4 50.2, 45.7 49.8 Q 45.1 49.3, 44.7 48.6 Q 44.4 47.8, 44.3 46.8 L 44.3 46.3 Q 44.3 45.3, 44.7 44.5 Q 45.1 43.7, 45.7 43.3 Q 46.4 42.9, 47.2 42.9 Q 48.1 42.9, 48.7 43.3 Q 49.4 43.7, 49.7 44.5 Q 50.1 45.3, 50.1 46.3 L 50.1 46.7 M 49.1 46.3 Q 49.1 45.0, 48.6 44.3 Q 48.1 43.7, 47.2 43.7 Q 46.3 43.7, 45.8 44.3 Q 45.3 45.0, 45.3 46.2 L 45.3 46.7 Q 45.3 48.0, 45.8 48.7 Q 46.3 49.4, 47.2 49.4 Q 48.1 49.4, 48.6 48.7 Q 49.1 48.0, 49.1 46.8 L 49.1 46.3 " fill="#000000"/>
<path class="atom-3" d="M 41.7 81.8 Q 41.7 82.8, 41.3 83.6 Q 41.0 84.4, 40.3 84.8 Q 39.7 85.2, 38.8 85.2 Q 38.0 85.2, 37.3 84.8 Q 36.7 84.3, 36.3 83.6 Q 36.0 82.8, 36.0 81.8 L 36.0 81.3 Q 36.0 80.3, 36.3 79.5 Q 36.7 78.7, 37.3 78.3 Q 38.0 77.9, 38.8 77.9 Q 39.7 77.9, 40.3 78.3 Q 41.0 78.7, 41.3 79.5 Q 41.7 80.3, 41.7 81.3 L 41.7 81.8 M 40.8 81.3 Q 40.8 80.0, 40.2 79.4 Q 39.7 78.7, 38.8 78.7 Q 37.9 78.7, 37.4 79.4 Q 36.9 80.0, 36.9 81.2 L 36.9 81.8 Q 36.9 83.0, 37.4 83.7 Q 37.9 84.4, 38.8 84.4 Q 39.7 84.4, 40.2 83.7 Q 40.7 83.1, 40.8 81.8 L 40.8 81.3 " fill="#000000"/>
<path class="atom-8" d="M 115.8 84.3 L 114.8 84.3 L 111.2 78.8 L 111.2 84.3 L 110.3 84.3 L 110.3 77.2 L 111.2 77.2 L 114.8 82.7 L 114.8 77.2 L 115.8 77.2 L 115.8 84.3 " fill="#000000"/>
<path class="atom-9" d="M 129.4 72.6 L 128.5 72.6 L 124.9 67.1 L 124.9 72.6 L 124.0 72.6 L 124.0 65.5 L 124.9 65.5 L 128.5 71.0 L 128.5 65.5 L 129.4 65.5 L 129.4 72.6 " fill="#000000"/>
<path class="atom-15" d="M 211.3 52.3 Q 211.2 53.4, 210.5 54.1 Q 209.8 54.7, 208.6 54.7 Q 207.4 54.7, 206.6 53.8 Q 205.8 52.9, 205.8 51.3 L 205.8 50.7 Q 205.8 49.7, 206.2 48.9 Q 206.5 48.2, 207.2 47.8 Q 207.8 47.4, 208.7 47.4 Q 209.8 47.4, 210.5 48.0 Q 211.2 48.6, 211.3 49.7 L 210.4 49.7 Q 210.2 48.9, 209.8 48.5 Q 209.4 48.1, 208.7 48.1 Q 207.8 48.1, 207.3 48.8 Q 206.8 49.5, 206.8 50.7 L 206.8 51.4 Q 206.8 52.5, 207.3 53.2 Q 207.7 53.9, 208.6 53.9 Q 209.4 53.9, 209.8 53.5 Q 210.2 53.2, 210.4 52.3 L 211.3 52.3 " fill="#000000"/>
<path class="atom-15" d="M 213.0 54.6 L 212.1 54.6 L 212.1 47.1 L 213.0 47.1 L 213.0 54.6 " fill="#000000"/>
<path class="legend" d="M 102.8 213.5 L 103.4 207.8 L 109.2 207.8 L 109.2 209.2 L 104.6 209.2 L 104.3 212.3 Q 105.1 211.8, 106.2 211.8 Q 107.8 211.8, 108.7 212.8 Q 109.6 213.8, 109.6 215.6 Q 109.6 217.4, 108.6 218.4 Q 107.7 219.4, 106.0 219.4 Q 104.5 219.4, 103.5 218.5 Q 102.6 217.7, 102.4 216.2 L 103.8 216.2 Q 103.9 217.2, 104.5 217.7 Q 105.1 218.2, 106.0 218.2 Q 107.0 218.2, 107.6 217.5 Q 108.1 216.8, 108.1 215.6 Q 108.1 214.5, 107.5 213.8 Q 106.9 213.1, 105.9 213.1 Q 104.9 213.1, 104.4 213.5 L 104.0 213.8 L 102.8 213.5 " fill="#000000"/>
<path class="legend" d="M 110.8 218.5 Q 110.8 218.1, 111.0 217.8 Q 111.2 217.6, 111.6 217.6 Q 112.1 217.6, 112.3 217.8 Q 112.6 218.1, 112.6 218.5 Q 112.6 218.8, 112.3 219.1 Q 112.1 219.3, 111.6 219.3 Q 111.2 219.3, 111.0 219.1 Q 110.8 218.8, 110.8 218.5 " fill="#000000"/>
<path class="legend" d="M 120.0 207.8 L 120.0 209.1 L 119.7 209.1 Q 118.0 209.1, 117.0 210.1 Q 116.0 211.0, 115.9 212.8 Q 116.8 211.8, 118.3 211.8 Q 119.8 211.8, 120.7 212.8 Q 121.6 213.9, 121.6 215.5 Q 121.6 217.3, 120.6 218.3 Q 119.7 219.4, 118.0 219.4 Q 116.4 219.4, 115.4 218.1 Q 114.4 216.9, 114.4 214.9 L 114.4 214.3 Q 114.4 211.2, 115.7 209.5 Q 117.1 207.9, 119.7 207.8 L 120.0 207.8 M 118.1 213.0 Q 117.3 213.0, 116.7 213.4 Q 116.1 213.9, 115.8 214.5 L 115.8 215.1 Q 115.8 216.5, 116.5 217.3 Q 117.1 218.2, 118.0 218.2 Q 119.0 218.2, 119.6 217.5 Q 120.1 216.7, 120.1 215.6 Q 120.1 214.4, 119.6 213.7 Q 119.0 213.0, 118.1 213.0 " fill="#000000"/>
<path class="bond-0 atom-0 atom-1" d="M 431.3,128.0 L 419.7,134.3" style="fill:none;fill-rule:evenodd;stroke:#000000;stroke-width:0.6px;stroke-linecap:butt;stroke-linejoin:miter;stroke-opacity:1"/>
<path class="bond-1 atom-1 atom-2" d="M 411.2,134.0 L 400.1,127.2" style="fill:none;fill-rule:evenodd;stroke:#000000;stroke-width:0.6px;stroke-linecap:butt;stroke-linejoin:miter;stroke-opacity:1"/>
<path class="bond-2 atom-2 atom-3" d="M 400.1,127.2 L 400.6,109.2" style="fill:none;fill-rule:evenodd;stroke:#000000;stroke-width:0.6px;stroke-linecap:butt;stroke-linejoin:miter;stroke-opacity:1"/>
<path class="bond-2 atom-2 atom-3" d="M 397.0,125.2 L 397.4,110.9" style="fill:none;fill-rule:evenodd;stroke:#000000;stroke-width:0.6px;stroke-linecap:butt;stroke-linejoin:miter;stroke-opacity:1"/>
<path class="bond-3 atom-3 atom-4" d="M 400.6,109.2 L 385.3,99.8" style="fill:none;fill-rule:evenodd;stroke:#000000;stroke-width:0.6px;stroke-linecap:butt;stroke-linejoin:miter;stroke-opacity:1"/>
<path class="bond-4 atom-4 atom-5" d="M 385.3,99.8 L 369.5,108.3" style="fill:none;fill-rule:evenodd;stroke:#000000;stroke-width:0.6px;stroke-linecap:butt;stroke-linejoin:miter;stroke-opacity:1"/>
<path class="bond-4 atom-4 atom-5" d="M 385.2,103.5 L 372.6,110.3" style="fill:none;fill-rule:evenodd;stroke:#000000;stroke-width:0.6px;stroke-linecap:butt;stroke-linejoin:miter;stroke-opacity:1"/>
<path class="bond-5 atom-5 atom-6" d="M 369.5,108.3 L 369.0,126.3" style="fill:none;fill-rule:evenodd;stroke:#000000;stroke-width:0.6px;stroke-linecap:butt;stroke-linejoin:miter;stroke-opacity:1"/>
<path class="bond-6 atom-6 atom-7" d="M 369.0,126.3 L 384.3,135.7" style="fill:none;fill-rule:evenodd;stroke:#000000;stroke-width:0.6px;stroke-linecap:butt;stroke-linejoin:miter;stroke-opacity:1"/>
<path class="bond-6 atom-6 atom-7" d="M 372.2,124.5 L 384.4,132.0" style="fill:none;fill-rule:evenodd;stroke:#000000;stroke-width:0.6px;stroke-linecap:butt;stroke-linejoin:miter;stroke-opacity:1"/>
<path class="bond-7 atom-6 atom-8" d="M 369.0,126.3 L 351.7,131.4" style="fill:none;fill-rule:evenodd;stroke:#000000;stroke-width:0.6px;stroke-linecap:butt;stroke-linejoin:miter;stroke-opacity:1"/>
<path class="bond-8 atom-8 atom-9" d="M 350.6,129.8 L 345.9,142.8" style="fill:none;fill-rule:evenodd;stroke:#000000;stroke-width:0.6px;stroke-linecap:butt;stroke-linejoin:miter;stroke-opacity:1"/>
<path class="bond-8 atom-8 atom-9" d="M 353.6,130.8 L 348.9,143.9" style="fill:none;fill-rule:evenodd;stroke:#000000;stroke-width:0.6px;stroke-linecap:butt;stroke-linejoin:miter;stroke-opacity:1"/>
<path class="bond-9 atom-8 atom-10" d="M 351.7,131.4 L 344.9,121.5" style="fill:none;fill-rule:evenodd;stroke:#000000;stroke-width:0.6px;stroke-linecap:butt;stroke-linejoin:miter;stroke-opacity:1"/>
<path class="bond-10 atom-10 atom-11" d="M 337.4,116.4 L 323.5,116.1" style="fill:none;fill-rule:evenodd;stroke:#000000;stroke-width:0.6px;stroke-linecap:butt;stroke-linejoin:miter;stroke-opacity:1"/>
<path class="bond-11 atom-11 atom-12" d="M 323.5,116.1 L 315.0,100.2" style="fill:none;fill-rule:evenodd;stroke:#000000;stroke-width:0.6px;stroke-linecap:butt;stroke-linejoin:miter;stroke-opacity:1"/>
<path class="bond-12 atom-12 atom-13" d="M 315.0,100.2 L 300.1,110.4" style="fill:none;fill-rule:evenodd;stroke:#000000;stroke-width:0.6px;stroke-linecap:butt;stroke-linejoin:miter;stroke-opacity:1"/>
<path class="bond-13 atom-13 atom-14" d="M 300.1,110.4 L 283.1,104.4" style="fill:none;fill-rule:evenodd;stroke:#000000;stroke-width:0.6px;stroke-linecap:butt;stroke-linejoin:miter;stroke-opacity:1"/>
<path class="bond-13 atom-13 atom-14" d="M 296.8,112.6 L 284.3,108.2" style="fill:none;fill-rule:evenodd;stroke:#000000;stroke-width:0.6px;stroke-linecap:butt;stroke-linejoin:miter;stroke-opacity:1"/>
<path class="bond-14 atom-14 atom-15" d="M 283.1,104.4 L 272.2,118.6" style="fill:none;fill-rule:evenodd;stroke:#000000;stroke-width:0.6px;stroke-linecap:butt;stroke-linejoin:miter;stroke-opacity:1"/>
<path class="bond-15 atom-15 atom-16" d="M 272.2,118.6 L 254.2,120.0" style="fill:none;fill-rule:evenodd;stroke:#000000;stroke-width:0.6px;stroke-linecap:butt;stroke-linejoin:miter;stroke-opacity:1"/>
<path class="bond-15 atom-15 atom-16" d="M 270.6,122.0 L 256.3,123.1" style="fill:none;fill-rule:evenodd;stroke:#000000;stroke-width:0.6px;stroke-linecap:butt;stroke-linejoin:miter;stroke-opacity:1"/>
<path class="bond-16 atom-16 atom-17" d="M 254.2,120.0 L 248.8,131.3" style="fill:none;fill-rule:evenodd;stroke:#000000;stroke-width:0.6px;stroke-linecap:butt;stroke-linejoin:miter;stroke-opacity:1"/>
<path class="bond-17 atom-17 atom-18" d="M 249.8,141.2 L 256.6,151.1" style="fill:none;fill-rule:evenodd;stroke:#000000;stroke-width:0.6px;stroke-linecap:butt;stroke-linejoin:miter;stroke-opacity:1"/>
<path class="bond-17 atom-17 atom-18" d="M 252.5,139.4 L 258.2,147.7" style="fill:none;fill-rule:evenodd;stroke:#000000;stroke-width:0.6px;stroke-linecap:butt;stroke-linejoin:miter;stroke-opacity:1"/>
<path class="bond-18 atom-18 atom-19" d="M 256.6,151.1 L 274.6,149.7" style="fill:none;fill-rule:evenodd;stroke:#000000;stroke-width:0.6px;stroke-linecap:butt;stroke-linejoin:miter;stroke-opacity:1"/>
<path class="bond-19 atom-19 atom-20" d="M 274.6,149.7 L 282.3,133.5" style="fill:none;fill-rule:evenodd;stroke:#000000;stroke-width:0.6px;stroke-linecap:butt;stroke-linejoin:miter;stroke-opacity:1"/>
<path class="bond-19 atom-19 atom-20" d="M 272.5,146.6 L 278.6,133.8" style="fill:none;fill-rule:evenodd;stroke:#000000;stroke-width:0.6px;stroke-linecap:butt;stroke-linejoin:miter;stroke-opacity:1"/>
<path class="bond-20 atom-20 atom-21" d="M 282.3,133.5 L 295.4,129.6" style="fill:none;fill-rule:evenodd;stroke:#000000;stroke-width:0.6px;stroke-linecap:butt;stroke-linejoin:miter;stroke-opacity:1"/>
<path class="bond-21 atom-12 atom-22" d="M 315.0,100.2 L 307.4,91.3" style="fill:none;fill-rule:evenodd;stroke:#000000;stroke-width:0.6px;stroke-linecap:butt;stroke-linejoin:miter;stroke-opacity:1"/>
<path class="bond-22 atom-22 atom-23" d="M 306.3,81.6 L 312.7,71.2" style="fill:none;fill-rule:evenodd;stroke:#000000;stroke-width:0.6px;stroke-linecap:butt;stroke-linejoin:miter;stroke-opacity:1"/>
<path class="bond-23 atom-23 atom-24" d="M 314.6,71.7 L 309.4,59.0" style="fill:none;fill-rule:evenodd;stroke:#000000;stroke-width:0.6px;stroke-linecap:butt;stroke-linejoin:miter;stroke-opacity:1"/>
<path class="bond-23 atom-23 atom-24" d="M 311.7,72.9 L 306.5,60.2" style="fill:none;fill-rule:evenodd;stroke:#000000;stroke-width:0.6px;stroke-linecap:butt;stroke-linejoin:miter;stroke-opacity:1"/>
<path class="bond-24 atom-23 atom-25" d="M 312.7,71.2 L 326.1,74.4" style="fill:none;fill-rule:evenodd;stroke:#000000;stroke-width:0.6px;stroke-linecap:butt;stroke-linejoin:miter;stroke-opacity:1"/>
<path class="bond-25 atom-25 atom-26" d="M 330.6,80.3 L 331.6,93.4" style="fill:none;fill-rule:evenodd;stroke:#000000;stroke-width:0.6px;stroke-linecap:butt;stroke-linejoin:miter;stroke-opacity:1"/>
<path class="bond-26 atom-26 atom-27" d="M 329.3,94.3 L 339.4,97.5" style="fill:none;fill-rule:evenodd;stroke:#000000;stroke-width:0.6px;stroke-linecap:butt;stroke-linejoin:miter;stroke-opacity:1"/>
<path class="bond-26 atom-26 atom-27" d="M 331.5,91.6 L 340.3,94.4" style="fill:none;fill-rule:evenodd;stroke:#000000;stroke-width:0.6px;stroke-linecap:butt;stroke-linejoin:miter;stroke-opacity:1"/>
<path class="bond-27 atom-10 atom-28" d="M 345.3,111.6 L 352.5,102.3" style="fill:none;fill-rule:evenodd;stroke:#000000;stroke-width:0.6px;stroke-linecap:butt;stroke-linejoin:miter;stroke-opacity:1"/>
<path class="bond-28 atom-7 atom-2" d="M 384.3,135.7 L 400.1,127.2" style="fill:none;fill-rule:evenodd;stroke:#000000;stroke-width:0.6px;stroke-linecap:butt;stroke-linejoin:miter;stroke-opacity:1"/>
<path class="bond-29 atom-26 atom-12" d="M 331.6,93.4 L 315.0,100.2" style="fill:none;fill-rule:evenodd;stroke:#000000;stroke-width:0.6px;stroke-linecap:butt;stroke-linejoin:miter;stroke-opacity:1"/>
<path class="bond-30 atom-28 atom-5" d="M 352.5,102.3 L 369.5,108.3" style="fill:none;fill-rule:evenodd;stroke:#000000;stroke-width:0.6px;stroke-linecap:butt;stroke-linejoin:miter;stroke-opacity:1"/>
<path class="bond-31 atom-21 atom-13" d="M 299.7,123.4 L 300.1,110.4" style="fill:none;fill-rule:evenodd;stroke:#000000;stroke-width:0.6px;stroke-linecap:butt;stroke-linejoin:miter;stroke-opacity:1"/>
<path class="bond-32 atom-20 atom-15" d="M 282.3,133.5 L 272.2,118.6" style="fill:none;fill-rule:evenodd;stroke:#000000;stroke-width:0.6px;stroke-linecap:butt;stroke-linejoin:miter;stroke-opacity:1"/>
<path d="M 400.6,110.1 L 400.6,109.2 L 399.8,108.7" style="fill:none;stroke:#000000;stroke-width:0.6px;stroke-linecap:butt;stroke-linejoin:miter;stroke-opacity:1;"/>
<path d="M 386.0,100.2 L 385.3,99.8 L 384.5,100.2" style="fill:none;stroke:#000000;stroke-width:0.6px;stroke-linecap:butt;stroke-linejoin:miter;stroke-opacity:1;"/>
<path d="M 383.5,135.3 L 384.3,135.7 L 385.1,135.3" style="fill:none;stroke:#000000;stroke-width:0.6px;stroke-linecap:butt;stroke-linejoin:miter;stroke-opacity:1;"/>
<path d="M 352.6,131.1 L 351.7,131.4 L 351.3,130.9" style="fill:none;stroke:#000000;stroke-width:0.6px;stroke-linecap:butt;stroke-linejoin:miter;stroke-opacity:1;"/>
<path d="M 324.2,116.1 L 323.5,116.1 L 323.1,115.3" style="fill:none;stroke:#000000;stroke-width:0.6px;stroke-linecap:butt;stroke-linejoin:miter;stroke-opacity:1;"/>
<path d="M 284.0,104.7 L 283.1,104.4 L 282.6,105.1" style="fill:none;stroke:#000000;stroke-width:0.6px;stroke-linecap:butt;stroke-linejoin:miter;stroke-opacity:1;"/>
<path d="M 255.1,119.9 L 254.2,120.0 L 254.0,120.6" style="fill:none;stroke:#000000;stroke-width:0.6px;stroke-linecap:butt;stroke-linejoin:miter;stroke-opacity:1;"/>
<path d="M 256.3,150.6 L 256.6,151.1 L 257.5,151.0" style="fill:none;stroke:#000000;stroke-width:0.6px;stroke-linecap:butt;stroke-linejoin:miter;stroke-opacity:1;"/>
<path d="M 273.7,149.8 L 274.6,149.7 L 275.0,148.9" style="fill:none;stroke:#000000;stroke-width:0.6px;stroke-linecap:butt;stroke-linejoin:miter;stroke-opacity:1;"/>
<path d="M 312.4,71.7 L 312.7,71.2 L 313.4,71.3" style="fill:none;stroke:#000000;stroke-width:0.6px;stroke-linecap:butt;stroke-linejoin:miter;stroke-opacity:1;"/>
<path d="M 331.5,92.7 L 331.6,93.4 L 330.8,93.7" style="fill:none;stroke:#000000;stroke-width:0.6px;stroke-linecap:butt;stroke-linejoin:miter;stroke-opacity:1;"/>
<path d="M 352.1,102.8 L 352.5,102.3 L 353.3,102.6" style="fill:none;stroke:#000000;stroke-width:0.6px;stroke-linecap:butt;stroke-linejoin:miter;stroke-opacity:1;"/>
<path class="atom-1" d="M 418.3 136.9 Q 418.3 137.9, 418.0 138.7 Q 417.6 139.5, 417.0 139.9 Q 416.3 140.3, 415.5 140.3 Q 414.6 140.3, 414.0 139.9 Q 413.3 139.5, 413.0 138.7 Q 412.6 138.0, 412.6 136.9 L 412.6 136.4 Q 412.6 135.4, 412.9 134.6 Q 413.3 133.8, 414.0 133.4 Q 414.6 133.0, 415.4 133.0 Q 416.3 133.0, 417.0 133.4 Q 417.6 133.8, 418.0 134.6 Q 418.3 135.4, 418.3 136.4 L 418.3 136.9 M 417.4 136.4 Q 417.4 135.2, 416.9 134.5 Q 416.4 133.8, 415.4 133.8 Q 414.6 133.8, 414.0 134.5 Q 413.5 135.2, 413.5 136.4 L 413.5 136.9 Q 413.5 138.1, 414.0 138.8 Q 414.6 139.5, 415.5 139.5 Q 416.4 139.5, 416.9 138.8 Q 417.4 138.2, 417.4 136.9 L 417.4 136.4 " fill="#000000"/>
<path class="atom-9" d="M 348.5 148.6 Q 348.5 149.7, 348.2 150.5 Q 347.8 151.2, 347.2 151.6 Q 346.5 152.1, 345.7 152.1 Q 344.8 152.1, 344.2 151.6 Q 343.5 151.2, 343.2 150.5 Q 342.8 149.7, 342.8 148.7 L 342.8 148.2 Q 342.8 147.2, 343.2 146.4 Q 343.5 145.6, 344.2 145.2 Q 344.8 144.8, 345.7 144.8 Q 346.5 144.8, 347.2 145.2 Q 347.8 145.6, 348.2 146.4 Q 348.5 147.1, 348.5 148.2 L 348.5 148.6 M 347.6 148.2 Q 347.6 146.9, 347.1 146.2 Q 346.6 145.6, 345.7 145.6 Q 344.8 145.6, 344.2 146.2 Q 343.7 146.9, 343.7 148.1 L 343.7 148.6 Q 343.7 149.9, 344.2 150.6 Q 344.8 151.3, 345.7 151.3 Q 346.6 151.3, 347.1 150.6 Q 347.6 149.9, 347.6 148.7 L 347.6 148.2 " fill="#000000"/>
<path class="atom-10" d="M 344.2 120.1 L 343.3 120.1 L 339.7 114.6 L 339.7 120.1 L 338.8 120.1 L 338.8 113.0 L 339.7 113.0 L 343.3 118.5 L 343.3 113.0 L 344.2 113.0 L 344.2 120.1 " fill="#000000"/>
<path class="atom-17" d="M 249.2 139.8 L 248.2 139.8 L 244.7 134.3 L 244.7 139.8 L 243.7 139.8 L 243.7 132.7 L 244.7 132.7 L 248.2 138.2 L 248.2 132.7 L 249.2 132.7 L 249.2 139.8 " fill="#000000"/>
<path class="atom-21" d="M 302.5 128.7 Q 302.5 129.7, 302.1 130.5 Q 301.8 131.3, 301.1 131.7 Q 300.5 132.1, 299.6 132.1 Q 298.8 132.1, 298.1 131.7 Q 297.5 131.3, 297.1 130.5 Q 296.8 129.7, 296.7 128.7 L 296.7 128.2 Q 296.7 127.2, 297.1 126.4 Q 297.5 125.6, 298.1 125.2 Q 298.8 124.8, 299.6 124.8 Q 300.5 124.8, 301.1 125.2 Q 301.8 125.6, 302.1 126.4 Q 302.5 127.2, 302.5 128.2 L 302.5 128.7 M 301.5 128.2 Q 301.5 126.9, 301.0 126.3 Q 300.5 125.6, 299.6 125.6 Q 298.7 125.6, 298.2 126.3 Q 297.7 126.9, 297.7 128.1 L 297.7 128.7 Q 297.7 129.9, 298.2 130.6 Q 298.7 131.3, 299.6 131.3 Q 300.5 131.3, 301.0 130.6 Q 301.5 130.0, 301.5 128.7 L 301.5 128.2 " fill="#000000"/>
<path class="atom-22" d="M 299.2 90.1 L 298.2 90.1 L 298.2 86.8 L 294.6 86.8 L 294.6 90.1 L 293.7 90.1 L 293.7 83.0 L 294.6 83.0 L 294.6 86.0 L 298.2 86.0 L 298.2 83.0 L 299.2 83.0 L 299.2 90.1 " fill="#000000"/>
<path class="atom-22" d="M 306.0 90.1 L 305.1 90.1 L 301.5 84.6 L 301.5 90.1 L 300.6 90.1 L 300.6 83.0 L 301.5 83.0 L 305.1 88.5 L 305.1 83.0 L 306.0 83.0 L 306.0 90.1 " fill="#000000"/>
<path class="atom-24" d="M 308.7 54.8 Q 308.7 55.9, 308.4 56.6 Q 308.0 57.4, 307.4 57.8 Q 306.7 58.2, 305.9 58.2 Q 305.0 58.2, 304.4 57.8 Q 303.7 57.4, 303.4 56.7 Q 303.0 55.9, 303.0 54.9 L 303.0 54.4 Q 303.0 53.3, 303.3 52.6 Q 303.7 51.8, 304.4 51.4 Q 305.0 50.9, 305.8 50.9 Q 306.7 50.9, 307.3 51.4 Q 308.0 51.8, 308.4 52.6 Q 308.7 53.3, 308.7 54.4 L 308.7 54.8 M 307.8 54.4 Q 307.8 53.1, 307.3 52.4 Q 306.8 51.7, 305.8 51.7 Q 305.0 51.7, 304.4 52.4 Q 303.9 53.1, 303.9 54.3 L 303.9 54.8 Q 303.9 56.0, 304.4 56.8 Q 305.0 57.4, 305.9 57.4 Q 306.8 57.4, 307.3 56.8 Q 307.8 56.1, 307.8 54.9 L 307.8 54.4 " fill="#000000"/>
<path class="atom-25" d="M 332.9 79.0 L 332.0 79.0 L 328.4 73.5 L 328.4 79.0 L 327.5 79.0 L 327.5 71.9 L 328.4 71.9 L 332.0 77.4 L 332.0 71.9 L 332.9 71.9 L 332.9 79.0 " fill="#000000"/>
<path class="atom-25" d="M 339.8 79.0 L 338.8 79.0 L 338.8 75.7 L 335.3 75.7 L 335.3 79.0 L 334.3 79.0 L 334.3 71.9 L 335.3 71.9 L 335.3 74.9 L 338.8 74.9 L 338.8 71.9 L 339.8 71.9 L 339.8 79.0 " fill="#000000"/>
<path class="atom-27" d="M 347.0 97.6 Q 347.0 98.6, 346.6 99.4 Q 346.3 100.2, 345.6 100.6 Q 345.0 101.0, 344.1 101.0 Q 343.3 101.0, 342.6 100.6 Q 342.0 100.2, 341.6 99.4 Q 341.3 98.7, 341.2 97.7 L 341.2 97.2 Q 341.2 96.1, 341.6 95.3 Q 342.0 94.6, 342.6 94.1 Q 343.3 93.7, 344.1 93.7 Q 345.0 93.7, 345.6 94.1 Q 346.3 94.5, 346.6 95.3 Q 347.0 96.1, 347.0 97.2 L 347.0 97.6 M 346.0 97.1 Q 346.0 95.9, 345.5 95.2 Q 345.0 94.5, 344.1 94.5 Q 343.2 94.5, 342.7 95.2 Q 342.2 95.9, 342.2 97.1 L 342.2 97.6 Q 342.2 98.8, 342.7 99.5 Q 343.2 100.2, 344.1 100.2 Q 345.0 100.2, 345.5 99.6 Q 346.0 98.9, 346.0 97.7 L 346.0 97.1 " fill="#000000"/>
<path class="legend" d="M 332.9 207.8 L 332.9 209.1 L 332.7 209.1 Q 331.0 209.1, 330.0 210.1 Q 329.0 211.0, 328.8 212.8 Q 329.7 211.8, 331.3 211.8 Q 332.7 211.8, 333.6 212.8 Q 334.5 213.9, 334.5 215.5 Q 334.5 217.3, 333.6 218.3 Q 332.6 219.4, 331.0 219.4 Q 329.4 219.4, 328.4 218.1 Q 327.3 216.9, 327.3 214.9 L 327.3 214.3 Q 327.3 211.2, 328.7 209.5 Q 330.0 207.9, 332.7 207.8 L 332.9 207.8 M 331.0 213.0 Q 330.3 213.0, 329.7 213.4 Q 329.0 213.9, 328.8 214.5 L 328.8 215.1 Q 328.8 216.5, 329.4 217.3 Q 330.1 218.2, 331.0 218.2 Q 332.0 218.2, 332.5 217.5 Q 333.1 216.7, 333.1 215.6 Q 333.1 214.4, 332.5 213.7 Q 332.0 213.0, 331.0 213.0 " fill="#000000"/>
<path class="legend" d="M 335.8 218.5 Q 335.8 218.1, 336.0 217.8 Q 336.3 217.6, 336.7 217.6 Q 337.2 217.6, 337.4 217.8 Q 337.6 218.1, 337.6 218.5 Q 337.6 218.8, 337.4 219.1 Q 337.2 219.3, 336.7 219.3 Q 336.3 219.3, 336.0 219.1 Q 335.8 218.8, 335.8 218.5 " fill="#000000"/>
<path class="legend" d="M 341.8 212.8 L 342.9 212.8 Q 343.9 212.8, 344.5 212.3 Q 345.0 211.8, 345.0 210.9 Q 345.0 208.9, 343.1 208.9 Q 342.1 208.9, 341.6 209.4 Q 341.0 209.9, 341.0 210.8 L 339.6 210.8 Q 339.6 209.5, 340.5 208.6 Q 341.5 207.7, 343.1 207.7 Q 344.7 207.7, 345.6 208.5 Q 346.5 209.4, 346.5 210.9 Q 346.5 211.6, 346.0 212.3 Q 345.5 213.0, 344.7 213.4 Q 345.6 213.7, 346.1 214.4 Q 346.7 215.1, 346.7 216.0 Q 346.7 217.6, 345.7 218.5 Q 344.7 219.4, 343.1 219.4 Q 341.5 219.4, 340.5 218.5 Q 339.5 217.6, 339.5 216.2 L 340.9 216.2 Q 340.9 217.1, 341.5 217.7 Q 342.1 218.2, 343.1 218.2 Q 344.1 218.2, 344.7 217.6 Q 345.2 217.1, 345.2 216.1 Q 345.2 215.1, 344.6 214.6 Q 344.0 214.0, 342.9 214.0 L 341.8 214.0 L 341.8 212.8 " fill="#000000"/>
<path class="bond-0 atom-0 atom-1" d="M 558.8,115.0 L 562.3,101.6" style="fill:none;fill-rule:evenodd;stroke:#000000;stroke-width:0.6px;stroke-linecap:butt;stroke-linejoin:miter;stroke-opacity:1"/>
<path class="bond-0 atom-0 atom-1" d="M 561.9,115.8 L 565.4,102.5" style="fill:none;fill-rule:evenodd;stroke:#000000;stroke-width:0.6px;stroke-linecap:butt;stroke-linejoin:miter;stroke-opacity:1"/>
<path class="bond-1 atom-1 atom-2" d="M 563.6,103.0 L 581.0,98.2" style="fill:none;fill-rule:evenodd;stroke:#000000;stroke-width:0.6px;stroke-linecap:butt;stroke-linejoin:miter;stroke-opacity:1"/>
<path class="bond-2 atom-2 atom-3" d="M 581.0,98.2 L 593.8,110.8" style="fill:none;fill-rule:evenodd;stroke:#000000;stroke-width:0.6px;stroke-linecap:butt;stroke-linejoin:miter;stroke-opacity:1"/>
<path class="bond-2 atom-2 atom-3" d="M 580.0,101.8 L 591.5,113.1" style="fill:none;fill-rule:evenodd;stroke:#000000;stroke-width:0.6px;stroke-linecap:butt;stroke-linejoin:miter;stroke-opacity:1"/>
<path class="bond-3 atom-3 atom-4" d="M 593.8,110.8 L 611.1,106.1" style="fill:none;fill-rule:evenodd;stroke:#000000;stroke-width:0.6px;stroke-linecap:butt;stroke-linejoin:miter;stroke-opacity:1"/>
<path class="bond-4 atom-4 atom-5" d="M 611.1,106.1 L 623.9,118.7" style="fill:none;fill-rule:evenodd;stroke:#000000;stroke-width:0.6px;stroke-linecap:butt;stroke-linejoin:miter;stroke-opacity:1"/>
<path class="bond-4 atom-4 atom-5" d="M 614.7,105.1 L 624.9,115.1" style="fill:none;fill-rule:evenodd;stroke:#000000;stroke-width:0.6px;stroke-linecap:butt;stroke-linejoin:miter;stroke-opacity:1"/>
<path class="bond-5 atom-5 atom-6" d="M 623.9,118.7 L 641.3,114.0" style="fill:none;fill-rule:evenodd;stroke:#000000;stroke-width:0.6px;stroke-linecap:butt;stroke-linejoin:miter;stroke-opacity:1"/>
<path class="bond-6 atom-6 atom-7" d="M 641.3,114.0 L 645.8,96.5" style="fill:none;fill-rule:evenodd;stroke:#000000;stroke-width:0.6px;stroke-linecap:butt;stroke-linejoin:miter;stroke-opacity:1"/>
<path class="bond-6 atom-6 atom-7" d="M 638.6,111.3 L 642.2,97.5" style="fill:none;fill-rule:evenodd;stroke:#000000;stroke-width:0.6px;stroke-linecap:butt;stroke-linejoin:miter;stroke-opacity:1"/>
<path class="bond-7 atom-7 atom-8" d="M 645.8,96.5 L 633.0,83.9" style="fill:none;fill-rule:evenodd;stroke:#000000;stroke-width:0.6px;stroke-linecap:butt;stroke-linejoin:miter;stroke-opacity:1"/>
<path class="bond-8 atom-8 atom-9" d="M 633.0,83.9 L 615.7,88.7" style="fill:none;fill-rule:evenodd;stroke:#000000;stroke-width:0.6px;stroke-linecap:butt;stroke-linejoin:miter;stroke-opacity:1"/>
<path class="bond-8 atom-8 atom-9" d="M 632.1,87.5 L 618.3,91.3" style="fill:none;fill-rule:evenodd;stroke:#000000;stroke-width:0.6px;stroke-linecap:butt;stroke-linejoin:miter;stroke-opacity:1"/>
<path class="bond-9 atom-1 atom-10" d="M 563.6,103.0 L 554.9,94.4" style="fill:none;fill-rule:evenodd;stroke:#000000;stroke-width:0.6px;stroke-linecap:butt;stroke-linejoin:miter;stroke-opacity:1"/>
<path class="bond-10 atom-10 atom-11" d="M 546.7,91.4 L 533.4,95.1" style="fill:none;fill-rule:evenodd;stroke:#000000;stroke-width:0.6px;stroke-linecap:butt;stroke-linejoin:miter;stroke-opacity:1"/>
<path class="bond-11 atom-11 atom-12" d="M 533.4,95.1 L 520.6,82.4" style="fill:none;fill-rule:evenodd;stroke:#000000;stroke-width:0.6px;stroke-linecap:butt;stroke-linejoin:miter;stroke-opacity:1"/>
<path class="bond-11 atom-11 atom-12" d="M 529.8,96.1 L 519.7,86.0" style="fill:none;fill-rule:evenodd;stroke:#000000;stroke-width:0.6px;stroke-linecap:butt;stroke-linejoin:miter;stroke-opacity:1"/>
<path class="bond-12 atom-12 atom-13" d="M 520.6,82.4 L 503.3,87.2" style="fill:none;fill-rule:evenodd;stroke:#000000;stroke-width:0.6px;stroke-linecap:butt;stroke-linejoin:miter;stroke-opacity:1"/>
<path class="bond-13 atom-13 atom-14" d="M 503.3,87.2 L 498.7,104.6" style="fill:none;fill-rule:evenodd;stroke:#000000;stroke-width:0.6px;stroke-linecap:butt;stroke-linejoin:miter;stroke-opacity:1"/>
<path class="bond-13 atom-13 atom-14" d="M 505.9,89.8 L 502.3,103.6" style="fill:none;fill-rule:evenodd;stroke:#000000;stroke-width:0.6px;stroke-linecap:butt;stroke-linejoin:miter;stroke-opacity:1"/>
<path class="bond-14 atom-14 atom-15" d="M 498.7,104.6 L 485.0,108.4" style="fill:none;fill-rule:evenodd;stroke:#000000;stroke-width:0.6px;stroke-linecap:butt;stroke-linejoin:miter;stroke-opacity:1"/>
<path class="bond-15 atom-14 atom-16" d="M 498.7,104.6 L 511.5,117.3" style="fill:none;fill-rule:evenodd;stroke:#000000;stroke-width:0.6px;stroke-linecap:butt;stroke-linejoin:miter;stroke-opacity:1"/>
<path class="bond-16 atom-16 atom-17" d="M 511.5,117.3 L 528.9,112.5" style="fill:none;fill-rule:evenodd;stroke:#000000;stroke-width:0.6px;stroke-linecap:butt;stroke-linejoin:miter;stroke-opacity:1"/>
<path class="bond-16 atom-16 atom-17" d="M 512.5,113.6 L 526.2,109.9" style="fill:none;fill-rule:evenodd;stroke:#000000;stroke-width:0.6px;stroke-linecap:butt;stroke-linejoin:miter;stroke-opacity:1"/>
<path class="bond-17 atom-9 atom-4" d="M 615.7,88.7 L 611.1,106.1" style="fill:none;fill-rule:evenodd;stroke:#000000;stroke-width:0.6px;stroke-linecap:butt;stroke-linejoin:miter;stroke-opacity:1"/>
<path class="bond-18 atom-17 atom-11" d="M 528.9,112.5 L 533.4,95.1" style="fill:none;fill-rule:evenodd;stroke:#000000;stroke-width:0.6px;stroke-linecap:butt;stroke-linejoin:miter;stroke-opacity:1"/>
<path d="M 564.5,102.7 L 563.6,103.0 L 563.2,102.5" style="fill:none;stroke:#000000;stroke-width:0.6px;stroke-linecap:butt;stroke-linejoin:miter;stroke-opacity:1;"/>
<path d="M 580.1,98.4 L 581.0,98.2 L 581.6,98.8" style="fill:none;stroke:#000000;stroke-width:0.6px;stroke-linecap:butt;stroke-linejoin:miter;stroke-opacity:1;"/>
<path d="M 593.1,110.2 L 593.8,110.8 L 594.6,110.6" style="fill:none;stroke:#000000;stroke-width:0.6px;stroke-linecap:butt;stroke-linejoin:miter;stroke-opacity:1;"/>
<path d="M 623.3,118.1 L 623.9,118.7 L 624.8,118.5" style="fill:none;stroke:#000000;stroke-width:0.6px;stroke-linecap:butt;stroke-linejoin:miter;stroke-opacity:1;"/>
<path d="M 640.4,114.2 L 641.3,114.0 L 641.5,113.1" style="fill:none;stroke:#000000;stroke-width:0.6px;stroke-linecap:butt;stroke-linejoin:miter;stroke-opacity:1;"/>
<path d="M 645.6,97.4 L 645.8,96.5 L 645.2,95.9" style="fill:none;stroke:#000000;stroke-width:0.6px;stroke-linecap:butt;stroke-linejoin:miter;stroke-opacity:1;"/>
<path d="M 633.7,84.5 L 633.0,83.9 L 632.2,84.1" style="fill:none;stroke:#000000;stroke-width:0.6px;stroke-linecap:butt;stroke-linejoin:miter;stroke-opacity:1;"/>
<path d="M 616.5,88.4 L 615.7,88.7 L 615.4,89.5" style="fill:none;stroke:#000000;stroke-width:0.6px;stroke-linecap:butt;stroke-linejoin:miter;stroke-opacity:1;"/>
<path d="M 521.3,83.1 L 520.6,82.4 L 519.8,82.7" style="fill:none;stroke:#000000;stroke-width:0.6px;stroke-linecap:butt;stroke-linejoin:miter;stroke-opacity:1;"/>
<path d="M 504.1,86.9 L 503.3,87.2 L 503.0,88.1" style="fill:none;stroke:#000000;stroke-width:0.6px;stroke-linecap:butt;stroke-linejoin:miter;stroke-opacity:1;"/>
<path d="M 510.9,116.6 L 511.5,117.3 L 512.4,117.0" style="fill:none;stroke:#000000;stroke-width:0.6px;stroke-linecap:butt;stroke-linejoin:miter;stroke-opacity:1;"/>
<path d="M 528.0,112.7 L 528.9,112.5 L 529.1,111.6" style="fill:none;stroke:#000000;stroke-width:0.6px;stroke-linecap:butt;stroke-linejoin:miter;stroke-opacity:1;"/>
<path class="atom-0" d="M 561.9 120.6 Q 561.9 121.7, 561.6 122.5 Q 561.2 123.3, 560.6 123.7 Q 559.9 124.1, 559.1 124.1 Q 558.2 124.1, 557.6 123.7 Q 556.9 123.2, 556.6 122.5 Q 556.2 121.7, 556.2 120.7 L 556.2 120.2 Q 556.2 119.2, 556.5 118.4 Q 556.9 117.6, 557.6 117.2 Q 558.2 116.8, 559.0 116.8 Q 559.9 116.8, 560.6 117.2 Q 561.2 117.6, 561.6 118.4 Q 561.9 119.2, 561.9 120.2 L 561.9 120.6 M 561.0 120.2 Q 561.0 118.9, 560.5 118.3 Q 560.0 117.6, 559.0 117.6 Q 558.2 117.6, 557.6 118.3 Q 557.1 118.9, 557.1 120.1 L 557.1 120.6 Q 557.1 121.9, 557.6 122.6 Q 558.2 123.3, 559.1 123.3 Q 560.0 123.3, 560.5 122.6 Q 561.0 122.0, 561.0 120.7 L 561.0 120.2 " fill="#000000"/>
<path class="atom-10" d="M 553.5 93.9 L 552.6 93.9 L 549.0 88.4 L 549.0 93.9 L 548.1 93.9 L 548.1 86.7 L 549.0 86.7 L 552.6 92.3 L 552.6 86.7 L 553.5 86.7 L 553.5 93.9 " fill="#000000"/>
<path class="atom-10" d="M 553.5 86.0 L 552.6 86.0 L 552.6 82.8 L 549.0 82.8 L 549.0 86.0 L 548.1 86.0 L 548.1 78.9 L 549.0 78.9 L 549.0 82.0 L 552.6 82.0 L 552.6 78.9 L 553.5 78.9 L 553.5 86.0 " fill="#000000"/>
<path class="atom-15" d="M 483.1 109.8 L 480.1 109.8 L 480.1 112.9 L 479.2 112.9 L 479.2 105.8 L 483.6 105.8 L 483.6 106.6 L 480.1 106.6 L 480.1 109.0 L 483.1 109.0 L 483.1 109.8 " fill="#000000"/>
<path class="legend" d="M 559.2 210.8 Q 559.2 211.7, 558.8 212.3 Q 558.3 213.0, 557.6 213.4 Q 558.5 213.8, 559.0 214.5 Q 559.5 215.2, 559.5 216.1 Q 559.5 217.6, 558.5 218.5 Q 557.5 219.4, 555.9 219.4 Q 554.2 219.4, 553.3 218.5 Q 552.3 217.6, 552.3 216.1 Q 552.3 215.2, 552.8 214.5 Q 553.3 213.7, 554.2 213.4 Q 553.4 213.0, 553.0 212.3 Q 552.5 211.7, 552.5 210.8 Q 552.5 209.4, 553.5 208.5 Q 554.4 207.7, 555.9 207.7 Q 557.4 207.7, 558.3 208.5 Q 559.2 209.4, 559.2 210.8 M 558.1 216.1 Q 558.1 215.2, 557.5 214.6 Q 556.9 214.0, 555.9 214.0 Q 554.9 214.0, 554.3 214.6 Q 553.7 215.1, 553.7 216.1 Q 553.7 217.1, 554.3 217.6 Q 554.9 218.2, 555.9 218.2 Q 556.9 218.2, 557.5 217.6 Q 558.1 217.1, 558.1 216.1 M 555.9 208.9 Q 555.0 208.9, 554.5 209.4 Q 554.0 209.9, 554.0 210.8 Q 554.0 211.7, 554.5 212.2 Q 555.0 212.8, 555.9 212.8 Q 556.8 212.8, 557.3 212.2 Q 557.8 211.7, 557.8 210.8 Q 557.8 210.0, 557.3 209.4 Q 556.7 208.9, 555.9 208.9 " fill="#000000"/>
<path class="legend" d="M 560.9 218.5 Q 560.9 218.1, 561.1 217.8 Q 561.4 217.6, 561.8 217.6 Q 562.3 217.6, 562.5 217.8 Q 562.7 218.1, 562.7 218.5 Q 562.7 218.8, 562.5 219.1 Q 562.3 219.3, 561.8 219.3 Q 561.4 219.3, 561.1 219.1 Q 560.9 218.8, 560.9 218.5 " fill="#000000"/>
<path class="legend" d="M 571.7 214.4 Q 571.7 216.9, 570.9 218.1 Q 570.0 219.4, 568.1 219.4 Q 566.3 219.4, 565.5 218.2 Q 564.6 217.0, 564.5 214.6 L 564.5 212.6 Q 564.5 210.1, 565.4 208.9 Q 566.3 207.7, 568.1 207.7 Q 570.0 207.7, 570.8 208.9 Q 571.7 210.0, 571.7 212.5 L 571.7 214.4 M 570.3 212.4 Q 570.3 210.6, 569.8 209.7 Q 569.3 208.9, 568.1 208.9 Q 567.0 208.9, 566.5 209.7 Q 566.0 210.5, 566.0 212.3 L 566.0 214.6 Q 566.0 216.4, 566.5 217.3 Q 567.1 218.2, 568.1 218.2 Q 569.2 218.2, 569.7 217.4 Q 570.3 216.5, 570.3 214.8 L 570.3 212.4 " fill="#000000"/>
</svg>