<svg xmlns="http://www.w3.org/2000/svg" xmlns:rdkit="http://www.rdkit.org/xml" xmlns:xlink="http://www.w3.org/1999/xlink" version="1.1" baseProfile="full" xml:space="preserve" width="675px" height="225px" viewBox="0 0 675 225">
<!-- END OF HEADER -->
<rect style="opacity:1.0;fill:#FFFFFF;stroke:none" width="675.0" height="225.0" x="0.0" y="0.0"> </rect>
<path class="bond-0 atom-0 atom-1" d="M 39.2,90.1 L 49.0,84.0" style="fill:none;fill-rule:evenodd;stroke:#000000;stroke-width:0.6px;stroke-linecap:butt;stroke-linejoin:miter;stroke-opacity:1"/>
<path class="bond-0 atom-0 atom-1" d="M 37.6,87.6 L 47.4,81.5" style="fill:none;fill-rule:evenodd;stroke:#000000;stroke-width:0.6px;stroke-linecap:butt;stroke-linejoin:miter;stroke-opacity:1"/>
<path class="bond-0 atom-0 atom-1" d="M 40.7,92.6 L 50.6,86.5" style="fill:none;fill-rule:evenodd;stroke:#000000;stroke-width:0.6px;stroke-linecap:butt;stroke-linejoin:miter;stroke-opacity:1"/>
<path class="bond-1 atom-1 atom-2" d="M 49.0,84.0 L 62.8,75.3" style="fill:none;fill-rule:evenodd;stroke:#000000;stroke-width:0.6px;stroke-linecap:butt;stroke-linejoin:miter;stroke-opacity:1"/>
<path class="bond-2 atom-2 atom-3" d="M 62.8,75.3 L 62.4,63.8" style="fill:none;fill-rule:evenodd;stroke:#000000;stroke-width:0.6px;stroke-linecap:butt;stroke-linejoin:miter;stroke-opacity:1"/>
<path class="bond-2 atom-2 atom-3" d="M 65.7,73.5 L 65.4,63.7" style="fill:none;fill-rule:evenodd;stroke:#000000;stroke-width:0.6px;stroke-linecap:butt;stroke-linejoin:miter;stroke-opacity:1"/>
<path class="bond-3 atom-3 atom-4" d="M 66.2,56.5 L 76.1,50.3" style="fill:none;fill-rule:evenodd;stroke:#000000;stroke-width:0.6px;stroke-linecap:butt;stroke-linejoin:miter;stroke-opacity:1"/>
<path class="bond-4 atom-4 atom-5" d="M 76.1,50.3 L 90.5,58.0" style="fill:none;fill-rule:evenodd;stroke:#000000;stroke-width:0.6px;stroke-linecap:butt;stroke-linejoin:miter;stroke-opacity:1"/>
<path class="bond-4 atom-4 atom-5" d="M 76.2,53.7 L 87.6,59.8" style="fill:none;fill-rule:evenodd;stroke:#000000;stroke-width:0.6px;stroke-linecap:butt;stroke-linejoin:miter;stroke-opacity:1"/>
<path class="bond-5 atom-5 atom-6" d="M 90.5,58.0 L 105.9,52.4" style="fill:none;fill-rule:evenodd;stroke:#000000;stroke-width:0.6px;stroke-linecap:butt;stroke-linejoin:miter;stroke-opacity:1"/>
<path class="bond-6 atom-6 atom-7" d="M 105.9,52.4 L 115.9,65.3" style="fill:none;fill-rule:evenodd;stroke:#000000;stroke-width:0.6px;stroke-linecap:butt;stroke-linejoin:miter;stroke-opacity:1"/>
<path class="bond-6 atom-6 atom-7" d="M 104.9,55.9 L 112.3,65.4" style="fill:none;fill-rule:evenodd;stroke:#000000;stroke-width:0.6px;stroke-linecap:butt;stroke-linejoin:miter;stroke-opacity:1"/>
<path class="bond-7 atom-7 atom-8" d="M 115.9,65.3 L 132.2,64.7" style="fill:none;fill-rule:evenodd;stroke:#000000;stroke-width:0.6px;stroke-linecap:butt;stroke-linejoin:miter;stroke-opacity:1"/>
<path class="bond-8 atom-8 atom-9" d="M 132.2,64.7 L 137.9,73.7" style="fill:none;fill-rule:evenodd;stroke:#000000;stroke-width:0.6px;stroke-linecap:butt;stroke-linejoin:miter;stroke-opacity:1"/>
<path class="bond-9 atom-9 atom-10" d="M 144.7,78.4 L 157.2,77.9" style="fill:none;fill-rule:evenodd;stroke:#000000;stroke-width:0.6px;stroke-linecap:butt;stroke-linejoin:miter;stroke-opacity:1"/>
<path class="bond-10 atom-10 atom-11" d="M 157.2,77.9 L 165.9,91.8" style="fill:none;fill-rule:evenodd;stroke:#000000;stroke-width:0.6px;stroke-linecap:butt;stroke-linejoin:miter;stroke-opacity:1"/>
<path class="bond-10 atom-10 atom-11" d="M 160.6,77.8 L 167.5,88.8" style="fill:none;fill-rule:evenodd;stroke:#000000;stroke-width:0.6px;stroke-linecap:butt;stroke-linejoin:miter;stroke-opacity:1"/>
<path class="bond-11 atom-11 atom-12" d="M 165.9,91.8 L 182.2,91.2" style="fill:none;fill-rule:evenodd;stroke:#000000;stroke-width:0.6px;stroke-linecap:butt;stroke-linejoin:miter;stroke-opacity:1"/>
<path class="bond-12 atom-12 atom-13" d="M 182.2,91.2 L 187.3,81.6" style="fill:none;fill-rule:evenodd;stroke:#000000;stroke-width:0.6px;stroke-linecap:butt;stroke-linejoin:miter;stroke-opacity:1"/>
<path class="bond-12 atom-12 atom-13" d="M 180.4,88.3 L 184.7,80.2" style="fill:none;fill-rule:evenodd;stroke:#000000;stroke-width:0.6px;stroke-linecap:butt;stroke-linejoin:miter;stroke-opacity:1"/>
<path class="bond-13 atom-13 atom-14" d="M 186.8,72.0 L 181.2,62.9" style="fill:none;fill-rule:evenodd;stroke:#000000;stroke-width:0.6px;stroke-linecap:butt;stroke-linejoin:miter;stroke-opacity:1"/>
<path class="bond-14 atom-14 atom-15" d="M 181.2,62.9 L 164.9,63.5" style="fill:none;fill-rule:evenodd;stroke:#000000;stroke-width:0.6px;stroke-linecap:butt;stroke-linejoin:miter;stroke-opacity:1"/>
<path class="bond-14 atom-14 atom-15" d="M 179.6,65.9 L 166.7,66.4" style="fill:none;fill-rule:evenodd;stroke:#000000;stroke-width:0.6px;stroke-linecap:butt;stroke-linejoin:miter;stroke-opacity:1"/>
<path class="bond-15 atom-7 atom-16" d="M 115.9,65.3 L 110.0,74.0" style="fill:none;fill-rule:evenodd;stroke:#000000;stroke-width:0.6px;stroke-linecap:butt;stroke-linejoin:miter;stroke-opacity:1"/>
<path class="bond-16 atom-16 atom-17" d="M 108.6,83.6 L 112.4,94.1" style="fill:none;fill-rule:evenodd;stroke:#000000;stroke-width:0.6px;stroke-linecap:butt;stroke-linejoin:miter;stroke-opacity:1"/>
<path class="bond-17 atom-17 atom-18" d="M 112.4,94.1 L 101.9,106.6" style="fill:none;fill-rule:evenodd;stroke:#000000;stroke-width:0.6px;stroke-linecap:butt;stroke-linejoin:miter;stroke-opacity:1"/>
<path class="bond-18 atom-18 atom-19" d="M 101.9,106.6 L 107.5,122.0" style="fill:none;fill-rule:evenodd;stroke:#000000;stroke-width:0.6px;stroke-linecap:butt;stroke-linejoin:miter;stroke-opacity:1"/>
<path class="bond-19 atom-19 atom-20" d="M 107.5,122.0 L 97.0,134.5" style="fill:none;fill-rule:evenodd;stroke:#000000;stroke-width:0.6px;stroke-linecap:butt;stroke-linejoin:miter;stroke-opacity:1"/>
<path class="bond-20 atom-20 atom-21" d="M 97.0,134.5 L 102.6,149.8" style="fill:none;fill-rule:evenodd;stroke:#000000;stroke-width:0.6px;stroke-linecap:butt;stroke-linejoin:miter;stroke-opacity:1"/>
<path class="bond-21 atom-21 atom-22" d="M 102.6,149.8 L 118.7,152.7" style="fill:none;fill-rule:evenodd;stroke:#000000;stroke-width:0.6px;stroke-linecap:butt;stroke-linejoin:miter;stroke-opacity:1"/>
<path class="bond-22 atom-22 atom-23" d="M 118.7,152.7 L 129.2,140.1" style="fill:none;fill-rule:evenodd;stroke:#000000;stroke-width:0.6px;stroke-linecap:butt;stroke-linejoin:miter;stroke-opacity:1"/>
<path class="bond-23 atom-23 atom-24" d="M 129.2,140.1 L 123.6,124.8" style="fill:none;fill-rule:evenodd;stroke:#000000;stroke-width:0.6px;stroke-linecap:butt;stroke-linejoin:miter;stroke-opacity:1"/>
<path class="bond-24 atom-16 atom-25" d="M 102.8,77.7 L 91.1,74.3" style="fill:none;fill-rule:evenodd;stroke:#000000;stroke-width:0.6px;stroke-linecap:butt;stroke-linejoin:miter;stroke-opacity:1"/>
<path class="bond-25 atom-25 atom-26" d="M 91.1,74.3 L 81.2,80.5" style="fill:none;fill-rule:evenodd;stroke:#000000;stroke-width:0.6px;stroke-linecap:butt;stroke-linejoin:miter;stroke-opacity:1"/>
<path class="bond-25 atom-25 atom-26" d="M 88.1,72.7 L 79.7,78.0" style="fill:none;fill-rule:evenodd;stroke:#000000;stroke-width:0.6px;stroke-linecap:butt;stroke-linejoin:miter;stroke-opacity:1"/>
<path class="bond-26 atom-26 atom-2" d="M 73.3,80.9 L 62.8,75.3" style="fill:none;fill-rule:evenodd;stroke:#000000;stroke-width:0.6px;stroke-linecap:butt;stroke-linejoin:miter;stroke-opacity:1"/>
<path class="bond-27 atom-25 atom-5" d="M 91.1,74.3 L 90.5,58.0" style="fill:none;fill-rule:evenodd;stroke:#000000;stroke-width:0.6px;stroke-linecap:butt;stroke-linejoin:miter;stroke-opacity:1"/>
<path class="bond-28 atom-15 atom-10" d="M 164.9,63.5 L 157.2,77.9" style="fill:none;fill-rule:evenodd;stroke:#000000;stroke-width:0.6px;stroke-linecap:butt;stroke-linejoin:miter;stroke-opacity:1"/>
<path class="bond-29 atom-24 atom-19" d="M 123.6,124.8 L 107.5,122.0" style="fill:none;fill-rule:evenodd;stroke:#000000;stroke-width:0.6px;stroke-linecap:butt;stroke-linejoin:miter;stroke-opacity:1"/>
<path d="M 48.5,84.3 L 49.0,84.0 L 49.7,83.5" style="fill:none;stroke:#000000;stroke-width:0.6px;stroke-linecap:butt;stroke-linejoin:miter;stroke-opacity:1;"/>
<path d="M 75.6,50.6 L 76.1,50.3 L 76.8,50.7" style="fill:none;stroke:#000000;stroke-width:0.6px;stroke-linecap:butt;stroke-linejoin:miter;stroke-opacity:1;"/>
<path d="M 105.1,52.7 L 105.9,52.4 L 106.4,53.0" style="fill:none;stroke:#000000;stroke-width:0.6px;stroke-linecap:butt;stroke-linejoin:miter;stroke-opacity:1;"/>
<path d="M 131.4,64.7 L 132.2,64.7 L 132.5,65.1" style="fill:none;stroke:#000000;stroke-width:0.6px;stroke-linecap:butt;stroke-linejoin:miter;stroke-opacity:1;"/>
<path d="M 165.4,91.1 L 165.9,91.8 L 166.7,91.7" style="fill:none;stroke:#000000;stroke-width:0.6px;stroke-linecap:butt;stroke-linejoin:miter;stroke-opacity:1;"/>
<path d="M 181.4,91.2 L 182.2,91.2 L 182.4,90.7" style="fill:none;stroke:#000000;stroke-width:0.6px;stroke-linecap:butt;stroke-linejoin:miter;stroke-opacity:1;"/>
<path d="M 181.5,63.4 L 181.2,62.9 L 180.4,63.0" style="fill:none;stroke:#000000;stroke-width:0.6px;stroke-linecap:butt;stroke-linejoin:miter;stroke-opacity:1;"/>
<path d="M 165.7,63.5 L 164.9,63.5 L 164.5,64.2" style="fill:none;stroke:#000000;stroke-width:0.6px;stroke-linecap:butt;stroke-linejoin:miter;stroke-opacity:1;"/>
<path d="M 112.2,93.6 L 112.4,94.1 L 111.9,94.8" style="fill:none;stroke:#000000;stroke-width:0.6px;stroke-linecap:butt;stroke-linejoin:miter;stroke-opacity:1;"/>
<path d="M 102.4,106.0 L 101.9,106.6 L 102.2,107.4" style="fill:none;stroke:#000000;stroke-width:0.6px;stroke-linecap:butt;stroke-linejoin:miter;stroke-opacity:1;"/>
<path d="M 97.5,133.9 L 97.0,134.5 L 97.3,135.3" style="fill:none;stroke:#000000;stroke-width:0.6px;stroke-linecap:butt;stroke-linejoin:miter;stroke-opacity:1;"/>
<path d="M 102.3,149.1 L 102.6,149.8 L 103.4,150.0" style="fill:none;stroke:#000000;stroke-width:0.6px;stroke-linecap:butt;stroke-linejoin:miter;stroke-opacity:1;"/>
<path d="M 117.9,152.5 L 118.7,152.7 L 119.2,152.0" style="fill:none;stroke:#000000;stroke-width:0.6px;stroke-linecap:butt;stroke-linejoin:miter;stroke-opacity:1;"/>
<path d="M 128.6,140.8 L 129.2,140.1 L 128.9,139.4" style="fill:none;stroke:#000000;stroke-width:0.6px;stroke-linecap:butt;stroke-linejoin:miter;stroke-opacity:1;"/>
<path d="M 123.9,125.6 L 123.6,124.8 L 122.8,124.7" style="fill:none;stroke:#000000;stroke-width:0.6px;stroke-linecap:butt;stroke-linejoin:miter;stroke-opacity:1;"/>
<path class="atom-0" d="M 37.9 96.2 L 37.0 96.2 L 33.4 90.7 L 33.4 96.2 L 32.4 96.2 L 32.4 89.1 L 33.4 89.1 L 37.0 94.6 L 37.0 89.1 L 37.9 89.1 L 37.9 96.2 " fill="#000000"/>
<path class="atom-3" d="M 65.0 62.6 L 64.0 62.6 L 60.5 57.1 L 60.5 62.6 L 59.5 62.6 L 59.5 55.4 L 60.5 55.4 L 64.1 60.9 L 64.1 55.4 L 65.0 55.4 L 65.0 62.6 " fill="#000000"/>
<path class="atom-9" d="M 140.8 78.9 Q 139.6 78.6, 139.1 78.1 Q 138.5 77.6, 138.5 76.9 Q 138.5 76.0, 139.2 75.5 Q 139.9 74.9, 141.0 74.9 Q 141.7 74.9, 142.3 75.2 Q 142.8 75.5, 143.1 76.0 Q 143.5 76.5, 143.5 77.1 L 142.5 77.1 Q 142.5 76.4, 142.1 76.1 Q 141.7 75.7, 141.0 75.7 Q 140.3 75.7, 139.9 76.0 Q 139.5 76.3, 139.5 76.8 Q 139.5 77.3, 139.8 77.6 Q 140.2 77.9, 141.1 78.1 Q 142.0 78.4, 142.5 78.7 Q 143.0 79.0, 143.2 79.4 Q 143.5 79.8, 143.5 80.3 Q 143.5 81.2, 142.8 81.7 Q 142.1 82.2, 141.0 82.2 Q 140.3 82.2, 139.6 81.9 Q 139.0 81.7, 138.7 81.2 Q 138.3 80.7, 138.3 80.1 L 139.3 80.1 Q 139.3 80.7, 139.7 81.1 Q 140.2 81.4, 141.0 81.4 Q 141.7 81.4, 142.1 81.1 Q 142.5 80.8, 142.5 80.3 Q 142.5 79.8, 142.2 79.5 Q 141.8 79.2, 140.8 78.9 " fill="#000000"/>
<path class="atom-13" d="M 192.6 80.3 L 191.6 80.3 L 188.0 74.8 L 188.0 80.3 L 187.1 80.3 L 187.1 73.2 L 188.0 73.2 L 191.6 78.7 L 191.6 73.2 L 192.6 73.2 L 192.6 80.3 " fill="#000000"/>
<path class="atom-16" d="M 109.5 82.4 L 108.6 82.4 L 105.0 76.9 L 105.0 82.4 L 104.1 82.4 L 104.1 75.2 L 105.0 75.2 L 108.6 80.7 L 108.6 75.2 L 109.5 75.2 L 109.5 82.4 " fill="#000000"/>
<path class="atom-26" d="M 80.0 86.5 L 79.0 86.5 L 75.5 81.0 L 75.5 86.5 L 74.5 86.5 L 74.5 79.4 L 75.5 79.4 L 79.1 84.9 L 79.1 79.4 L 80.0 79.4 L 80.0 86.5 " fill="#000000"/>
<path class="legend" d="M 107.9 207.8 L 107.9 209.1 L 107.7 209.1 Q 106.0 209.1, 105.0 210.1 Q 104.0 211.0, 103.8 212.8 Q 104.7 211.8, 106.3 211.8 Q 107.7 211.8, 108.6 212.8 Q 109.5 213.9, 109.5 215.5 Q 109.5 217.3, 108.6 218.3 Q 107.6 219.4, 106.0 219.4 Q 104.4 219.4, 103.4 218.1 Q 102.3 216.9, 102.3 214.9 L 102.3 214.3 Q 102.3 211.2, 103.7 209.5 Q 105.0 207.9, 107.7 207.8 L 107.9 207.8 M 106.0 213.0 Q 105.3 213.0, 104.7 213.4 Q 104.0 213.9, 103.8 214.5 L 103.8 215.1 Q 103.8 216.5, 104.4 217.3 Q 105.1 218.2, 106.0 218.2 Q 107.0 218.2, 107.5 217.5 Q 108.1 216.7, 108.1 215.6 Q 108.1 214.4, 107.5 213.7 Q 107.0 213.0, 106.0 213.0 " fill="#000000"/>
<path class="legend" d="M 110.8 218.5 Q 110.8 218.1, 111.0 217.8 Q 111.3 217.6, 111.7 217.6 Q 112.2 217.6, 112.4 217.8 Q 112.6 218.1, 112.6 218.5 Q 112.6 218.8, 112.4 219.1 Q 112.2 219.3, 111.7 219.3 Q 111.3 219.3, 111.0 219.1 Q 110.8 218.8, 110.8 218.5 " fill="#000000"/>
<path class="legend" d="M 116.8 212.8 L 117.9 212.8 Q 118.9 212.8, 119.5 212.3 Q 120.0 211.8, 120.0 210.9 Q 120.0 208.9, 118.1 208.9 Q 117.1 208.9, 116.6 209.4 Q 116.0 209.9, 116.0 210.8 L 114.6 210.8 Q 114.6 209.5, 115.5 208.6 Q 116.5 207.7, 118.1 207.7 Q 119.7 207.7, 120.6 208.5 Q 121.5 209.4, 121.5 210.9 Q 121.5 211.6, 121.0 212.3 Q 120.5 213.0, 119.7 213.4 Q 120.6 213.7, 121.1 214.4 Q 121.7 215.1, 121.7 216.0 Q 121.7 217.6, 120.7 218.5 Q 119.7 219.4, 118.1 219.4 Q 116.5 219.4, 115.5 218.5 Q 114.5 217.6, 114.5 216.2 L 115.9 216.2 Q 115.9 217.1, 116.5 217.7 Q 117.1 218.2, 118.1 218.2 Q 119.1 218.2, 119.7 217.6 Q 120.2 217.1, 120.2 216.1 Q 120.2 215.1, 119.6 214.6 Q 119.0 214.0, 117.9 214.0 L 116.8 214.0 L 116.8 212.8 " fill="#000000"/>
<path class="bond-0 atom-0 atom-1" d="M 294.9,77.4 L 306.6,88.8" style="fill:none;fill-rule:evenodd;stroke:#000000;stroke-width:0.6px;stroke-linecap:butt;stroke-linejoin:miter;stroke-opacity:1"/>
<path class="bond-1 atom-1 atom-2" d="M 306.6,88.8 L 318.3,85.5" style="fill:none;fill-rule:evenodd;stroke:#000000;stroke-width:0.6px;stroke-linecap:butt;stroke-linejoin:miter;stroke-opacity:1"/>
<path class="bond-2 atom-2 atom-3" d="M 326.3,88.2 L 334.0,95.7" style="fill:none;fill-rule:evenodd;stroke:#000000;stroke-width:0.6px;stroke-linecap:butt;stroke-linejoin:miter;stroke-opacity:1"/>
<path class="bond-3 atom-3 atom-4" d="M 332.8,94.5 L 329.8,106.3" style="fill:none;fill-rule:evenodd;stroke:#000000;stroke-width:0.6px;stroke-linecap:butt;stroke-linejoin:miter;stroke-opacity:1"/>
<path class="bond-3 atom-3 atom-4" d="M 335.6,95.3 L 332.6,107.1" style="fill:none;fill-rule:evenodd;stroke:#000000;stroke-width:0.6px;stroke-linecap:butt;stroke-linejoin:miter;stroke-opacity:1"/>
<path class="bond-4 atom-3 atom-5" d="M 334.0,95.7 L 349.7,91.3" style="fill:none;fill-rule:evenodd;stroke:#000000;stroke-width:0.6px;stroke-linecap:butt;stroke-linejoin:miter;stroke-opacity:1"/>
<path class="bond-5 atom-5 atom-6" d="M 349.7,91.3 L 353.7,75.5" style="fill:none;fill-rule:evenodd;stroke:#000000;stroke-width:0.6px;stroke-linecap:butt;stroke-linejoin:miter;stroke-opacity:1"/>
<path class="bond-5 atom-5 atom-6" d="M 353.0,90.4 L 356.2,77.9" style="fill:none;fill-rule:evenodd;stroke:#000000;stroke-width:0.6px;stroke-linecap:butt;stroke-linejoin:miter;stroke-opacity:1"/>
<path class="bond-6 atom-6 atom-7" d="M 353.7,75.5 L 369.4,71.1" style="fill:none;fill-rule:evenodd;stroke:#000000;stroke-width:0.6px;stroke-linecap:butt;stroke-linejoin:miter;stroke-opacity:1"/>
<path class="bond-7 atom-7 atom-8" d="M 369.4,71.1 L 381.1,82.5" style="fill:none;fill-rule:evenodd;stroke:#000000;stroke-width:0.6px;stroke-linecap:butt;stroke-linejoin:miter;stroke-opacity:1"/>
<path class="bond-7 atom-7 atom-8" d="M 368.6,74.3 L 377.9,83.4" style="fill:none;fill-rule:evenodd;stroke:#000000;stroke-width:0.6px;stroke-linecap:butt;stroke-linejoin:miter;stroke-opacity:1"/>
<path class="bond-8 atom-8 atom-9" d="M 381.1,82.5 L 377.1,98.3" style="fill:none;fill-rule:evenodd;stroke:#000000;stroke-width:0.6px;stroke-linecap:butt;stroke-linejoin:miter;stroke-opacity:1"/>
<path class="bond-9 atom-9 atom-10" d="M 377.1,98.3 L 388.8,109.7" style="fill:none;fill-rule:evenodd;stroke:#000000;stroke-width:0.6px;stroke-linecap:butt;stroke-linejoin:miter;stroke-opacity:1"/>
<path class="bond-10 atom-10 atom-11" d="M 388.8,109.7 L 397.0,117.7" style="fill:none;fill-rule:evenodd;stroke:#000000;stroke-width:0.6px;stroke-linecap:butt;stroke-linejoin:miter;stroke-opacity:1"/>
<path class="bond-11 atom-10 atom-12" d="M 388.8,109.7 L 380.9,117.8" style="fill:none;fill-rule:evenodd;stroke:#000000;stroke-width:0.6px;stroke-linecap:butt;stroke-linejoin:miter;stroke-opacity:1"/>
<path class="bond-12 atom-10 atom-13" d="M 388.8,109.7 L 396.7,101.5" style="fill:none;fill-rule:evenodd;stroke:#000000;stroke-width:0.6px;stroke-linecap:butt;stroke-linejoin:miter;stroke-opacity:1"/>
<path class="bond-13 atom-9 atom-14" d="M 377.1,98.3 L 361.4,102.7" style="fill:none;fill-rule:evenodd;stroke:#000000;stroke-width:0.6px;stroke-linecap:butt;stroke-linejoin:miter;stroke-opacity:1"/>
<path class="bond-13 atom-9 atom-14" d="M 374.7,95.9 L 362.2,99.4" style="fill:none;fill-rule:evenodd;stroke:#000000;stroke-width:0.6px;stroke-linecap:butt;stroke-linejoin:miter;stroke-opacity:1"/>
<path class="bond-14 atom-14 atom-15" d="M 361.4,102.7 L 358.6,113.8" style="fill:none;fill-rule:evenodd;stroke:#000000;stroke-width:0.6px;stroke-linecap:butt;stroke-linejoin:miter;stroke-opacity:1"/>
<path class="bond-15 atom-1 atom-16" d="M 306.6,88.8 L 302.6,104.6" style="fill:none;fill-rule:evenodd;stroke:#000000;stroke-width:0.6px;stroke-linecap:butt;stroke-linejoin:miter;stroke-opacity:1"/>
<path class="bond-16 atom-16 atom-17" d="M 300.9,105.0 L 309.1,113.0" style="fill:none;fill-rule:evenodd;stroke:#000000;stroke-width:0.6px;stroke-linecap:butt;stroke-linejoin:miter;stroke-opacity:1"/>
<path class="bond-16 atom-16 atom-17" d="M 303.0,102.9 L 311.2,110.9" style="fill:none;fill-rule:evenodd;stroke:#000000;stroke-width:0.6px;stroke-linecap:butt;stroke-linejoin:miter;stroke-opacity:1"/>
<path class="bond-17 atom-16 atom-18" d="M 302.6,104.6 L 286.9,109.0" style="fill:none;fill-rule:evenodd;stroke:#000000;stroke-width:0.6px;stroke-linecap:butt;stroke-linejoin:miter;stroke-opacity:1"/>
<path class="bond-18 atom-18 atom-19" d="M 286.9,109.0 L 284.1,120.0" style="fill:none;fill-rule:evenodd;stroke:#000000;stroke-width:0.6px;stroke-linecap:butt;stroke-linejoin:miter;stroke-opacity:1"/>
<path class="bond-19 atom-18 atom-20" d="M 288.5,108.6 L 280.3,100.6" style="fill:none;fill-rule:evenodd;stroke:#000000;stroke-width:0.6px;stroke-linecap:butt;stroke-linejoin:miter;stroke-opacity:1"/>
<path class="bond-19 atom-18 atom-20" d="M 286.4,110.7 L 278.3,102.7" style="fill:none;fill-rule:evenodd;stroke:#000000;stroke-width:0.6px;stroke-linecap:butt;stroke-linejoin:miter;stroke-opacity:1"/>
<path class="bond-20 atom-14 atom-5" d="M 361.4,102.7 L 349.7,91.3" style="fill:none;fill-rule:evenodd;stroke:#000000;stroke-width:0.6px;stroke-linecap:butt;stroke-linejoin:miter;stroke-opacity:1"/>
<path d="M 333.6,95.4 L 334.0,95.7 L 334.8,95.5" style="fill:none;stroke:#000000;stroke-width:0.6px;stroke-linecap:butt;stroke-linejoin:miter;stroke-opacity:1;"/>
<path d="M 353.5,76.3 L 353.7,75.5 L 354.5,75.3" style="fill:none;stroke:#000000;stroke-width:0.6px;stroke-linecap:butt;stroke-linejoin:miter;stroke-opacity:1;"/>
<path d="M 368.7,71.3 L 369.4,71.1 L 370.0,71.6" style="fill:none;stroke:#000000;stroke-width:0.6px;stroke-linecap:butt;stroke-linejoin:miter;stroke-opacity:1;"/>
<path d="M 380.6,81.9 L 381.1,82.5 L 380.9,83.2" style="fill:none;stroke:#000000;stroke-width:0.6px;stroke-linecap:butt;stroke-linejoin:miter;stroke-opacity:1;"/>
<path d="M 302.8,103.8 L 302.6,104.6 L 301.8,104.8" style="fill:none;stroke:#000000;stroke-width:0.6px;stroke-linecap:butt;stroke-linejoin:miter;stroke-opacity:1;"/>
<path d="M 287.6,108.8 L 286.9,109.0 L 286.7,109.6" style="fill:none;stroke:#000000;stroke-width:0.6px;stroke-linecap:butt;stroke-linejoin:miter;stroke-opacity:1;"/>
<path class="atom-2" d="M 325.0 87.9 L 324.1 87.9 L 320.5 82.4 L 320.5 87.9 L 319.6 87.9 L 319.6 80.8 L 320.5 80.8 L 324.1 86.3 L 324.1 80.8 L 325.0 80.8 L 325.0 87.9 " fill="#000000"/>
<path class="atom-2" d="M 325.0 80.1 L 324.1 80.1 L 324.1 76.8 L 320.5 76.8 L 320.5 80.1 L 319.6 80.1 L 319.6 73.0 L 320.5 73.0 L 320.5 76.0 L 324.1 76.0 L 324.1 73.0 L 325.0 73.0 L 325.0 80.1 " fill="#000000"/>
<path class="atom-4" d="M 332.8 111.8 Q 332.8 112.9, 332.5 113.7 Q 332.1 114.4, 331.5 114.8 Q 330.8 115.3, 330.0 115.3 Q 329.1 115.3, 328.5 114.8 Q 327.8 114.4, 327.5 113.7 Q 327.1 112.9, 327.1 111.9 L 327.1 111.4 Q 327.1 110.4, 327.5 109.6 Q 327.8 108.8, 328.5 108.4 Q 329.1 108.0, 330.0 108.0 Q 330.8 108.0, 331.5 108.4 Q 332.1 108.8, 332.5 109.6 Q 332.8 110.3, 332.8 111.4 L 332.8 111.8 M 331.9 111.4 Q 331.9 110.1, 331.4 109.4 Q 330.9 108.8, 330.0 108.8 Q 329.1 108.8, 328.6 109.4 Q 328.1 110.1, 328.0 111.3 L 328.0 111.8 Q 328.0 113.1, 328.6 113.8 Q 329.1 114.5, 330.0 114.5 Q 330.9 114.5, 331.4 113.8 Q 331.9 113.1, 331.9 111.9 L 331.9 111.4 " fill="#000000"/>
<path class="atom-11" d="M 402.2 121.5 L 399.2 121.5 L 399.2 124.6 L 398.3 124.6 L 398.3 117.5 L 402.7 117.5 L 402.7 118.3 L 399.2 118.3 L 399.2 120.7 L 402.2 120.7 L 402.2 121.5 " fill="#000000"/>
<path class="atom-12" d="M 379.1 121.8 L 376.1 121.8 L 376.1 124.9 L 375.2 124.9 L 375.2 117.8 L 379.6 117.8 L 379.6 118.6 L 376.1 118.6 L 376.1 121.0 L 379.1 121.0 L 379.1 121.8 " fill="#000000"/>
<path class="atom-13" d="M 401.9 98.4 L 398.9 98.4 L 398.9 101.5 L 398.0 101.5 L 398.0 94.4 L 402.4 94.4 L 402.4 95.2 L 398.9 95.2 L 398.9 97.6 L 401.9 97.6 L 401.9 98.4 " fill="#000000"/>
<path class="atom-15" d="M 360.1 120.0 Q 360.0 121.1, 359.3 121.8 Q 358.6 122.4, 357.4 122.4 Q 356.2 122.4, 355.4 121.5 Q 354.6 120.6, 354.6 119.1 L 354.6 118.4 Q 354.6 117.4, 355.0 116.6 Q 355.3 115.9, 356.0 115.5 Q 356.6 115.1, 357.5 115.1 Q 358.6 115.1, 359.3 115.7 Q 360.0 116.3, 360.1 117.4 L 359.2 117.4 Q 359.0 116.6, 358.6 116.2 Q 358.2 115.8, 357.5 115.8 Q 356.6 115.8, 356.1 116.5 Q 355.6 117.2, 355.6 118.4 L 355.6 119.1 Q 355.6 120.2, 356.1 120.9 Q 356.5 121.6, 357.4 121.6 Q 358.2 121.6, 358.6 121.3 Q 359.0 120.9, 359.2 120.0 L 360.1 120.0 " fill="#000000"/>
<path class="atom-15" d="M 361.8 122.3 L 360.9 122.3 L 360.9 114.8 L 361.8 114.8 L 361.8 122.3 " fill="#000000"/>
<path class="atom-17" d="M 317.1 116.3 Q 317.1 117.3, 316.8 118.1 Q 316.4 118.9, 315.8 119.3 Q 315.1 119.7, 314.3 119.7 Q 313.4 119.7, 312.8 119.3 Q 312.1 118.9, 311.8 118.1 Q 311.4 117.3, 311.4 116.3 L 311.4 115.8 Q 311.4 114.8, 311.8 114.0 Q 312.1 113.2, 312.8 112.8 Q 313.4 112.4, 314.3 112.4 Q 315.1 112.4, 315.8 112.8 Q 316.4 113.2, 316.8 114.0 Q 317.1 114.8, 317.1 115.8 L 317.1 116.3 M 316.2 115.8 Q 316.2 114.5, 315.7 113.9 Q 315.2 113.2, 314.3 113.2 Q 313.4 113.2, 312.9 113.9 Q 312.3 114.5, 312.3 115.7 L 312.3 116.3 Q 312.3 117.5, 312.8 118.2 Q 313.4 118.9, 314.3 118.9 Q 315.2 118.9, 315.7 118.2 Q 316.2 117.6, 316.2 116.3 L 316.2 115.8 " fill="#000000"/>
<path class="atom-19" d="M 285.6 128.4 L 284.6 128.4 L 281.0 122.9 L 281.0 128.4 L 280.1 128.4 L 280.1 121.3 L 281.0 121.3 L 284.6 126.8 L 284.6 121.3 L 285.6 121.3 L 285.6 128.4 " fill="#000000"/>
<path class="atom-19" d="M 292.4 128.4 L 291.4 128.4 L 291.4 125.1 L 287.9 125.1 L 287.9 128.4 L 286.9 128.4 L 286.9 121.3 L 287.9 121.3 L 287.9 124.3 L 291.4 124.3 L 291.4 121.3 L 292.4 121.3 L 292.4 128.4 " fill="#000000"/>
<path class="atom-19" d="M 296.9 131.9 L 293.8 131.9 L 293.8 131.5 L 295.5 129.7 Q 295.8 129.3, 296.0 129.0 Q 296.1 128.8, 296.1 128.5 Q 296.1 128.1, 295.9 127.9 Q 295.7 127.7, 295.3 127.7 Q 294.8 127.7, 294.6 127.9 Q 294.3 128.2, 294.3 128.6 L 293.8 128.6 Q 293.8 128.0, 294.2 127.6 Q 294.6 127.2, 295.3 127.2 Q 295.9 127.2, 296.3 127.5 Q 296.7 127.9, 296.7 128.4 Q 296.7 129.1, 295.8 130.1 L 294.6 131.5 L 296.9 131.5 L 296.9 131.9 " fill="#000000"/>
<path class="atom-20" d="M 278.0 97.9 Q 278.0 98.9, 277.7 99.7 Q 277.3 100.5, 276.7 100.9 Q 276.0 101.3, 275.2 101.3 Q 274.3 101.3, 273.7 100.9 Q 273.0 100.5, 272.7 99.7 Q 272.3 99.0, 272.3 98.0 L 272.3 97.4 Q 272.3 96.4, 272.7 95.6 Q 273.0 94.8, 273.7 94.4 Q 274.3 94.0, 275.2 94.0 Q 276.0 94.0, 276.7 94.4 Q 277.3 94.8, 277.7 95.6 Q 278.0 96.4, 278.0 97.4 L 278.0 97.9 M 277.1 97.4 Q 277.1 96.2, 276.6 95.5 Q 276.1 94.8, 275.2 94.8 Q 274.3 94.8, 273.8 95.5 Q 273.2 96.2, 273.2 97.4 L 273.2 97.9 Q 273.2 99.1, 273.7 99.8 Q 274.3 100.5, 275.2 100.5 Q 276.1 100.5, 276.6 99.9 Q 277.1 99.2, 277.1 98.0 L 277.1 97.4 " fill="#000000"/>
<path class="legend" d="M 334.8 208.7 L 330.1 219.2 L 328.6 219.2 L 333.3 209.0 L 327.1 209.0 L 327.1 207.8 L 334.8 207.8 L 334.8 208.7 " fill="#000000"/>
<path class="legend" d="M 336.1 218.5 Q 336.1 218.1, 336.3 217.8 Q 336.5 217.6, 336.9 217.6 Q 337.4 217.6, 337.6 217.8 Q 337.9 218.1, 337.9 218.5 Q 337.9 218.8, 337.6 219.1 Q 337.4 219.3, 336.9 219.3 Q 336.5 219.3, 336.3 219.1 Q 336.1 218.8, 336.1 218.5 " fill="#000000"/>
<path class="legend" d="M 346.9 214.4 Q 346.9 216.9, 346.0 218.1 Q 345.1 219.4, 343.3 219.4 Q 341.5 219.4, 340.6 218.2 Q 339.7 217.0, 339.7 214.6 L 339.7 212.6 Q 339.7 210.1, 340.6 208.9 Q 341.4 207.7, 343.3 207.7 Q 345.1 207.7, 346.0 208.9 Q 346.9 210.0, 346.9 212.5 L 346.9 214.4 M 345.4 212.4 Q 345.4 210.6, 344.9 209.7 Q 344.4 208.9, 343.3 208.9 Q 342.2 208.9, 341.7 209.7 Q 341.2 210.5, 341.1 212.3 L 341.1 214.6 Q 341.1 216.4, 341.7 217.3 Q 342.2 218.2, 343.3 218.2 Q 344.4 218.2, 344.9 217.4 Q 345.4 216.5, 345.4 214.8 L 345.4 212.4 " fill="#000000"/>
<path class="bond-0 atom-0 atom-1" d="M 515.4,56.1 L 517.5,72.3" style="fill:none;fill-rule:evenodd;stroke:#000000;stroke-width:0.6px;stroke-linecap:butt;stroke-linejoin:miter;stroke-opacity:1"/>
<path class="bond-1 atom-1 atom-2" d="M 517.5,72.3 L 504.5,82.2" style="fill:none;fill-rule:evenodd;stroke:#000000;stroke-width:0.6px;stroke-linecap:butt;stroke-linejoin:miter;stroke-opacity:1"/>
<path class="bond-2 atom-1 atom-3" d="M 517.5,72.3 L 532.5,78.6" style="fill:none;fill-rule:evenodd;stroke:#000000;stroke-width:0.6px;stroke-linecap:butt;stroke-linejoin:miter;stroke-opacity:1"/>
<path class="bond-3 atom-3 atom-4" d="M 532.5,78.6 L 534.7,94.8" style="fill:none;fill-rule:evenodd;stroke:#000000;stroke-width:0.6px;stroke-linecap:butt;stroke-linejoin:miter;stroke-opacity:1"/>
<path class="bond-4 atom-4 atom-5" d="M 534.7,94.8 L 545.7,99.4" style="fill:none;fill-rule:evenodd;stroke:#000000;stroke-width:0.6px;stroke-linecap:butt;stroke-linejoin:miter;stroke-opacity:1"/>
<path class="bond-5 atom-5 atom-6" d="M 550.4,105.8 L 551.8,117.2" style="fill:none;fill-rule:evenodd;stroke:#000000;stroke-width:0.6px;stroke-linecap:butt;stroke-linejoin:miter;stroke-opacity:1"/>
<path class="bond-6 atom-6 atom-7" d="M 551.8,117.2 L 540.0,128.4" style="fill:none;fill-rule:evenodd;stroke:#000000;stroke-width:0.6px;stroke-linecap:butt;stroke-linejoin:miter;stroke-opacity:1"/>
<path class="bond-6 atom-6 atom-7" d="M 552.3,120.8 L 543.6,129.1" style="fill:none;fill-rule:evenodd;stroke:#000000;stroke-width:0.6px;stroke-linecap:butt;stroke-linejoin:miter;stroke-opacity:1"/>
<path class="bond-7 atom-7 atom-8" d="M 540.0,128.4 L 544.7,138.3" style="fill:none;fill-rule:evenodd;stroke:#000000;stroke-width:0.6px;stroke-linecap:butt;stroke-linejoin:miter;stroke-opacity:1"/>
<path class="bond-8 atom-8 atom-9" d="M 550.8,142.7 L 563.2,141.1" style="fill:none;fill-rule:evenodd;stroke:#000000;stroke-width:0.6px;stroke-linecap:butt;stroke-linejoin:miter;stroke-opacity:1"/>
<path class="bond-9 atom-9 atom-10" d="M 563.2,141.1 L 566.2,125.0" style="fill:none;fill-rule:evenodd;stroke:#000000;stroke-width:0.6px;stroke-linecap:butt;stroke-linejoin:miter;stroke-opacity:1"/>
<path class="bond-9 atom-9 atom-10" d="M 560.7,138.4 L 562.9,126.6" style="fill:none;fill-rule:evenodd;stroke:#000000;stroke-width:0.6px;stroke-linecap:butt;stroke-linejoin:miter;stroke-opacity:1"/>
<path class="bond-10 atom-10 atom-11" d="M 566.2,125.0 L 580.9,118.0" style="fill:none;fill-rule:evenodd;stroke:#000000;stroke-width:0.6px;stroke-linecap:butt;stroke-linejoin:miter;stroke-opacity:1"/>
<path class="bond-11 atom-11 atom-12" d="M 580.9,118.0 L 594.4,127.3" style="fill:none;fill-rule:evenodd;stroke:#000000;stroke-width:0.6px;stroke-linecap:butt;stroke-linejoin:miter;stroke-opacity:1"/>
<path class="bond-11 atom-11 atom-12" d="M 584.0,116.5 L 594.6,123.9" style="fill:none;fill-rule:evenodd;stroke:#000000;stroke-width:0.6px;stroke-linecap:butt;stroke-linejoin:miter;stroke-opacity:1"/>
<path class="bond-12 atom-12 atom-13" d="M 594.4,127.3 L 609.1,120.3" style="fill:none;fill-rule:evenodd;stroke:#000000;stroke-width:0.6px;stroke-linecap:butt;stroke-linejoin:miter;stroke-opacity:1"/>
<path class="bond-13 atom-13 atom-14" d="M 609.1,120.3 L 610.4,104.0" style="fill:none;fill-rule:evenodd;stroke:#000000;stroke-width:0.6px;stroke-linecap:butt;stroke-linejoin:miter;stroke-opacity:1"/>
<path class="bond-13 atom-13 atom-14" d="M 606.3,118.3 L 607.4,105.4" style="fill:none;fill-rule:evenodd;stroke:#000000;stroke-width:0.6px;stroke-linecap:butt;stroke-linejoin:miter;stroke-opacity:1"/>
<path class="bond-14 atom-14 atom-15" d="M 610.4,104.0 L 621.2,98.9" style="fill:none;fill-rule:evenodd;stroke:#000000;stroke-width:0.6px;stroke-linecap:butt;stroke-linejoin:miter;stroke-opacity:1"/>
<path class="bond-15 atom-15 atom-16" d="M 629.1,99.7 L 638.6,106.2" style="fill:none;fill-rule:evenodd;stroke:#000000;stroke-width:0.6px;stroke-linecap:butt;stroke-linejoin:miter;stroke-opacity:1"/>
<path class="bond-16 atom-16 atom-17" d="M 638.6,106.2 L 653.3,99.2" style="fill:none;fill-rule:evenodd;stroke:#000000;stroke-width:0.6px;stroke-linecap:butt;stroke-linejoin:miter;stroke-opacity:1"/>
<path class="bond-17 atom-17 atom-18" d="M 653.3,99.2 L 654.3,87.8" style="fill:none;fill-rule:evenodd;stroke:#000000;stroke-width:0.6px;stroke-linecap:butt;stroke-linejoin:miter;stroke-opacity:1"/>
<path class="bond-18 atom-18 atom-19" d="M 650.7,80.2 L 641.2,73.7" style="fill:none;fill-rule:evenodd;stroke:#000000;stroke-width:0.6px;stroke-linecap:butt;stroke-linejoin:miter;stroke-opacity:1"/>
<path class="bond-19 atom-19 atom-20" d="M 641.2,73.7 L 626.5,80.7" style="fill:none;fill-rule:evenodd;stroke:#000000;stroke-width:0.6px;stroke-linecap:butt;stroke-linejoin:miter;stroke-opacity:1"/>
<path class="bond-20 atom-14 atom-21" d="M 610.4,104.0 L 597.0,94.7" style="fill:none;fill-rule:evenodd;stroke:#000000;stroke-width:0.6px;stroke-linecap:butt;stroke-linejoin:miter;stroke-opacity:1"/>
<path class="bond-21 atom-21 atom-22" d="M 597.0,94.7 L 582.2,101.7" style="fill:none;fill-rule:evenodd;stroke:#000000;stroke-width:0.6px;stroke-linecap:butt;stroke-linejoin:miter;stroke-opacity:1"/>
<path class="bond-21 atom-21 atom-22" d="M 596.7,98.1 L 585.0,103.7" style="fill:none;fill-rule:evenodd;stroke:#000000;stroke-width:0.6px;stroke-linecap:butt;stroke-linejoin:miter;stroke-opacity:1"/>
<path class="bond-22 atom-4 atom-23" d="M 534.7,94.8 L 521.7,104.7" style="fill:none;fill-rule:evenodd;stroke:#000000;stroke-width:0.6px;stroke-linecap:butt;stroke-linejoin:miter;stroke-opacity:1"/>
<path class="bond-23 atom-23 atom-24" d="M 520.1,104.0 L 521.7,116.2" style="fill:none;fill-rule:evenodd;stroke:#000000;stroke-width:0.6px;stroke-linecap:butt;stroke-linejoin:miter;stroke-opacity:1"/>
<path class="bond-23 atom-23 atom-24" d="M 523.0,103.7 L 524.6,115.8" style="fill:none;fill-rule:evenodd;stroke:#000000;stroke-width:0.6px;stroke-linecap:butt;stroke-linejoin:miter;stroke-opacity:1"/>
<path class="bond-24 atom-23 atom-25" d="M 521.7,104.7 L 510.6,100.1" style="fill:none;fill-rule:evenodd;stroke:#000000;stroke-width:0.6px;stroke-linecap:butt;stroke-linejoin:miter;stroke-opacity:1"/>
<path class="bond-25 atom-25 atom-26" d="M 502.6,101.5 L 493.7,108.3" style="fill:none;fill-rule:evenodd;stroke:#000000;stroke-width:0.6px;stroke-linecap:butt;stroke-linejoin:miter;stroke-opacity:1"/>
<path class="bond-26 atom-26 atom-27" d="M 493.7,108.3 L 478.6,102.1" style="fill:none;fill-rule:evenodd;stroke:#000000;stroke-width:0.6px;stroke-linecap:butt;stroke-linejoin:miter;stroke-opacity:1"/>
<path class="bond-27 atom-27 atom-28" d="M 478.6,102.1 L 467.5,97.5" style="fill:none;fill-rule:evenodd;stroke:#000000;stroke-width:0.6px;stroke-linecap:butt;stroke-linejoin:miter;stroke-opacity:1"/>
<path class="bond-27 atom-27 atom-28" d="M 477.5,104.8 L 466.4,100.2" style="fill:none;fill-rule:evenodd;stroke:#000000;stroke-width:0.6px;stroke-linecap:butt;stroke-linejoin:miter;stroke-opacity:1"/>
<path class="bond-27 atom-27 atom-28" d="M 479.7,99.4 L 468.6,94.8" style="fill:none;fill-rule:evenodd;stroke:#000000;stroke-width:0.6px;stroke-linecap:butt;stroke-linejoin:miter;stroke-opacity:1"/>
<path class="bond-28 atom-10 atom-6" d="M 566.2,125.0 L 551.8,117.2" style="fill:none;fill-rule:evenodd;stroke:#000000;stroke-width:0.6px;stroke-linecap:butt;stroke-linejoin:miter;stroke-opacity:1"/>
<path class="bond-29 atom-22 atom-11" d="M 582.2,101.7 L 580.9,118.0" style="fill:none;fill-rule:evenodd;stroke:#000000;stroke-width:0.6px;stroke-linecap:butt;stroke-linejoin:miter;stroke-opacity:1"/>
<path class="bond-30 atom-20 atom-15" d="M 626.5,80.7 L 625.5,92.2" style="fill:none;fill-rule:evenodd;stroke:#000000;stroke-width:0.6px;stroke-linecap:butt;stroke-linejoin:miter;stroke-opacity:1"/>
<path d="M 531.8,78.3 L 532.5,78.6 L 532.7,79.4" style="fill:none;stroke:#000000;stroke-width:0.6px;stroke-linecap:butt;stroke-linejoin:miter;stroke-opacity:1;"/>
<path d="M 540.6,127.9 L 540.0,128.4 L 540.2,128.9" style="fill:none;stroke:#000000;stroke-width:0.6px;stroke-linecap:butt;stroke-linejoin:miter;stroke-opacity:1;"/>
<path d="M 562.6,141.1 L 563.2,141.1 L 563.3,140.3" style="fill:none;stroke:#000000;stroke-width:0.6px;stroke-linecap:butt;stroke-linejoin:miter;stroke-opacity:1;"/>
<path d="M 593.7,126.8 L 594.4,127.3 L 595.1,126.9" style="fill:none;stroke:#000000;stroke-width:0.6px;stroke-linecap:butt;stroke-linejoin:miter;stroke-opacity:1;"/>
<path d="M 608.4,120.6 L 609.1,120.3 L 609.2,119.4" style="fill:none;stroke:#000000;stroke-width:0.6px;stroke-linecap:butt;stroke-linejoin:miter;stroke-opacity:1;"/>
<path d="M 638.1,105.9 L 638.6,106.2 L 639.3,105.9" style="fill:none;stroke:#000000;stroke-width:0.6px;stroke-linecap:butt;stroke-linejoin:miter;stroke-opacity:1;"/>
<path d="M 652.6,99.6 L 653.3,99.2 L 653.4,98.6" style="fill:none;stroke:#000000;stroke-width:0.6px;stroke-linecap:butt;stroke-linejoin:miter;stroke-opacity:1;"/>
<path d="M 641.7,74.0 L 641.2,73.7 L 640.5,74.0" style="fill:none;stroke:#000000;stroke-width:0.6px;stroke-linecap:butt;stroke-linejoin:miter;stroke-opacity:1;"/>
<path d="M 627.2,80.3 L 626.5,80.7 L 626.4,81.3" style="fill:none;stroke:#000000;stroke-width:0.6px;stroke-linecap:butt;stroke-linejoin:miter;stroke-opacity:1;"/>
<path d="M 597.6,95.2 L 597.0,94.7 L 596.2,95.1" style="fill:none;stroke:#000000;stroke-width:0.6px;stroke-linecap:butt;stroke-linejoin:miter;stroke-opacity:1;"/>
<path d="M 583.0,101.4 L 582.2,101.7 L 582.2,102.5" style="fill:none;stroke:#000000;stroke-width:0.6px;stroke-linecap:butt;stroke-linejoin:miter;stroke-opacity:1;"/>
<path d="M 522.3,104.2 L 521.7,104.7 L 521.1,104.5" style="fill:none;stroke:#000000;stroke-width:0.6px;stroke-linecap:butt;stroke-linejoin:miter;stroke-opacity:1;"/>
<path d="M 494.1,108.0 L 493.7,108.3 L 492.9,108.0" style="fill:none;stroke:#000000;stroke-width:0.6px;stroke-linecap:butt;stroke-linejoin:miter;stroke-opacity:1;"/>
<path d="M 479.3,102.4 L 478.6,102.1 L 478.0,101.8" style="fill:none;stroke:#000000;stroke-width:0.6px;stroke-linecap:butt;stroke-linejoin:miter;stroke-opacity:1;"/>
<path class="atom-5" d="M 552.5 104.6 L 551.5 104.6 L 547.9 99.1 L 547.9 104.6 L 547.0 104.6 L 547.0 97.5 L 547.9 97.5 L 551.5 103.0 L 551.5 97.5 L 552.5 97.5 L 552.5 104.6 " fill="#000000"/>
<path class="atom-5" d="M 559.3 104.6 L 558.4 104.6 L 558.4 101.3 L 554.8 101.3 L 554.8 104.6 L 553.9 104.6 L 553.9 97.5 L 554.8 97.5 L 554.8 100.5 L 558.4 100.5 L 558.4 97.5 L 559.3 97.5 L 559.3 104.6 " fill="#000000"/>
<path class="atom-8" d="M 547.0 143.6 Q 545.7 143.3, 545.2 142.8 Q 544.6 142.3, 544.6 141.5 Q 544.6 140.7, 545.3 140.1 Q 546.0 139.6, 547.1 139.6 Q 547.8 139.6, 548.4 139.9 Q 548.9 140.1, 549.3 140.6 Q 549.6 141.1, 549.6 141.7 L 548.6 141.7 Q 548.6 141.1, 548.2 140.7 Q 547.8 140.3, 547.1 140.3 Q 546.4 140.3, 546.0 140.7 Q 545.6 141.0, 545.6 141.5 Q 545.6 141.9, 546.0 142.2 Q 546.3 142.5, 547.2 142.8 Q 548.1 143.0, 548.6 143.3 Q 549.1 143.6, 549.3 144.0 Q 549.6 144.4, 549.6 145.0 Q 549.6 145.8, 548.9 146.4 Q 548.2 146.9, 547.1 146.9 Q 546.4 146.9, 545.7 146.6 Q 545.1 146.3, 544.8 145.8 Q 544.4 145.3, 544.4 144.7 L 545.4 144.7 Q 545.4 145.4, 545.8 145.7 Q 546.3 146.1, 547.1 146.1 Q 547.9 146.1, 548.2 145.8 Q 548.6 145.5, 548.6 145.0 Q 548.6 144.5, 548.3 144.2 Q 547.9 143.9, 547.0 143.6 " fill="#000000"/>
<path class="atom-15" d="M 627.9 100.5 L 626.9 100.5 L 623.4 95.0 L 623.4 100.5 L 622.4 100.5 L 622.4 93.4 L 623.4 93.4 L 627.0 98.9 L 627.0 93.4 L 627.9 93.4 L 627.9 100.5 " fill="#000000"/>
<path class="atom-18" d="M 657.4 86.5 L 656.4 86.5 L 652.9 81.0 L 652.9 86.5 L 651.9 86.5 L 651.9 79.4 L 652.9 79.4 L 656.4 84.9 L 656.4 79.4 L 657.4 79.4 L 657.4 86.5 " fill="#000000"/>
<path class="atom-18" d="M 664.2 86.5 L 663.3 86.5 L 663.3 83.2 L 659.7 83.2 L 659.7 86.5 L 658.8 86.5 L 658.8 79.4 L 659.7 79.4 L 659.7 82.4 L 663.3 82.4 L 663.3 79.4 L 664.2 79.4 L 664.2 86.5 " fill="#000000"/>
<path class="atom-24" d="M 526.7 121.2 Q 526.7 122.2, 526.3 123.0 Q 526.0 123.8, 525.3 124.2 Q 524.7 124.6, 523.8 124.6 Q 523.0 124.6, 522.3 124.2 Q 521.7 123.7, 521.3 123.0 Q 521.0 122.2, 520.9 121.2 L 520.9 120.7 Q 520.9 119.7, 521.3 118.9 Q 521.7 118.1, 522.3 117.7 Q 523.0 117.3, 523.8 117.3 Q 524.7 117.3, 525.3 117.7 Q 526.0 118.1, 526.3 118.9 Q 526.7 119.7, 526.7 120.7 L 526.7 121.2 M 525.7 120.7 Q 525.7 119.4, 525.2 118.8 Q 524.7 118.1, 523.8 118.1 Q 522.9 118.1, 522.4 118.8 Q 521.9 119.4, 521.9 120.6 L 521.9 121.2 Q 521.9 122.4, 522.4 123.1 Q 522.9 123.8, 523.8 123.8 Q 524.7 123.8, 525.2 123.1 Q 525.7 122.5, 525.7 121.2 L 525.7 120.7 " fill="#000000"/>
<path class="atom-25" d="M 509.4 102.0 L 508.4 102.0 L 504.8 96.5 L 504.8 102.0 L 503.9 102.0 L 503.9 94.9 L 504.8 94.9 L 508.4 100.4 L 508.4 94.9 L 509.4 94.9 L 509.4 102.0 " fill="#000000"/>
<path class="atom-25" d="M 509.4 94.2 L 508.4 94.2 L 508.4 90.9 L 504.8 90.9 L 504.8 94.2 L 503.9 94.2 L 503.9 87.0 L 504.8 87.0 L 504.8 90.1 L 508.4 90.1 L 508.4 87.0 L 509.4 87.0 L 509.4 94.2 " fill="#000000"/>
<path class="atom-28" d="M 466.2 99.4 L 465.3 99.4 L 461.7 93.9 L 461.7 99.4 L 460.8 99.4 L 460.8 92.3 L 461.7 92.3 L 465.3 97.8 L 465.3 92.3 L 466.2 92.3 L 466.2 99.4 " fill="#000000"/>
<path class="legend" d="M 557.7 214.3 Q 557.2 214.8, 556.6 215.2 Q 555.9 215.5, 555.2 215.5 Q 554.2 215.5, 553.5 215.0 Q 552.8 214.5, 552.4 213.6 Q 552.0 212.8, 552.0 211.7 Q 552.0 210.6, 552.4 209.6 Q 552.8 208.7, 553.6 208.2 Q 554.4 207.8, 555.5 207.8 Q 557.2 207.8, 558.1 209.0 Q 559.1 210.3, 559.1 212.5 L 559.1 212.9 Q 559.1 216.2, 557.8 217.7 Q 556.5 219.3, 553.8 219.3 L 553.6 219.3 L 553.6 218.1 L 553.9 218.1 Q 555.7 218.0, 556.6 217.1 Q 557.6 216.2, 557.7 214.3 M 555.4 214.3 Q 556.2 214.3, 556.8 213.8 Q 557.4 213.4, 557.7 212.7 L 557.7 212.2 Q 557.7 210.7, 557.1 209.9 Q 556.4 209.0, 555.5 209.0 Q 554.5 209.0, 554.0 209.7 Q 553.4 210.4, 553.4 211.6 Q 553.4 212.8, 553.9 213.5 Q 554.5 214.3, 555.4 214.3 " fill="#000000"/>
<path class="legend" d="M 560.7 218.5 Q 560.7 218.2, 560.9 217.9 Q 561.2 217.7, 561.6 217.7 Q 562.1 217.7, 562.3 217.9 Q 562.5 218.2, 562.5 218.5 Q 562.5 218.9, 562.3 219.1 Q 562.1 219.4, 561.6 219.4 Q 561.2 219.4, 560.9 219.1 Q 560.7 218.9, 560.7 218.5 " fill="#000000"/>
<path class="legend" d="M 572.0 208.7 L 567.3 219.3 L 565.8 219.3 L 570.5 209.1 L 564.4 209.1 L 564.4 207.9 L 572.0 207.9 L 572.0 208.7 " fill="#000000"/>
</svg>