<svg xmlns="http://www.w3.org/2000/svg" xmlns:rdkit="http://www.rdkit.org/xml" xmlns:xlink="http://www.w3.org/1999/xlink" version="1.1" baseProfile="full" xml:space="preserve" width="675px" height="225px" viewBox="0 0 675 225">
<!-- END OF HEADER -->
<rect style="opacity:1.0;fill:#FFFFFF;stroke:none" width="675.0" height="225.0" x="0.0" y="0.0"> </rect>
<path class="bond-0 atom-0 atom-1" d="M 66.5,107.0 L 67.8,122.4" style="fill:none;fill-rule:evenodd;stroke:#000000;stroke-width:0.6px;stroke-linecap:butt;stroke-linejoin:miter;stroke-opacity:1"/>
<path class="bond-1 atom-1 atom-2" d="M 67.8,122.4 L 81.8,129.0" style="fill:none;fill-rule:evenodd;stroke:#000000;stroke-width:0.6px;stroke-linecap:butt;stroke-linejoin:miter;stroke-opacity:1"/>
<path class="bond-1 atom-1 atom-2" d="M 70.4,120.6 L 81.5,125.8" style="fill:none;fill-rule:evenodd;stroke:#000000;stroke-width:0.6px;stroke-linecap:butt;stroke-linejoin:miter;stroke-opacity:1"/>
<path class="bond-2 atom-2 atom-3" d="M 81.8,129.0 L 94.5,120.2" style="fill:none;fill-rule:evenodd;stroke:#000000;stroke-width:0.6px;stroke-linecap:butt;stroke-linejoin:miter;stroke-opacity:1"/>
<path class="bond-3 atom-3 atom-4" d="M 94.5,120.2 L 108.5,126.8" style="fill:none;fill-rule:evenodd;stroke:#000000;stroke-width:0.6px;stroke-linecap:butt;stroke-linejoin:miter;stroke-opacity:1"/>
<path class="bond-3 atom-3 atom-4" d="M 94.8,123.4 L 107.4,129.3" style="fill:none;fill-rule:evenodd;stroke:#000000;stroke-width:0.6px;stroke-linecap:butt;stroke-linejoin:miter;stroke-opacity:1"/>
<path class="bond-4 atom-4 atom-5" d="M 108.5,126.8 L 121.3,117.9" style="fill:none;fill-rule:evenodd;stroke:#000000;stroke-width:0.6px;stroke-linecap:butt;stroke-linejoin:miter;stroke-opacity:1"/>
<path class="bond-5 atom-5 atom-6" d="M 121.3,117.9 L 135.3,124.5" style="fill:none;fill-rule:evenodd;stroke:#000000;stroke-width:0.6px;stroke-linecap:butt;stroke-linejoin:miter;stroke-opacity:1"/>
<path class="bond-6 atom-6 atom-7" d="M 135.3,124.5 L 136.6,140.0" style="fill:none;fill-rule:evenodd;stroke:#000000;stroke-width:0.6px;stroke-linecap:butt;stroke-linejoin:miter;stroke-opacity:1"/>
<path class="bond-7 atom-6 atom-8" d="M 135.3,124.5 L 148.0,115.7" style="fill:none;fill-rule:evenodd;stroke:#000000;stroke-width:0.6px;stroke-linecap:butt;stroke-linejoin:miter;stroke-opacity:1"/>
<path class="bond-8 atom-8 atom-9" d="M 148.0,115.7 L 162.0,122.3" style="fill:none;fill-rule:evenodd;stroke:#000000;stroke-width:0.6px;stroke-linecap:butt;stroke-linejoin:miter;stroke-opacity:1"/>
<path class="bond-9 atom-9 atom-10" d="M 162.0,122.3 L 163.3,137.7" style="fill:none;fill-rule:evenodd;stroke:#000000;stroke-width:0.6px;stroke-linecap:butt;stroke-linejoin:miter;stroke-opacity:1"/>
<path class="bond-10 atom-10 atom-11" d="M 163.2,136.1 L 153.9,142.6" style="fill:none;fill-rule:evenodd;stroke:#000000;stroke-width:0.6px;stroke-linecap:butt;stroke-linejoin:miter;stroke-opacity:1"/>
<path class="bond-10 atom-10 atom-11" d="M 164.8,138.4 L 155.5,144.9" style="fill:none;fill-rule:evenodd;stroke:#000000;stroke-width:0.6px;stroke-linecap:butt;stroke-linejoin:miter;stroke-opacity:1"/>
<path class="bond-11 atom-10 atom-12" d="M 163.3,137.7 L 173.3,142.4" style="fill:none;fill-rule:evenodd;stroke:#000000;stroke-width:0.6px;stroke-linecap:butt;stroke-linejoin:miter;stroke-opacity:1"/>
<path class="bond-12 atom-8 atom-13" d="M 148.0,115.7 L 147.1,105.1" style="fill:none;fill-rule:evenodd;stroke:#000000;stroke-width:0.6px;stroke-linecap:butt;stroke-linejoin:miter;stroke-opacity:1"/>
<path class="bond-13 atom-13 atom-14" d="M 142.7,98.3 L 132.7,93.6" style="fill:none;fill-rule:evenodd;stroke:#000000;stroke-width:0.6px;stroke-linecap:butt;stroke-linejoin:miter;stroke-opacity:1"/>
<path class="bond-14 atom-14 atom-15" d="M 132.7,93.6 L 124.0,99.7" style="fill:none;fill-rule:evenodd;stroke:#000000;stroke-width:0.6px;stroke-linecap:butt;stroke-linejoin:miter;stroke-opacity:1"/>
<path class="bond-15 atom-15 atom-16" d="M 115.9,100.6 L 105.9,95.9" style="fill:none;fill-rule:evenodd;stroke:#000000;stroke-width:0.6px;stroke-linecap:butt;stroke-linejoin:miter;stroke-opacity:1"/>
<path class="bond-16 atom-16 atom-17" d="M 105.9,95.9 L 93.2,104.7" style="fill:none;fill-rule:evenodd;stroke:#000000;stroke-width:0.6px;stroke-linecap:butt;stroke-linejoin:miter;stroke-opacity:1"/>
<path class="bond-17 atom-17 atom-18" d="M 93.2,104.7 L 83.3,100.1" style="fill:none;fill-rule:evenodd;stroke:#000000;stroke-width:0.6px;stroke-linecap:butt;stroke-linejoin:miter;stroke-opacity:1"/>
<path class="bond-18 atom-16 atom-19" d="M 105.9,95.9 L 104.6,80.5" style="fill:none;fill-rule:evenodd;stroke:#000000;stroke-width:0.6px;stroke-linecap:butt;stroke-linejoin:miter;stroke-opacity:1"/>
<path class="bond-19 atom-19 atom-20" d="M 104.6,80.5 L 94.7,75.8" style="fill:none;fill-rule:evenodd;stroke:#000000;stroke-width:0.6px;stroke-linecap:butt;stroke-linejoin:miter;stroke-opacity:1"/>
<path class="bond-20 atom-19 atom-21" d="M 104.6,80.5 L 117.4,71.6" style="fill:none;fill-rule:evenodd;stroke:#000000;stroke-width:0.6px;stroke-linecap:butt;stroke-linejoin:miter;stroke-opacity:1"/>
<path class="bond-21 atom-21 atom-22" d="M 117.4,71.6 L 116.5,61.1" style="fill:none;fill-rule:evenodd;stroke:#000000;stroke-width:0.6px;stroke-linecap:butt;stroke-linejoin:miter;stroke-opacity:1"/>
<path class="bond-22 atom-21 atom-23" d="M 117.4,71.6 L 131.4,78.2" style="fill:none;fill-rule:evenodd;stroke:#000000;stroke-width:0.6px;stroke-linecap:butt;stroke-linejoin:miter;stroke-opacity:1"/>
<path class="bond-23 atom-23 atom-24" d="M 131.4,78.2 L 140.1,72.2" style="fill:none;fill-rule:evenodd;stroke:#000000;stroke-width:0.6px;stroke-linecap:butt;stroke-linejoin:miter;stroke-opacity:1"/>
<path class="bond-24 atom-1 atom-25" d="M 67.8,122.4 L 55.1,131.3" style="fill:none;fill-rule:evenodd;stroke:#000000;stroke-width:0.6px;stroke-linecap:butt;stroke-linejoin:miter;stroke-opacity:1"/>
<path class="bond-25 atom-25 atom-26" d="M 56.4,130.4 L 45.7,125.3" style="fill:none;fill-rule:evenodd;stroke:#000000;stroke-width:0.6px;stroke-linecap:butt;stroke-linejoin:miter;stroke-opacity:1"/>
<path class="bond-25 atom-25 atom-26" d="M 55.2,132.9 L 44.5,127.9" style="fill:none;fill-rule:evenodd;stroke:#000000;stroke-width:0.6px;stroke-linecap:butt;stroke-linejoin:miter;stroke-opacity:1"/>
<path class="bond-26 atom-25 atom-27" d="M 55.1,131.3 L 56.0,141.9" style="fill:none;fill-rule:evenodd;stroke:#000000;stroke-width:0.6px;stroke-linecap:butt;stroke-linejoin:miter;stroke-opacity:1"/>
<path class="bond-27 atom-23 atom-14" d="M 131.4,78.2 L 132.7,93.6" style="fill:none;fill-rule:evenodd;stroke:#000000;stroke-width:0.6px;stroke-linecap:butt;stroke-linejoin:miter;stroke-opacity:1"/>
<path d="M 81.1,128.7 L 81.8,129.0 L 82.4,128.6" style="fill:none;stroke:#000000;stroke-width:0.6px;stroke-linecap:butt;stroke-linejoin:miter;stroke-opacity:1;"/>
<path d="M 93.9,120.6 L 94.5,120.2 L 95.2,120.5" style="fill:none;stroke:#000000;stroke-width:0.6px;stroke-linecap:butt;stroke-linejoin:miter;stroke-opacity:1;"/>
<path d="M 107.8,126.5 L 108.5,126.8 L 109.2,126.3" style="fill:none;stroke:#000000;stroke-width:0.6px;stroke-linecap:butt;stroke-linejoin:miter;stroke-opacity:1;"/>
<path d="M 120.6,118.4 L 121.3,117.9 L 122.0,118.3" style="fill:none;stroke:#000000;stroke-width:0.6px;stroke-linecap:butt;stroke-linejoin:miter;stroke-opacity:1;"/>
<path d="M 161.3,121.9 L 162.0,122.3 L 162.1,123.0" style="fill:none;stroke:#000000;stroke-width:0.6px;stroke-linecap:butt;stroke-linejoin:miter;stroke-opacity:1;"/>
<path d="M 163.3,136.9 L 163.3,137.7 L 163.8,138.0" style="fill:none;stroke:#000000;stroke-width:0.6px;stroke-linecap:butt;stroke-linejoin:miter;stroke-opacity:1;"/>
<path d="M 93.9,104.3 L 93.2,104.7 L 92.7,104.5" style="fill:none;stroke:#000000;stroke-width:0.6px;stroke-linecap:butt;stroke-linejoin:miter;stroke-opacity:1;"/>
<path d="M 55.7,130.8 L 55.1,131.3 L 55.1,131.8" style="fill:none;stroke:#000000;stroke-width:0.6px;stroke-linecap:butt;stroke-linejoin:miter;stroke-opacity:1;"/>
<path class="atom-11" d="M 153.5 146.8 Q 153.5 147.9, 153.1 148.7 Q 152.8 149.4, 152.1 149.9 Q 151.5 150.3, 150.6 150.3 Q 149.8 150.3, 149.1 149.9 Q 148.5 149.4, 148.1 148.7 Q 147.8 147.9, 147.8 146.9 L 147.8 146.4 Q 147.8 145.4, 148.1 144.6 Q 148.5 143.8, 149.1 143.4 Q 149.8 143.0, 150.6 143.0 Q 151.5 143.0, 152.1 143.4 Q 152.8 143.8, 153.1 144.6 Q 153.5 145.4, 153.5 146.4 L 153.5 146.8 M 152.5 146.4 Q 152.5 145.1, 152.0 144.4 Q 151.5 143.8, 150.6 143.8 Q 149.7 143.8, 149.2 144.4 Q 148.7 145.1, 148.7 146.3 L 148.7 146.8 Q 148.7 148.1, 149.2 148.8 Q 149.7 149.5, 150.6 149.5 Q 151.5 149.5, 152.0 148.8 Q 152.5 148.1, 152.5 146.9 L 152.5 146.4 " fill="#000000"/>
<path class="atom-12" d="M 180.2 144.6 Q 180.2 145.6, 179.9 146.4 Q 179.5 147.2, 178.9 147.6 Q 178.2 148.0, 177.4 148.0 Q 176.5 148.0, 175.9 147.6 Q 175.2 147.2, 174.9 146.4 Q 174.5 145.7, 174.5 144.7 L 174.5 144.1 Q 174.5 143.1, 174.9 142.3 Q 175.2 141.5, 175.9 141.1 Q 176.5 140.7, 177.4 140.7 Q 178.2 140.7, 178.9 141.1 Q 179.5 141.5, 179.9 142.3 Q 180.2 143.1, 180.2 144.1 L 180.2 144.6 M 179.3 144.1 Q 179.3 142.9, 178.8 142.2 Q 178.3 141.5, 177.4 141.5 Q 176.5 141.5, 176.0 142.2 Q 175.5 142.9, 175.4 144.1 L 175.4 144.6 Q 175.4 145.8, 175.9 146.5 Q 176.5 147.2, 177.4 147.2 Q 178.3 147.2, 178.8 146.6 Q 179.3 145.9, 179.3 144.7 L 179.3 144.1 " fill="#000000"/>
<path class="atom-12" d="M 186.8 147.9 L 185.9 147.9 L 185.9 144.6 L 182.3 144.6 L 182.3 147.9 L 181.4 147.9 L 181.4 140.8 L 182.3 140.8 L 182.3 143.9 L 185.9 143.9 L 185.9 140.8 L 186.8 140.8 L 186.8 147.9 " fill="#000000"/>
<path class="atom-13" d="M 149.6 100.5 Q 149.6 101.6, 149.2 102.3 Q 148.9 103.1, 148.2 103.5 Q 147.6 103.9, 146.7 103.9 Q 145.9 103.9, 145.2 103.5 Q 144.6 103.1, 144.2 102.4 Q 143.9 101.6, 143.9 100.6 L 143.9 100.1 Q 143.9 99.0, 144.2 98.3 Q 144.6 97.5, 145.2 97.1 Q 145.9 96.6, 146.7 96.6 Q 147.6 96.6, 148.2 97.1 Q 148.9 97.5, 149.2 98.2 Q 149.6 99.0, 149.6 100.1 L 149.6 100.5 M 148.6 100.1 Q 148.6 98.8, 148.1 98.1 Q 147.6 97.4, 146.7 97.4 Q 145.8 97.4, 145.3 98.1 Q 144.8 98.8, 144.8 100.0 L 144.8 100.5 Q 144.8 101.7, 145.3 102.4 Q 145.8 103.1, 146.7 103.1 Q 147.6 103.1, 148.1 102.5 Q 148.6 101.8, 148.6 100.6 L 148.6 100.1 " fill="#000000"/>
<path class="atom-15" d="M 122.8 102.8 Q 122.8 103.8, 122.5 104.6 Q 122.1 105.4, 121.5 105.8 Q 120.8 106.2, 120.0 106.2 Q 119.1 106.2, 118.5 105.8 Q 117.8 105.4, 117.5 104.6 Q 117.1 103.8, 117.1 102.8 L 117.1 102.3 Q 117.1 101.3, 117.5 100.5 Q 117.8 99.7, 118.5 99.3 Q 119.1 98.9, 120.0 98.9 Q 120.8 98.9, 121.5 99.3 Q 122.1 99.7, 122.5 100.5 Q 122.8 101.3, 122.8 102.3 L 122.8 102.8 M 121.9 102.3 Q 121.9 101.0, 121.4 100.4 Q 120.9 99.7, 120.0 99.7 Q 119.1 99.7, 118.6 100.4 Q 118.1 101.0, 118.0 102.3 L 118.0 102.8 Q 118.0 104.0, 118.6 104.7 Q 119.1 105.4, 120.0 105.4 Q 120.9 105.4, 121.4 104.7 Q 121.9 104.1, 121.9 102.8 L 121.9 102.3 " fill="#000000"/>
<path class="atom-18" d="M 74.9 101.8 L 74.0 101.8 L 74.0 98.5 L 70.4 98.5 L 70.4 101.8 L 69.5 101.8 L 69.5 94.6 L 70.4 94.6 L 70.4 97.7 L 74.0 97.7 L 74.0 94.6 L 74.9 94.6 L 74.9 101.8 " fill="#000000"/>
<path class="atom-18" d="M 82.1 98.4 Q 82.1 99.5, 81.7 100.3 Q 81.4 101.0, 80.7 101.4 Q 80.1 101.9, 79.2 101.9 Q 78.4 101.9, 77.7 101.4 Q 77.1 101.0, 76.7 100.3 Q 76.4 99.5, 76.3 98.5 L 76.3 98.0 Q 76.3 97.0, 76.7 96.2 Q 77.1 95.4, 77.7 95.0 Q 78.4 94.6, 79.2 94.6 Q 80.1 94.6, 80.7 95.0 Q 81.4 95.4, 81.7 96.2 Q 82.1 96.9, 82.1 98.0 L 82.1 98.4 M 81.1 98.0 Q 81.1 96.7, 80.6 96.0 Q 80.1 95.4, 79.2 95.4 Q 78.3 95.4, 77.8 96.0 Q 77.3 96.7, 77.3 97.9 L 77.3 98.4 Q 77.3 99.7, 77.8 100.4 Q 78.3 101.1, 79.2 101.1 Q 80.1 101.1, 80.6 100.4 Q 81.1 99.7, 81.1 98.5 L 81.1 98.0 " fill="#000000"/>
<path class="atom-20" d="M 86.4 77.5 L 85.4 77.5 L 85.4 74.2 L 81.8 74.2 L 81.8 77.5 L 80.9 77.5 L 80.9 70.4 L 81.8 70.4 L 81.8 73.4 L 85.4 73.4 L 85.4 70.4 L 86.4 70.4 L 86.4 77.5 " fill="#000000"/>
<path class="atom-20" d="M 93.5 74.1 Q 93.5 75.2, 93.1 76.0 Q 92.8 76.7, 92.1 77.2 Q 91.5 77.6, 90.6 77.6 Q 89.8 77.6, 89.1 77.2 Q 88.5 76.7, 88.1 76.0 Q 87.8 75.2, 87.8 74.2 L 87.8 73.7 Q 87.8 72.7, 88.1 71.9 Q 88.5 71.1, 89.1 70.7 Q 89.8 70.3, 90.6 70.3 Q 91.5 70.3, 92.1 70.7 Q 92.8 71.1, 93.1 71.9 Q 93.5 72.7, 93.5 73.7 L 93.5 74.1 M 92.5 73.7 Q 92.5 72.4, 92.0 71.7 Q 91.5 71.1, 90.6 71.1 Q 89.7 71.1, 89.2 71.7 Q 88.7 72.4, 88.7 73.6 L 88.7 74.1 Q 88.7 75.4, 89.2 76.1 Q 89.7 76.8, 90.6 76.8 Q 91.5 76.8, 92.0 76.1 Q 92.5 75.4, 92.5 74.2 L 92.5 73.7 " fill="#000000"/>
<path class="atom-22" d="M 118.9 56.4 Q 118.9 57.5, 118.6 58.3 Q 118.2 59.1, 117.6 59.5 Q 116.9 59.9, 116.1 59.9 Q 115.2 59.9, 114.6 59.5 Q 113.9 59.0, 113.6 58.3 Q 113.2 57.5, 113.2 56.5 L 113.2 56.0 Q 113.2 55.0, 113.6 54.2 Q 113.9 53.4, 114.6 53.0 Q 115.2 52.6, 116.1 52.6 Q 116.9 52.6, 117.6 53.0 Q 118.2 53.4, 118.6 54.2 Q 118.9 55.0, 118.9 56.0 L 118.9 56.4 M 118.0 56.0 Q 118.0 54.7, 117.5 54.1 Q 117.0 53.4, 116.1 53.4 Q 115.2 53.4, 114.7 54.1 Q 114.2 54.7, 114.1 55.9 L 114.1 56.4 Q 114.1 57.7, 114.7 58.4 Q 115.2 59.1, 116.1 59.1 Q 117.0 59.1, 117.5 58.4 Q 118.0 57.8, 118.0 56.5 L 118.0 56.0 " fill="#000000"/>
<path class="atom-22" d="M 125.5 59.8 L 124.6 59.8 L 124.6 56.5 L 121.0 56.5 L 121.0 59.8 L 120.1 59.8 L 120.1 52.7 L 121.0 52.7 L 121.0 55.7 L 124.6 55.7 L 124.6 52.7 L 125.5 52.7 L 125.5 59.8 " fill="#000000"/>
<path class="atom-24" d="M 147.0 69.6 Q 147.0 70.7, 146.6 71.5 Q 146.3 72.2, 145.6 72.6 Q 145.0 73.1, 144.1 73.1 Q 143.3 73.1, 142.6 72.6 Q 142.0 72.2, 141.6 71.5 Q 141.3 70.7, 141.3 69.7 L 141.3 69.2 Q 141.3 68.2, 141.6 67.4 Q 142.0 66.6, 142.6 66.2 Q 143.3 65.8, 144.1 65.8 Q 145.0 65.8, 145.6 66.2 Q 146.3 66.6, 146.6 67.4 Q 147.0 68.1, 147.0 69.2 L 147.0 69.6 M 146.0 69.2 Q 146.0 67.9, 145.5 67.2 Q 145.0 66.6, 144.1 66.6 Q 143.2 66.6, 142.7 67.2 Q 142.2 67.9, 142.2 69.1 L 142.2 69.6 Q 142.2 70.9, 142.7 71.6 Q 143.2 72.3, 144.1 72.3 Q 145.0 72.3, 145.5 71.6 Q 146.0 70.9, 146.0 69.7 L 146.0 69.2 " fill="#000000"/>
<path class="atom-24" d="M 153.6 73.0 L 152.6 73.0 L 152.6 69.7 L 149.0 69.7 L 149.0 73.0 L 148.1 73.0 L 148.1 65.9 L 149.0 65.9 L 149.0 68.9 L 152.6 68.9 L 152.6 65.9 L 153.6 65.9 L 153.6 73.0 " fill="#000000"/>
<path class="atom-26" d="M 43.9 125.0 Q 43.9 126.0, 43.5 126.8 Q 43.2 127.6, 42.5 128.0 Q 41.9 128.4, 41.0 128.4 Q 40.2 128.4, 39.6 128.0 Q 38.9 127.6, 38.5 126.8 Q 38.2 126.0, 38.2 125.0 L 38.2 124.5 Q 38.2 123.5, 38.5 122.7 Q 38.9 121.9, 39.5 121.5 Q 40.2 121.1, 41.0 121.1 Q 41.9 121.1, 42.5 121.5 Q 43.2 121.9, 43.5 122.7 Q 43.9 123.5, 43.9 124.5 L 43.9 125.0 M 43.0 124.5 Q 43.0 123.3, 42.5 122.6 Q 41.9 121.9, 41.0 121.9 Q 40.1 121.9, 39.6 122.6 Q 39.1 123.3, 39.1 124.5 L 39.1 125.0 Q 39.1 126.2, 39.6 126.9 Q 40.1 127.6, 41.0 127.6 Q 41.9 127.6, 42.4 126.9 Q 42.9 126.3, 43.0 125.0 L 43.0 124.5 " fill="#000000"/>
<path class="atom-27" d="M 59.2 147.0 Q 59.2 148.1, 58.9 148.8 Q 58.5 149.6, 57.9 150.0 Q 57.2 150.4, 56.4 150.4 Q 55.5 150.4, 54.9 150.0 Q 54.2 149.6, 53.9 148.8 Q 53.5 148.1, 53.5 147.1 L 53.5 146.6 Q 53.5 145.5, 53.9 144.8 Q 54.2 144.0, 54.9 143.5 Q 55.5 143.1, 56.4 143.1 Q 57.2 143.1, 57.9 143.5 Q 58.5 144.0, 58.9 144.7 Q 59.2 145.5, 59.2 146.6 L 59.2 147.0 M 58.3 146.6 Q 58.3 145.3, 57.8 144.6 Q 57.3 143.9, 56.4 143.9 Q 55.5 143.9, 55.0 144.6 Q 54.4 145.3, 54.4 146.5 L 54.4 147.0 Q 54.4 148.2, 54.9 148.9 Q 55.5 149.6, 56.4 149.6 Q 57.3 149.6, 57.8 149.0 Q 58.3 148.3, 58.3 147.1 L 58.3 146.6 " fill="#000000"/>
<path class="atom-27" d="M 65.8 150.3 L 64.9 150.3 L 64.9 147.1 L 61.3 147.1 L 61.3 150.3 L 60.4 150.3 L 60.4 143.2 L 61.3 143.2 L 61.3 146.3 L 64.9 146.3 L 64.9 143.2 L 65.8 143.2 L 65.8 150.3 " fill="#000000"/>
<path class="legend" d="M 102.8 213.5 L 103.4 207.8 L 109.2 207.8 L 109.2 209.2 L 104.6 209.2 L 104.3 212.3 Q 105.1 211.8, 106.2 211.8 Q 107.7 211.8, 108.7 212.8 Q 109.6 213.8, 109.6 215.6 Q 109.6 217.4, 108.6 218.4 Q 107.7 219.4, 106.0 219.4 Q 104.5 219.4, 103.5 218.5 Q 102.6 217.7, 102.4 216.2 L 103.8 216.2 Q 103.9 217.2, 104.5 217.7 Q 105.0 218.2, 106.0 218.2 Q 107.0 218.2, 107.5 217.5 Q 108.1 216.8, 108.1 215.6 Q 108.1 214.5, 107.5 213.8 Q 106.9 213.1, 105.9 213.1 Q 104.9 213.1, 104.4 213.5 L 104.0 213.8 L 102.8 213.5 " fill="#000000"/>
<path class="legend" d="M 110.7 218.5 Q 110.7 218.1, 111.0 217.8 Q 111.2 217.6, 111.6 217.6 Q 112.1 217.6, 112.3 217.8 Q 112.5 218.1, 112.5 218.5 Q 112.5 218.8, 112.3 219.1 Q 112.1 219.3, 111.6 219.3 Q 111.2 219.3, 111.0 219.1 Q 110.7 218.8, 110.7 218.5 " fill="#000000"/>
<path class="legend" d="M 116.7 212.8 L 117.8 212.8 Q 118.8 212.8, 119.4 212.3 Q 120.0 211.8, 120.0 210.9 Q 120.0 208.9, 118.0 208.9 Q 117.0 208.9, 116.5 209.4 Q 115.9 209.9, 115.9 210.8 L 114.5 210.8 Q 114.5 209.5, 115.5 208.6 Q 116.4 207.7, 118.0 207.7 Q 119.6 207.7, 120.5 208.5 Q 121.4 209.4, 121.4 210.9 Q 121.4 211.6, 120.9 212.3 Q 120.4 213.0, 119.6 213.4 Q 120.6 213.7, 121.1 214.4 Q 121.6 215.1, 121.6 216.0 Q 121.6 217.6, 120.6 218.5 Q 119.6 219.4, 118.0 219.4 Q 116.4 219.4, 115.4 218.5 Q 114.4 217.6, 114.4 216.2 L 115.8 216.2 Q 115.8 217.1, 116.4 217.7 Q 117.0 218.2, 118.0 218.2 Q 119.0 218.2, 119.6 217.6 Q 120.1 217.1, 120.1 216.1 Q 120.1 215.1, 119.5 214.6 Q 118.9 214.0, 117.8 214.0 L 116.7 214.0 L 116.7 212.8 " fill="#000000"/>
<path class="bond-0 atom-0 atom-1" d="M 363.4,78.1 L 351.5,81.3" style="fill:none;fill-rule:evenodd;stroke:#000000;stroke-width:0.6px;stroke-linecap:butt;stroke-linejoin:miter;stroke-opacity:1"/>
<path class="bond-0 atom-0 atom-1" d="M 362.7,75.4 L 350.8,78.6" style="fill:none;fill-rule:evenodd;stroke:#000000;stroke-width:0.6px;stroke-linecap:butt;stroke-linejoin:miter;stroke-opacity:1"/>
<path class="bond-1 atom-1 atom-2" d="M 352.1,79.7 L 344.0,73.1" style="fill:none;fill-rule:evenodd;stroke:#000000;stroke-width:0.6px;stroke-linecap:butt;stroke-linejoin:miter;stroke-opacity:1"/>
<path class="bond-2 atom-2 atom-3" d="M 336.1,72.6 L 327.1,78.5" style="fill:none;fill-rule:evenodd;stroke:#000000;stroke-width:0.6px;stroke-linecap:butt;stroke-linejoin:miter;stroke-opacity:1"/>
<path class="bond-3 atom-3 atom-4" d="M 327.1,78.5 L 331.2,93.4" style="fill:none;fill-rule:evenodd;stroke:#000000;stroke-width:0.6px;stroke-linecap:butt;stroke-linejoin:miter;stroke-opacity:1"/>
<path class="bond-4 atom-4 atom-5" d="M 331.2,93.4 L 322.8,106.5" style="fill:none;fill-rule:evenodd;stroke:#000000;stroke-width:0.6px;stroke-linecap:butt;stroke-linejoin:miter;stroke-opacity:1"/>
<path class="bond-4 atom-4 atom-5" d="M 332.6,96.3 L 326.0,106.6" style="fill:none;fill-rule:evenodd;stroke:#000000;stroke-width:0.6px;stroke-linecap:butt;stroke-linejoin:miter;stroke-opacity:1"/>
<path class="bond-5 atom-5 atom-6" d="M 322.8,106.5 L 329.9,120.3" style="fill:none;fill-rule:evenodd;stroke:#000000;stroke-width:0.6px;stroke-linecap:butt;stroke-linejoin:miter;stroke-opacity:1"/>
<path class="bond-6 atom-6 atom-7" d="M 329.9,120.3 L 345.4,121.0" style="fill:none;fill-rule:evenodd;stroke:#000000;stroke-width:0.6px;stroke-linecap:butt;stroke-linejoin:miter;stroke-opacity:1"/>
<path class="bond-6 atom-6 atom-7" d="M 331.6,117.5 L 343.9,118.1" style="fill:none;fill-rule:evenodd;stroke:#000000;stroke-width:0.6px;stroke-linecap:butt;stroke-linejoin:miter;stroke-opacity:1"/>
<path class="bond-7 atom-7 atom-8" d="M 345.4,121.0 L 351.3,128.3" style="fill:none;fill-rule:evenodd;stroke:#000000;stroke-width:0.6px;stroke-linecap:butt;stroke-linejoin:miter;stroke-opacity:1"/>
<path class="bond-8 atom-8 atom-9" d="M 359.1,131.5 L 369.6,127.4" style="fill:none;fill-rule:evenodd;stroke:#000000;stroke-width:0.6px;stroke-linecap:butt;stroke-linejoin:miter;stroke-opacity:1"/>
<path class="bond-9 atom-9 atom-10" d="M 369.6,127.4 L 383.4,134.4" style="fill:none;fill-rule:evenodd;stroke:#000000;stroke-width:0.6px;stroke-linecap:butt;stroke-linejoin:miter;stroke-opacity:1"/>
<path class="bond-9 atom-9 atom-10" d="M 372.3,125.6 L 383.3,131.2" style="fill:none;fill-rule:evenodd;stroke:#000000;stroke-width:0.6px;stroke-linecap:butt;stroke-linejoin:miter;stroke-opacity:1"/>
<path class="bond-10 atom-10 atom-11" d="M 383.4,134.4 L 396.4,125.9" style="fill:none;fill-rule:evenodd;stroke:#000000;stroke-width:0.6px;stroke-linecap:butt;stroke-linejoin:miter;stroke-opacity:1"/>
<path class="bond-11 atom-11 atom-12" d="M 396.4,125.9 L 395.5,110.4" style="fill:none;fill-rule:evenodd;stroke:#000000;stroke-width:0.6px;stroke-linecap:butt;stroke-linejoin:miter;stroke-opacity:1"/>
<path class="bond-11 atom-11 atom-12" d="M 393.5,124.4 L 392.8,112.2" style="fill:none;fill-rule:evenodd;stroke:#000000;stroke-width:0.6px;stroke-linecap:butt;stroke-linejoin:miter;stroke-opacity:1"/>
<path class="bond-12 atom-12 atom-13" d="M 395.5,110.4 L 381.7,103.4" style="fill:none;fill-rule:evenodd;stroke:#000000;stroke-width:0.6px;stroke-linecap:butt;stroke-linejoin:miter;stroke-opacity:1"/>
<path class="bond-13 atom-13 atom-14" d="M 381.7,103.4 L 368.7,111.9" style="fill:none;fill-rule:evenodd;stroke:#000000;stroke-width:0.6px;stroke-linecap:butt;stroke-linejoin:miter;stroke-opacity:1"/>
<path class="bond-13 atom-13 atom-14" d="M 381.9,106.6 L 371.6,113.4" style="fill:none;fill-rule:evenodd;stroke:#000000;stroke-width:0.6px;stroke-linecap:butt;stroke-linejoin:miter;stroke-opacity:1"/>
<path class="bond-14 atom-14 atom-15" d="M 368.7,111.9 L 353.7,108.0" style="fill:none;fill-rule:evenodd;stroke:#000000;stroke-width:0.6px;stroke-linecap:butt;stroke-linejoin:miter;stroke-opacity:1"/>
<path class="bond-15 atom-15 atom-16" d="M 353.7,108.0 L 346.7,94.2" style="fill:none;fill-rule:evenodd;stroke:#000000;stroke-width:0.6px;stroke-linecap:butt;stroke-linejoin:miter;stroke-opacity:1"/>
<path class="bond-15 atom-15 atom-16" d="M 350.5,107.8 L 344.9,96.9" style="fill:none;fill-rule:evenodd;stroke:#000000;stroke-width:0.6px;stroke-linecap:butt;stroke-linejoin:miter;stroke-opacity:1"/>
<path class="bond-16 atom-6 atom-17" d="M 329.9,120.3 L 319.0,131.3" style="fill:none;fill-rule:evenodd;stroke:#000000;stroke-width:0.6px;stroke-linecap:butt;stroke-linejoin:miter;stroke-opacity:1"/>
<path class="bond-17 atom-17 atom-18" d="M 319.0,131.3 L 305.1,124.3" style="fill:none;fill-rule:evenodd;stroke:#000000;stroke-width:0.6px;stroke-linecap:butt;stroke-linejoin:miter;stroke-opacity:1"/>
<path class="bond-18 atom-18 atom-19" d="M 305.1,124.3 L 290.7,129.9" style="fill:none;fill-rule:evenodd;stroke:#000000;stroke-width:0.6px;stroke-linecap:butt;stroke-linejoin:miter;stroke-opacity:1"/>
<path class="bond-18 atom-18 atom-19" d="M 302.6,122.3 L 291.2,126.7" style="fill:none;fill-rule:evenodd;stroke:#000000;stroke-width:0.6px;stroke-linecap:butt;stroke-linejoin:miter;stroke-opacity:1"/>
<path class="bond-19 atom-19 atom-20" d="M 290.7,129.9 L 278.6,120.2" style="fill:none;fill-rule:evenodd;stroke:#000000;stroke-width:0.6px;stroke-linecap:butt;stroke-linejoin:miter;stroke-opacity:1"/>
<path class="bond-20 atom-20 atom-21" d="M 278.6,120.2 L 281.0,104.9" style="fill:none;fill-rule:evenodd;stroke:#000000;stroke-width:0.6px;stroke-linecap:butt;stroke-linejoin:miter;stroke-opacity:1"/>
<path class="bond-20 atom-20 atom-21" d="M 281.6,119.0 L 283.5,106.9" style="fill:none;fill-rule:evenodd;stroke:#000000;stroke-width:0.6px;stroke-linecap:butt;stroke-linejoin:miter;stroke-opacity:1"/>
<path class="bond-21 atom-21 atom-22" d="M 281.0,104.9 L 295.4,99.3" style="fill:none;fill-rule:evenodd;stroke:#000000;stroke-width:0.6px;stroke-linecap:butt;stroke-linejoin:miter;stroke-opacity:1"/>
<path class="bond-22 atom-22 atom-23" d="M 295.4,99.3 L 307.5,109.0" style="fill:none;fill-rule:evenodd;stroke:#000000;stroke-width:0.6px;stroke-linecap:butt;stroke-linejoin:miter;stroke-opacity:1"/>
<path class="bond-22 atom-22 atom-23" d="M 294.9,102.4 L 304.5,110.1" style="fill:none;fill-rule:evenodd;stroke:#000000;stroke-width:0.6px;stroke-linecap:butt;stroke-linejoin:miter;stroke-opacity:1"/>
<path class="bond-23 atom-16 atom-1" d="M 346.7,94.2 L 352.1,79.7" style="fill:none;fill-rule:evenodd;stroke:#000000;stroke-width:0.6px;stroke-linecap:butt;stroke-linejoin:miter;stroke-opacity:1"/>
<path class="bond-24 atom-23 atom-18" d="M 307.5,109.0 L 305.1,124.3" style="fill:none;fill-rule:evenodd;stroke:#000000;stroke-width:0.6px;stroke-linecap:butt;stroke-linejoin:miter;stroke-opacity:1"/>
<path class="bond-25 atom-16 atom-4" d="M 346.7,94.2 L 331.2,93.4" style="fill:none;fill-rule:evenodd;stroke:#000000;stroke-width:0.6px;stroke-linecap:butt;stroke-linejoin:miter;stroke-opacity:1"/>
<path class="bond-26 atom-23 atom-5" d="M 307.5,109.0 L 322.8,106.5" style="fill:none;fill-rule:evenodd;stroke:#000000;stroke-width:0.6px;stroke-linecap:butt;stroke-linejoin:miter;stroke-opacity:1"/>
<path class="bond-27 atom-15 atom-7" d="M 353.7,108.0 L 345.4,121.0" style="fill:none;fill-rule:evenodd;stroke:#000000;stroke-width:0.6px;stroke-linecap:butt;stroke-linejoin:miter;stroke-opacity:1"/>
<path class="bond-28 atom-14 atom-9" d="M 368.7,111.9 L 369.6,127.4" style="fill:none;fill-rule:evenodd;stroke:#000000;stroke-width:0.6px;stroke-linecap:butt;stroke-linejoin:miter;stroke-opacity:1"/>
<path d="M 351.7,79.4 L 352.1,79.7 L 351.9,80.4" style="fill:none;stroke:#000000;stroke-width:0.6px;stroke-linecap:butt;stroke-linejoin:miter;stroke-opacity:1;"/>
<path d="M 327.6,78.2 L 327.1,78.5 L 327.3,79.2" style="fill:none;stroke:#000000;stroke-width:0.6px;stroke-linecap:butt;stroke-linejoin:miter;stroke-opacity:1;"/>
<path d="M 382.7,134.0 L 383.4,134.4 L 384.1,133.9" style="fill:none;stroke:#000000;stroke-width:0.6px;stroke-linecap:butt;stroke-linejoin:miter;stroke-opacity:1;"/>
<path d="M 395.8,126.3 L 396.4,125.9 L 396.4,125.1" style="fill:none;stroke:#000000;stroke-width:0.6px;stroke-linecap:butt;stroke-linejoin:miter;stroke-opacity:1;"/>
<path d="M 395.6,111.2 L 395.5,110.4 L 394.8,110.1" style="fill:none;stroke:#000000;stroke-width:0.6px;stroke-linecap:butt;stroke-linejoin:miter;stroke-opacity:1;"/>
<path d="M 382.4,103.8 L 381.7,103.4 L 381.0,103.8" style="fill:none;stroke:#000000;stroke-width:0.6px;stroke-linecap:butt;stroke-linejoin:miter;stroke-opacity:1;"/>
<path d="M 319.5,130.7 L 319.0,131.3 L 318.3,130.9" style="fill:none;stroke:#000000;stroke-width:0.6px;stroke-linecap:butt;stroke-linejoin:miter;stroke-opacity:1;"/>
<path d="M 291.4,129.6 L 290.7,129.9 L 290.1,129.4" style="fill:none;stroke:#000000;stroke-width:0.6px;stroke-linecap:butt;stroke-linejoin:miter;stroke-opacity:1;"/>
<path d="M 279.2,120.7 L 278.6,120.2 L 278.7,119.4" style="fill:none;stroke:#000000;stroke-width:0.6px;stroke-linecap:butt;stroke-linejoin:miter;stroke-opacity:1;"/>
<path d="M 280.8,105.6 L 281.0,104.9 L 281.7,104.6" style="fill:none;stroke:#000000;stroke-width:0.6px;stroke-linecap:butt;stroke-linejoin:miter;stroke-opacity:1;"/>
<path d="M 294.7,99.5 L 295.4,99.3 L 296.0,99.7" style="fill:none;stroke:#000000;stroke-width:0.6px;stroke-linecap:butt;stroke-linejoin:miter;stroke-opacity:1;"/>
<path class="atom-0" d="M 370.0 75.9 Q 370.0 77.0, 369.6 77.7 Q 369.3 78.5, 368.6 78.9 Q 368.0 79.3, 367.1 79.3 Q 366.3 79.3, 365.6 78.9 Q 365.0 78.5, 364.6 77.7 Q 364.2 77.0, 364.2 76.0 L 364.2 75.5 Q 364.2 74.4, 364.6 73.6 Q 364.9 72.9, 365.6 72.4 Q 366.3 72.0, 367.1 72.0 Q 367.9 72.0, 368.6 72.4 Q 369.3 72.9, 369.6 73.6 Q 370.0 74.4, 370.0 75.5 L 370.0 75.9 M 369.0 75.4 Q 369.0 74.2, 368.5 73.5 Q 368.0 72.8, 367.1 72.8 Q 366.2 72.8, 365.7 73.5 Q 365.2 74.2, 365.2 75.4 L 365.2 75.9 Q 365.2 77.1, 365.7 77.8 Q 366.2 78.5, 367.1 78.5 Q 368.0 78.5, 368.5 77.9 Q 369.0 77.2, 369.0 76.0 L 369.0 75.4 " fill="#000000"/>
<path class="atom-2" d="M 342.8 73.6 L 341.9 73.6 L 338.3 68.1 L 338.3 73.6 L 337.3 73.6 L 337.3 66.4 L 338.3 66.4 L 341.9 71.9 L 341.9 66.4 L 342.8 66.4 L 342.8 73.6 " fill="#000000"/>
<path class="atom-2" d="M 342.8 65.7 L 341.9 65.7 L 341.9 62.4 L 338.3 62.4 L 338.3 65.7 L 337.3 65.7 L 337.3 58.6 L 338.3 58.6 L 338.3 61.7 L 341.9 61.7 L 341.9 58.6 L 342.8 58.6 L 342.8 65.7 " fill="#000000"/>
<path class="atom-8" d="M 357.9 136.6 L 356.9 136.6 L 353.4 131.1 L 353.4 136.6 L 352.4 136.6 L 352.4 129.4 L 353.4 129.4 L 357.0 135.0 L 357.0 129.4 L 357.9 129.4 L 357.9 136.6 " fill="#000000"/>
<path class="atom-8" d="M 357.9 144.4 L 356.9 144.4 L 356.9 141.1 L 353.4 141.1 L 353.4 144.4 L 352.4 144.4 L 352.4 137.3 L 353.4 137.3 L 353.4 140.3 L 356.9 140.3 L 356.9 137.3 L 357.9 137.3 L 357.9 144.4 " fill="#000000"/>
<path class="legend" d="M 332.4 207.8 L 332.4 209.1 L 332.1 209.1 Q 330.4 209.1, 329.4 210.1 Q 328.4 211.0, 328.3 212.8 Q 329.2 211.8, 330.7 211.8 Q 332.2 211.8, 333.1 212.8 Q 334.0 213.9, 334.0 215.5 Q 334.0 217.3, 333.0 218.3 Q 332.1 219.4, 330.5 219.4 Q 328.8 219.4, 327.8 218.1 Q 326.8 216.9, 326.8 214.9 L 326.8 214.3 Q 326.8 211.2, 328.1 209.5 Q 329.5 207.9, 332.1 207.8 L 332.4 207.8 M 330.5 213.0 Q 329.7 213.0, 329.1 213.4 Q 328.5 213.9, 328.3 214.5 L 328.3 215.1 Q 328.3 216.5, 328.9 217.3 Q 329.5 218.2, 330.5 218.2 Q 331.4 218.2, 332.0 217.5 Q 332.6 216.7, 332.6 215.6 Q 332.6 214.4, 332.0 213.7 Q 331.4 213.0, 330.5 213.0 " fill="#000000"/>
<path class="legend" d="M 335.3 218.5 Q 335.3 218.1, 335.5 217.8 Q 335.8 217.6, 336.2 217.6 Q 336.7 217.6, 336.9 217.8 Q 337.1 218.1, 337.1 218.5 Q 337.1 218.8, 336.9 219.1 Q 336.7 219.3, 336.2 219.3 Q 335.8 219.3, 335.5 219.1 Q 335.3 218.8, 335.3 218.5 " fill="#000000"/>
<path class="legend" d="M 345.6 215.4 L 347.2 215.4 L 347.2 216.6 L 345.6 216.6 L 345.6 219.2 L 344.2 219.2 L 344.2 216.6 L 339.0 216.6 L 339.0 215.7 L 344.1 207.8 L 345.6 207.8 L 345.6 215.4 M 340.6 215.4 L 344.2 215.4 L 344.2 209.8 L 344.0 210.1 L 340.6 215.4 " fill="#000000"/>
<path class="bond-0 atom-0 atom-1" d="M 463.2,140.7 L 467.7,131.6" style="fill:none;fill-rule:evenodd;stroke:#000000;stroke-width:0.6px;stroke-linecap:butt;stroke-linejoin:miter;stroke-opacity:1"/>
<path class="bond-1 atom-1 atom-2" d="M 473.9,126.5 L 485.5,125.8" style="fill:none;fill-rule:evenodd;stroke:#000000;stroke-width:0.6px;stroke-linecap:butt;stroke-linejoin:miter;stroke-opacity:1"/>
<path class="bond-2 atom-2 atom-3" d="M 483.9,125.9 L 489.7,134.6" style="fill:none;fill-rule:evenodd;stroke:#000000;stroke-width:0.6px;stroke-linecap:butt;stroke-linejoin:miter;stroke-opacity:1"/>
<path class="bond-2 atom-2 atom-3" d="M 486.2,124.3 L 492.0,133.1" style="fill:none;fill-rule:evenodd;stroke:#000000;stroke-width:0.6px;stroke-linecap:butt;stroke-linejoin:miter;stroke-opacity:1"/>
<path class="bond-3 atom-2 atom-4" d="M 485.5,125.8 L 492.3,111.9" style="fill:none;fill-rule:evenodd;stroke:#000000;stroke-width:0.6px;stroke-linecap:butt;stroke-linejoin:miter;stroke-opacity:1"/>
<path class="bond-4 atom-4 atom-5" d="M 492.3,111.9 L 483.7,99.0" style="fill:none;fill-rule:evenodd;stroke:#000000;stroke-width:0.6px;stroke-linecap:butt;stroke-linejoin:miter;stroke-opacity:1"/>
<path class="bond-4 atom-4 atom-5" d="M 493.7,109.0 L 486.9,98.8" style="fill:none;fill-rule:evenodd;stroke:#000000;stroke-width:0.6px;stroke-linecap:butt;stroke-linejoin:miter;stroke-opacity:1"/>
<path class="bond-5 atom-5 atom-6" d="M 483.7,99.0 L 490.5,85.1" style="fill:none;fill-rule:evenodd;stroke:#000000;stroke-width:0.6px;stroke-linecap:butt;stroke-linejoin:miter;stroke-opacity:1"/>
<path class="bond-6 atom-6 atom-7" d="M 490.5,85.1 L 506.0,84.0" style="fill:none;fill-rule:evenodd;stroke:#000000;stroke-width:0.6px;stroke-linecap:butt;stroke-linejoin:miter;stroke-opacity:1"/>
<path class="bond-6 atom-6 atom-7" d="M 492.3,87.8 L 504.5,86.9" style="fill:none;fill-rule:evenodd;stroke:#000000;stroke-width:0.6px;stroke-linecap:butt;stroke-linejoin:miter;stroke-opacity:1"/>
<path class="bond-7 atom-7 atom-8" d="M 506.0,84.0 L 510.4,75.0" style="fill:none;fill-rule:evenodd;stroke:#000000;stroke-width:0.6px;stroke-linecap:butt;stroke-linejoin:miter;stroke-opacity:1"/>
<path class="bond-8 atom-8 atom-9" d="M 516.6,69.9 L 528.3,69.1" style="fill:none;fill-rule:evenodd;stroke:#000000;stroke-width:0.6px;stroke-linecap:butt;stroke-linejoin:miter;stroke-opacity:1"/>
<path class="bond-9 atom-9 atom-10" d="M 528.3,69.1 L 536.9,82.0" style="fill:none;fill-rule:evenodd;stroke:#000000;stroke-width:0.6px;stroke-linecap:butt;stroke-linejoin:miter;stroke-opacity:1"/>
<path class="bond-9 atom-9 atom-10" d="M 531.5,68.9 L 538.3,79.1" style="fill:none;fill-rule:evenodd;stroke:#000000;stroke-width:0.6px;stroke-linecap:butt;stroke-linejoin:miter;stroke-opacity:1"/>
<path class="bond-10 atom-10 atom-11" d="M 536.9,82.0 L 552.3,80.9" style="fill:none;fill-rule:evenodd;stroke:#000000;stroke-width:0.6px;stroke-linecap:butt;stroke-linejoin:miter;stroke-opacity:1"/>
<path class="bond-11 atom-11 atom-12" d="M 552.3,80.9 L 559.2,67.0" style="fill:none;fill-rule:evenodd;stroke:#000000;stroke-width:0.6px;stroke-linecap:butt;stroke-linejoin:miter;stroke-opacity:1"/>
<path class="bond-11 atom-11 atom-12" d="M 550.6,78.3 L 556.0,67.2" style="fill:none;fill-rule:evenodd;stroke:#000000;stroke-width:0.6px;stroke-linecap:butt;stroke-linejoin:miter;stroke-opacity:1"/>
<path class="bond-12 atom-12 atom-13" d="M 559.2,67.0 L 570.7,66.3" style="fill:none;fill-rule:evenodd;stroke:#000000;stroke-width:0.6px;stroke-linecap:butt;stroke-linejoin:miter;stroke-opacity:1"/>
<path class="bond-13 atom-13 atom-14" d="M 577.8,70.7 L 583.3,78.9" style="fill:none;fill-rule:evenodd;stroke:#000000;stroke-width:0.6px;stroke-linecap:butt;stroke-linejoin:miter;stroke-opacity:1"/>
<path class="bond-14 atom-14 atom-15" d="M 582.4,77.5 L 577.5,87.4" style="fill:none;fill-rule:evenodd;stroke:#000000;stroke-width:0.6px;stroke-linecap:butt;stroke-linejoin:miter;stroke-opacity:1"/>
<path class="bond-14 atom-14 atom-15" d="M 584.9,78.8 L 580.0,88.6" style="fill:none;fill-rule:evenodd;stroke:#000000;stroke-width:0.6px;stroke-linecap:butt;stroke-linejoin:miter;stroke-opacity:1"/>
<path class="bond-15 atom-14 atom-16" d="M 583.3,78.9 L 594.8,78.1" style="fill:none;fill-rule:evenodd;stroke:#000000;stroke-width:0.6px;stroke-linecap:butt;stroke-linejoin:miter;stroke-opacity:1"/>
<path class="bond-16 atom-16 atom-17" d="M 601.9,82.6 L 607.4,90.7" style="fill:none;fill-rule:evenodd;stroke:#000000;stroke-width:0.6px;stroke-linecap:butt;stroke-linejoin:miter;stroke-opacity:1"/>
<path class="bond-17 atom-17 atom-18" d="M 607.4,90.7 L 600.5,104.6" style="fill:none;fill-rule:evenodd;stroke:#000000;stroke-width:0.6px;stroke-linecap:butt;stroke-linejoin:miter;stroke-opacity:1"/>
<path class="bond-17 atom-17 atom-18" d="M 609.2,93.4 L 603.7,104.4" style="fill:none;fill-rule:evenodd;stroke:#000000;stroke-width:0.6px;stroke-linecap:butt;stroke-linejoin:miter;stroke-opacity:1"/>
<path class="bond-18 atom-18 atom-19" d="M 600.5,104.6 L 609.2,117.5" style="fill:none;fill-rule:evenodd;stroke:#000000;stroke-width:0.6px;stroke-linecap:butt;stroke-linejoin:miter;stroke-opacity:1"/>
<path class="bond-19 atom-19 atom-20" d="M 609.2,117.5 L 602.3,131.4" style="fill:none;fill-rule:evenodd;stroke:#000000;stroke-width:0.6px;stroke-linecap:butt;stroke-linejoin:miter;stroke-opacity:1"/>
<path class="bond-20 atom-20 atom-21" d="M 602.3,131.4 L 597.8,140.5" style="fill:none;fill-rule:evenodd;stroke:#000000;stroke-width:0.6px;stroke-linecap:butt;stroke-linejoin:miter;stroke-opacity:1"/>
<path class="bond-21 atom-20 atom-22" d="M 602.3,131.4 L 591.8,126.2" style="fill:none;fill-rule:evenodd;stroke:#000000;stroke-width:0.6px;stroke-linecap:butt;stroke-linejoin:miter;stroke-opacity:1"/>
<path class="bond-22 atom-20 atom-23" d="M 602.3,131.4 L 612.8,136.5" style="fill:none;fill-rule:evenodd;stroke:#000000;stroke-width:0.6px;stroke-linecap:butt;stroke-linejoin:miter;stroke-opacity:1"/>
<path class="bond-23 atom-19 atom-24" d="M 609.2,117.5 L 624.6,116.4" style="fill:none;fill-rule:evenodd;stroke:#000000;stroke-width:0.6px;stroke-linecap:butt;stroke-linejoin:miter;stroke-opacity:1"/>
<path class="bond-23 atom-19 atom-24" d="M 610.6,114.6 L 622.8,113.8" style="fill:none;fill-rule:evenodd;stroke:#000000;stroke-width:0.6px;stroke-linecap:butt;stroke-linejoin:miter;stroke-opacity:1"/>
<path class="bond-24 atom-24 atom-25" d="M 624.6,116.4 L 631.5,102.5" style="fill:none;fill-rule:evenodd;stroke:#000000;stroke-width:0.6px;stroke-linecap:butt;stroke-linejoin:miter;stroke-opacity:1"/>
<path class="bond-25 atom-25 atom-26" d="M 631.5,102.5 L 646.9,101.5" style="fill:none;fill-rule:evenodd;stroke:#000000;stroke-width:0.6px;stroke-linecap:butt;stroke-linejoin:miter;stroke-opacity:1"/>
<path class="bond-26 atom-26 atom-27" d="M 646.9,101.5 L 659.0,100.7" style="fill:none;fill-rule:evenodd;stroke:#000000;stroke-width:0.6px;stroke-linecap:butt;stroke-linejoin:miter;stroke-opacity:1"/>
<path class="bond-27 atom-26 atom-28" d="M 646.9,101.5 L 647.6,112.2" style="fill:none;fill-rule:evenodd;stroke:#000000;stroke-width:0.6px;stroke-linecap:butt;stroke-linejoin:miter;stroke-opacity:1"/>
<path class="bond-28 atom-26 atom-29" d="M 646.9,101.5 L 646.2,90.8" style="fill:none;fill-rule:evenodd;stroke:#000000;stroke-width:0.6px;stroke-linecap:butt;stroke-linejoin:miter;stroke-opacity:1"/>
<path class="bond-29 atom-25 atom-30" d="M 631.5,102.5 L 622.8,89.7" style="fill:none;fill-rule:evenodd;stroke:#000000;stroke-width:0.6px;stroke-linecap:butt;stroke-linejoin:miter;stroke-opacity:1"/>
<path class="bond-29 atom-25 atom-30" d="M 628.2,102.7 L 621.4,92.5" style="fill:none;fill-rule:evenodd;stroke:#000000;stroke-width:0.6px;stroke-linecap:butt;stroke-linejoin:miter;stroke-opacity:1"/>
<path class="bond-30 atom-12 atom-31" d="M 559.2,67.0 L 550.6,54.2" style="fill:none;fill-rule:evenodd;stroke:#000000;stroke-width:0.6px;stroke-linecap:butt;stroke-linejoin:miter;stroke-opacity:1"/>
<path class="bond-31 atom-31 atom-32" d="M 550.6,54.2 L 535.1,55.2" style="fill:none;fill-rule:evenodd;stroke:#000000;stroke-width:0.6px;stroke-linecap:butt;stroke-linejoin:miter;stroke-opacity:1"/>
<path class="bond-31 atom-31 atom-32" d="M 549.1,57.0 L 536.9,57.9" style="fill:none;fill-rule:evenodd;stroke:#000000;stroke-width:0.6px;stroke-linecap:butt;stroke-linejoin:miter;stroke-opacity:1"/>
<path class="bond-32 atom-7 atom-33" d="M 506.0,84.0 L 511.4,92.2" style="fill:none;fill-rule:evenodd;stroke:#000000;stroke-width:0.6px;stroke-linecap:butt;stroke-linejoin:miter;stroke-opacity:1"/>
<path class="bond-33 atom-33 atom-34" d="M 512.3,101.7 L 507.8,110.8" style="fill:none;fill-rule:evenodd;stroke:#000000;stroke-width:0.6px;stroke-linecap:butt;stroke-linejoin:miter;stroke-opacity:1"/>
<path class="bond-33 atom-33 atom-34" d="M 509.8,100.4 L 506.0,108.2" style="fill:none;fill-rule:evenodd;stroke:#000000;stroke-width:0.6px;stroke-linecap:butt;stroke-linejoin:miter;stroke-opacity:1"/>
<path class="bond-34 atom-34 atom-4" d="M 507.8,110.8 L 492.3,111.9" style="fill:none;fill-rule:evenodd;stroke:#000000;stroke-width:0.6px;stroke-linecap:butt;stroke-linejoin:miter;stroke-opacity:1"/>
<path class="bond-35 atom-32 atom-9" d="M 535.1,55.2 L 528.3,69.1" style="fill:none;fill-rule:evenodd;stroke:#000000;stroke-width:0.6px;stroke-linecap:butt;stroke-linejoin:miter;stroke-opacity:1"/>
<path class="bond-36 atom-30 atom-17" d="M 622.8,89.7 L 607.4,90.7" style="fill:none;fill-rule:evenodd;stroke:#000000;stroke-width:0.6px;stroke-linecap:butt;stroke-linejoin:miter;stroke-opacity:1"/>
<path d="M 484.9,125.8 L 485.5,125.8 L 485.8,125.1" style="fill:none;stroke:#000000;stroke-width:0.6px;stroke-linecap:butt;stroke-linejoin:miter;stroke-opacity:1;"/>
<path d="M 484.1,99.6 L 483.7,99.0 L 484.0,98.3" style="fill:none;stroke:#000000;stroke-width:0.6px;stroke-linecap:butt;stroke-linejoin:miter;stroke-opacity:1;"/>
<path d="M 490.2,85.8 L 490.5,85.1 L 491.3,85.0" style="fill:none;stroke:#000000;stroke-width:0.6px;stroke-linecap:butt;stroke-linejoin:miter;stroke-opacity:1;"/>
<path d="M 536.5,81.3 L 536.9,82.0 L 537.7,81.9" style="fill:none;stroke:#000000;stroke-width:0.6px;stroke-linecap:butt;stroke-linejoin:miter;stroke-opacity:1;"/>
<path d="M 551.6,81.0 L 552.3,80.9 L 552.7,80.2" style="fill:none;stroke:#000000;stroke-width:0.6px;stroke-linecap:butt;stroke-linejoin:miter;stroke-opacity:1;"/>
<path d="M 583.0,78.5 L 583.3,78.9 L 583.8,78.8" style="fill:none;stroke:#000000;stroke-width:0.6px;stroke-linecap:butt;stroke-linejoin:miter;stroke-opacity:1;"/>
<path d="M 600.9,103.9 L 600.5,104.6 L 601.0,105.2" style="fill:none;stroke:#000000;stroke-width:0.6px;stroke-linecap:butt;stroke-linejoin:miter;stroke-opacity:1;"/>
<path d="M 623.8,116.5 L 624.6,116.4 L 625.0,115.7" style="fill:none;stroke:#000000;stroke-width:0.6px;stroke-linecap:butt;stroke-linejoin:miter;stroke-opacity:1;"/>
<path d="M 623.3,90.3 L 622.8,89.7 L 622.0,89.7" style="fill:none;stroke:#000000;stroke-width:0.6px;stroke-linecap:butt;stroke-linejoin:miter;stroke-opacity:1;"/>
<path d="M 551.0,54.8 L 550.6,54.2 L 549.8,54.2" style="fill:none;stroke:#000000;stroke-width:0.6px;stroke-linecap:butt;stroke-linejoin:miter;stroke-opacity:1;"/>
<path d="M 535.9,55.1 L 535.1,55.2 L 534.7,55.9" style="fill:none;stroke:#000000;stroke-width:0.6px;stroke-linecap:butt;stroke-linejoin:miter;stroke-opacity:1;"/>
<path d="M 508.0,110.4 L 507.8,110.8 L 507.0,110.9" style="fill:none;stroke:#000000;stroke-width:0.6px;stroke-linecap:butt;stroke-linejoin:miter;stroke-opacity:1;"/>
<path class="atom-1" d="M 465.9 130.4 L 464.9 130.4 L 464.9 127.1 L 461.4 127.1 L 461.4 130.4 L 460.4 130.4 L 460.4 123.3 L 461.4 123.3 L 461.4 126.3 L 464.9 126.3 L 464.9 123.3 L 465.9 123.3 L 465.9 130.4 " fill="#000000"/>
<path class="atom-1" d="M 472.7 130.4 L 471.8 130.4 L 468.2 124.9 L 468.2 130.4 L 467.3 130.4 L 467.3 123.3 L 468.2 123.3 L 471.8 128.8 L 471.8 123.3 L 472.7 123.3 L 472.7 130.4 " fill="#000000"/>
<path class="atom-3" d="M 497.0 138.9 Q 497.0 140.0, 496.6 140.7 Q 496.3 141.5, 495.6 141.9 Q 495.0 142.3, 494.1 142.3 Q 493.3 142.3, 492.6 141.9 Q 492.0 141.5, 491.6 140.8 Q 491.2 140.0, 491.2 139.0 L 491.2 138.5 Q 491.2 137.4, 491.6 136.7 Q 491.9 135.9, 492.6 135.5 Q 493.3 135.0, 494.1 135.0 Q 494.9 135.0, 495.6 135.5 Q 496.3 135.9, 496.6 136.7 Q 497.0 137.4, 497.0 138.5 L 497.0 138.9 M 496.0 138.5 Q 496.0 137.2, 495.5 136.5 Q 495.0 135.8, 494.1 135.8 Q 493.2 135.8, 492.7 136.5 Q 492.2 137.2, 492.2 138.4 L 492.2 138.9 Q 492.2 140.1, 492.7 140.9 Q 493.2 141.6, 494.1 141.6 Q 495.0 141.6, 495.5 140.9 Q 496.0 140.2, 496.0 139.0 L 496.0 138.5 " fill="#000000"/>
<path class="atom-8" d="M 512.7 70.6 Q 511.5 70.2, 511.0 69.7 Q 510.4 69.2, 510.4 68.5 Q 510.4 67.6, 511.1 67.1 Q 511.8 66.5, 512.9 66.5 Q 513.6 66.5, 514.2 66.8 Q 514.7 67.1, 515.0 67.6 Q 515.4 68.1, 515.4 68.7 L 514.4 68.7 Q 514.4 68.0, 514.0 67.7 Q 513.6 67.3, 512.9 67.3 Q 512.2 67.3, 511.8 67.6 Q 511.4 67.9, 511.4 68.5 Q 511.4 68.9, 511.7 69.2 Q 512.1 69.5, 513.0 69.7 Q 513.9 70.0, 514.4 70.3 Q 514.9 70.6, 515.1 71.0 Q 515.4 71.4, 515.4 71.9 Q 515.4 72.8, 514.7 73.3 Q 514.0 73.8, 512.9 73.8 Q 512.2 73.8, 511.5 73.6 Q 510.9 73.3, 510.6 72.8 Q 510.2 72.3, 510.2 71.7 L 511.2 71.7 Q 511.2 72.3, 511.6 72.7 Q 512.1 73.1, 512.9 73.1 Q 513.6 73.1, 514.0 72.8 Q 514.4 72.5, 514.4 71.9 Q 514.4 71.4, 514.1 71.1 Q 513.7 70.9, 512.7 70.6 " fill="#000000"/>
<path class="atom-13" d="M 577.4 69.5 L 576.4 69.5 L 572.9 64.1 L 572.9 69.5 L 571.9 69.5 L 571.9 62.4 L 572.9 62.4 L 576.4 67.9 L 576.4 62.4 L 577.4 62.4 L 577.4 69.5 " fill="#000000"/>
<path class="atom-13" d="M 584.2 69.5 L 583.3 69.5 L 583.3 66.3 L 579.7 66.3 L 579.7 69.5 L 578.8 69.5 L 578.8 62.4 L 579.7 62.4 L 579.7 65.5 L 583.3 65.5 L 583.3 62.4 L 584.2 62.4 L 584.2 69.5 " fill="#000000"/>
<path class="atom-15" d="M 576.4 93.2 Q 575.2 92.9, 574.6 92.4 Q 574.1 91.8, 574.1 91.1 Q 574.1 90.3, 574.7 89.7 Q 575.4 89.2, 576.5 89.2 Q 577.2 89.2, 577.8 89.4 Q 578.4 89.7, 578.7 90.2 Q 579.0 90.7, 579.0 91.3 L 578.1 91.3 Q 578.1 90.7, 577.7 90.3 Q 577.2 89.9, 576.5 89.9 Q 575.8 89.9, 575.4 90.2 Q 575.0 90.5, 575.0 91.1 Q 575.0 91.5, 575.4 91.8 Q 575.8 92.1, 576.6 92.4 Q 577.5 92.6, 578.0 92.9 Q 578.5 93.2, 578.8 93.6 Q 579.0 94.0, 579.0 94.6 Q 579.0 95.4, 578.3 96.0 Q 577.7 96.5, 576.5 96.5 Q 575.8 96.5, 575.2 96.2 Q 574.5 95.9, 574.2 95.4 Q 573.9 94.9, 573.9 94.3 L 574.8 94.3 Q 574.8 95.0, 575.3 95.3 Q 575.7 95.7, 576.5 95.7 Q 577.3 95.7, 577.7 95.4 Q 578.1 95.1, 578.1 94.6 Q 578.1 94.1, 577.7 93.8 Q 577.3 93.5, 576.4 93.2 " fill="#000000"/>
<path class="atom-16" d="M 601.5 81.4 L 600.5 81.4 L 596.9 75.9 L 596.9 81.4 L 596.0 81.4 L 596.0 74.3 L 596.9 74.3 L 600.5 79.8 L 600.5 74.3 L 601.5 74.3 L 601.5 81.4 " fill="#000000"/>
<path class="atom-16" d="M 608.3 81.4 L 607.4 81.4 L 607.4 78.1 L 603.8 78.1 L 603.8 81.4 L 602.9 81.4 L 602.9 74.3 L 603.8 74.3 L 603.8 77.3 L 607.4 77.3 L 607.4 74.3 L 608.3 74.3 L 608.3 81.4 " fill="#000000"/>
<path class="atom-21" d="M 597.2 145.7 L 594.2 145.7 L 594.2 148.8 L 593.3 148.8 L 593.3 141.7 L 597.7 141.7 L 597.7 142.5 L 594.2 142.5 L 594.2 144.9 L 597.2 144.9 L 597.2 145.7 " fill="#000000"/>
<path class="atom-22" d="M 590.1 125.0 L 587.2 125.0 L 587.2 128.1 L 586.2 128.1 L 586.2 121.0 L 590.6 121.0 L 590.6 121.8 L 587.2 121.8 L 587.2 124.2 L 590.1 124.2 L 590.1 125.0 " fill="#000000"/>
<path class="atom-23" d="M 618.0 138.6 L 615.0 138.6 L 615.0 141.8 L 614.0 141.8 L 614.0 134.7 L 618.4 134.7 L 618.4 135.4 L 615.0 135.4 L 615.0 137.9 L 618.0 137.9 L 618.0 138.6 " fill="#000000"/>
<path class="atom-27" d="M 664.1 100.9 L 661.1 100.9 L 661.1 104.0 L 660.2 104.0 L 660.2 96.9 L 664.6 96.9 L 664.6 97.7 L 661.1 97.7 L 661.1 100.1 L 664.1 100.1 L 664.1 100.9 " fill="#000000"/>
<path class="atom-28" d="M 649.7 117.4 L 646.7 117.4 L 646.7 120.5 L 645.7 120.5 L 645.7 113.4 L 650.2 113.4 L 650.2 114.2 L 646.7 114.2 L 646.7 116.6 L 649.7 116.6 L 649.7 117.4 " fill="#000000"/>
<path class="atom-29" d="M 647.6 86.4 L 644.6 86.4 L 644.6 89.6 L 643.7 89.6 L 643.7 82.5 L 648.1 82.5 L 648.1 83.2 L 644.6 83.2 L 644.6 85.7 L 647.6 85.7 L 647.6 86.4 " fill="#000000"/>
<path class="atom-33" d="M 517.3 100.5 L 516.4 100.5 L 512.8 95.0 L 512.8 100.5 L 511.9 100.5 L 511.9 93.4 L 512.8 93.4 L 516.4 98.9 L 516.4 93.4 L 517.3 93.4 L 517.3 100.5 " fill="#000000"/>
<path class="legend" d="M 557.9 207.8 L 557.9 209.1 L 557.7 209.1 Q 556.0 209.1, 555.0 210.1 Q 554.0 211.0, 553.8 212.8 Q 554.7 211.8, 556.3 211.8 Q 557.8 211.8, 558.6 212.8 Q 559.5 213.9, 559.5 215.5 Q 559.5 217.3, 558.6 218.3 Q 557.6 219.4, 556.0 219.4 Q 554.4 219.4, 553.4 218.1 Q 552.3 216.9, 552.3 214.9 L 552.3 214.3 Q 552.3 211.2, 553.7 209.5 Q 555.0 207.9, 557.7 207.8 L 557.9 207.8 M 556.0 213.0 Q 555.3 213.0, 554.7 213.4 Q 554.0 213.9, 553.8 214.5 L 553.8 215.1 Q 553.8 216.5, 554.4 217.3 Q 555.1 218.2, 556.0 218.2 Q 557.0 218.2, 557.5 217.5 Q 558.1 216.7, 558.1 215.6 Q 558.1 214.4, 557.5 213.7 Q 557.0 213.0, 556.0 213.0 " fill="#000000"/>
<path class="legend" d="M 560.8 218.5 Q 560.8 218.1, 561.1 217.8 Q 561.3 217.6, 561.7 217.6 Q 562.2 217.6, 562.4 217.8 Q 562.6 218.1, 562.6 218.5 Q 562.6 218.8, 562.4 219.1 Q 562.2 219.3, 561.7 219.3 Q 561.3 219.3, 561.1 219.1 Q 560.8 218.8, 560.8 218.5 " fill="#000000"/>
<path class="legend" d="M 570.1 207.8 L 570.1 209.1 L 569.8 209.1 Q 568.1 209.1, 567.1 210.1 Q 566.1 211.0, 565.9 212.8 Q 566.8 211.8, 568.4 211.8 Q 569.9 211.8, 570.8 212.8 Q 571.7 213.9, 571.7 215.5 Q 571.7 217.3, 570.7 218.3 Q 569.7 219.4, 568.1 219.4 Q 566.5 219.4, 565.5 218.1 Q 564.5 216.9, 564.5 214.9 L 564.5 214.3 Q 564.5 211.2, 565.8 209.5 Q 567.1 207.9, 569.8 207.8 L 570.1 207.8 M 568.2 213.0 Q 567.4 213.0, 566.8 213.4 Q 566.2 213.9, 565.9 214.5 L 565.9 215.1 Q 565.9 216.5, 566.6 217.3 Q 567.2 218.2, 568.1 218.2 Q 569.1 218.2, 569.7 217.5 Q 570.2 216.7, 570.2 215.6 Q 570.2 214.4, 569.7 213.7 Q 569.1 213.0, 568.2 213.0 " fill="#000000"/>
</svg>