<svg xmlns="http://www.w3.org/2000/svg" xmlns:rdkit="http://www.rdkit.org/xml" xmlns:xlink="http://www.w3.org/1999/xlink" version="1.1" baseProfile="full" xml:space="preserve" width="675px" height="225px" viewBox="0 0 675 225">
<!-- END OF HEADER -->
<rect style="opacity:1.0;fill:#FFFFFF;stroke:none" width="675.0" height="225.0" x="0.0" y="0.0"> </rect>
<path class="bond-0 atom-0 atom-1" d="M 83.7,132.6 L 70.7,120.9" style="fill:none;fill-rule:evenodd;stroke:#000000;stroke-width:0.6px;stroke-linecap:butt;stroke-linejoin:miter;stroke-opacity:1"/>
<path class="bond-1 atom-1 atom-2" d="M 70.7,120.9 L 54.0,126.3" style="fill:none;fill-rule:evenodd;stroke:#000000;stroke-width:0.6px;stroke-linecap:butt;stroke-linejoin:miter;stroke-opacity:1"/>
<path class="bond-1 atom-1 atom-2" d="M 68.0,118.4 L 54.7,122.7" style="fill:none;fill-rule:evenodd;stroke:#000000;stroke-width:0.6px;stroke-linecap:butt;stroke-linejoin:miter;stroke-opacity:1"/>
<path class="bond-2 atom-2 atom-3" d="M 54.0,126.3 L 40.9,114.5" style="fill:none;fill-rule:evenodd;stroke:#000000;stroke-width:0.6px;stroke-linecap:butt;stroke-linejoin:miter;stroke-opacity:1"/>
<path class="bond-3 atom-3 atom-4" d="M 40.9,114.5 L 44.6,97.3" style="fill:none;fill-rule:evenodd;stroke:#000000;stroke-width:0.6px;stroke-linecap:butt;stroke-linejoin:miter;stroke-opacity:1"/>
<path class="bond-3 atom-3 atom-4" d="M 44.4,113.4 L 47.3,99.8" style="fill:none;fill-rule:evenodd;stroke:#000000;stroke-width:0.6px;stroke-linecap:butt;stroke-linejoin:miter;stroke-opacity:1"/>
<path class="bond-4 atom-4 atom-5" d="M 44.6,97.3 L 61.3,91.9" style="fill:none;fill-rule:evenodd;stroke:#000000;stroke-width:0.6px;stroke-linecap:butt;stroke-linejoin:miter;stroke-opacity:1"/>
<path class="bond-5 atom-5 atom-6" d="M 61.3,91.9 L 74.4,103.7" style="fill:none;fill-rule:evenodd;stroke:#000000;stroke-width:0.6px;stroke-linecap:butt;stroke-linejoin:miter;stroke-opacity:1"/>
<path class="bond-5 atom-5 atom-6" d="M 60.6,95.5 L 70.9,104.8" style="fill:none;fill-rule:evenodd;stroke:#000000;stroke-width:0.6px;stroke-linecap:butt;stroke-linejoin:miter;stroke-opacity:1"/>
<path class="bond-6 atom-6 atom-7" d="M 74.4,103.7 L 91.1,98.3" style="fill:none;fill-rule:evenodd;stroke:#000000;stroke-width:0.6px;stroke-linecap:butt;stroke-linejoin:miter;stroke-opacity:1"/>
<path class="bond-7 atom-7 atom-8" d="M 91.1,98.3 L 104.1,110.0" style="fill:none;fill-rule:evenodd;stroke:#000000;stroke-width:0.6px;stroke-linecap:butt;stroke-linejoin:miter;stroke-opacity:1"/>
<path class="bond-7 atom-7 atom-8" d="M 94.6,97.1 L 104.9,106.5" style="fill:none;fill-rule:evenodd;stroke:#000000;stroke-width:0.6px;stroke-linecap:butt;stroke-linejoin:miter;stroke-opacity:1"/>
<path class="bond-8 atom-8 atom-9" d="M 104.1,110.0 L 101.5,122.3" style="fill:none;fill-rule:evenodd;stroke:#000000;stroke-width:0.6px;stroke-linecap:butt;stroke-linejoin:miter;stroke-opacity:1"/>
<path class="bond-9 atom-8 atom-10" d="M 104.1,110.0 L 120.9,104.6" style="fill:none;fill-rule:evenodd;stroke:#000000;stroke-width:0.6px;stroke-linecap:butt;stroke-linejoin:miter;stroke-opacity:1"/>
<path class="bond-10 atom-10 atom-11" d="M 120.9,104.6 L 133.9,116.4" style="fill:none;fill-rule:evenodd;stroke:#000000;stroke-width:0.6px;stroke-linecap:butt;stroke-linejoin:miter;stroke-opacity:1"/>
<path class="bond-11 atom-11 atom-12" d="M 132.6,115.2 L 129.7,128.3" style="fill:none;fill-rule:evenodd;stroke:#000000;stroke-width:0.6px;stroke-linecap:butt;stroke-linejoin:miter;stroke-opacity:1"/>
<path class="bond-11 atom-11 atom-12" d="M 135.6,115.8 L 132.8,129.0" style="fill:none;fill-rule:evenodd;stroke:#000000;stroke-width:0.6px;stroke-linecap:butt;stroke-linejoin:miter;stroke-opacity:1"/>
<path class="bond-12 atom-11 atom-13" d="M 133.9,116.4 L 150.6,111.0" style="fill:none;fill-rule:evenodd;stroke:#000000;stroke-width:0.6px;stroke-linecap:butt;stroke-linejoin:miter;stroke-opacity:1"/>
<path class="bond-13 atom-13 atom-14" d="M 150.6,111.0 L 163.7,122.8" style="fill:none;fill-rule:evenodd;stroke:#000000;stroke-width:0.6px;stroke-linecap:butt;stroke-linejoin:miter;stroke-opacity:1"/>
<path class="bond-13 atom-13 atom-14" d="M 154.1,109.9 L 164.4,119.2" style="fill:none;fill-rule:evenodd;stroke:#000000;stroke-width:0.6px;stroke-linecap:butt;stroke-linejoin:miter;stroke-opacity:1"/>
<path class="bond-14 atom-14 atom-15" d="M 163.7,122.8 L 180.4,117.4" style="fill:none;fill-rule:evenodd;stroke:#000000;stroke-width:0.6px;stroke-linecap:butt;stroke-linejoin:miter;stroke-opacity:1"/>
<path class="bond-15 atom-15 atom-16" d="M 180.4,117.4 L 184.1,100.2" style="fill:none;fill-rule:evenodd;stroke:#000000;stroke-width:0.6px;stroke-linecap:butt;stroke-linejoin:miter;stroke-opacity:1"/>
<path class="bond-15 atom-15 atom-16" d="M 177.7,114.9 L 180.6,101.3" style="fill:none;fill-rule:evenodd;stroke:#000000;stroke-width:0.6px;stroke-linecap:butt;stroke-linejoin:miter;stroke-opacity:1"/>
<path class="bond-16 atom-16 atom-17" d="M 184.1,100.2 L 171.0,88.4" style="fill:none;fill-rule:evenodd;stroke:#000000;stroke-width:0.6px;stroke-linecap:butt;stroke-linejoin:miter;stroke-opacity:1"/>
<path class="bond-17 atom-17 atom-18" d="M 171.0,88.4 L 154.3,93.8" style="fill:none;fill-rule:evenodd;stroke:#000000;stroke-width:0.6px;stroke-linecap:butt;stroke-linejoin:miter;stroke-opacity:1"/>
<path class="bond-17 atom-17 atom-18" d="M 170.3,92.0 L 157.0,96.3" style="fill:none;fill-rule:evenodd;stroke:#000000;stroke-width:0.6px;stroke-linecap:butt;stroke-linejoin:miter;stroke-opacity:1"/>
<path class="bond-18 atom-10 atom-19" d="M 120.9,104.6 L 124.5,87.4" style="fill:none;fill-rule:evenodd;stroke:#000000;stroke-width:0.6px;stroke-linecap:butt;stroke-linejoin:miter;stroke-opacity:1"/>
<path class="bond-18 atom-10 atom-19" d="M 118.1,102.2 L 121.1,88.6" style="fill:none;fill-rule:evenodd;stroke:#000000;stroke-width:0.6px;stroke-linecap:butt;stroke-linejoin:miter;stroke-opacity:1"/>
<path class="bond-19 atom-19 atom-20" d="M 124.5,87.4 L 111.5,75.7" style="fill:none;fill-rule:evenodd;stroke:#000000;stroke-width:0.6px;stroke-linecap:butt;stroke-linejoin:miter;stroke-opacity:1"/>
<path class="bond-20 atom-20 atom-21" d="M 111.5,75.7 L 103.4,78.3" style="fill:none;fill-rule:evenodd;stroke:#000000;stroke-width:0.6px;stroke-linecap:butt;stroke-linejoin:miter;stroke-opacity:1"/>
<path class="bond-20 atom-20 atom-21" d="M 110.7,79.2 L 104.4,81.3" style="fill:none;fill-rule:evenodd;stroke:#000000;stroke-width:0.6px;stroke-linecap:butt;stroke-linejoin:miter;stroke-opacity:1"/>
<path class="bond-21 atom-21 atom-22" d="M 90.7,77.4 L 85.9,73.1" style="fill:none;fill-rule:evenodd;stroke:#000000;stroke-width:0.6px;stroke-linecap:butt;stroke-linejoin:miter;stroke-opacity:1"/>
<path class="bond-22 atom-6 atom-1" d="M 74.4,103.7 L 70.7,120.9" style="fill:none;fill-rule:evenodd;stroke:#000000;stroke-width:0.6px;stroke-linecap:butt;stroke-linejoin:miter;stroke-opacity:1"/>
<path class="bond-23 atom-21 atom-7" d="M 93.7,86.0 L 91.1,98.3" style="fill:none;fill-rule:evenodd;stroke:#000000;stroke-width:0.6px;stroke-linecap:butt;stroke-linejoin:miter;stroke-opacity:1"/>
<path class="bond-24 atom-18 atom-13" d="M 154.3,93.8 L 150.6,111.0" style="fill:none;fill-rule:evenodd;stroke:#000000;stroke-width:0.6px;stroke-linecap:butt;stroke-linejoin:miter;stroke-opacity:1"/>
<path d="M 54.8,126.0 L 54.0,126.3 L 53.3,125.7" style="fill:none;stroke:#000000;stroke-width:0.6px;stroke-linecap:butt;stroke-linejoin:miter;stroke-opacity:1;"/>
<path d="M 41.6,115.1 L 40.9,114.5 L 41.1,113.6" style="fill:none;stroke:#000000;stroke-width:0.6px;stroke-linecap:butt;stroke-linejoin:miter;stroke-opacity:1;"/>
<path d="M 44.4,98.2 L 44.6,97.3 L 45.4,97.0" style="fill:none;stroke:#000000;stroke-width:0.6px;stroke-linecap:butt;stroke-linejoin:miter;stroke-opacity:1;"/>
<path d="M 60.5,92.2 L 61.3,91.9 L 62.0,92.5" style="fill:none;stroke:#000000;stroke-width:0.6px;stroke-linecap:butt;stroke-linejoin:miter;stroke-opacity:1;"/>
<path d="M 133.3,115.8 L 133.9,116.4 L 134.7,116.1" style="fill:none;stroke:#000000;stroke-width:0.6px;stroke-linecap:butt;stroke-linejoin:miter;stroke-opacity:1;"/>
<path d="M 163.0,122.2 L 163.7,122.8 L 164.5,122.5" style="fill:none;stroke:#000000;stroke-width:0.6px;stroke-linecap:butt;stroke-linejoin:miter;stroke-opacity:1;"/>
<path d="M 179.6,117.6 L 180.4,117.4 L 180.6,116.5" style="fill:none;stroke:#000000;stroke-width:0.6px;stroke-linecap:butt;stroke-linejoin:miter;stroke-opacity:1;"/>
<path d="M 183.9,101.0 L 184.1,100.2 L 183.4,99.6" style="fill:none;stroke:#000000;stroke-width:0.6px;stroke-linecap:butt;stroke-linejoin:miter;stroke-opacity:1;"/>
<path d="M 171.7,89.0 L 171.0,88.4 L 170.2,88.7" style="fill:none;stroke:#000000;stroke-width:0.6px;stroke-linecap:butt;stroke-linejoin:miter;stroke-opacity:1;"/>
<path d="M 155.1,93.5 L 154.3,93.8 L 154.1,94.7" style="fill:none;stroke:#000000;stroke-width:0.6px;stroke-linecap:butt;stroke-linejoin:miter;stroke-opacity:1;"/>
<path d="M 124.4,88.3 L 124.5,87.4 L 123.9,86.9" style="fill:none;stroke:#000000;stroke-width:0.6px;stroke-linecap:butt;stroke-linejoin:miter;stroke-opacity:1;"/>
<path d="M 112.1,76.3 L 111.5,75.7 L 111.1,75.8" style="fill:none;stroke:#000000;stroke-width:0.6px;stroke-linecap:butt;stroke-linejoin:miter;stroke-opacity:1;"/>
<path class="atom-9" d="M 103.2 130.8 L 102.3 130.8 L 98.7 125.3 L 98.7 130.8 L 97.7 130.8 L 97.7 123.7 L 98.7 123.7 L 102.3 129.2 L 102.3 123.7 L 103.2 123.7 L 103.2 130.8 " fill="#000000"/>
<path class="atom-9" d="M 110.0 130.8 L 109.1 130.8 L 109.1 127.5 L 105.5 127.5 L 105.5 130.8 L 104.6 130.8 L 104.6 123.7 L 105.5 123.7 L 105.5 126.7 L 109.1 126.7 L 109.1 123.7 L 110.0 123.7 L 110.0 130.8 " fill="#000000"/>
<path class="atom-9" d="M 114.6 134.3 L 111.5 134.3 L 111.5 133.9 L 113.1 132.1 Q 113.5 131.7, 113.6 131.4 Q 113.7 131.2, 113.7 130.9 Q 113.7 130.5, 113.5 130.3 Q 113.3 130.1, 112.9 130.1 Q 112.5 130.1, 112.2 130.3 Q 112.0 130.6, 112.0 131.0 L 111.4 131.0 Q 111.4 130.4, 111.8 130.0 Q 112.2 129.6, 112.9 129.6 Q 113.6 129.6, 114.0 129.9 Q 114.3 130.3, 114.3 130.8 Q 114.3 131.5, 113.5 132.5 L 112.2 133.9 L 114.6 133.9 L 114.6 134.3 " fill="#000000"/>
<path class="atom-12" d="M 133.1 133.9 Q 133.1 134.9, 132.7 135.7 Q 132.4 136.5, 131.7 136.9 Q 131.1 137.3, 130.2 137.3 Q 129.4 137.3, 128.8 136.9 Q 128.1 136.5, 127.7 135.7 Q 127.4 134.9, 127.4 133.9 L 127.4 133.4 Q 127.4 132.4, 127.7 131.6 Q 128.1 130.8, 128.7 130.4 Q 129.4 130.0, 130.2 130.0 Q 131.1 130.0, 131.7 130.4 Q 132.4 130.8, 132.7 131.6 Q 133.1 132.4, 133.1 133.4 L 133.1 133.9 M 132.2 133.4 Q 132.2 132.1, 131.7 131.5 Q 131.1 130.8, 130.2 130.8 Q 129.3 130.8, 128.8 131.5 Q 128.3 132.1, 128.3 133.3 L 128.3 133.9 Q 128.3 135.1, 128.8 135.8 Q 129.3 136.5, 130.2 136.5 Q 131.1 136.5, 131.6 135.8 Q 132.1 135.2, 132.2 133.9 L 132.2 133.4 " fill="#000000"/>
<path class="atom-21" d="M 97.5 84.6 L 96.6 84.6 L 93.0 79.2 L 93.0 84.6 L 92.0 84.6 L 92.0 77.5 L 93.0 77.5 L 96.6 83.0 L 96.6 77.5 L 97.5 77.5 L 97.5 84.6 " fill="#000000"/>
<path class="atom-21" d="M 100.8 78.6 L 102.1 78.6 L 102.1 79.1 L 100.8 79.1 L 100.8 80.6 L 100.2 80.6 L 100.2 79.1 L 98.9 79.1 L 98.9 78.6 L 100.2 78.6 L 100.2 77.2 L 100.8 77.2 L 100.8 78.6 " fill="#000000"/>
<path class="atom-22" d="M 84.6 69.6 Q 84.6 70.6, 84.2 71.4 Q 83.9 72.2, 83.2 72.6 Q 82.6 73.0, 81.7 73.0 Q 80.9 73.0, 80.2 72.6 Q 79.6 72.2, 79.2 71.4 Q 78.9 70.7, 78.9 69.7 L 78.9 69.1 Q 78.9 68.1, 79.2 67.3 Q 79.6 66.5, 80.2 66.1 Q 80.9 65.7, 81.7 65.7 Q 82.6 65.7, 83.2 66.1 Q 83.9 66.5, 84.2 67.3 Q 84.6 68.1, 84.6 69.1 L 84.6 69.6 M 83.6 69.1 Q 83.6 67.9, 83.1 67.2 Q 82.6 66.5, 81.7 66.5 Q 80.8 66.5, 80.3 67.2 Q 79.8 67.9, 79.8 69.1 L 79.8 69.6 Q 79.8 70.8, 80.3 71.5 Q 80.8 72.2, 81.7 72.2 Q 82.6 72.2, 83.1 71.6 Q 83.6 70.9, 83.6 69.7 L 83.6 69.1 " fill="#000000"/>
<path class="atom-22" d="M 87.1 67.5 L 85.6 67.5 L 85.6 67.0 L 87.1 67.0 L 87.1 67.5 " fill="#000000"/>
<path class="legend" d="M 107.4 207.8 L 107.4 209.1 L 107.1 209.1 Q 105.4 209.1, 104.4 210.1 Q 103.4 211.0, 103.3 212.8 Q 104.2 211.8, 105.7 211.8 Q 107.2 211.8, 108.1 212.8 Q 109.0 213.9, 109.0 215.5 Q 109.0 217.3, 108.0 218.3 Q 107.1 219.4, 105.5 219.4 Q 103.8 219.4, 102.8 218.1 Q 101.8 216.9, 101.8 214.9 L 101.8 214.3 Q 101.8 211.2, 103.1 209.5 Q 104.5 207.9, 107.1 207.8 L 107.4 207.8 M 105.5 213.0 Q 104.7 213.0, 104.1 213.4 Q 103.5 213.9, 103.3 214.5 L 103.3 215.1 Q 103.3 216.5, 103.9 217.3 Q 104.5 218.2, 105.5 218.2 Q 106.4 218.2, 107.0 217.5 Q 107.6 216.7, 107.6 215.6 Q 107.6 214.4, 107.0 213.7 Q 106.4 213.0, 105.5 213.0 " fill="#000000"/>
<path class="legend" d="M 110.3 218.5 Q 110.3 218.1, 110.5 217.8 Q 110.8 217.6, 111.2 217.6 Q 111.7 217.6, 111.9 217.8 Q 112.1 218.1, 112.1 218.5 Q 112.1 218.8, 111.9 219.1 Q 111.7 219.3, 111.2 219.3 Q 110.8 219.3, 110.5 219.1 Q 110.3 218.8, 110.3 218.5 " fill="#000000"/>
<path class="legend" d="M 120.6 215.4 L 122.2 215.4 L 122.2 216.6 L 120.6 216.6 L 120.6 219.2 L 119.2 219.2 L 119.2 216.6 L 114.0 216.6 L 114.0 215.7 L 119.1 207.8 L 120.6 207.8 L 120.6 215.4 M 115.6 215.4 L 119.2 215.4 L 119.2 209.8 L 119.0 210.1 L 115.6 215.4 " fill="#000000"/>
<path class="bond-0 atom-0 atom-1" d="M 291.7,129.6 L 303.6,124.2" style="fill:none;fill-rule:evenodd;stroke:#000000;stroke-width:0.6px;stroke-linecap:butt;stroke-linejoin:miter;stroke-opacity:1"/>
<path class="bond-0 atom-0 atom-1" d="M 290.4,126.8 L 302.3,121.3" style="fill:none;fill-rule:evenodd;stroke:#000000;stroke-width:0.6px;stroke-linecap:butt;stroke-linejoin:miter;stroke-opacity:1"/>
<path class="bond-0 atom-0 atom-1" d="M 293.0,132.5 L 304.9,127.0" style="fill:none;fill-rule:evenodd;stroke:#000000;stroke-width:0.6px;stroke-linecap:butt;stroke-linejoin:miter;stroke-opacity:1"/>
<path class="bond-1 atom-1 atom-2" d="M 303.6,124.2 L 319.5,116.8" style="fill:none;fill-rule:evenodd;stroke:#000000;stroke-width:0.6px;stroke-linecap:butt;stroke-linejoin:miter;stroke-opacity:1"/>
<path class="bond-2 atom-2 atom-3" d="M 319.5,116.8 L 321.1,99.3" style="fill:none;fill-rule:evenodd;stroke:#000000;stroke-width:0.6px;stroke-linecap:butt;stroke-linejoin:miter;stroke-opacity:1"/>
<path class="bond-2 atom-2 atom-3" d="M 322.9,115.3 L 324.1,101.4" style="fill:none;fill-rule:evenodd;stroke:#000000;stroke-width:0.6px;stroke-linecap:butt;stroke-linejoin:miter;stroke-opacity:1"/>
<path class="bond-3 atom-3 atom-4" d="M 321.1,99.3 L 306.8,89.2" style="fill:none;fill-rule:evenodd;stroke:#000000;stroke-width:0.6px;stroke-linecap:butt;stroke-linejoin:miter;stroke-opacity:1"/>
<path class="bond-4 atom-4 atom-5" d="M 306.8,89.2 L 308.4,71.7" style="fill:none;fill-rule:evenodd;stroke:#000000;stroke-width:0.6px;stroke-linecap:butt;stroke-linejoin:miter;stroke-opacity:1"/>
<path class="bond-4 atom-4 atom-5" d="M 303.8,87.1 L 305.1,73.2" style="fill:none;fill-rule:evenodd;stroke:#000000;stroke-width:0.6px;stroke-linecap:butt;stroke-linejoin:miter;stroke-opacity:1"/>
<path class="bond-5 atom-5 atom-6" d="M 308.4,71.7 L 294.0,61.5" style="fill:none;fill-rule:evenodd;stroke:#000000;stroke-width:0.6px;stroke-linecap:butt;stroke-linejoin:miter;stroke-opacity:1"/>
<path class="bond-6 atom-6 atom-7" d="M 294.0,61.5 L 278.1,68.9" style="fill:none;fill-rule:evenodd;stroke:#000000;stroke-width:0.6px;stroke-linecap:butt;stroke-linejoin:miter;stroke-opacity:1"/>
<path class="bond-6 atom-6 atom-7" d="M 293.7,65.2 L 281.1,71.0" style="fill:none;fill-rule:evenodd;stroke:#000000;stroke-width:0.6px;stroke-linecap:butt;stroke-linejoin:miter;stroke-opacity:1"/>
<path class="bond-7 atom-7 atom-8" d="M 278.1,68.9 L 265.5,60.0" style="fill:none;fill-rule:evenodd;stroke:#000000;stroke-width:0.6px;stroke-linecap:butt;stroke-linejoin:miter;stroke-opacity:1"/>
<path class="bond-8 atom-7 atom-9" d="M 278.1,68.9 L 276.5,86.4" style="fill:none;fill-rule:evenodd;stroke:#000000;stroke-width:0.6px;stroke-linecap:butt;stroke-linejoin:miter;stroke-opacity:1"/>
<path class="bond-9 atom-9 atom-10" d="M 276.5,86.4 L 262.3,92.9" style="fill:none;fill-rule:evenodd;stroke:#000000;stroke-width:0.6px;stroke-linecap:butt;stroke-linejoin:miter;stroke-opacity:1"/>
<path class="bond-10 atom-9 atom-11" d="M 276.5,86.4 L 290.8,96.5" style="fill:none;fill-rule:evenodd;stroke:#000000;stroke-width:0.6px;stroke-linecap:butt;stroke-linejoin:miter;stroke-opacity:1"/>
<path class="bond-10 atom-9 atom-11" d="M 279.8,84.9 L 291.2,92.9" style="fill:none;fill-rule:evenodd;stroke:#000000;stroke-width:0.6px;stroke-linecap:butt;stroke-linejoin:miter;stroke-opacity:1"/>
<path class="bond-11 atom-3 atom-12" d="M 321.1,99.3 L 337.1,91.9" style="fill:none;fill-rule:evenodd;stroke:#000000;stroke-width:0.6px;stroke-linecap:butt;stroke-linejoin:miter;stroke-opacity:1"/>
<path class="bond-12 atom-12 atom-13" d="M 337.1,91.9 L 351.5,102.1" style="fill:none;fill-rule:evenodd;stroke:#000000;stroke-width:0.6px;stroke-linecap:butt;stroke-linejoin:miter;stroke-opacity:1"/>
<path class="bond-12 atom-12 atom-13" d="M 336.8,95.6 L 348.1,103.6" style="fill:none;fill-rule:evenodd;stroke:#000000;stroke-width:0.6px;stroke-linecap:butt;stroke-linejoin:miter;stroke-opacity:1"/>
<path class="bond-13 atom-13 atom-14" d="M 351.5,102.1 L 367.4,94.7" style="fill:none;fill-rule:evenodd;stroke:#000000;stroke-width:0.6px;stroke-linecap:butt;stroke-linejoin:miter;stroke-opacity:1"/>
<path class="bond-14 atom-14 atom-15" d="M 367.4,94.7 L 381.8,104.8" style="fill:none;fill-rule:evenodd;stroke:#000000;stroke-width:0.6px;stroke-linecap:butt;stroke-linejoin:miter;stroke-opacity:1"/>
<path class="bond-14 atom-14 atom-15" d="M 370.7,93.2 L 382.1,101.2" style="fill:none;fill-rule:evenodd;stroke:#000000;stroke-width:0.6px;stroke-linecap:butt;stroke-linejoin:miter;stroke-opacity:1"/>
<path class="bond-15 atom-15 atom-16" d="M 381.8,104.8 L 397.7,97.5" style="fill:none;fill-rule:evenodd;stroke:#000000;stroke-width:0.6px;stroke-linecap:butt;stroke-linejoin:miter;stroke-opacity:1"/>
<path class="bond-16 atom-16 atom-17" d="M 397.7,97.5 L 399.3,80.0" style="fill:none;fill-rule:evenodd;stroke:#000000;stroke-width:0.6px;stroke-linecap:butt;stroke-linejoin:miter;stroke-opacity:1"/>
<path class="bond-16 atom-16 atom-17" d="M 394.7,95.4 L 396.0,81.5" style="fill:none;fill-rule:evenodd;stroke:#000000;stroke-width:0.6px;stroke-linecap:butt;stroke-linejoin:miter;stroke-opacity:1"/>
<path class="bond-17 atom-17 atom-18" d="M 399.3,80.0 L 411.5,74.4" style="fill:none;fill-rule:evenodd;stroke:#000000;stroke-width:0.6px;stroke-linecap:butt;stroke-linejoin:miter;stroke-opacity:1"/>
<path class="bond-18 atom-17 atom-19" d="M 399.3,80.0 L 385.0,69.8" style="fill:none;fill-rule:evenodd;stroke:#000000;stroke-width:0.6px;stroke-linecap:butt;stroke-linejoin:miter;stroke-opacity:1"/>
<path class="bond-19 atom-19 atom-20" d="M 385.0,69.8 L 369.0,77.2" style="fill:none;fill-rule:evenodd;stroke:#000000;stroke-width:0.6px;stroke-linecap:butt;stroke-linejoin:miter;stroke-opacity:1"/>
<path class="bond-19 atom-19 atom-20" d="M 384.6,73.5 L 372.0,79.3" style="fill:none;fill-rule:evenodd;stroke:#000000;stroke-width:0.6px;stroke-linecap:butt;stroke-linejoin:miter;stroke-opacity:1"/>
<path class="bond-20 atom-13 atom-21" d="M 351.5,102.1 L 350.3,114.7" style="fill:none;fill-rule:evenodd;stroke:#000000;stroke-width:0.6px;stroke-linecap:butt;stroke-linejoin:miter;stroke-opacity:1"/>
<path class="bond-21 atom-21 atom-22" d="M 345.8,121.5 L 333.9,126.9" style="fill:none;fill-rule:evenodd;stroke:#000000;stroke-width:0.6px;stroke-linecap:butt;stroke-linejoin:miter;stroke-opacity:1"/>
<path class="bond-22 atom-22 atom-23" d="M 332.4,125.9 L 331.2,139.4" style="fill:none;fill-rule:evenodd;stroke:#000000;stroke-width:0.6px;stroke-linecap:butt;stroke-linejoin:miter;stroke-opacity:1"/>
<path class="bond-22 atom-22 atom-23" d="M 335.6,126.2 L 334.3,139.7" style="fill:none;fill-rule:evenodd;stroke:#000000;stroke-width:0.6px;stroke-linecap:butt;stroke-linejoin:miter;stroke-opacity:1"/>
<path class="bond-23 atom-22 atom-2" d="M 333.9,126.9 L 319.5,116.8" style="fill:none;fill-rule:evenodd;stroke:#000000;stroke-width:0.6px;stroke-linecap:butt;stroke-linejoin:miter;stroke-opacity:1"/>
<path class="bond-24 atom-11 atom-4" d="M 290.8,96.5 L 306.8,89.2" style="fill:none;fill-rule:evenodd;stroke:#000000;stroke-width:0.6px;stroke-linecap:butt;stroke-linejoin:miter;stroke-opacity:1"/>
<path class="bond-25 atom-20 atom-14" d="M 369.0,77.2 L 367.4,94.7" style="fill:none;fill-rule:evenodd;stroke:#000000;stroke-width:0.6px;stroke-linecap:butt;stroke-linejoin:miter;stroke-opacity:1"/>
<path d="M 303.0,124.4 L 303.6,124.2 L 304.4,123.8" style="fill:none;stroke:#000000;stroke-width:0.6px;stroke-linecap:butt;stroke-linejoin:miter;stroke-opacity:1;"/>
<path d="M 308.3,72.5 L 308.4,71.7 L 307.7,71.2" style="fill:none;stroke:#000000;stroke-width:0.6px;stroke-linecap:butt;stroke-linejoin:miter;stroke-opacity:1;"/>
<path d="M 294.7,62.0 L 294.0,61.5 L 293.2,61.9" style="fill:none;stroke:#000000;stroke-width:0.6px;stroke-linecap:butt;stroke-linejoin:miter;stroke-opacity:1;"/>
<path d="M 290.1,96.0 L 290.8,96.5 L 291.6,96.2" style="fill:none;stroke:#000000;stroke-width:0.6px;stroke-linecap:butt;stroke-linejoin:miter;stroke-opacity:1;"/>
<path d="M 336.3,92.3 L 337.1,91.9 L 337.8,92.4" style="fill:none;stroke:#000000;stroke-width:0.6px;stroke-linecap:butt;stroke-linejoin:miter;stroke-opacity:1;"/>
<path d="M 381.0,104.3 L 381.8,104.8 L 382.6,104.5" style="fill:none;stroke:#000000;stroke-width:0.6px;stroke-linecap:butt;stroke-linejoin:miter;stroke-opacity:1;"/>
<path d="M 396.9,97.8 L 397.7,97.5 L 397.8,96.6" style="fill:none;stroke:#000000;stroke-width:0.6px;stroke-linecap:butt;stroke-linejoin:miter;stroke-opacity:1;"/>
<path d="M 385.7,70.3 L 385.0,69.8 L 384.2,70.2" style="fill:none;stroke:#000000;stroke-width:0.6px;stroke-linecap:butt;stroke-linejoin:miter;stroke-opacity:1;"/>
<path d="M 369.8,76.8 L 369.0,77.2 L 368.9,78.1" style="fill:none;stroke:#000000;stroke-width:0.6px;stroke-linecap:butt;stroke-linejoin:miter;stroke-opacity:1;"/>
<path d="M 334.5,126.7 L 333.9,126.9 L 333.2,126.4" style="fill:none;stroke:#000000;stroke-width:0.6px;stroke-linecap:butt;stroke-linejoin:miter;stroke-opacity:1;"/>
<path class="atom-0" d="M 290.4 135.1 L 289.4 135.1 L 285.8 129.6 L 285.8 135.1 L 284.9 135.1 L 284.9 128.0 L 285.8 128.0 L 289.4 133.5 L 289.4 128.0 L 290.4 128.0 L 290.4 135.1 " fill="#000000"/>
<path class="atom-8" d="M 262.5 60.2 Q 262.4 61.4, 261.7 62.0 Q 261.0 62.6, 259.8 62.6 Q 258.5 62.6, 257.8 61.7 Q 257.0 60.8, 257.0 59.3 L 257.0 58.6 Q 257.0 57.6, 257.4 56.9 Q 257.7 56.1, 258.4 55.7 Q 259.0 55.3, 259.9 55.3 Q 261.0 55.3, 261.7 55.9 Q 262.4 56.6, 262.5 57.7 L 261.5 57.7 Q 261.4 56.8, 261.0 56.5 Q 260.6 56.1, 259.9 56.1 Q 259.0 56.1, 258.5 56.7 Q 258.0 57.4, 258.0 58.6 L 258.0 59.3 Q 258.0 60.5, 258.4 61.2 Q 258.9 61.8, 259.8 61.8 Q 260.6 61.8, 261.0 61.5 Q 261.4 61.1, 261.5 60.2 L 262.5 60.2 " fill="#000000"/>
<path class="atom-8" d="M 264.2 62.5 L 263.3 62.5 L 263.3 55.0 L 264.2 55.0 L 264.2 62.5 " fill="#000000"/>
<path class="atom-10" d="M 259.3 95.3 Q 259.2 96.4, 258.5 97.0 Q 257.8 97.6, 256.6 97.6 Q 255.3 97.6, 254.6 96.7 Q 253.8 95.8, 253.8 94.3 L 253.8 93.6 Q 253.8 92.6, 254.2 91.9 Q 254.5 91.1, 255.2 90.7 Q 255.8 90.3, 256.7 90.3 Q 257.8 90.3, 258.5 90.9 Q 259.2 91.6, 259.3 92.7 L 258.3 92.7 Q 258.2 91.8, 257.8 91.5 Q 257.4 91.1, 256.7 91.1 Q 255.8 91.1, 255.3 91.7 Q 254.8 92.4, 254.8 93.6 L 254.8 94.3 Q 254.8 95.5, 255.2 96.2 Q 255.7 96.8, 256.6 96.8 Q 257.4 96.8, 257.8 96.5 Q 258.2 96.1, 258.3 95.3 L 259.3 95.3 " fill="#000000"/>
<path class="atom-10" d="M 261.0 97.5 L 260.1 97.5 L 260.1 90.0 L 261.0 90.0 L 261.0 97.5 " fill="#000000"/>
<path class="atom-18" d="M 412.9 76.2 L 412.9 69.1 L 415.2 69.1 Q 416.3 69.1, 416.9 69.5 Q 417.5 70.0, 417.5 71.0 Q 417.5 71.5, 417.2 71.8 Q 416.9 72.2, 416.5 72.4 Q 417.0 72.6, 417.4 73.0 Q 417.7 73.5, 417.7 74.1 Q 417.7 75.1, 417.1 75.6 Q 416.5 76.2, 415.3 76.2 L 412.9 76.2 M 413.8 72.8 L 413.8 75.4 L 415.3 75.4 Q 416.0 75.4, 416.4 75.1 Q 416.8 74.7, 416.8 74.1 Q 416.8 72.8, 415.4 72.8 L 413.8 72.8 M 413.8 72.1 L 415.2 72.1 Q 415.8 72.1, 416.2 71.8 Q 416.6 71.5, 416.6 70.9 Q 416.6 70.4, 416.2 70.1 Q 415.9 69.8, 415.2 69.8 L 413.8 69.8 L 413.8 72.1 " fill="#000000"/>
<path class="atom-18" d="M 421.2 71.7 Q 421.0 71.7, 420.7 71.7 Q 419.9 71.7, 419.5 72.4 L 419.5 76.2 L 418.6 76.2 L 418.6 70.9 L 419.5 70.9 L 419.5 71.5 Q 420.0 70.8, 420.8 70.8 Q 421.0 70.8, 421.2 70.9 L 421.2 71.7 " fill="#000000"/>
<path class="atom-21" d="M 352.6 123.1 L 351.6 123.1 L 348.1 117.7 L 348.1 123.1 L 347.1 123.1 L 347.1 116.0 L 348.1 116.0 L 351.7 121.5 L 351.7 116.0 L 352.6 116.0 L 352.6 123.1 " fill="#000000"/>
<path class="atom-21" d="M 359.4 123.1 L 358.5 123.1 L 358.5 119.8 L 354.9 119.8 L 354.9 123.1 L 354.0 123.1 L 354.0 116.0 L 354.9 116.0 L 354.9 119.1 L 358.5 119.1 L 358.5 116.0 L 359.4 116.0 L 359.4 123.1 " fill="#000000"/>
<path class="atom-23" d="M 335.0 148.0 L 334.1 148.0 L 330.5 142.5 L 330.5 148.0 L 329.6 148.0 L 329.6 140.9 L 330.5 140.9 L 334.1 146.4 L 334.1 140.9 L 335.0 140.9 L 335.0 148.0 " fill="#000000"/>
<path class="atom-23" d="M 341.9 148.0 L 340.9 148.0 L 340.9 144.7 L 337.4 144.7 L 337.4 148.0 L 336.4 148.0 L 336.4 140.9 L 337.4 140.9 L 337.4 143.9 L 340.9 143.9 L 340.9 140.9 L 341.9 140.9 L 341.9 148.0 " fill="#000000"/>
<path class="legend" d="M 333.0 207.8 L 333.0 209.1 L 332.7 209.1 Q 331.0 209.1, 330.0 210.1 Q 329.0 211.0, 328.8 212.8 Q 329.7 211.8, 331.3 211.8 Q 332.8 211.8, 333.7 212.8 Q 334.6 213.9, 334.6 215.5 Q 334.6 217.3, 333.6 218.3 Q 332.6 219.4, 331.0 219.4 Q 329.4 219.4, 328.4 218.1 Q 327.4 216.9, 327.4 214.9 L 327.4 214.3 Q 327.4 211.2, 328.7 209.5 Q 330.0 207.9, 332.7 207.8 L 333.0 207.8 M 331.1 213.0 Q 330.3 213.0, 329.7 213.4 Q 329.1 213.9, 328.8 214.5 L 328.8 215.1 Q 328.8 216.5, 329.5 217.3 Q 330.1 218.2, 331.0 218.2 Q 332.0 218.2, 332.6 217.5 Q 333.1 216.7, 333.1 215.6 Q 333.1 214.4, 332.6 213.7 Q 332.0 213.0, 331.1 213.0 " fill="#000000"/>
<path class="legend" d="M 335.9 218.5 Q 335.9 218.1, 336.1 217.8 Q 336.3 217.6, 336.7 217.6 Q 337.2 217.6, 337.4 217.8 Q 337.7 218.1, 337.7 218.5 Q 337.7 218.8, 337.4 219.1 Q 337.2 219.3, 336.7 219.3 Q 336.3 219.3, 336.1 219.1 Q 335.9 218.8, 335.9 218.5 " fill="#000000"/>
<path class="legend" d="M 345.2 214.2 Q 344.7 214.8, 344.1 215.1 Q 343.5 215.4, 342.7 215.4 Q 341.7 215.4, 341.0 214.9 Q 340.3 214.4, 339.9 213.6 Q 339.5 212.7, 339.5 211.6 Q 339.5 210.5, 339.9 209.6 Q 340.3 208.7, 341.1 208.2 Q 341.9 207.7, 343.0 207.7 Q 344.7 207.7, 345.7 209.0 Q 346.6 210.2, 346.6 212.4 L 346.6 212.8 Q 346.6 216.1, 345.3 217.7 Q 344.0 219.2, 341.4 219.2 L 341.1 219.2 L 341.1 218.0 L 341.4 218.0 Q 343.2 218.0, 344.1 217.1 Q 345.1 216.2, 345.2 214.2 M 343.0 214.2 Q 343.7 214.2, 344.3 213.8 Q 344.9 213.3, 345.2 212.7 L 345.2 212.1 Q 345.2 210.7, 344.6 209.8 Q 344.0 208.9, 343.0 208.9 Q 342.1 208.9, 341.5 209.6 Q 340.9 210.4, 340.9 211.5 Q 340.9 212.7, 341.5 213.5 Q 342.0 214.2, 343.0 214.2 " fill="#000000"/>
<path class="bond-0 atom-0 atom-1" d="M 551.2,28.5 L 551.7,41.1" style="fill:none;fill-rule:evenodd;stroke:#000000;stroke-width:0.6px;stroke-linecap:butt;stroke-linejoin:miter;stroke-opacity:1"/>
<path class="bond-1 atom-1 atom-2" d="M 547.8,44.6 L 538.4,44.9" style="fill:none;fill-rule:evenodd;stroke:#000000;stroke-width:0.6px;stroke-linecap:butt;stroke-linejoin:miter;stroke-opacity:1"/>
<path class="bond-1 atom-1 atom-2" d="M 547.9,47.7 L 538.5,48.0" style="fill:none;fill-rule:evenodd;stroke:#000000;stroke-width:0.6px;stroke-linecap:butt;stroke-linejoin:miter;stroke-opacity:1"/>
<path class="bond-2 atom-1 atom-3" d="M 555.8,47.5 L 565.2,47.2" style="fill:none;fill-rule:evenodd;stroke:#000000;stroke-width:0.6px;stroke-linecap:butt;stroke-linejoin:miter;stroke-opacity:1"/>
<path class="bond-2 atom-1 atom-3" d="M 555.7,44.3 L 565.1,44.0" style="fill:none;fill-rule:evenodd;stroke:#000000;stroke-width:0.6px;stroke-linecap:butt;stroke-linejoin:miter;stroke-opacity:1"/>
<path class="bond-3 atom-1 atom-4" d="M 552.0,51.1 L 552.2,58.7" style="fill:none;fill-rule:evenodd;stroke:#000000;stroke-width:0.6px;stroke-linecap:butt;stroke-linejoin:miter;stroke-opacity:1"/>
<path class="bond-4 atom-4 atom-5" d="M 556.5,65.8 L 567.9,71.9" style="fill:none;fill-rule:evenodd;stroke:#000000;stroke-width:0.6px;stroke-linecap:butt;stroke-linejoin:miter;stroke-opacity:1"/>
<path class="bond-5 atom-5 atom-6" d="M 567.9,71.9 L 568.5,89.4" style="fill:none;fill-rule:evenodd;stroke:#000000;stroke-width:0.6px;stroke-linecap:butt;stroke-linejoin:miter;stroke-opacity:1"/>
<path class="bond-6 atom-6 atom-7" d="M 568.5,89.4 L 553.6,98.7" style="fill:none;fill-rule:evenodd;stroke:#000000;stroke-width:0.6px;stroke-linecap:butt;stroke-linejoin:miter;stroke-opacity:1"/>
<path class="bond-7 atom-7 atom-8" d="M 553.6,98.7 L 554.0,111.4" style="fill:none;fill-rule:evenodd;stroke:#000000;stroke-width:0.6px;stroke-linecap:butt;stroke-linejoin:miter;stroke-opacity:1"/>
<path class="bond-8 atom-8 atom-9" d="M 550.0,118.8 L 539.2,125.6" style="fill:none;fill-rule:evenodd;stroke:#000000;stroke-width:0.6px;stroke-linecap:butt;stroke-linejoin:miter;stroke-opacity:1"/>
<path class="bond-9 atom-9 atom-10" d="M 540.8,124.6 L 528.7,118.1" style="fill:none;fill-rule:evenodd;stroke:#000000;stroke-width:0.6px;stroke-linecap:butt;stroke-linejoin:miter;stroke-opacity:1"/>
<path class="bond-9 atom-9 atom-10" d="M 539.3,127.4 L 527.2,120.9" style="fill:none;fill-rule:evenodd;stroke:#000000;stroke-width:0.6px;stroke-linecap:butt;stroke-linejoin:miter;stroke-opacity:1"/>
<path class="bond-10 atom-9 atom-11" d="M 539.2,125.6 L 539.8,143.1" style="fill:none;fill-rule:evenodd;stroke:#000000;stroke-width:0.6px;stroke-linecap:butt;stroke-linejoin:miter;stroke-opacity:1"/>
<path class="bond-11 atom-11 atom-12" d="M 539.8,143.1 L 529.1,149.8" style="fill:none;fill-rule:evenodd;stroke:#000000;stroke-width:0.6px;stroke-linecap:butt;stroke-linejoin:miter;stroke-opacity:1"/>
<path class="bond-12 atom-12 atom-13" d="M 520.7,150.2 L 509.4,144.1" style="fill:none;fill-rule:evenodd;stroke:#000000;stroke-width:0.6px;stroke-linecap:butt;stroke-linejoin:miter;stroke-opacity:1"/>
<path class="bond-13 atom-13 atom-14" d="M 509.4,144.1 L 508.8,126.6" style="fill:none;fill-rule:evenodd;stroke:#000000;stroke-width:0.6px;stroke-linecap:butt;stroke-linejoin:miter;stroke-opacity:1"/>
<path class="bond-13 atom-13 atom-14" d="M 506.1,142.4 L 505.7,128.5" style="fill:none;fill-rule:evenodd;stroke:#000000;stroke-width:0.6px;stroke-linecap:butt;stroke-linejoin:miter;stroke-opacity:1"/>
<path class="bond-14 atom-14 atom-15" d="M 508.8,126.6 L 493.3,118.3" style="fill:none;fill-rule:evenodd;stroke:#000000;stroke-width:0.6px;stroke-linecap:butt;stroke-linejoin:miter;stroke-opacity:1"/>
<path class="bond-15 atom-15 atom-16" d="M 493.3,118.3 L 478.4,127.6" style="fill:none;fill-rule:evenodd;stroke:#000000;stroke-width:0.6px;stroke-linecap:butt;stroke-linejoin:miter;stroke-opacity:1"/>
<path class="bond-15 atom-15 atom-16" d="M 493.4,121.9 L 481.6,129.3" style="fill:none;fill-rule:evenodd;stroke:#000000;stroke-width:0.6px;stroke-linecap:butt;stroke-linejoin:miter;stroke-opacity:1"/>
<path class="bond-16 atom-16 atom-17" d="M 478.4,127.6 L 466.4,121.2" style="fill:none;fill-rule:evenodd;stroke:#000000;stroke-width:0.6px;stroke-linecap:butt;stroke-linejoin:miter;stroke-opacity:1"/>
<path class="bond-17 atom-16 atom-18" d="M 478.4,127.6 L 478.9,145.1" style="fill:none;fill-rule:evenodd;stroke:#000000;stroke-width:0.6px;stroke-linecap:butt;stroke-linejoin:miter;stroke-opacity:1"/>
<path class="bond-18 atom-18 atom-19" d="M 478.9,145.1 L 494.4,153.4" style="fill:none;fill-rule:evenodd;stroke:#000000;stroke-width:0.6px;stroke-linecap:butt;stroke-linejoin:miter;stroke-opacity:1"/>
<path class="bond-18 atom-18 atom-19" d="M 482.0,143.2 L 494.3,149.8" style="fill:none;fill-rule:evenodd;stroke:#000000;stroke-width:0.6px;stroke-linecap:butt;stroke-linejoin:miter;stroke-opacity:1"/>
<path class="bond-19 atom-19 atom-20" d="M 494.4,153.4 L 494.9,166.1" style="fill:none;fill-rule:evenodd;stroke:#000000;stroke-width:0.6px;stroke-linecap:butt;stroke-linejoin:miter;stroke-opacity:1"/>
<path class="bond-20 atom-11 atom-21" d="M 539.8,143.1 L 555.3,151.4" style="fill:none;fill-rule:evenodd;stroke:#000000;stroke-width:0.6px;stroke-linecap:butt;stroke-linejoin:miter;stroke-opacity:1"/>
<path class="bond-20 atom-11 atom-21" d="M 542.9,141.2 L 555.2,147.8" style="fill:none;fill-rule:evenodd;stroke:#000000;stroke-width:0.6px;stroke-linecap:butt;stroke-linejoin:miter;stroke-opacity:1"/>
<path class="bond-21 atom-21 atom-22" d="M 555.3,151.4 L 570.2,142.1" style="fill:none;fill-rule:evenodd;stroke:#000000;stroke-width:0.6px;stroke-linecap:butt;stroke-linejoin:miter;stroke-opacity:1"/>
<path class="bond-22 atom-22 atom-23" d="M 570.2,142.1 L 585.7,150.4" style="fill:none;fill-rule:evenodd;stroke:#000000;stroke-width:0.6px;stroke-linecap:butt;stroke-linejoin:miter;stroke-opacity:1"/>
<path class="bond-22 atom-22 atom-23" d="M 573.3,140.2 L 585.6,146.8" style="fill:none;fill-rule:evenodd;stroke:#000000;stroke-width:0.6px;stroke-linecap:butt;stroke-linejoin:miter;stroke-opacity:1"/>
<path class="bond-23 atom-23 atom-24" d="M 585.7,150.4 L 596.5,143.7" style="fill:none;fill-rule:evenodd;stroke:#000000;stroke-width:0.6px;stroke-linecap:butt;stroke-linejoin:miter;stroke-opacity:1"/>
<path class="bond-24 atom-24 atom-25" d="M 600.5,136.2 L 600.1,123.6" style="fill:none;fill-rule:evenodd;stroke:#000000;stroke-width:0.6px;stroke-linecap:butt;stroke-linejoin:miter;stroke-opacity:1"/>
<path class="bond-24 atom-24 atom-25" d="M 597.3,136.3 L 597.0,125.5" style="fill:none;fill-rule:evenodd;stroke:#000000;stroke-width:0.6px;stroke-linecap:butt;stroke-linejoin:miter;stroke-opacity:1"/>
<path class="bond-25 atom-25 atom-26" d="M 600.1,123.6 L 610.9,116.8" style="fill:none;fill-rule:evenodd;stroke:#000000;stroke-width:0.6px;stroke-linecap:butt;stroke-linejoin:miter;stroke-opacity:1"/>
<path class="bond-26 atom-26 atom-27" d="M 619.1,116.5 L 630.5,122.6" style="fill:none;fill-rule:evenodd;stroke:#000000;stroke-width:0.6px;stroke-linecap:butt;stroke-linejoin:miter;stroke-opacity:1"/>
<path class="bond-27 atom-27 atom-28" d="M 630.5,122.6 L 631.1,140.1" style="fill:none;fill-rule:evenodd;stroke:#000000;stroke-width:0.6px;stroke-linecap:butt;stroke-linejoin:miter;stroke-opacity:1"/>
<path class="bond-28 atom-28 atom-29" d="M 631.1,140.1 L 646.6,148.4" style="fill:none;fill-rule:evenodd;stroke:#000000;stroke-width:0.6px;stroke-linecap:butt;stroke-linejoin:miter;stroke-opacity:1"/>
<path class="bond-29 atom-29 atom-30" d="M 646.6,148.4 L 657.3,141.8" style="fill:none;fill-rule:evenodd;stroke:#000000;stroke-width:0.6px;stroke-linecap:butt;stroke-linejoin:miter;stroke-opacity:1"/>
<path class="bond-30 atom-30 atom-31" d="M 661.3,134.2 L 660.9,121.6" style="fill:none;fill-rule:evenodd;stroke:#000000;stroke-width:0.6px;stroke-linecap:butt;stroke-linejoin:miter;stroke-opacity:1"/>
<path class="bond-31 atom-31 atom-32" d="M 660.9,121.6 L 645.4,113.3" style="fill:none;fill-rule:evenodd;stroke:#000000;stroke-width:0.6px;stroke-linecap:butt;stroke-linejoin:miter;stroke-opacity:1"/>
<path class="bond-32 atom-25 atom-33" d="M 600.1,123.6 L 588.6,117.5" style="fill:none;fill-rule:evenodd;stroke:#000000;stroke-width:0.6px;stroke-linecap:butt;stroke-linejoin:miter;stroke-opacity:1"/>
<path class="bond-33 atom-33 atom-34" d="M 580.5,117.8 L 569.6,124.6" style="fill:none;fill-rule:evenodd;stroke:#000000;stroke-width:0.6px;stroke-linecap:butt;stroke-linejoin:miter;stroke-opacity:1"/>
<path class="bond-33 atom-33 atom-34" d="M 582.1,120.5 L 572.9,126.3" style="fill:none;fill-rule:evenodd;stroke:#000000;stroke-width:0.6px;stroke-linecap:butt;stroke-linejoin:miter;stroke-opacity:1"/>
<path class="bond-34 atom-7 atom-35" d="M 553.6,98.7 L 538.1,90.4" style="fill:none;fill-rule:evenodd;stroke:#000000;stroke-width:0.6px;stroke-linecap:butt;stroke-linejoin:miter;stroke-opacity:1"/>
<path class="bond-35 atom-35 atom-36" d="M 538.1,90.4 L 537.5,72.9" style="fill:none;fill-rule:evenodd;stroke:#000000;stroke-width:0.6px;stroke-linecap:butt;stroke-linejoin:miter;stroke-opacity:1"/>
<path class="bond-36 atom-36 atom-4" d="M 537.5,72.9 L 548.3,66.1" style="fill:none;fill-rule:evenodd;stroke:#000000;stroke-width:0.6px;stroke-linecap:butt;stroke-linejoin:miter;stroke-opacity:1"/>
<path class="bond-37 atom-34 atom-8" d="M 569.6,124.6 L 558.2,118.5" style="fill:none;fill-rule:evenodd;stroke:#000000;stroke-width:0.6px;stroke-linecap:butt;stroke-linejoin:miter;stroke-opacity:1"/>
<path class="bond-38 atom-19 atom-13" d="M 494.4,153.4 L 509.4,144.1" style="fill:none;fill-rule:evenodd;stroke:#000000;stroke-width:0.6px;stroke-linecap:butt;stroke-linejoin:miter;stroke-opacity:1"/>
<path class="bond-39 atom-34 atom-22" d="M 569.6,124.6 L 570.2,142.1" style="fill:none;fill-rule:evenodd;stroke:#000000;stroke-width:0.6px;stroke-linecap:butt;stroke-linejoin:miter;stroke-opacity:1"/>
<path class="bond-40 atom-32 atom-27" d="M 645.4,113.3 L 630.5,122.6" style="fill:none;fill-rule:evenodd;stroke:#000000;stroke-width:0.6px;stroke-linecap:butt;stroke-linejoin:miter;stroke-opacity:1"/>
<path d="M 567.3,71.6 L 567.9,71.9 L 567.9,72.8" style="fill:none;stroke:#000000;stroke-width:0.6px;stroke-linecap:butt;stroke-linejoin:miter;stroke-opacity:1;"/>
<path d="M 568.5,88.6 L 568.5,89.4 L 567.7,89.9" style="fill:none;stroke:#000000;stroke-width:0.6px;stroke-linecap:butt;stroke-linejoin:miter;stroke-opacity:1;"/>
<path d="M 539.8,125.2 L 539.2,125.6 L 539.2,126.4" style="fill:none;stroke:#000000;stroke-width:0.6px;stroke-linecap:butt;stroke-linejoin:miter;stroke-opacity:1;"/>
<path d="M 508.8,127.4 L 508.8,126.6 L 508.0,126.2" style="fill:none;stroke:#000000;stroke-width:0.6px;stroke-linecap:butt;stroke-linejoin:miter;stroke-opacity:1;"/>
<path d="M 494.1,118.7 L 493.3,118.3 L 492.5,118.8" style="fill:none;stroke:#000000;stroke-width:0.6px;stroke-linecap:butt;stroke-linejoin:miter;stroke-opacity:1;"/>
<path d="M 478.9,144.3 L 478.9,145.1 L 479.7,145.5" style="fill:none;stroke:#000000;stroke-width:0.6px;stroke-linecap:butt;stroke-linejoin:miter;stroke-opacity:1;"/>
<path d="M 554.5,151.0 L 555.3,151.4 L 556.0,151.0" style="fill:none;stroke:#000000;stroke-width:0.6px;stroke-linecap:butt;stroke-linejoin:miter;stroke-opacity:1;"/>
<path d="M 584.9,150.0 L 585.7,150.4 L 586.3,150.1" style="fill:none;stroke:#000000;stroke-width:0.6px;stroke-linecap:butt;stroke-linejoin:miter;stroke-opacity:1;"/>
<path d="M 631.0,139.3 L 631.1,140.1 L 631.8,140.6" style="fill:none;stroke:#000000;stroke-width:0.6px;stroke-linecap:butt;stroke-linejoin:miter;stroke-opacity:1;"/>
<path d="M 645.8,148.0 L 646.6,148.4 L 647.1,148.1" style="fill:none;stroke:#000000;stroke-width:0.6px;stroke-linecap:butt;stroke-linejoin:miter;stroke-opacity:1;"/>
<path d="M 660.9,122.2 L 660.9,121.6 L 660.1,121.2" style="fill:none;stroke:#000000;stroke-width:0.6px;stroke-linecap:butt;stroke-linejoin:miter;stroke-opacity:1;"/>
<path d="M 646.2,113.7 L 645.4,113.3 L 644.7,113.8" style="fill:none;stroke:#000000;stroke-width:0.6px;stroke-linecap:butt;stroke-linejoin:miter;stroke-opacity:1;"/>
<path d="M 538.8,90.9 L 538.1,90.4 L 538.0,89.6" style="fill:none;stroke:#000000;stroke-width:0.6px;stroke-linecap:butt;stroke-linejoin:miter;stroke-opacity:1;"/>
<path d="M 537.5,73.8 L 537.5,72.9 L 538.0,72.5" style="fill:none;stroke:#000000;stroke-width:0.6px;stroke-linecap:butt;stroke-linejoin:miter;stroke-opacity:1;"/>
<path class="atom-1" d="M 551.8 46.5 Q 550.6 46.1, 550.0 45.6 Q 549.5 45.1, 549.5 44.4 Q 549.5 43.5, 550.1 43.0 Q 550.8 42.4, 551.9 42.4 Q 552.6 42.4, 553.2 42.7 Q 553.8 43.0, 554.1 43.5 Q 554.4 44.0, 554.4 44.6 L 553.5 44.6 Q 553.5 43.9, 553.0 43.6 Q 552.6 43.2, 551.9 43.2 Q 551.2 43.2, 550.8 43.5 Q 550.4 43.8, 550.4 44.3 Q 550.4 44.8, 550.8 45.1 Q 551.2 45.4, 552.0 45.6 Q 552.9 45.9, 553.4 46.2 Q 553.9 46.5, 554.2 46.9 Q 554.4 47.3, 554.4 47.8 Q 554.4 48.7, 553.7 49.2 Q 553.1 49.7, 551.9 49.7 Q 551.2 49.7, 550.6 49.5 Q 549.9 49.2, 549.6 48.7 Q 549.2 48.2, 549.2 47.6 L 550.2 47.6 Q 550.2 48.2, 550.7 48.6 Q 551.1 49.0, 551.9 49.0 Q 552.7 49.0, 553.1 48.7 Q 553.5 48.4, 553.5 47.8 Q 553.5 47.3, 553.1 47.0 Q 552.7 46.7, 551.8 46.5 " fill="#000000"/>
<path class="atom-2" d="M 537.1 46.9 Q 537.1 47.9, 536.8 48.7 Q 536.4 49.5, 535.8 49.9 Q 535.1 50.3, 534.3 50.3 Q 533.4 50.3, 532.8 49.9 Q 532.1 49.5, 531.8 48.7 Q 531.4 48.0, 531.4 46.9 L 531.4 46.4 Q 531.4 45.4, 531.8 44.6 Q 532.1 43.8, 532.8 43.4 Q 533.4 43.0, 534.3 43.0 Q 535.1 43.0, 535.8 43.4 Q 536.4 43.8, 536.8 44.6 Q 537.1 45.4, 537.1 46.4 L 537.1 46.9 M 536.2 46.4 Q 536.2 45.2, 535.7 44.5 Q 535.2 43.8, 534.3 43.8 Q 533.4 43.8, 532.9 44.5 Q 532.4 45.2, 532.3 46.4 L 532.3 46.9 Q 532.3 48.1, 532.8 48.8 Q 533.4 49.5, 534.3 49.5 Q 535.2 49.5, 535.7 48.9 Q 536.2 48.2, 536.2 47.0 L 536.2 46.4 " fill="#000000"/>
<path class="atom-3" d="M 572.3 45.7 Q 572.3 46.8, 571.9 47.6 Q 571.5 48.3, 570.9 48.7 Q 570.3 49.2, 569.4 49.2 Q 568.6 49.2, 567.9 48.7 Q 567.3 48.3, 566.9 47.6 Q 566.5 46.8, 566.5 45.8 L 566.5 45.3 Q 566.5 44.3, 566.9 43.5 Q 567.2 42.7, 567.9 42.3 Q 568.5 41.8, 569.4 41.8 Q 570.2 41.8, 570.9 42.3 Q 571.5 42.7, 571.9 43.5 Q 572.3 44.2, 572.3 45.3 L 572.3 45.7 M 571.3 45.3 Q 571.3 44.0, 570.8 43.3 Q 570.3 42.7, 569.4 42.7 Q 568.5 42.7, 568.0 43.3 Q 567.5 44.0, 567.5 45.2 L 567.5 45.7 Q 567.5 47.0, 568.0 47.7 Q 568.5 48.4, 569.4 48.4 Q 570.3 48.4, 570.8 47.7 Q 571.3 47.0, 571.3 45.8 L 571.3 45.3 " fill="#000000"/>
<path class="atom-4" d="M 555.1 67.1 L 554.2 67.1 L 550.6 61.7 L 550.6 67.1 L 549.7 67.1 L 549.7 60.0 L 550.6 60.0 L 554.2 65.5 L 554.2 60.0 L 555.1 60.0 L 555.1 67.1 " fill="#000000"/>
<path class="atom-8" d="M 556.9 119.8 L 555.9 119.8 L 552.3 114.4 L 552.3 119.8 L 551.4 119.8 L 551.4 112.7 L 552.3 112.7 L 555.9 118.2 L 555.9 112.7 L 556.9 112.7 L 556.9 119.8 " fill="#000000"/>
<path class="atom-10" d="M 526.6 117.6 Q 526.6 118.6, 526.2 119.4 Q 525.9 120.2, 525.2 120.6 Q 524.6 121.0, 523.7 121.0 Q 522.9 121.0, 522.2 120.6 Q 521.6 120.2, 521.2 119.4 Q 520.9 118.6, 520.9 117.6 L 520.9 117.1 Q 520.9 116.1, 521.2 115.3 Q 521.6 114.5, 522.2 114.1 Q 522.9 113.7, 523.7 113.7 Q 524.6 113.7, 525.2 114.1 Q 525.9 114.5, 526.2 115.3 Q 526.6 116.1, 526.6 117.1 L 526.6 117.6 M 525.6 117.1 Q 525.6 115.8, 525.1 115.2 Q 524.6 114.5, 523.7 114.5 Q 522.8 114.5, 522.3 115.2 Q 521.8 115.8, 521.8 117.0 L 521.8 117.6 Q 521.8 118.8, 522.3 119.5 Q 522.8 120.2, 523.7 120.2 Q 524.6 120.2, 525.1 119.5 Q 525.6 118.9, 525.6 117.6 L 525.6 117.1 " fill="#000000"/>
<path class="atom-12" d="M 527.7 152.7 Q 527.7 153.7, 527.4 154.5 Q 527.0 155.3, 526.4 155.7 Q 525.7 156.1, 524.9 156.1 Q 524.0 156.1, 523.4 155.7 Q 522.7 155.3, 522.4 154.5 Q 522.0 153.8, 522.0 152.8 L 522.0 152.2 Q 522.0 151.2, 522.4 150.4 Q 522.7 149.6, 523.4 149.2 Q 524.0 148.8, 524.9 148.8 Q 525.7 148.8, 526.4 149.2 Q 527.0 149.6, 527.4 150.4 Q 527.7 151.2, 527.7 152.2 L 527.7 152.7 M 526.8 152.2 Q 526.8 151.0, 526.3 150.3 Q 525.8 149.6, 524.9 149.6 Q 524.0 149.6, 523.5 150.3 Q 523.0 151.0, 522.9 152.2 L 522.9 152.7 Q 522.9 153.9, 523.4 154.6 Q 524.0 155.3, 524.9 155.3 Q 525.8 155.3, 526.3 154.7 Q 526.8 154.0, 526.8 152.8 L 526.8 152.2 " fill="#000000"/>
<path class="atom-17" d="M 464.6 119.7 L 461.6 119.7 L 461.6 122.8 L 460.7 122.8 L 460.7 115.7 L 465.1 115.7 L 465.1 116.5 L 461.6 116.5 L 461.6 118.9 L 464.6 118.9 L 464.6 119.7 " fill="#000000"/>
<path class="atom-20" d="M 496.7 171.4 L 493.8 171.4 L 493.8 174.5 L 492.8 174.5 L 492.8 167.4 L 497.2 167.4 L 497.2 168.2 L 493.8 168.2 L 493.8 170.6 L 496.7 170.6 L 496.7 171.4 " fill="#000000"/>
<path class="atom-24" d="M 603.4 144.7 L 602.4 144.7 L 598.8 139.2 L 598.8 144.7 L 597.9 144.7 L 597.9 137.6 L 598.8 137.6 L 602.4 143.1 L 602.4 137.6 L 603.4 137.6 L 603.4 144.7 " fill="#000000"/>
<path class="atom-26" d="M 617.7 117.8 L 616.8 117.8 L 613.2 112.4 L 613.2 117.8 L 612.2 117.8 L 612.2 110.7 L 613.2 110.7 L 616.8 116.2 L 616.8 110.7 L 617.7 110.7 L 617.7 117.8 " fill="#000000"/>
<path class="atom-26" d="M 617.7 110.0 L 616.8 110.0 L 616.8 106.7 L 613.2 106.7 L 613.2 110.0 L 612.2 110.0 L 612.2 102.9 L 613.2 102.9 L 613.2 106.0 L 616.8 106.0 L 616.8 102.9 L 617.7 102.9 L 617.7 110.0 " fill="#000000"/>
<path class="atom-30" d="M 664.3 139.4 Q 664.3 140.5, 664.0 141.2 Q 663.6 142.0, 663.0 142.4 Q 662.3 142.8, 661.5 142.8 Q 660.6 142.8, 660.0 142.4 Q 659.3 142.0, 659.0 141.3 Q 658.6 140.5, 658.6 139.5 L 658.6 139.0 Q 658.6 137.9, 659.0 137.2 Q 659.3 136.4, 660.0 136.0 Q 660.6 135.5, 661.5 135.5 Q 662.3 135.5, 663.0 136.0 Q 663.6 136.4, 664.0 137.1 Q 664.3 137.9, 664.3 139.0 L 664.3 139.4 M 663.4 139.0 Q 663.4 137.7, 662.9 137.0 Q 662.4 136.3, 661.5 136.3 Q 660.6 136.3, 660.1 137.0 Q 659.6 137.7, 659.6 138.9 L 659.6 139.4 Q 659.6 140.6, 660.1 141.3 Q 660.6 142.0, 661.5 142.0 Q 662.4 142.0, 662.9 141.4 Q 663.4 140.7, 663.4 139.5 L 663.4 139.0 " fill="#000000"/>
<path class="atom-33" d="M 587.3 118.8 L 586.3 118.8 L 582.8 113.4 L 582.8 118.8 L 581.8 118.8 L 581.8 111.7 L 582.8 111.7 L 586.4 117.2 L 586.4 111.7 L 587.3 111.7 L 587.3 118.8 " fill="#000000"/>
<path class="legend" d="M 557.9 214.2 Q 557.5 214.8, 556.8 215.1 Q 556.2 215.4, 555.5 215.4 Q 554.5 215.4, 553.8 214.9 Q 553.0 214.4, 552.6 213.6 Q 552.2 212.7, 552.2 211.6 Q 552.2 210.5, 552.7 209.6 Q 553.1 208.7, 553.9 208.2 Q 554.7 207.7, 555.8 207.7 Q 557.4 207.7, 558.4 209.0 Q 559.4 210.2, 559.4 212.4 L 559.4 212.8 Q 559.4 216.1, 558.1 217.7 Q 556.8 219.2, 554.1 219.2 L 553.8 219.2 L 553.8 218.0 L 554.1 218.0 Q 555.9 218.0, 556.9 217.1 Q 557.8 216.2, 557.9 214.2 M 555.7 214.2 Q 556.4 214.2, 557.0 213.8 Q 557.7 213.3, 557.9 212.7 L 557.9 212.1 Q 557.9 210.7, 557.3 209.8 Q 556.7 208.9, 555.8 208.9 Q 554.8 208.9, 554.2 209.6 Q 553.6 210.4, 553.6 211.5 Q 553.6 212.7, 554.2 213.5 Q 554.8 214.2, 555.7 214.2 " fill="#000000"/>
<path class="legend" d="M 561.0 218.5 Q 561.0 218.1, 561.2 217.8 Q 561.4 217.6, 561.9 217.6 Q 562.3 217.6, 562.5 217.8 Q 562.8 218.1, 562.8 218.5 Q 562.8 218.8, 562.5 219.1 Q 562.3 219.3, 561.9 219.3 Q 561.4 219.3, 561.2 219.1 Q 561.0 218.8, 561.0 218.5 " fill="#000000"/>
<path class="legend" d="M 571.8 214.4 Q 571.8 216.9, 570.9 218.1 Q 570.0 219.4, 568.2 219.4 Q 566.4 219.4, 565.5 218.2 Q 564.6 217.0, 564.6 214.6 L 564.6 212.6 Q 564.6 210.1, 565.5 208.9 Q 566.3 207.7, 568.2 207.7 Q 570.0 207.7, 570.9 208.9 Q 571.7 210.0, 571.8 212.5 L 571.8 214.4 M 570.3 212.4 Q 570.3 210.6, 569.8 209.7 Q 569.3 208.9, 568.2 208.9 Q 567.1 208.9, 566.6 209.7 Q 566.1 210.5, 566.0 212.3 L 566.0 214.6 Q 566.0 216.4, 566.6 217.3 Q 567.1 218.2, 568.2 218.2 Q 569.3 218.2, 569.8 217.4 Q 570.3 216.5, 570.3 214.8 L 570.3 212.4 " fill="#000000"/>
</svg>