<svg xmlns="http://www.w3.org/2000/svg" xmlns:rdkit="http://www.rdkit.org/xml" xmlns:xlink="http://www.w3.org/1999/xlink" version="1.1" baseProfile="full" xml:space="preserve" width="675px" height="225px" viewBox="0 0 675 225">
<!-- END OF HEADER -->
<rect style="opacity:1.0;fill:#FFFFFF;stroke:none" width="675.0" height="225.0" x="0.0" y="0.0"> </rect>
<path class="bond-0 atom-0 atom-1" d="M 95.7,120.8 L 96.0,109.1" style="fill:none;fill-rule:evenodd;stroke:#000000;stroke-width:0.6px;stroke-linecap:butt;stroke-linejoin:miter;stroke-opacity:1"/>
<path class="bond-0 atom-0 atom-1" d="M 98.6,120.9 L 98.8,109.2" style="fill:none;fill-rule:evenodd;stroke:#000000;stroke-width:0.6px;stroke-linecap:butt;stroke-linejoin:miter;stroke-opacity:1"/>
<path class="bond-1 atom-1 atom-2" d="M 97.4,109.9 L 107.2,104.6" style="fill:none;fill-rule:evenodd;stroke:#000000;stroke-width:0.6px;stroke-linecap:butt;stroke-linejoin:miter;stroke-opacity:1"/>
<path class="bond-2 atom-2 atom-3" d="M 115.1,104.8 L 124.6,110.6" style="fill:none;fill-rule:evenodd;stroke:#000000;stroke-width:0.6px;stroke-linecap:butt;stroke-linejoin:miter;stroke-opacity:1"/>
<path class="bond-3 atom-3 atom-4" d="M 124.6,110.6 L 138.4,103.0" style="fill:none;fill-rule:evenodd;stroke:#000000;stroke-width:0.6px;stroke-linecap:butt;stroke-linejoin:miter;stroke-opacity:1"/>
<path class="bond-4 atom-4 atom-5" d="M 138.4,103.0 L 151.8,111.2" style="fill:none;fill-rule:evenodd;stroke:#000000;stroke-width:0.6px;stroke-linecap:butt;stroke-linejoin:miter;stroke-opacity:1"/>
<path class="bond-4 atom-4 atom-5" d="M 141.3,101.5 L 151.9,107.9" style="fill:none;fill-rule:evenodd;stroke:#000000;stroke-width:0.6px;stroke-linecap:butt;stroke-linejoin:miter;stroke-opacity:1"/>
<path class="bond-5 atom-5 atom-6" d="M 151.8,111.2 L 165.6,103.7" style="fill:none;fill-rule:evenodd;stroke:#000000;stroke-width:0.6px;stroke-linecap:butt;stroke-linejoin:miter;stroke-opacity:1"/>
<path class="bond-6 atom-6 atom-7" d="M 165.6,103.7 L 166.0,87.9" style="fill:none;fill-rule:evenodd;stroke:#000000;stroke-width:0.6px;stroke-linecap:butt;stroke-linejoin:miter;stroke-opacity:1"/>
<path class="bond-6 atom-6 atom-7" d="M 162.8,102.0 L 163.1,89.5" style="fill:none;fill-rule:evenodd;stroke:#000000;stroke-width:0.6px;stroke-linecap:butt;stroke-linejoin:miter;stroke-opacity:1"/>
<path class="bond-7 atom-7 atom-8" d="M 166.0,87.9 L 175.8,82.6" style="fill:none;fill-rule:evenodd;stroke:#000000;stroke-width:0.6px;stroke-linecap:butt;stroke-linejoin:miter;stroke-opacity:1"/>
<path class="bond-8 atom-7 atom-9" d="M 166.0,87.9 L 152.5,79.8" style="fill:none;fill-rule:evenodd;stroke:#000000;stroke-width:0.6px;stroke-linecap:butt;stroke-linejoin:miter;stroke-opacity:1"/>
<path class="bond-9 atom-9 atom-10" d="M 152.5,79.8 L 138.8,87.3" style="fill:none;fill-rule:evenodd;stroke:#000000;stroke-width:0.6px;stroke-linecap:butt;stroke-linejoin:miter;stroke-opacity:1"/>
<path class="bond-9 atom-9 atom-10" d="M 152.5,83.0 L 141.5,89.0" style="fill:none;fill-rule:evenodd;stroke:#000000;stroke-width:0.6px;stroke-linecap:butt;stroke-linejoin:miter;stroke-opacity:1"/>
<path class="bond-10 atom-10 atom-11" d="M 138.8,87.3 L 127.0,80.2" style="fill:none;fill-rule:evenodd;stroke:#000000;stroke-width:0.6px;stroke-linecap:butt;stroke-linejoin:miter;stroke-opacity:1"/>
<path class="bond-11 atom-1 atom-12" d="M 97.4,109.9 L 84.0,101.8" style="fill:none;fill-rule:evenodd;stroke:#000000;stroke-width:0.6px;stroke-linecap:butt;stroke-linejoin:miter;stroke-opacity:1"/>
<path class="bond-12 atom-12 atom-13" d="M 84.0,101.8 L 84.3,86.1" style="fill:none;fill-rule:evenodd;stroke:#000000;stroke-width:0.6px;stroke-linecap:butt;stroke-linejoin:miter;stroke-opacity:1"/>
<path class="bond-13 atom-13 atom-14" d="M 84.3,86.1 L 70.9,77.9" style="fill:none;fill-rule:evenodd;stroke:#000000;stroke-width:0.6px;stroke-linecap:butt;stroke-linejoin:miter;stroke-opacity:1"/>
<path class="bond-13 atom-13 atom-14" d="M 81.5,87.6 L 70.8,81.1" style="fill:none;fill-rule:evenodd;stroke:#000000;stroke-width:0.6px;stroke-linecap:butt;stroke-linejoin:miter;stroke-opacity:1"/>
<path class="bond-14 atom-14 atom-15" d="M 70.9,77.9 L 57.1,85.4" style="fill:none;fill-rule:evenodd;stroke:#000000;stroke-width:0.6px;stroke-linecap:butt;stroke-linejoin:miter;stroke-opacity:1"/>
<path class="bond-15 atom-15 atom-16" d="M 58.5,84.6 L 48.5,78.5" style="fill:none;fill-rule:evenodd;stroke:#000000;stroke-width:0.6px;stroke-linecap:butt;stroke-linejoin:miter;stroke-opacity:1"/>
<path class="bond-15 atom-15 atom-16" d="M 57.1,87.1 L 47.0,80.9" style="fill:none;fill-rule:evenodd;stroke:#000000;stroke-width:0.6px;stroke-linecap:butt;stroke-linejoin:miter;stroke-opacity:1"/>
<path class="bond-16 atom-15 atom-17" d="M 57.1,85.4 L 56.9,96.4" style="fill:none;fill-rule:evenodd;stroke:#000000;stroke-width:0.6px;stroke-linecap:butt;stroke-linejoin:miter;stroke-opacity:1"/>
<path class="bond-17 atom-17 atom-18" d="M 60.7,103.5 L 70.2,109.3" style="fill:none;fill-rule:evenodd;stroke:#000000;stroke-width:0.6px;stroke-linecap:butt;stroke-linejoin:miter;stroke-opacity:1"/>
<path class="bond-18 atom-10 atom-4" d="M 138.8,87.3 L 138.4,103.0" style="fill:none;fill-rule:evenodd;stroke:#000000;stroke-width:0.6px;stroke-linecap:butt;stroke-linejoin:miter;stroke-opacity:1"/>
<path class="bond-19 atom-18 atom-12" d="M 70.2,109.3 L 84.0,101.8" style="fill:none;fill-rule:evenodd;stroke:#000000;stroke-width:0.6px;stroke-linecap:butt;stroke-linejoin:miter;stroke-opacity:1"/>
<path class="bond-19 atom-18 atom-12" d="M 70.3,106.0 L 81.2,100.1" style="fill:none;fill-rule:evenodd;stroke:#000000;stroke-width:0.6px;stroke-linecap:butt;stroke-linejoin:miter;stroke-opacity:1"/>
<path d="M 97.9,109.7 L 97.4,109.9 L 96.7,109.5" style="fill:none;stroke:#000000;stroke-width:0.6px;stroke-linecap:butt;stroke-linejoin:miter;stroke-opacity:1;"/>
<path d="M 124.1,110.3 L 124.6,110.6 L 125.3,110.2" style="fill:none;stroke:#000000;stroke-width:0.6px;stroke-linecap:butt;stroke-linejoin:miter;stroke-opacity:1;"/>
<path d="M 151.1,110.8 L 151.8,111.2 L 152.5,110.8" style="fill:none;stroke:#000000;stroke-width:0.6px;stroke-linecap:butt;stroke-linejoin:miter;stroke-opacity:1;"/>
<path d="M 164.9,104.0 L 165.6,103.7 L 165.6,102.9" style="fill:none;stroke:#000000;stroke-width:0.6px;stroke-linecap:butt;stroke-linejoin:miter;stroke-opacity:1;"/>
<path d="M 153.2,80.2 L 152.5,79.8 L 151.9,80.1" style="fill:none;stroke:#000000;stroke-width:0.6px;stroke-linecap:butt;stroke-linejoin:miter;stroke-opacity:1;"/>
<path d="M 84.3,86.8 L 84.3,86.1 L 83.7,85.6" style="fill:none;stroke:#000000;stroke-width:0.6px;stroke-linecap:butt;stroke-linejoin:miter;stroke-opacity:1;"/>
<path d="M 71.6,78.3 L 70.9,77.9 L 70.2,78.3" style="fill:none;stroke:#000000;stroke-width:0.6px;stroke-linecap:butt;stroke-linejoin:miter;stroke-opacity:1;"/>
<path d="M 57.8,85.0 L 57.1,85.4 L 57.1,86.0" style="fill:none;stroke:#000000;stroke-width:0.6px;stroke-linecap:butt;stroke-linejoin:miter;stroke-opacity:1;"/>
<path d="M 69.7,109.0 L 70.2,109.3 L 70.9,108.9" style="fill:none;stroke:#000000;stroke-width:0.6px;stroke-linecap:butt;stroke-linejoin:miter;stroke-opacity:1;"/>
<path class="atom-0" d="M 99.9 125.9 Q 99.9 127.0, 99.5 127.8 Q 99.2 128.5, 98.5 128.9 Q 97.9 129.3, 97.0 129.3 Q 96.2 129.3, 95.5 128.9 Q 94.9 128.5, 94.5 127.8 Q 94.2 127.0, 94.2 126.0 L 94.2 125.5 Q 94.2 124.5, 94.5 123.7 Q 94.9 122.9, 95.5 122.5 Q 96.2 122.0, 97.0 122.0 Q 97.9 122.0, 98.5 122.5 Q 99.2 122.9, 99.5 123.7 Q 99.9 124.4, 99.9 125.5 L 99.9 125.9 M 99.0 125.5 Q 99.0 124.2, 98.4 123.5 Q 97.9 122.8, 97.0 122.8 Q 96.1 122.8, 95.6 123.5 Q 95.1 124.2, 95.1 125.4 L 95.1 125.9 Q 95.1 127.2, 95.6 127.9 Q 96.1 128.6, 97.0 128.6 Q 97.9 128.6, 98.4 127.9 Q 98.9 127.2, 99.0 126.0 L 99.0 125.5 " fill="#000000"/>
<path class="atom-2" d="M 113.9 105.9 L 113.0 105.9 L 109.4 100.5 L 109.4 105.9 L 108.4 105.9 L 108.4 98.8 L 109.4 98.8 L 113.0 104.3 L 113.0 98.8 L 113.9 98.8 L 113.9 105.9 " fill="#000000"/>
<path class="atom-2" d="M 113.9 98.1 L 113.0 98.1 L 113.0 94.8 L 109.4 94.8 L 109.4 98.1 L 108.4 98.1 L 108.4 91.0 L 109.4 91.0 L 109.4 94.1 L 113.0 94.1 L 113.0 91.0 L 113.9 91.0 L 113.9 98.1 " fill="#000000"/>
<path class="atom-8" d="M 182.5 81.9 Q 182.4 83.0, 181.7 83.6 Q 181.0 84.2, 179.8 84.2 Q 178.5 84.2, 177.8 83.3 Q 177.0 82.4, 177.0 80.9 L 177.0 80.2 Q 177.0 79.3, 177.4 78.5 Q 177.7 77.7, 178.4 77.3 Q 179.0 76.9, 179.9 76.9 Q 181.0 76.9, 181.7 77.6 Q 182.4 78.2, 182.5 79.3 L 181.5 79.3 Q 181.4 78.5, 181.0 78.1 Q 180.6 77.7, 179.9 77.7 Q 179.0 77.7, 178.5 78.4 Q 178.0 79.0, 178.0 80.3 L 178.0 81.0 Q 178.0 82.1, 178.4 82.8 Q 178.9 83.5, 179.8 83.5 Q 180.6 83.5, 181.0 83.1 Q 181.4 82.8, 181.5 81.9 L 182.5 81.9 " fill="#000000"/>
<path class="atom-8" d="M 184.2 84.1 L 183.3 84.1 L 183.3 76.6 L 184.2 76.6 L 184.2 84.1 " fill="#000000"/>
<path class="atom-11" d="M 124.1 80.6 Q 124.0 81.8, 123.3 82.4 Q 122.6 83.0, 121.4 83.0 Q 120.1 83.0, 119.4 82.1 Q 118.6 81.2, 118.6 79.7 L 118.6 79.0 Q 118.6 78.0, 119.0 77.2 Q 119.3 76.5, 120.0 76.1 Q 120.6 75.7, 121.5 75.7 Q 122.6 75.7, 123.3 76.3 Q 124.0 76.9, 124.1 78.1 L 123.2 78.1 Q 123.0 77.2, 122.6 76.8 Q 122.2 76.5, 121.5 76.5 Q 120.6 76.5, 120.1 77.1 Q 119.6 77.8, 119.6 79.0 L 119.6 79.7 Q 119.6 80.9, 120.1 81.5 Q 120.5 82.2, 121.4 82.2 Q 122.2 82.2, 122.6 81.9 Q 123.0 81.5, 123.2 80.6 L 124.1 80.6 " fill="#000000"/>
<path class="atom-11" d="M 125.8 82.9 L 124.9 82.9 L 124.9 75.4 L 125.8 75.4 L 125.8 82.9 " fill="#000000"/>
<path class="atom-16" d="M 46.6 77.5 Q 46.6 78.6, 46.2 79.4 Q 45.8 80.1, 45.2 80.5 Q 44.6 81.0, 43.7 81.0 Q 42.9 81.0, 42.2 80.5 Q 41.6 80.1, 41.2 79.4 Q 40.8 78.6, 40.8 77.6 L 40.8 77.1 Q 40.8 76.1, 41.2 75.3 Q 41.5 74.5, 42.2 74.1 Q 42.8 73.7, 43.7 73.7 Q 44.5 73.7, 45.2 74.1 Q 45.8 74.5, 46.2 75.3 Q 46.6 76.0, 46.6 77.1 L 46.6 77.5 M 45.6 77.1 Q 45.6 75.8, 45.1 75.1 Q 44.6 74.5, 43.7 74.5 Q 42.8 74.5, 42.3 75.1 Q 41.8 75.8, 41.8 77.0 L 41.8 77.5 Q 41.8 78.8, 42.3 79.5 Q 42.8 80.2, 43.7 80.2 Q 44.6 80.2, 45.1 79.5 Q 45.6 78.8, 45.6 77.6 L 45.6 77.1 " fill="#000000"/>
<path class="atom-17" d="M 52.6 104.7 L 51.7 104.7 L 51.7 101.4 L 48.1 101.4 L 48.1 104.7 L 47.2 104.7 L 47.2 97.6 L 48.1 97.6 L 48.1 100.6 L 51.7 100.6 L 51.7 97.6 L 52.6 97.6 L 52.6 104.7 " fill="#000000"/>
<path class="atom-17" d="M 59.5 104.7 L 58.5 104.7 L 55.0 99.2 L 55.0 104.7 L 54.0 104.7 L 54.0 97.6 L 55.0 97.6 L 58.6 103.1 L 58.6 97.6 L 59.5 97.6 L 59.5 104.7 " fill="#000000"/>
<path class="legend" d="M 107.4 207.8 L 107.4 209.1 L 107.1 209.1 Q 105.4 209.1, 104.4 210.1 Q 103.4 211.0, 103.3 212.8 Q 104.2 211.8, 105.7 211.8 Q 107.2 211.8, 108.1 212.8 Q 109.0 213.9, 109.0 215.5 Q 109.0 217.3, 108.0 218.3 Q 107.1 219.4, 105.5 219.4 Q 103.8 219.4, 102.8 218.1 Q 101.8 216.9, 101.8 214.9 L 101.8 214.3 Q 101.8 211.2, 103.1 209.5 Q 104.5 207.9, 107.1 207.8 L 107.4 207.8 M 105.5 213.0 Q 104.7 213.0, 104.1 213.4 Q 103.5 213.9, 103.3 214.5 L 103.3 215.1 Q 103.3 216.5, 103.9 217.3 Q 104.5 218.2, 105.5 218.2 Q 106.4 218.2, 107.0 217.5 Q 107.6 216.7, 107.6 215.6 Q 107.6 214.4, 107.0 213.7 Q 106.4 213.0, 105.5 213.0 " fill="#000000"/>
<path class="legend" d="M 110.3 218.5 Q 110.3 218.1, 110.5 217.8 Q 110.8 217.6, 111.2 217.6 Q 111.7 217.6, 111.9 217.8 Q 112.1 218.1, 112.1 218.5 Q 112.1 218.8, 111.9 219.1 Q 111.7 219.3, 111.2 219.3 Q 110.8 219.3, 110.5 219.1 Q 110.3 218.8, 110.3 218.5 " fill="#000000"/>
<path class="legend" d="M 120.6 215.4 L 122.2 215.4 L 122.2 216.6 L 120.6 216.6 L 120.6 219.2 L 119.2 219.2 L 119.2 216.6 L 114.0 216.6 L 114.0 215.7 L 119.1 207.8 L 120.6 207.8 L 120.6 215.4 M 115.6 215.4 L 119.2 215.4 L 119.2 209.8 L 119.0 210.1 L 115.6 215.4 " fill="#000000"/>
<path class="bond-0 atom-0 atom-1" d="M 249.5,104.0 L 261.6,102.1" style="fill:none;fill-rule:evenodd;stroke:#000000;stroke-width:0.6px;stroke-linecap:butt;stroke-linejoin:miter;stroke-opacity:1"/>
<path class="bond-1 atom-1 atom-2" d="M 261.6,102.1 L 259.9,91.3" style="fill:none;fill-rule:evenodd;stroke:#000000;stroke-width:0.6px;stroke-linecap:butt;stroke-linejoin:miter;stroke-opacity:1"/>
<path class="bond-2 atom-1 atom-3" d="M 261.6,102.1 L 263.3,112.8" style="fill:none;fill-rule:evenodd;stroke:#000000;stroke-width:0.6px;stroke-linecap:butt;stroke-linejoin:miter;stroke-opacity:1"/>
<path class="bond-3 atom-1 atom-4" d="M 261.6,102.1 L 277.1,99.6" style="fill:none;fill-rule:evenodd;stroke:#000000;stroke-width:0.6px;stroke-linecap:butt;stroke-linejoin:miter;stroke-opacity:1"/>
<path class="bond-4 atom-4 atom-5" d="M 277.1,99.6 L 282.8,85.0" style="fill:none;fill-rule:evenodd;stroke:#000000;stroke-width:0.6px;stroke-linecap:butt;stroke-linejoin:miter;stroke-opacity:1"/>
<path class="bond-4 atom-4 atom-5" d="M 280.3,99.1 L 284.8,87.5" style="fill:none;fill-rule:evenodd;stroke:#000000;stroke-width:0.6px;stroke-linecap:butt;stroke-linejoin:miter;stroke-opacity:1"/>
<path class="bond-5 atom-5 atom-6" d="M 282.8,85.0 L 298.3,82.5" style="fill:none;fill-rule:evenodd;stroke:#000000;stroke-width:0.6px;stroke-linecap:butt;stroke-linejoin:miter;stroke-opacity:1"/>
<path class="bond-6 atom-6 atom-7" d="M 298.3,82.5 L 308.2,94.8" style="fill:none;fill-rule:evenodd;stroke:#000000;stroke-width:0.6px;stroke-linecap:butt;stroke-linejoin:miter;stroke-opacity:1"/>
<path class="bond-6 atom-6 atom-7" d="M 297.1,85.6 L 304.9,95.3" style="fill:none;fill-rule:evenodd;stroke:#000000;stroke-width:0.6px;stroke-linecap:butt;stroke-linejoin:miter;stroke-opacity:1"/>
<path class="bond-7 atom-7 atom-8" d="M 308.2,94.8 L 319.7,92.9" style="fill:none;fill-rule:evenodd;stroke:#000000;stroke-width:0.6px;stroke-linecap:butt;stroke-linejoin:miter;stroke-opacity:1"/>
<path class="bond-8 atom-8 atom-9" d="M 327.5,97.1 L 333.6,104.5" style="fill:none;fill-rule:evenodd;stroke:#000000;stroke-width:0.6px;stroke-linecap:butt;stroke-linejoin:miter;stroke-opacity:1"/>
<path class="bond-9 atom-9 atom-10" d="M 333.6,104.5 L 330.8,115.0" style="fill:none;fill-rule:evenodd;stroke:#000000;stroke-width:0.6px;stroke-linecap:butt;stroke-linejoin:miter;stroke-opacity:1"/>
<path class="bond-9 atom-9 atom-10" d="M 335.8,107.3 L 333.5,115.7" style="fill:none;fill-rule:evenodd;stroke:#000000;stroke-width:0.6px;stroke-linecap:butt;stroke-linejoin:miter;stroke-opacity:1"/>
<path class="bond-10 atom-10 atom-11" d="M 333.4,122.3 L 338.6,125.6" style="fill:none;fill-rule:evenodd;stroke:#000000;stroke-width:0.6px;stroke-linecap:butt;stroke-linejoin:miter;stroke-opacity:1"/>
<path class="bond-11 atom-11 atom-12" d="M 346.7,125.0 L 354.9,118.4" style="fill:none;fill-rule:evenodd;stroke:#000000;stroke-width:0.6px;stroke-linecap:butt;stroke-linejoin:miter;stroke-opacity:1"/>
<path class="bond-12 atom-12 atom-13" d="M 354.9,118.4 L 370.4,120.9" style="fill:none;fill-rule:evenodd;stroke:#000000;stroke-width:0.6px;stroke-linecap:butt;stroke-linejoin:miter;stroke-opacity:1"/>
<path class="bond-12 atom-12 atom-13" d="M 356.9,115.9 L 369.2,117.8" style="fill:none;fill-rule:evenodd;stroke:#000000;stroke-width:0.6px;stroke-linecap:butt;stroke-linejoin:miter;stroke-opacity:1"/>
<path class="bond-13 atom-13 atom-14" d="M 370.4,120.9 L 380.3,108.7" style="fill:none;fill-rule:evenodd;stroke:#000000;stroke-width:0.6px;stroke-linecap:butt;stroke-linejoin:miter;stroke-opacity:1"/>
<path class="bond-14 atom-14 atom-15" d="M 380.3,108.7 L 395.8,111.2" style="fill:none;fill-rule:evenodd;stroke:#000000;stroke-width:0.6px;stroke-linecap:butt;stroke-linejoin:miter;stroke-opacity:1"/>
<path class="bond-15 atom-15 atom-16" d="M 395.8,111.2 L 401.4,125.8" style="fill:none;fill-rule:evenodd;stroke:#000000;stroke-width:0.6px;stroke-linecap:butt;stroke-linejoin:miter;stroke-opacity:1"/>
<path class="bond-15 atom-15 atom-16" d="M 399.0,111.7 L 403.5,123.3" style="fill:none;fill-rule:evenodd;stroke:#000000;stroke-width:0.6px;stroke-linecap:butt;stroke-linejoin:miter;stroke-opacity:1"/>
<path class="bond-16 atom-16 atom-17" d="M 401.4,125.8 L 416.9,128.3" style="fill:none;fill-rule:evenodd;stroke:#000000;stroke-width:0.6px;stroke-linecap:butt;stroke-linejoin:miter;stroke-opacity:1"/>
<path class="bond-17 atom-17 atom-18" d="M 416.9,128.3 L 426.9,116.1" style="fill:none;fill-rule:evenodd;stroke:#000000;stroke-width:0.6px;stroke-linecap:butt;stroke-linejoin:miter;stroke-opacity:1"/>
<path class="bond-17 atom-17 atom-18" d="M 415.8,125.3 L 423.6,115.6" style="fill:none;fill-rule:evenodd;stroke:#000000;stroke-width:0.6px;stroke-linecap:butt;stroke-linejoin:miter;stroke-opacity:1"/>
<path class="bond-18 atom-18 atom-19" d="M 426.9,116.1 L 421.2,101.4" style="fill:none;fill-rule:evenodd;stroke:#000000;stroke-width:0.6px;stroke-linecap:butt;stroke-linejoin:miter;stroke-opacity:1"/>
<path class="bond-19 atom-19 atom-20" d="M 421.2,101.4 L 431.1,89.2" style="fill:none;fill-rule:evenodd;stroke:#000000;stroke-width:0.6px;stroke-linecap:butt;stroke-linejoin:miter;stroke-opacity:1"/>
<path class="bond-19 atom-19 atom-20" d="M 420.1,98.4 L 427.9,88.7" style="fill:none;fill-rule:evenodd;stroke:#000000;stroke-width:0.6px;stroke-linecap:butt;stroke-linejoin:miter;stroke-opacity:1"/>
<path class="bond-20 atom-20 atom-21" d="M 431.1,89.2 L 427.3,79.3" style="fill:none;fill-rule:evenodd;stroke:#000000;stroke-width:0.6px;stroke-linecap:butt;stroke-linejoin:miter;stroke-opacity:1"/>
<path class="bond-21 atom-21 atom-22" d="M 421.6,73.9 L 410.0,72.1" style="fill:none;fill-rule:evenodd;stroke:#000000;stroke-width:0.6px;stroke-linecap:butt;stroke-linejoin:miter;stroke-opacity:1"/>
<path class="bond-21 atom-21 atom-22" d="M 421.1,76.7 L 411.2,75.1" style="fill:none;fill-rule:evenodd;stroke:#000000;stroke-width:0.6px;stroke-linecap:butt;stroke-linejoin:miter;stroke-opacity:1"/>
<path class="bond-22 atom-22 atom-23" d="M 410.0,72.1 L 400.1,84.3" style="fill:none;fill-rule:evenodd;stroke:#000000;stroke-width:0.6px;stroke-linecap:butt;stroke-linejoin:miter;stroke-opacity:1"/>
<path class="bond-23 atom-23 atom-24" d="M 400.1,84.3 L 405.7,99.0" style="fill:none;fill-rule:evenodd;stroke:#000000;stroke-width:0.6px;stroke-linecap:butt;stroke-linejoin:miter;stroke-opacity:1"/>
<path class="bond-23 atom-23 atom-24" d="M 403.3,84.8 L 407.8,96.4" style="fill:none;fill-rule:evenodd;stroke:#000000;stroke-width:0.6px;stroke-linecap:butt;stroke-linejoin:miter;stroke-opacity:1"/>
<path class="bond-24 atom-14 atom-25" d="M 380.3,108.7 L 374.7,94.0" style="fill:none;fill-rule:evenodd;stroke:#000000;stroke-width:0.6px;stroke-linecap:butt;stroke-linejoin:miter;stroke-opacity:1"/>
<path class="bond-24 atom-14 atom-25" d="M 377.1,108.2 L 372.6,96.5" style="fill:none;fill-rule:evenodd;stroke:#000000;stroke-width:0.6px;stroke-linecap:butt;stroke-linejoin:miter;stroke-opacity:1"/>
<path class="bond-25 atom-25 atom-26" d="M 374.7,94.0 L 359.2,91.5" style="fill:none;fill-rule:evenodd;stroke:#000000;stroke-width:0.6px;stroke-linecap:butt;stroke-linejoin:miter;stroke-opacity:1"/>
<path class="bond-26 atom-26 atom-27" d="M 359.2,91.5 L 349.3,103.7" style="fill:none;fill-rule:evenodd;stroke:#000000;stroke-width:0.6px;stroke-linecap:butt;stroke-linejoin:miter;stroke-opacity:1"/>
<path class="bond-26 atom-26 atom-27" d="M 360.3,94.6 L 352.5,104.3" style="fill:none;fill-rule:evenodd;stroke:#000000;stroke-width:0.6px;stroke-linecap:butt;stroke-linejoin:miter;stroke-opacity:1"/>
<path class="bond-27 atom-7 atom-28" d="M 308.2,94.8 L 302.5,109.4" style="fill:none;fill-rule:evenodd;stroke:#000000;stroke-width:0.6px;stroke-linecap:butt;stroke-linejoin:miter;stroke-opacity:1"/>
<path class="bond-28 atom-28 atom-29" d="M 302.5,109.4 L 287.0,111.9" style="fill:none;fill-rule:evenodd;stroke:#000000;stroke-width:0.6px;stroke-linecap:butt;stroke-linejoin:miter;stroke-opacity:1"/>
<path class="bond-28 atom-28 atom-29" d="M 300.5,106.9 L 288.2,108.8" style="fill:none;fill-rule:evenodd;stroke:#000000;stroke-width:0.6px;stroke-linecap:butt;stroke-linejoin:miter;stroke-opacity:1"/>
<path class="bond-29 atom-29 atom-4" d="M 287.0,111.9 L 277.1,99.6" style="fill:none;fill-rule:evenodd;stroke:#000000;stroke-width:0.6px;stroke-linecap:butt;stroke-linejoin:miter;stroke-opacity:1"/>
<path class="bond-30 atom-27 atom-9" d="M 349.3,103.7 L 333.6,104.5" style="fill:none;fill-rule:evenodd;stroke:#000000;stroke-width:0.6px;stroke-linecap:butt;stroke-linejoin:miter;stroke-opacity:1"/>
<path class="bond-31 atom-27 atom-12" d="M 349.3,103.7 L 354.9,118.4" style="fill:none;fill-rule:evenodd;stroke:#000000;stroke-width:0.6px;stroke-linecap:butt;stroke-linejoin:miter;stroke-opacity:1"/>
<path class="bond-32 atom-24 atom-15" d="M 405.7,99.0 L 395.8,111.2" style="fill:none;fill-rule:evenodd;stroke:#000000;stroke-width:0.6px;stroke-linecap:butt;stroke-linejoin:miter;stroke-opacity:1"/>
<path class="bond-33 atom-24 atom-19" d="M 405.7,99.0 L 421.2,101.4" style="fill:none;fill-rule:evenodd;stroke:#000000;stroke-width:0.6px;stroke-linecap:butt;stroke-linejoin:miter;stroke-opacity:1"/>
<path d="M 282.5,85.7 L 282.8,85.0 L 283.5,84.9" style="fill:none;stroke:#000000;stroke-width:0.6px;stroke-linecap:butt;stroke-linejoin:miter;stroke-opacity:1;"/>
<path d="M 297.5,82.7 L 298.3,82.5 L 298.8,83.2" style="fill:none;stroke:#000000;stroke-width:0.6px;stroke-linecap:butt;stroke-linejoin:miter;stroke-opacity:1;"/>
<path d="M 369.6,120.8 L 370.4,120.9 L 370.9,120.3" style="fill:none;stroke:#000000;stroke-width:0.6px;stroke-linecap:butt;stroke-linejoin:miter;stroke-opacity:1;"/>
<path d="M 401.1,125.1 L 401.4,125.8 L 402.2,126.0" style="fill:none;stroke:#000000;stroke-width:0.6px;stroke-linecap:butt;stroke-linejoin:miter;stroke-opacity:1;"/>
<path d="M 416.2,128.2 L 416.9,128.3 L 417.4,127.7" style="fill:none;stroke:#000000;stroke-width:0.6px;stroke-linecap:butt;stroke-linejoin:miter;stroke-opacity:1;"/>
<path d="M 426.4,116.7 L 426.9,116.1 L 426.6,115.4" style="fill:none;stroke:#000000;stroke-width:0.6px;stroke-linecap:butt;stroke-linejoin:miter;stroke-opacity:1;"/>
<path d="M 430.6,89.8 L 431.1,89.2 L 431.0,88.7" style="fill:none;stroke:#000000;stroke-width:0.6px;stroke-linecap:butt;stroke-linejoin:miter;stroke-opacity:1;"/>
<path d="M 410.6,72.2 L 410.0,72.1 L 409.5,72.7" style="fill:none;stroke:#000000;stroke-width:0.6px;stroke-linecap:butt;stroke-linejoin:miter;stroke-opacity:1;"/>
<path d="M 400.6,83.7 L 400.1,84.3 L 400.4,85.0" style="fill:none;stroke:#000000;stroke-width:0.6px;stroke-linecap:butt;stroke-linejoin:miter;stroke-opacity:1;"/>
<path d="M 375.0,94.7 L 374.7,94.0 L 373.9,93.9" style="fill:none;stroke:#000000;stroke-width:0.6px;stroke-linecap:butt;stroke-linejoin:miter;stroke-opacity:1;"/>
<path d="M 359.9,91.7 L 359.2,91.5 L 358.7,92.1" style="fill:none;stroke:#000000;stroke-width:0.6px;stroke-linecap:butt;stroke-linejoin:miter;stroke-opacity:1;"/>
<path d="M 302.8,108.7 L 302.5,109.4 L 301.7,109.6" style="fill:none;stroke:#000000;stroke-width:0.6px;stroke-linecap:butt;stroke-linejoin:miter;stroke-opacity:1;"/>
<path d="M 287.8,111.7 L 287.0,111.9 L 286.5,111.3" style="fill:none;stroke:#000000;stroke-width:0.6px;stroke-linecap:butt;stroke-linejoin:miter;stroke-opacity:1;"/>
<path class="atom-0" d="M 247.8 104.9 L 244.8 104.9 L 244.8 108.1 L 243.9 108.1 L 243.9 101.0 L 248.3 101.0 L 248.3 101.7 L 244.8 101.7 L 244.8 104.2 L 247.8 104.2 L 247.8 104.9 " fill="#000000"/>
<path class="atom-2" d="M 260.9 87.0 L 257.9 87.0 L 257.9 90.1 L 256.9 90.1 L 256.9 83.0 L 261.3 83.0 L 261.3 83.8 L 257.9 83.8 L 257.9 86.2 L 260.9 86.2 L 260.9 87.0 " fill="#000000"/>
<path class="atom-3" d="M 265.7 118.0 L 262.8 118.0 L 262.8 121.2 L 261.8 121.2 L 261.8 114.1 L 266.2 114.1 L 266.2 114.8 L 262.8 114.8 L 262.8 117.3 L 265.7 117.3 L 265.7 118.0 " fill="#000000"/>
<path class="atom-8" d="M 326.4 95.9 L 325.5 95.9 L 321.9 90.4 L 321.9 95.9 L 321.0 95.9 L 321.0 88.8 L 321.9 88.8 L 325.5 94.3 L 325.5 88.8 L 326.4 88.8 L 326.4 95.9 " fill="#000000"/>
<path class="atom-8" d="M 333.3 95.9 L 332.3 95.9 L 332.3 92.6 L 328.7 92.6 L 328.7 95.9 L 327.8 95.9 L 327.8 88.8 L 328.7 88.8 L 328.7 91.8 L 332.3 91.8 L 332.3 88.8 L 333.3 88.8 L 333.3 95.9 " fill="#000000"/>
<path class="atom-10" d="M 332.2 123.3 L 331.3 123.3 L 327.7 117.8 L 327.7 123.3 L 326.7 123.3 L 326.7 116.2 L 327.7 116.2 L 331.3 121.7 L 331.3 116.2 L 332.2 116.2 L 332.2 123.3 " fill="#000000"/>
<path class="atom-11" d="M 345.5 128.6 Q 345.5 129.6, 345.2 130.4 Q 344.8 131.2, 344.2 131.6 Q 343.5 132.0, 342.7 132.0 Q 341.8 132.0, 341.2 131.6 Q 340.5 131.2, 340.2 130.4 Q 339.8 129.6, 339.8 128.6 L 339.8 128.1 Q 339.8 127.1, 340.1 126.3 Q 340.5 125.5, 341.2 125.1 Q 341.8 124.7, 342.6 124.7 Q 343.5 124.7, 344.1 125.1 Q 344.8 125.5, 345.2 126.3 Q 345.5 127.1, 345.5 128.1 L 345.5 128.6 M 344.6 128.1 Q 344.6 126.8, 344.1 126.2 Q 343.6 125.5, 342.6 125.5 Q 341.8 125.5, 341.2 126.2 Q 340.7 126.8, 340.7 128.1 L 340.7 128.6 Q 340.7 129.8, 341.2 130.5 Q 341.8 131.2, 342.7 131.2 Q 343.6 131.2, 344.1 130.5 Q 344.6 129.9, 344.6 128.6 L 344.6 128.1 " fill="#000000"/>
<path class="atom-21" d="M 428.3 78.1 L 427.3 78.1 L 423.7 72.6 L 423.7 78.1 L 422.8 78.1 L 422.8 71.0 L 423.7 71.0 L 427.3 76.5 L 427.3 71.0 L 428.3 71.0 L 428.3 78.1 " fill="#000000"/>
<path class="legend" d="M 334.5 208.7 L 329.8 219.3 L 328.3 219.3 L 333.0 209.1 L 326.8 209.1 L 326.8 207.9 L 334.5 207.9 L 334.5 208.7 " fill="#000000"/>
<path class="legend" d="M 335.8 218.5 Q 335.8 218.2, 336.0 217.9 Q 336.2 217.7, 336.7 217.7 Q 337.1 217.7, 337.4 217.9 Q 337.6 218.2, 337.6 218.5 Q 337.6 218.9, 337.4 219.1 Q 337.1 219.4, 336.7 219.4 Q 336.2 219.4, 336.0 219.1 Q 335.8 218.9, 335.8 218.5 " fill="#000000"/>
<path class="legend" d="M 347.2 208.7 L 342.4 219.3 L 340.9 219.3 L 345.6 209.1 L 339.5 209.1 L 339.5 207.9 L 347.2 207.9 L 347.2 208.7 " fill="#000000"/>
<path class="bond-0 atom-0 atom-1" d="M 460.2,105.8 L 474.0,98.2" style="fill:none;fill-rule:evenodd;stroke:#000000;stroke-width:0.6px;stroke-linecap:butt;stroke-linejoin:miter;stroke-opacity:1"/>
<path class="bond-1 atom-1 atom-2" d="M 474.0,98.2 L 487.4,106.3" style="fill:none;fill-rule:evenodd;stroke:#000000;stroke-width:0.6px;stroke-linecap:butt;stroke-linejoin:miter;stroke-opacity:1"/>
<path class="bond-2 atom-2 atom-3" d="M 487.4,106.3 L 501.2,98.7" style="fill:none;fill-rule:evenodd;stroke:#000000;stroke-width:0.6px;stroke-linecap:butt;stroke-linejoin:miter;stroke-opacity:1"/>
<path class="bond-3 atom-3 atom-4" d="M 501.2,98.7 L 514.7,106.8" style="fill:none;fill-rule:evenodd;stroke:#000000;stroke-width:0.6px;stroke-linecap:butt;stroke-linejoin:miter;stroke-opacity:1"/>
<path class="bond-4 atom-4 atom-5" d="M 514.7,106.8 L 524.3,101.4" style="fill:none;fill-rule:evenodd;stroke:#000000;stroke-width:0.6px;stroke-linecap:butt;stroke-linejoin:miter;stroke-opacity:1"/>
<path class="bond-5 atom-5 atom-6" d="M 532.5,101.6 L 541.9,107.3" style="fill:none;fill-rule:evenodd;stroke:#000000;stroke-width:0.6px;stroke-linecap:butt;stroke-linejoin:miter;stroke-opacity:1"/>
<path class="bond-6 atom-6 atom-7" d="M 540.4,106.4 L 540.2,118.1" style="fill:none;fill-rule:evenodd;stroke:#000000;stroke-width:0.6px;stroke-linecap:butt;stroke-linejoin:miter;stroke-opacity:1"/>
<path class="bond-6 atom-6 atom-7" d="M 543.4,106.4 L 543.1,118.2" style="fill:none;fill-rule:evenodd;stroke:#000000;stroke-width:0.6px;stroke-linecap:butt;stroke-linejoin:miter;stroke-opacity:1"/>
<path class="bond-7 atom-6 atom-8" d="M 541.9,107.3 L 555.6,99.6" style="fill:none;fill-rule:evenodd;stroke:#000000;stroke-width:0.6px;stroke-linecap:butt;stroke-linejoin:miter;stroke-opacity:1"/>
<path class="bond-8 atom-8 atom-9" d="M 555.6,99.6 L 555.9,83.9" style="fill:none;fill-rule:evenodd;stroke:#000000;stroke-width:0.6px;stroke-linecap:butt;stroke-linejoin:miter;stroke-opacity:1"/>
<path class="bond-9 atom-9 atom-10" d="M 555.9,83.9 L 569.7,76.3" style="fill:none;fill-rule:evenodd;stroke:#000000;stroke-width:0.6px;stroke-linecap:butt;stroke-linejoin:miter;stroke-opacity:1"/>
<path class="bond-10 atom-10 atom-11" d="M 569.7,76.3 L 583.1,84.4" style="fill:none;fill-rule:evenodd;stroke:#000000;stroke-width:0.6px;stroke-linecap:butt;stroke-linejoin:miter;stroke-opacity:1"/>
<path class="bond-11 atom-11 atom-12" d="M 583.1,84.4 L 582.8,100.1" style="fill:none;fill-rule:evenodd;stroke:#000000;stroke-width:0.6px;stroke-linecap:butt;stroke-linejoin:miter;stroke-opacity:1"/>
<path class="bond-12 atom-12 atom-13" d="M 582.8,100.1 L 592.3,105.9" style="fill:none;fill-rule:evenodd;stroke:#000000;stroke-width:0.6px;stroke-linecap:butt;stroke-linejoin:miter;stroke-opacity:1"/>
<path class="bond-13 atom-13 atom-14" d="M 600.3,106.1 L 610.1,100.6" style="fill:none;fill-rule:evenodd;stroke:#000000;stroke-width:0.6px;stroke-linecap:butt;stroke-linejoin:miter;stroke-opacity:1"/>
<path class="bond-14 atom-14 atom-15" d="M 611.5,101.5 L 611.7,89.9" style="fill:none;fill-rule:evenodd;stroke:#000000;stroke-width:0.6px;stroke-linecap:butt;stroke-linejoin:miter;stroke-opacity:1"/>
<path class="bond-14 atom-14 atom-15" d="M 608.6,101.5 L 608.8,89.8" style="fill:none;fill-rule:evenodd;stroke:#000000;stroke-width:0.6px;stroke-linecap:butt;stroke-linejoin:miter;stroke-opacity:1"/>
<path class="bond-15 atom-14 atom-16" d="M 610.1,100.6 L 619.6,106.4" style="fill:none;fill-rule:evenodd;stroke:#000000;stroke-width:0.6px;stroke-linecap:butt;stroke-linejoin:miter;stroke-opacity:1"/>
<path class="bond-16 atom-16 atom-17" d="M 627.5,106.6 L 637.3,101.1" style="fill:none;fill-rule:evenodd;stroke:#000000;stroke-width:0.6px;stroke-linecap:butt;stroke-linejoin:miter;stroke-opacity:1"/>
<path class="bond-17 atom-17 atom-18" d="M 637.3,101.1 L 650.7,109.2" style="fill:none;fill-rule:evenodd;stroke:#000000;stroke-width:0.6px;stroke-linecap:butt;stroke-linejoin:miter;stroke-opacity:1"/>
<path class="bond-18 atom-18 atom-19" d="M 650.7,109.2 L 664.5,101.6" style="fill:none;fill-rule:evenodd;stroke:#000000;stroke-width:0.6px;stroke-linecap:butt;stroke-linejoin:miter;stroke-opacity:1"/>
<path class="bond-19 atom-19 atom-20" d="M 664.5,101.6 L 664.8,85.9" style="fill:none;fill-rule:evenodd;stroke:#000000;stroke-width:0.6px;stroke-linecap:butt;stroke-linejoin:miter;stroke-opacity:1"/>
<path class="bond-20 atom-20 atom-21" d="M 664.8,85.9 L 651.3,77.8" style="fill:none;fill-rule:evenodd;stroke:#000000;stroke-width:0.6px;stroke-linecap:butt;stroke-linejoin:miter;stroke-opacity:1"/>
<path class="bond-21 atom-21 atom-22" d="M 651.3,77.8 L 642.8,111.2" style="fill:none;fill-rule:evenodd;stroke:#000000;stroke-width:0.6px;stroke-linecap:butt;stroke-linejoin:miter;stroke-opacity:1"/>
<path class="bond-22 atom-22 atom-23" d="M 642.8,111.2 L 650.4,125.0" style="fill:none;fill-rule:evenodd;stroke:#000000;stroke-width:0.6px;stroke-linecap:butt;stroke-linejoin:miter;stroke-opacity:1"/>
<path class="bond-23 atom-23 atom-24" d="M 650.4,125.0 L 664.2,117.4" style="fill:none;fill-rule:evenodd;stroke:#000000;stroke-width:0.6px;stroke-linecap:butt;stroke-linejoin:miter;stroke-opacity:1"/>
<path class="bond-24 atom-23 atom-25" d="M 650.4,125.0 L 637.0,116.9" style="fill:none;fill-rule:evenodd;stroke:#000000;stroke-width:0.6px;stroke-linecap:butt;stroke-linejoin:miter;stroke-opacity:1"/>
<path class="bond-25 atom-21 atom-26" d="M 651.3,77.8 L 637.6,85.4" style="fill:none;fill-rule:evenodd;stroke:#000000;stroke-width:0.6px;stroke-linecap:butt;stroke-linejoin:miter;stroke-opacity:1"/>
<path class="bond-26 atom-12 atom-27" d="M 582.8,100.1 L 569.1,107.8" style="fill:none;fill-rule:evenodd;stroke:#000000;stroke-width:0.6px;stroke-linecap:butt;stroke-linejoin:miter;stroke-opacity:1"/>
<path class="bond-27 atom-27 atom-8" d="M 569.1,107.8 L 555.6,99.6" style="fill:none;fill-rule:evenodd;stroke:#000000;stroke-width:0.6px;stroke-linecap:butt;stroke-linejoin:miter;stroke-opacity:1"/>
<path class="bond-28 atom-25 atom-17" d="M 637.0,116.9 L 637.3,101.1" style="fill:none;fill-rule:evenodd;stroke:#000000;stroke-width:0.6px;stroke-linecap:butt;stroke-linejoin:miter;stroke-opacity:1"/>
<path class="bond-29 atom-26 atom-17" d="M 637.6,85.4 L 637.3,101.1" style="fill:none;fill-rule:evenodd;stroke:#000000;stroke-width:0.6px;stroke-linecap:butt;stroke-linejoin:miter;stroke-opacity:1"/>
<path class="bond-30 atom-24 atom-19" d="M 664.2,117.4 L 664.5,101.6" style="fill:none;fill-rule:evenodd;stroke:#000000;stroke-width:0.6px;stroke-linecap:butt;stroke-linejoin:miter;stroke-opacity:1"/>
<path d="M 473.3,98.5 L 474.0,98.2 L 474.7,98.6" style="fill:none;stroke:#000000;stroke-width:0.6px;stroke-linecap:butt;stroke-linejoin:miter;stroke-opacity:1;"/>
<path d="M 486.8,105.9 L 487.4,106.3 L 488.1,105.9" style="fill:none;stroke:#000000;stroke-width:0.6px;stroke-linecap:butt;stroke-linejoin:miter;stroke-opacity:1;"/>
<path d="M 500.5,99.0 L 501.2,98.7 L 501.9,99.1" style="fill:none;stroke:#000000;stroke-width:0.6px;stroke-linecap:butt;stroke-linejoin:miter;stroke-opacity:1;"/>
<path d="M 514.0,106.4 L 514.7,106.8 L 515.1,106.5" style="fill:none;stroke:#000000;stroke-width:0.6px;stroke-linecap:butt;stroke-linejoin:miter;stroke-opacity:1;"/>
<path d="M 541.4,107.0 L 541.9,107.3 L 542.6,106.9" style="fill:none;stroke:#000000;stroke-width:0.6px;stroke-linecap:butt;stroke-linejoin:miter;stroke-opacity:1;"/>
<path d="M 555.9,84.7 L 555.9,83.9 L 556.6,83.6" style="fill:none;stroke:#000000;stroke-width:0.6px;stroke-linecap:butt;stroke-linejoin:miter;stroke-opacity:1;"/>
<path d="M 569.0,76.7 L 569.7,76.3 L 570.3,76.7" style="fill:none;stroke:#000000;stroke-width:0.6px;stroke-linecap:butt;stroke-linejoin:miter;stroke-opacity:1;"/>
<path d="M 582.5,84.0 L 583.1,84.4 L 583.1,85.2" style="fill:none;stroke:#000000;stroke-width:0.6px;stroke-linecap:butt;stroke-linejoin:miter;stroke-opacity:1;"/>
<path d="M 609.6,100.9 L 610.1,100.6 L 610.5,100.9" style="fill:none;stroke:#000000;stroke-width:0.6px;stroke-linecap:butt;stroke-linejoin:miter;stroke-opacity:1;"/>
<path d="M 650.1,108.8 L 650.7,109.2 L 651.4,108.9" style="fill:none;stroke:#000000;stroke-width:0.6px;stroke-linecap:butt;stroke-linejoin:miter;stroke-opacity:1;"/>
<path d="M 664.8,86.7 L 664.8,85.9 L 664.1,85.5" style="fill:none;stroke:#000000;stroke-width:0.6px;stroke-linecap:butt;stroke-linejoin:miter;stroke-opacity:1;"/>
<path d="M 643.3,109.5 L 642.8,111.2 L 643.2,111.9" style="fill:none;stroke:#000000;stroke-width:0.6px;stroke-linecap:butt;stroke-linejoin:miter;stroke-opacity:1;"/>
<path d="M 663.5,117.7 L 664.2,117.4 L 664.2,116.6" style="fill:none;stroke:#000000;stroke-width:0.6px;stroke-linecap:butt;stroke-linejoin:miter;stroke-opacity:1;"/>
<path d="M 637.7,117.3 L 637.0,116.9 L 637.0,116.1" style="fill:none;stroke:#000000;stroke-width:0.6px;stroke-linecap:butt;stroke-linejoin:miter;stroke-opacity:1;"/>
<path d="M 638.2,85.0 L 637.6,85.4 L 637.5,86.2" style="fill:none;stroke:#000000;stroke-width:0.6px;stroke-linecap:butt;stroke-linejoin:miter;stroke-opacity:1;"/>
<path d="M 569.8,107.4 L 569.1,107.8 L 568.4,107.3" style="fill:none;stroke:#000000;stroke-width:0.6px;stroke-linecap:butt;stroke-linejoin:miter;stroke-opacity:1;"/>
<path class="atom-5" d="M 531.3 99.4 Q 531.3 100.5, 530.9 101.3 Q 530.6 102.0, 529.9 102.4 Q 529.3 102.9, 528.4 102.9 Q 527.6 102.9, 526.9 102.4 Q 526.3 102.0, 525.9 101.3 Q 525.6 100.5, 525.6 99.5 L 525.6 99.0 Q 525.6 98.0, 525.9 97.2 Q 526.3 96.4, 526.9 96.0 Q 527.6 95.5, 528.4 95.5 Q 529.3 95.5, 529.9 96.0 Q 530.6 96.4, 530.9 97.2 Q 531.3 97.9, 531.3 99.0 L 531.3 99.4 M 530.3 99.0 Q 530.3 97.7, 529.8 97.0 Q 529.3 96.4, 528.4 96.4 Q 527.5 96.4, 527.0 97.0 Q 526.5 97.7, 526.5 98.9 L 526.5 99.4 Q 526.5 100.7, 527.0 101.4 Q 527.5 102.1, 528.4 102.1 Q 529.3 102.1, 529.8 101.4 Q 530.3 100.7, 530.3 99.5 L 530.3 99.0 " fill="#000000"/>
<path class="atom-7" d="M 544.4 123.2 Q 544.4 124.3, 544.1 125.1 Q 543.7 125.9, 543.1 126.3 Q 542.5 126.7, 541.6 126.7 Q 540.8 126.7, 540.1 126.3 Q 539.5 125.8, 539.1 125.1 Q 538.7 124.3, 538.7 123.3 L 538.7 122.8 Q 538.7 121.8, 539.1 121.0 Q 539.4 120.2, 540.1 119.8 Q 540.7 119.4, 541.6 119.4 Q 542.4 119.4, 543.1 119.8 Q 543.7 120.2, 544.1 121.0 Q 544.4 121.8, 544.4 122.8 L 544.4 123.2 M 543.5 122.8 Q 543.5 121.5, 543.0 120.9 Q 542.5 120.2, 541.6 120.2 Q 540.7 120.2, 540.2 120.9 Q 539.7 121.5, 539.7 122.7 L 539.7 123.2 Q 539.7 124.5, 540.2 125.2 Q 540.7 125.9, 541.6 125.9 Q 542.5 125.9, 543.0 125.2 Q 543.5 124.6, 543.5 123.3 L 543.5 122.8 " fill="#000000"/>
<path class="atom-13" d="M 599.0 111.8 L 598.1 111.8 L 594.5 106.3 L 594.5 111.8 L 593.6 111.8 L 593.6 104.7 L 594.5 104.7 L 598.1 110.2 L 598.1 104.7 L 599.0 104.7 L 599.0 111.8 " fill="#000000"/>
<path class="atom-13" d="M 599.0 119.6 L 598.1 119.6 L 598.1 116.3 L 594.5 116.3 L 594.5 119.6 L 593.6 119.6 L 593.6 112.5 L 594.5 112.5 L 594.5 115.6 L 598.1 115.6 L 598.1 112.5 L 599.0 112.5 L 599.0 119.6 " fill="#000000"/>
<path class="atom-15" d="M 613.2 85.2 Q 613.2 86.3, 612.8 87.0 Q 612.5 87.8, 611.9 88.2 Q 611.2 88.6, 610.3 88.6 Q 609.5 88.6, 608.9 88.2 Q 608.2 87.8, 607.8 87.0 Q 607.5 86.3, 607.5 85.3 L 607.5 84.8 Q 607.5 83.7, 607.8 82.9 Q 608.2 82.2, 608.8 81.7 Q 609.5 81.3, 610.3 81.3 Q 611.2 81.3, 611.8 81.7 Q 612.5 82.2, 612.8 82.9 Q 613.2 83.7, 613.2 84.8 L 613.2 85.2 M 612.3 84.8 Q 612.3 83.5, 611.8 82.8 Q 611.3 82.1, 610.3 82.1 Q 609.5 82.1, 608.9 82.8 Q 608.4 83.5, 608.4 84.7 L 608.4 85.2 Q 608.4 86.4, 608.9 87.1 Q 609.4 87.8, 610.3 87.8 Q 611.3 87.8, 611.8 87.2 Q 612.3 86.5, 612.3 85.3 L 612.3 84.8 " fill="#000000"/>
<path class="atom-16" d="M 626.3 112.3 L 625.3 112.3 L 621.7 106.8 L 621.7 112.3 L 620.8 112.3 L 620.8 105.2 L 621.7 105.2 L 625.3 110.7 L 625.3 105.2 L 626.3 105.2 L 626.3 112.3 " fill="#000000"/>
<path class="atom-16" d="M 626.3 120.1 L 625.3 120.1 L 625.3 116.8 L 621.7 116.8 L 621.7 120.1 L 620.8 120.1 L 620.8 113.0 L 621.7 113.0 L 621.7 116.1 L 625.3 116.1 L 625.3 113.0 L 626.3 113.0 L 626.3 120.1 " fill="#000000"/>
<path class="legend" d="M 559.0 210.8 Q 559.0 211.7, 558.5 212.3 Q 558.1 213.0, 557.3 213.4 Q 558.2 213.8, 558.7 214.5 Q 559.2 215.2, 559.2 216.1 Q 559.2 217.6, 558.2 218.5 Q 557.2 219.4, 555.6 219.4 Q 554.0 219.4, 553.0 218.5 Q 552.0 217.6, 552.0 216.1 Q 552.0 215.2, 552.5 214.5 Q 553.0 213.7, 553.9 213.4 Q 553.1 213.0, 552.7 212.3 Q 552.3 211.7, 552.3 210.8 Q 552.3 209.4, 553.2 208.5 Q 554.1 207.7, 555.6 207.7 Q 557.1 207.7, 558.0 208.5 Q 559.0 209.4, 559.0 210.8 M 557.8 216.1 Q 557.8 215.2, 557.2 214.6 Q 556.6 214.0, 555.6 214.0 Q 554.6 214.0, 554.0 214.6 Q 553.4 215.1, 553.4 216.1 Q 553.4 217.1, 554.0 217.6 Q 554.6 218.2, 555.6 218.2 Q 556.6 218.2, 557.2 217.6 Q 557.8 217.1, 557.8 216.1 M 555.6 208.9 Q 554.8 208.9, 554.2 209.4 Q 553.7 209.9, 553.7 210.8 Q 553.7 211.7, 554.2 212.2 Q 554.8 212.8, 555.6 212.8 Q 556.5 212.8, 557.0 212.2 Q 557.5 211.7, 557.5 210.8 Q 557.5 210.0, 557.0 209.4 Q 556.4 208.9, 555.6 208.9 " fill="#000000"/>
<path class="legend" d="M 560.7 218.5 Q 560.7 218.1, 560.9 217.8 Q 561.1 217.6, 561.6 217.6 Q 562.0 217.6, 562.2 217.8 Q 562.5 218.1, 562.5 218.5 Q 562.5 218.8, 562.2 219.1 Q 562.0 219.3, 561.6 219.3 Q 561.1 219.3, 560.9 219.1 Q 560.7 218.8, 560.7 218.5 " fill="#000000"/>
<path class="legend" d="M 572.0 208.7 L 567.3 219.2 L 565.8 219.2 L 570.5 209.0 L 564.3 209.0 L 564.3 207.8 L 572.0 207.8 L 572.0 208.7 " fill="#000000"/>
</svg>